%TF.GenerationSoftware,KiCad,Pcbnew,7.0.9*%
%TF.CreationDate,2024-05-26T02:26:49+09:00*%
%TF.ProjectId,adaptor,61646170-746f-4722-9e6b-696361645f70,rev?*%
%TF.SameCoordinates,Original*%
%TF.FileFunction,Copper,L1,Top*%
%TF.FilePolarity,Positive*%
%FSLAX46Y46*%
G04 Gerber Fmt 4.6, Leading zero omitted, Abs format (unit mm)*
G04 Created by KiCad (PCBNEW 7.0.9) date 2024-05-26 02:26:49*
%MOMM*%
%LPD*%
G01*
G04 APERTURE LIST*
%TA.AperFunction,ComponentPad*%
%ADD10C,2.500000*%
%TD*%
%TA.AperFunction,ComponentPad*%
%ADD11R,1.700000X1.700000*%
%TD*%
%TA.AperFunction,ComponentPad*%
%ADD12O,1.700000X1.700000*%
%TD*%
%TA.AperFunction,Conductor*%
%ADD13C,0.250000*%
%TD*%
G04 APERTURE END LIST*
D10*
%TO.P,U1,1,VIN*%
%TO.N,/1*%
X89735000Y-98245000D03*
%TO.P,U1,2,GND*%
%TO.N,/2*%
X89735000Y-102055000D03*
%TO.P,U1,3,SDA/TX*%
%TO.N,/3*%
X89735000Y-105865000D03*
%TO.P,U1,4,SCL/RX*%
%TO.N,/4*%
X89735000Y-109675000D03*
%TO.P,U1,5,RESET_N*%
%TO.N,/5*%
X97355000Y-109675000D03*
%TO.P,U1,6,INT*%
%TO.N,/6*%
X97355000Y-105865000D03*
%TO.P,U1,7,GND*%
%TO.N,/7*%
X97355000Y-102055000D03*
%TO.P,U1,8,VOUT*%
%TO.N,/8*%
X97355000Y-98245000D03*
%TD*%
D11*
%TO.P,J2,1,Pin_1*%
%TO.N,/5*%
X97272000Y-115062000D03*
D12*
%TO.P,J2,2,Pin_2*%
%TO.N,/6*%
X94732000Y-115062000D03*
%TO.P,J2,3,Pin_3*%
%TO.N,/7*%
X92192000Y-115062000D03*
%TO.P,J2,4,Pin_4*%
%TO.N,/8*%
X89652000Y-115062000D03*
%TD*%
D11*
%TO.P,J1,1,Pin_1*%
%TO.N,/1*%
X89672000Y-122682000D03*
D12*
%TO.P,J1,2,Pin_2*%
%TO.N,/2*%
X92212000Y-122682000D03*
%TO.P,J1,3,Pin_3*%
%TO.N,/3*%
X94752000Y-122682000D03*
%TO.P,J1,4,Pin_4*%
%TO.N,/4*%
X97292000Y-122682000D03*
%TD*%
D13*
%TO.N,/8*%
X91310000Y-104290000D02*
X97355000Y-98245000D01*
X91310000Y-113404000D02*
X91310000Y-104290000D01*
X89652000Y-115062000D02*
X91310000Y-113404000D01*
%TO.N,/7*%
X92192000Y-107218000D02*
X97355000Y-102055000D01*
X92192000Y-115062000D02*
X92192000Y-107218000D01*
%TO.N,/6*%
X94732000Y-108488000D02*
X97355000Y-105865000D01*
X94732000Y-115062000D02*
X94732000Y-108488000D01*
%TO.N,/5*%
X97272000Y-109758000D02*
X97355000Y-109675000D01*
X97272000Y-115062000D02*
X97272000Y-109758000D01*
%TO.N,/1*%
X88160000Y-121170000D02*
X89672000Y-122682000D01*
X88160000Y-99820000D02*
X88160000Y-121170000D01*
X89735000Y-98245000D02*
X88160000Y-99820000D01*
%TD*%
M02*
