%TF.GenerationSoftware,KiCad,Pcbnew,7.0.9*%
%TF.CreationDate,2024-05-26T02:26:49+09:00*%
%TF.ProjectId,adaptor,61646170-746f-4722-9e6b-696361645f70,rev?*%
%TF.SameCoordinates,Original*%
%TF.FileFunction,Legend,Top*%
%TF.FilePolarity,Positive*%
%FSLAX46Y46*%
G04 Gerber Fmt 4.6, Leading zero omitted, Abs format (unit mm)*
G04 Created by KiCad (PCBNEW 7.0.9) date 2024-05-26 02:26:49*
%MOMM*%
%LPD*%
G01*
G04 APERTURE LIST*
%ADD10C,0.150000*%
%ADD11C,0.120000*%
%ADD12C,2.500000*%
%ADD13R,1.700000X1.700000*%
%ADD14O,1.700000X1.700000*%
G04 APERTURE END LIST*
D10*
X96798095Y-113694819D02*
X96798095Y-114504342D01*
X96798095Y-114504342D02*
X96845714Y-114599580D01*
X96845714Y-114599580D02*
X96893333Y-114647200D01*
X96893333Y-114647200D02*
X96988571Y-114694819D01*
X96988571Y-114694819D02*
X97179047Y-114694819D01*
X97179047Y-114694819D02*
X97274285Y-114647200D01*
X97274285Y-114647200D02*
X97321904Y-114599580D01*
X97321904Y-114599580D02*
X97369523Y-114504342D01*
X97369523Y-114504342D02*
X97369523Y-113694819D01*
X98369523Y-114694819D02*
X97798095Y-114694819D01*
X98083809Y-114694819D02*
X98083809Y-113694819D01*
X98083809Y-113694819D02*
X97988571Y-113837676D01*
X97988571Y-113837676D02*
X97893333Y-113932914D01*
X97893333Y-113932914D02*
X97798095Y-113980533D01*
X90115588Y-96214819D02*
X89544160Y-96214819D01*
X89829874Y-96214819D02*
X89829874Y-95214819D01*
X89829874Y-95214819D02*
X89734636Y-95357676D01*
X89734636Y-95357676D02*
X89639398Y-95452914D01*
X89639398Y-95452914D02*
X89544160Y-95500533D01*
X99056819Y-115395333D02*
X99771104Y-115395333D01*
X99771104Y-115395333D02*
X99913961Y-115442952D01*
X99913961Y-115442952D02*
X100009200Y-115538190D01*
X100009200Y-115538190D02*
X100056819Y-115681047D01*
X100056819Y-115681047D02*
X100056819Y-115776285D01*
X99152057Y-114966761D02*
X99104438Y-114919142D01*
X99104438Y-114919142D02*
X99056819Y-114823904D01*
X99056819Y-114823904D02*
X99056819Y-114585809D01*
X99056819Y-114585809D02*
X99104438Y-114490571D01*
X99104438Y-114490571D02*
X99152057Y-114442952D01*
X99152057Y-114442952D02*
X99247295Y-114395333D01*
X99247295Y-114395333D02*
X99342533Y-114395333D01*
X99342533Y-114395333D02*
X99485390Y-114442952D01*
X99485390Y-114442952D02*
X100056819Y-115014380D01*
X100056819Y-115014380D02*
X100056819Y-114395333D01*
X86796819Y-123015333D02*
X87511104Y-123015333D01*
X87511104Y-123015333D02*
X87653961Y-123062952D01*
X87653961Y-123062952D02*
X87749200Y-123158190D01*
X87749200Y-123158190D02*
X87796819Y-123301047D01*
X87796819Y-123301047D02*
X87796819Y-123396285D01*
X87796819Y-122015333D02*
X87796819Y-122586761D01*
X87796819Y-122301047D02*
X86796819Y-122301047D01*
X86796819Y-122301047D02*
X86939676Y-122396285D01*
X86939676Y-122396285D02*
X87034914Y-122491523D01*
X87034914Y-122491523D02*
X87082533Y-122586761D01*
D11*
%TO.C,U1*%
X88255000Y-96745000D02*
X88255000Y-99145000D01*
X88255000Y-96745000D02*
X90855000Y-96745000D01*
X88255000Y-99145000D02*
X88255000Y-96745000D01*
%TO.C,J2*%
X96002000Y-116392000D02*
X88322000Y-116392000D01*
X97272000Y-113732000D02*
X98602000Y-113732000D01*
X88322000Y-113732000D02*
X88322000Y-116392000D01*
X96002000Y-113732000D02*
X96002000Y-116392000D01*
X98602000Y-113732000D02*
X98602000Y-115062000D01*
X96002000Y-113732000D02*
X88322000Y-113732000D01*
%TO.C,J1*%
X90942000Y-121352000D02*
X98622000Y-121352000D01*
X89672000Y-124012000D02*
X88342000Y-124012000D01*
X98622000Y-124012000D02*
X98622000Y-121352000D01*
X90942000Y-124012000D02*
X90942000Y-121352000D01*
X88342000Y-124012000D02*
X88342000Y-122682000D01*
X90942000Y-124012000D02*
X98622000Y-124012000D01*
%TD*%
%LPC*%
D12*
%TO.C,U1*%
X89735000Y-98245000D03*
X89735000Y-102055000D03*
X89735000Y-105865000D03*
X89735000Y-109675000D03*
X97355000Y-109675000D03*
X97355000Y-105865000D03*
X97355000Y-102055000D03*
X97355000Y-98245000D03*
%TD*%
D13*
%TO.C,J2*%
X97272000Y-115062000D03*
D14*
X94732000Y-115062000D03*
X92192000Y-115062000D03*
X89652000Y-115062000D03*
%TD*%
D13*
%TO.C,J1*%
X89672000Y-122682000D03*
D14*
X92212000Y-122682000D03*
X94752000Y-122682000D03*
X97292000Y-122682000D03*
%TD*%
%LPD*%
M02*
