%TF.GenerationSoftware,KiCad,Pcbnew,7.0.9*%
%TF.CreationDate,2024-04-16T11:52:51+09:00*%
%TF.ProjectId,balloon,62616c6c-6f6f-46e2-9e6b-696361645f70,rev?*%
%TF.SameCoordinates,Original*%
%TF.FileFunction,Paste,Bot*%
%TF.FilePolarity,Positive*%
%FSLAX46Y46*%
G04 Gerber Fmt 4.6, Leading zero omitted, Abs format (unit mm)*
G04 Created by KiCad (PCBNEW 7.0.9) date 2024-04-16 11:52:51*
%MOMM*%
%LPD*%
G01*
G04 APERTURE LIST*
G04 Aperture macros list*
%AMRoundRect*
0 Rectangle with rounded corners*
0 $1 Rounding radius*
0 $2 $3 $4 $5 $6 $7 $8 $9 X,Y pos of 4 corners*
0 Add a 4 corners polygon primitive as box body*
4,1,4,$2,$3,$4,$5,$6,$7,$8,$9,$2,$3,0*
0 Add four circle primitives for the rounded corners*
1,1,$1+$1,$2,$3*
1,1,$1+$1,$4,$5*
1,1,$1+$1,$6,$7*
1,1,$1+$1,$8,$9*
0 Add four rect primitives between the rounded corners*
20,1,$1+$1,$2,$3,$4,$5,0*
20,1,$1+$1,$4,$5,$6,$7,0*
20,1,$1+$1,$6,$7,$8,$9,0*
20,1,$1+$1,$8,$9,$2,$3,0*%
G04 Aperture macros list end*
%ADD10RoundRect,0.150000X-0.675000X-0.150000X0.675000X-0.150000X0.675000X0.150000X-0.675000X0.150000X0*%
%ADD11RoundRect,0.237500X-0.250000X-0.237500X0.250000X-0.237500X0.250000X0.237500X-0.250000X0.237500X0*%
%ADD12RoundRect,0.237500X0.237500X-0.300000X0.237500X0.300000X-0.237500X0.300000X-0.237500X-0.300000X0*%
%ADD13RoundRect,0.237500X0.300000X0.237500X-0.300000X0.237500X-0.300000X-0.237500X0.300000X-0.237500X0*%
%ADD14R,0.650000X1.560000*%
%ADD15RoundRect,0.237500X0.250000X0.237500X-0.250000X0.237500X-0.250000X-0.237500X0.250000X-0.237500X0*%
%ADD16RoundRect,0.237500X-0.300000X-0.237500X0.300000X-0.237500X0.300000X0.237500X-0.300000X0.237500X0*%
%ADD17RoundRect,0.237500X0.237500X-0.250000X0.237500X0.250000X-0.237500X0.250000X-0.237500X-0.250000X0*%
%ADD18RoundRect,0.237500X-0.237500X0.250000X-0.237500X-0.250000X0.237500X-0.250000X0.237500X0.250000X0*%
%ADD19RoundRect,0.150000X-0.150000X0.587500X-0.150000X-0.587500X0.150000X-0.587500X0.150000X0.587500X0*%
G04 APERTURE END LIST*
D10*
%TO.C,U1*%
X31175000Y-125605000D03*
X31175000Y-124335000D03*
X31175000Y-123065000D03*
X31175000Y-121795000D03*
X36425000Y-121795000D03*
X36425000Y-123065000D03*
X36425000Y-124335000D03*
X36425000Y-125605000D03*
%TD*%
D11*
%TO.C,R7*%
X103900000Y-64620000D03*
X105725000Y-64620000D03*
%TD*%
D12*
%TO.C,C1*%
X38800000Y-123562500D03*
X38800000Y-121837500D03*
%TD*%
D13*
%TO.C,C16*%
X37003400Y-112482500D03*
X35278400Y-112482500D03*
%TD*%
%TO.C,C6*%
X55903400Y-96382500D03*
X54178400Y-96382500D03*
%TD*%
D11*
%TO.C,R8*%
X103900000Y-67720000D03*
X105725000Y-67720000D03*
%TD*%
D14*
%TO.C,U10*%
X41240900Y-117282500D03*
X40290900Y-117282500D03*
X39340900Y-117282500D03*
X39340900Y-114582500D03*
X41240900Y-114582500D03*
%TD*%
D15*
%TO.C,R11*%
X116812500Y-59020000D03*
X114987500Y-59020000D03*
%TD*%
D16*
%TO.C,C8*%
X66943400Y-95657500D03*
X68668400Y-95657500D03*
%TD*%
D15*
%TO.C,R10*%
X116812500Y-56120000D03*
X114987500Y-56120000D03*
%TD*%
%TO.C,R12*%
X116812500Y-62020000D03*
X114987500Y-62020000D03*
%TD*%
D17*
%TO.C,R29*%
X40440900Y-99395000D03*
X40440900Y-97570000D03*
%TD*%
D14*
%TO.C,U8*%
X30440900Y-112182500D03*
X31390900Y-112182500D03*
X32340900Y-112182500D03*
X32340900Y-114882500D03*
X31390900Y-114882500D03*
X30440900Y-114882500D03*
%TD*%
D15*
%TO.C,R13*%
X116812500Y-64920000D03*
X114987500Y-64920000D03*
%TD*%
%TO.C,R26*%
X96377500Y-96670000D03*
X94552500Y-96670000D03*
%TD*%
%TO.C,R27*%
X96377500Y-99570000D03*
X94552500Y-99570000D03*
%TD*%
D18*
%TO.C,R22*%
X104765000Y-95457500D03*
X104765000Y-97282500D03*
%TD*%
D15*
%TO.C,R21*%
X116812500Y-70920000D03*
X114987500Y-70920000D03*
%TD*%
D16*
%TO.C,C5*%
X54178400Y-92082500D03*
X55903400Y-92082500D03*
%TD*%
D18*
%TO.C,R30*%
X34140900Y-94070000D03*
X34140900Y-95895000D03*
%TD*%
D11*
%TO.C,R17*%
X103900000Y-77220000D03*
X105725000Y-77220000D03*
%TD*%
D14*
%TO.C,U9*%
X37190900Y-117232500D03*
X36240900Y-117232500D03*
X35290900Y-117232500D03*
X35290900Y-114532500D03*
X37190900Y-114532500D03*
%TD*%
D15*
%TO.C,R20*%
X116812500Y-73820000D03*
X114987500Y-73820000D03*
%TD*%
D13*
%TO.C,C19*%
X31503400Y-118082500D03*
X29778400Y-118082500D03*
%TD*%
D19*
%TO.C,Q3*%
X36690900Y-98207500D03*
X38590900Y-98207500D03*
X37640900Y-100082500D03*
%TD*%
D13*
%TO.C,C7*%
X68730900Y-91557500D03*
X67005900Y-91557500D03*
%TD*%
%TO.C,C15*%
X41103400Y-112382500D03*
X39378400Y-112382500D03*
%TD*%
D11*
%TO.C,R9*%
X103900000Y-74220000D03*
X105725000Y-74220000D03*
%TD*%
D15*
%TO.C,R23*%
X96377500Y-87970000D03*
X94552500Y-87970000D03*
%TD*%
%TO.C,R18*%
X116812500Y-79920000D03*
X114987500Y-79920000D03*
%TD*%
D11*
%TO.C,R6*%
X103900000Y-61420000D03*
X105725000Y-61420000D03*
%TD*%
D15*
%TO.C,R14*%
X105725000Y-71020000D03*
X103900000Y-71020000D03*
%TD*%
%TO.C,R24*%
X96377500Y-90870000D03*
X94552500Y-90870000D03*
%TD*%
%TO.C,R25*%
X96377500Y-93770000D03*
X94552500Y-93770000D03*
%TD*%
D11*
%TO.C,R16*%
X103900000Y-80320000D03*
X105725000Y-80320000D03*
%TD*%
D15*
%TO.C,R15*%
X116812500Y-68120000D03*
X114987500Y-68120000D03*
%TD*%
%TO.C,R19*%
X116812500Y-76920000D03*
X114987500Y-76920000D03*
%TD*%
M02*
