%TF.GenerationSoftware,KiCad,Pcbnew,7.0.6*%
%TF.CreationDate,2024-04-20T19:15:45+09:00*%
%TF.ProjectId,balloon,62616c6c-6f6f-46e2-9e6b-696361645f70,rev?*%
%TF.SameCoordinates,Original*%
%TF.FileFunction,Soldermask,Bot*%
%TF.FilePolarity,Negative*%
%FSLAX46Y46*%
G04 Gerber Fmt 4.6, Leading zero omitted, Abs format (unit mm)*
G04 Created by KiCad (PCBNEW 7.0.6) date 2024-04-20 19:15:45*
%MOMM*%
%LPD*%
G01*
G04 APERTURE LIST*
G04 Aperture macros list*
%AMRoundRect*
0 Rectangle with rounded corners*
0 $1 Rounding radius*
0 $2 $3 $4 $5 $6 $7 $8 $9 X,Y pos of 4 corners*
0 Add a 4 corners polygon primitive as box body*
4,1,4,$2,$3,$4,$5,$6,$7,$8,$9,$2,$3,0*
0 Add four circle primitives for the rounded corners*
1,1,$1+$1,$2,$3*
1,1,$1+$1,$4,$5*
1,1,$1+$1,$6,$7*
1,1,$1+$1,$8,$9*
0 Add four rect primitives between the rounded corners*
20,1,$1+$1,$2,$3,$4,$5,0*
20,1,$1+$1,$4,$5,$6,$7,0*
20,1,$1+$1,$6,$7,$8,$9,0*
20,1,$1+$1,$8,$9,$2,$3,0*%
G04 Aperture macros list end*
%ADD10R,1.700000X1.700000*%
%ADD11O,1.700000X1.700000*%
%ADD12C,2.000000*%
%ADD13C,1.000000*%
%ADD14C,2.500000*%
%ADD15C,3.200000*%
%ADD16R,1.905000X2.000000*%
%ADD17O,1.905000X2.000000*%
%ADD18R,1.800000X1.714500*%
%ADD19O,1.800000X1.714500*%
%ADD20RoundRect,0.237500X0.250000X0.237500X-0.250000X0.237500X-0.250000X-0.237500X0.250000X-0.237500X0*%
%ADD21RoundRect,0.237500X0.237500X-0.300000X0.237500X0.300000X-0.237500X0.300000X-0.237500X-0.300000X0*%
%ADD22RoundRect,0.237500X0.300000X0.237500X-0.300000X0.237500X-0.300000X-0.237500X0.300000X-0.237500X0*%
%ADD23RoundRect,0.150000X-0.675000X-0.150000X0.675000X-0.150000X0.675000X0.150000X-0.675000X0.150000X0*%
%ADD24RoundRect,0.237500X-0.237500X0.300000X-0.237500X-0.300000X0.237500X-0.300000X0.237500X0.300000X0*%
%ADD25R,0.650000X1.560000*%
%ADD26RoundRect,0.237500X-0.250000X-0.237500X0.250000X-0.237500X0.250000X0.237500X-0.250000X0.237500X0*%
%ADD27RoundRect,0.237500X-0.300000X-0.237500X0.300000X-0.237500X0.300000X0.237500X-0.300000X0.237500X0*%
%ADD28RoundRect,0.237500X0.237500X-0.250000X0.237500X0.250000X-0.237500X0.250000X-0.237500X-0.250000X0*%
%ADD29RoundRect,0.237500X-0.237500X0.250000X-0.237500X-0.250000X0.237500X-0.250000X0.237500X0.250000X0*%
%ADD30RoundRect,0.075000X0.700000X0.075000X-0.700000X0.075000X-0.700000X-0.075000X0.700000X-0.075000X0*%
%ADD31RoundRect,0.075000X0.075000X0.700000X-0.075000X0.700000X-0.075000X-0.700000X0.075000X-0.700000X0*%
%ADD32RoundRect,0.150000X-0.150000X0.587500X-0.150000X-0.587500X0.150000X-0.587500X0.150000X0.587500X0*%
G04 APERTURE END LIST*
D10*
%TO.C,J10*%
X121100000Y-110420000D03*
D11*
X121100000Y-112960000D03*
X121100000Y-115500000D03*
%TD*%
D12*
%TO.C,SW1*%
X28752800Y-131978400D03*
X35252800Y-131978400D03*
X28752800Y-136478400D03*
X35252800Y-136478400D03*
%TD*%
D13*
%TO.C,Y2*%
X64040900Y-94632500D03*
X64040900Y-92732500D03*
%TD*%
%TO.C,Y1*%
X59090900Y-94632500D03*
X59090900Y-92732500D03*
%TD*%
D14*
%TO.C,BT1*%
X39266800Y-88589600D03*
X39266800Y-49589600D03*
%TD*%
%TO.C,U4*%
X90600000Y-58300000D03*
X90600000Y-62110000D03*
X90600000Y-65920000D03*
X90600000Y-69730000D03*
X98220000Y-69730000D03*
X98220000Y-65920000D03*
X98220000Y-62110000D03*
X98220000Y-58300000D03*
%TD*%
D13*
%TO.C,U6*%
X120950000Y-69520000D03*
X120950000Y-68250000D03*
X120950000Y-66980000D03*
X120950000Y-65710000D03*
X120950000Y-64440000D03*
X120950000Y-63170000D03*
X120950000Y-61900000D03*
X120950000Y-60630000D03*
X120950000Y-59360000D03*
X120950000Y-58090000D03*
X120950000Y-56820000D03*
X120950000Y-55550000D03*
X120950000Y-54280000D03*
X101900000Y-54280000D03*
X101900000Y-55550000D03*
X101900000Y-56820000D03*
X101900000Y-58090000D03*
X101900000Y-59360000D03*
X101900000Y-60630000D03*
X101900000Y-61900000D03*
X101900000Y-63170000D03*
X101900000Y-64440000D03*
X101900000Y-65710000D03*
X101900000Y-66980000D03*
X101900000Y-68250000D03*
X101900000Y-69520000D03*
%TD*%
D10*
%TO.C,J4*%
X33629600Y-140004800D03*
D11*
X36169600Y-140004800D03*
%TD*%
D15*
%TO.C,H3*%
X119600000Y-50000000D03*
%TD*%
D10*
%TO.C,J7*%
X45640000Y-143700000D03*
D11*
X43100000Y-143700000D03*
X40560000Y-143700000D03*
X38020000Y-143700000D03*
X35480000Y-143700000D03*
X32940000Y-143700000D03*
%TD*%
D10*
%TO.C,J8*%
X95631000Y-48768000D03*
D11*
X95631000Y-51308000D03*
%TD*%
D14*
%TO.C,BT3*%
X78459000Y-88589600D03*
X78459000Y-49589600D03*
%TD*%
D10*
%TO.C,SW2*%
X26840900Y-97782500D03*
D11*
X26840900Y-100322500D03*
X26840900Y-102862500D03*
%TD*%
D14*
%TO.C,BT2*%
X58955000Y-49586400D03*
X58955000Y-88586400D03*
%TD*%
D12*
%TO.C,U3*%
X78090000Y-129750000D03*
X78090000Y-132290000D03*
X78090000Y-134830000D03*
X78090000Y-137370000D03*
X78090000Y-139910000D03*
X78090000Y-142450000D03*
%TD*%
D16*
%TO.C,U7*%
X32800900Y-108827500D03*
D17*
X35340900Y-108827500D03*
X37880900Y-108827500D03*
%TD*%
D10*
%TO.C,J2*%
X61850000Y-137300000D03*
D11*
X59310000Y-137300000D03*
X56770000Y-137300000D03*
X54230000Y-137300000D03*
X51690000Y-137300000D03*
X49150000Y-137300000D03*
%TD*%
D15*
%TO.C,H2*%
X27800000Y-141500000D03*
%TD*%
%TO.C,H1*%
X27800000Y-49900000D03*
%TD*%
%TO.C,H4*%
X119600000Y-141500000D03*
%TD*%
D10*
%TO.C,J3*%
X64440000Y-143700000D03*
D11*
X61900000Y-143700000D03*
X59360000Y-143700000D03*
X56820000Y-143700000D03*
X54280000Y-143700000D03*
X51740000Y-143700000D03*
%TD*%
D10*
%TO.C,J5*%
X27100000Y-86260000D03*
D11*
X27100000Y-83720000D03*
X27100000Y-81180000D03*
X27100000Y-78640000D03*
X27100000Y-76100000D03*
X27100000Y-73560000D03*
%TD*%
D18*
%TO.C,Q2*%
X31115000Y-101346000D03*
D19*
X31115000Y-99060000D03*
X31115000Y-96774000D03*
%TD*%
D20*
%TO.C,R7*%
X117700000Y-70080000D03*
X115875000Y-70080000D03*
%TD*%
D21*
%TO.C,C1*%
X38800000Y-123562500D03*
X38800000Y-121837500D03*
%TD*%
D22*
%TO.C,C16*%
X37003400Y-112482500D03*
X35278400Y-112482500D03*
%TD*%
%TO.C,C6*%
X55903400Y-96382500D03*
X54178400Y-96382500D03*
%TD*%
D23*
%TO.C,U1*%
X31175000Y-125605000D03*
X31175000Y-124335000D03*
X31175000Y-123065000D03*
X31175000Y-121795000D03*
X36425000Y-121795000D03*
X36425000Y-123065000D03*
X36425000Y-124335000D03*
X36425000Y-125605000D03*
%TD*%
D20*
%TO.C,R8*%
X117700000Y-66980000D03*
X115875000Y-66980000D03*
%TD*%
D24*
%TO.C,C14*%
X58400000Y-106037500D03*
X58400000Y-107762500D03*
%TD*%
D25*
%TO.C,U10*%
X41240900Y-117282500D03*
X40290900Y-117282500D03*
X39340900Y-117282500D03*
X39340900Y-114582500D03*
X41240900Y-114582500D03*
%TD*%
D26*
%TO.C,R11*%
X104787500Y-75680000D03*
X106612500Y-75680000D03*
%TD*%
D27*
%TO.C,C8*%
X66943400Y-95657500D03*
X68668400Y-95657500D03*
%TD*%
D26*
%TO.C,R10*%
X104787500Y-78580000D03*
X106612500Y-78580000D03*
%TD*%
%TO.C,R12*%
X104787500Y-72680000D03*
X106612500Y-72680000D03*
%TD*%
D28*
%TO.C,R29*%
X40440900Y-99395000D03*
X40440900Y-97570000D03*
%TD*%
D25*
%TO.C,U8*%
X30440900Y-112182500D03*
X31390900Y-112182500D03*
X32340900Y-112182500D03*
X32340900Y-114882500D03*
X31390900Y-114882500D03*
X30440900Y-114882500D03*
%TD*%
D26*
%TO.C,R13*%
X104787500Y-69780000D03*
X106612500Y-69780000D03*
%TD*%
D20*
%TO.C,R26*%
X101212500Y-97300000D03*
X99387500Y-97300000D03*
%TD*%
%TO.C,R27*%
X101212500Y-100200000D03*
X99387500Y-100200000D03*
%TD*%
D29*
%TO.C,R22*%
X109600000Y-96087500D03*
X109600000Y-97912500D03*
%TD*%
D26*
%TO.C,R21*%
X104787500Y-63780000D03*
X106612500Y-63780000D03*
%TD*%
D27*
%TO.C,C5*%
X54178400Y-92082500D03*
X55903400Y-92082500D03*
%TD*%
D24*
%TO.C,C4*%
X61300000Y-105937500D03*
X61300000Y-107662500D03*
%TD*%
D29*
%TO.C,R30*%
X34140900Y-94070000D03*
X34140900Y-95895000D03*
%TD*%
D20*
%TO.C,R17*%
X117700000Y-57480000D03*
X115875000Y-57480000D03*
%TD*%
D25*
%TO.C,U9*%
X37190900Y-117232500D03*
X36240900Y-117232500D03*
X35290900Y-117232500D03*
X35290900Y-114532500D03*
X37190900Y-114532500D03*
%TD*%
D30*
%TO.C,U5*%
X75575000Y-106950000D03*
X75575000Y-107450000D03*
X75575000Y-107950000D03*
X75575000Y-108450000D03*
X75575000Y-108950000D03*
X75575000Y-109450000D03*
X75575000Y-109950000D03*
X75575000Y-110450000D03*
X75575000Y-110950000D03*
X75575000Y-111450000D03*
X75575000Y-111950000D03*
X75575000Y-112450000D03*
X75575000Y-112950000D03*
X75575000Y-113450000D03*
X75575000Y-113950000D03*
X75575000Y-114450000D03*
D31*
X73650000Y-116375000D03*
X73150000Y-116375000D03*
X72650000Y-116375000D03*
X72150000Y-116375000D03*
X71650000Y-116375000D03*
X71150000Y-116375000D03*
X70650000Y-116375000D03*
X70150000Y-116375000D03*
X69650000Y-116375000D03*
X69150000Y-116375000D03*
X68650000Y-116375000D03*
X68150000Y-116375000D03*
X67650000Y-116375000D03*
X67150000Y-116375000D03*
X66650000Y-116375000D03*
X66150000Y-116375000D03*
D30*
X64225000Y-114450000D03*
X64225000Y-113950000D03*
X64225000Y-113450000D03*
X64225000Y-112950000D03*
X64225000Y-112450000D03*
X64225000Y-111950000D03*
X64225000Y-111450000D03*
X64225000Y-110950000D03*
X64225000Y-110450000D03*
X64225000Y-109950000D03*
X64225000Y-109450000D03*
X64225000Y-108950000D03*
X64225000Y-108450000D03*
X64225000Y-107950000D03*
X64225000Y-107450000D03*
X64225000Y-106950000D03*
D31*
X66150000Y-105025000D03*
X66650000Y-105025000D03*
X67150000Y-105025000D03*
X67650000Y-105025000D03*
X68150000Y-105025000D03*
X68650000Y-105025000D03*
X69150000Y-105025000D03*
X69650000Y-105025000D03*
X70150000Y-105025000D03*
X70650000Y-105025000D03*
X71150000Y-105025000D03*
X71650000Y-105025000D03*
X72150000Y-105025000D03*
X72650000Y-105025000D03*
X73150000Y-105025000D03*
X73650000Y-105025000D03*
%TD*%
D26*
%TO.C,R20*%
X104787500Y-60880000D03*
X106612500Y-60880000D03*
%TD*%
D22*
%TO.C,C19*%
X31503400Y-118082500D03*
X29778400Y-118082500D03*
%TD*%
D32*
%TO.C,Q3*%
X36690900Y-98207500D03*
X38590900Y-98207500D03*
X37640900Y-100082500D03*
%TD*%
D22*
%TO.C,C7*%
X68730900Y-91557500D03*
X67005900Y-91557500D03*
%TD*%
D27*
%TO.C,C17*%
X76737500Y-101200000D03*
X78462500Y-101200000D03*
%TD*%
%TO.C,C9*%
X65037500Y-119700000D03*
X66762500Y-119700000D03*
%TD*%
D22*
%TO.C,C15*%
X41103400Y-112382500D03*
X39378400Y-112382500D03*
%TD*%
D27*
%TO.C,C12*%
X73037500Y-119400000D03*
X74762500Y-119400000D03*
%TD*%
D20*
%TO.C,R9*%
X117700000Y-60480000D03*
X115875000Y-60480000D03*
%TD*%
%TO.C,R23*%
X101212500Y-88600000D03*
X99387500Y-88600000D03*
%TD*%
D27*
%TO.C,C13*%
X79037500Y-106200000D03*
X80762500Y-106200000D03*
%TD*%
D21*
%TO.C,C3*%
X78500000Y-113262500D03*
X78500000Y-111537500D03*
%TD*%
D22*
%TO.C,C11*%
X62862500Y-116600000D03*
X61137500Y-116600000D03*
%TD*%
D27*
%TO.C,C10*%
X76737500Y-104100000D03*
X78462500Y-104100000D03*
%TD*%
D26*
%TO.C,R18*%
X104787500Y-54780000D03*
X106612500Y-54780000D03*
%TD*%
D20*
%TO.C,R5*%
X80712500Y-109300000D03*
X78887500Y-109300000D03*
%TD*%
%TO.C,R6*%
X117700000Y-73280000D03*
X115875000Y-73280000D03*
%TD*%
D26*
%TO.C,R14*%
X115875000Y-63680000D03*
X117700000Y-63680000D03*
%TD*%
D20*
%TO.C,R24*%
X101212500Y-91500000D03*
X99387500Y-91500000D03*
%TD*%
%TO.C,R25*%
X101212500Y-94400000D03*
X99387500Y-94400000D03*
%TD*%
%TO.C,R16*%
X117700000Y-54380000D03*
X115875000Y-54380000D03*
%TD*%
D26*
%TO.C,R15*%
X104787500Y-66580000D03*
X106612500Y-66580000D03*
%TD*%
%TO.C,R19*%
X104787500Y-57780000D03*
X106612500Y-57780000D03*
%TD*%
M02*
