%TF.GenerationSoftware,KiCad,Pcbnew,7.0.6*%
%TF.CreationDate,2024-04-23T23:12:49+09:00*%
%TF.ProjectId,balloon,62616c6c-6f6f-46e2-9e6b-696361645f70,rev?*%
%TF.SameCoordinates,Original*%
%TF.FileFunction,Soldermask,Top*%
%TF.FilePolarity,Negative*%
%FSLAX46Y46*%
G04 Gerber Fmt 4.6, Leading zero omitted, Abs format (unit mm)*
G04 Created by KiCad (PCBNEW 7.0.6) date 2024-04-23 23:12:49*
%MOMM*%
%LPD*%
G01*
G04 APERTURE LIST*
G04 Aperture macros list*
%AMRoundRect*
0 Rectangle with rounded corners*
0 $1 Rounding radius*
0 $2 $3 $4 $5 $6 $7 $8 $9 X,Y pos of 4 corners*
0 Add a 4 corners polygon primitive as box body*
4,1,4,$2,$3,$4,$5,$6,$7,$8,$9,$2,$3,0*
0 Add four circle primitives for the rounded corners*
1,1,$1+$1,$2,$3*
1,1,$1+$1,$4,$5*
1,1,$1+$1,$6,$7*
1,1,$1+$1,$8,$9*
0 Add four rect primitives between the rounded corners*
20,1,$1+$1,$2,$3,$4,$5,0*
20,1,$1+$1,$4,$5,$6,$7,0*
20,1,$1+$1,$6,$7,$8,$9,0*
20,1,$1+$1,$8,$9,$2,$3,0*%
G04 Aperture macros list end*
%ADD10R,1.550000X1.300000*%
%ADD11C,5.700000*%
%ADD12C,3.600000*%
%ADD13C,3.000000*%
%ADD14R,1.700000X1.700000*%
%ADD15O,1.700000X1.700000*%
%ADD16RoundRect,0.237500X0.287500X0.237500X-0.287500X0.237500X-0.287500X-0.237500X0.287500X-0.237500X0*%
%ADD17C,1.000000*%
%ADD18R,1.200000X0.700000*%
%ADD19R,0.800000X1.000000*%
%ADD20R,1.200000X1.000000*%
%ADD21R,2.800000X1.000000*%
%ADD22R,1.900000X1.300000*%
%ADD23RoundRect,0.150000X0.587500X0.150000X-0.587500X0.150000X-0.587500X-0.150000X0.587500X-0.150000X0*%
%ADD24RoundRect,0.237500X-0.250000X-0.237500X0.250000X-0.237500X0.250000X0.237500X-0.250000X0.237500X0*%
%ADD25RoundRect,0.250000X0.650000X-1.500000X0.650000X1.500000X-0.650000X1.500000X-0.650000X-1.500000X0*%
%ADD26C,2.500000*%
%ADD27RoundRect,0.237500X0.300000X0.237500X-0.300000X0.237500X-0.300000X-0.237500X0.300000X-0.237500X0*%
%ADD28RoundRect,0.237500X0.237500X-0.250000X0.237500X0.250000X-0.237500X0.250000X-0.237500X-0.250000X0*%
%ADD29RoundRect,0.175000X-0.175000X0.725000X-0.175000X-0.725000X0.175000X-0.725000X0.175000X0.725000X0*%
%ADD30RoundRect,0.200000X-0.200000X0.700000X-0.200000X-0.700000X0.200000X-0.700000X0.200000X0.700000X0*%
%ADD31RoundRect,0.160000X0.197500X0.160000X-0.197500X0.160000X-0.197500X-0.160000X0.197500X-0.160000X0*%
%ADD32RoundRect,0.237500X-0.300000X-0.237500X0.300000X-0.237500X0.300000X0.237500X-0.300000X0.237500X0*%
%ADD33R,1.600000X0.850000*%
%ADD34RoundRect,0.237500X0.250000X0.237500X-0.250000X0.237500X-0.250000X-0.237500X0.250000X-0.237500X0*%
%ADD35C,2.000000*%
%ADD36RoundRect,0.250000X1.500000X0.650000X-1.500000X0.650000X-1.500000X-0.650000X1.500000X-0.650000X0*%
%ADD37R,1.905000X2.000000*%
%ADD38O,1.905000X2.000000*%
%ADD39RoundRect,0.237500X0.237500X-0.300000X0.237500X0.300000X-0.237500X0.300000X-0.237500X-0.300000X0*%
%ADD40RoundRect,0.237500X-0.237500X0.250000X-0.237500X-0.250000X0.237500X-0.250000X0.237500X0.250000X0*%
%ADD41RoundRect,0.250000X-1.000000X-0.900000X1.000000X-0.900000X1.000000X0.900000X-1.000000X0.900000X0*%
%ADD42R,1.380000X0.450000*%
%ADD43R,1.300000X1.650000*%
%ADD44R,1.550000X1.425000*%
%ADD45R,1.900000X1.800000*%
%ADD46R,1.900000X1.000000*%
%ADD47R,1.800000X1.714500*%
%ADD48O,1.800000X1.714500*%
%ADD49R,1.000000X1.050000*%
%ADD50R,1.050000X2.200000*%
G04 APERTURE END LIST*
D10*
%TO.C,SW1*%
X28108000Y-131953000D03*
X36068000Y-131953000D03*
X28108000Y-136453000D03*
X36068000Y-136453000D03*
%TD*%
D11*
%TO.C,H4*%
X119600000Y-141500000D03*
D12*
X119600000Y-141500000D03*
%TD*%
D11*
%TO.C,H3*%
X119600000Y-50000000D03*
D12*
X119600000Y-50000000D03*
%TD*%
D11*
%TO.C,H2*%
X27800000Y-141500000D03*
D12*
X27800000Y-141500000D03*
%TD*%
D11*
%TO.C,H1*%
X27800000Y-49900000D03*
D12*
X27800000Y-49900000D03*
%TD*%
D13*
%TO.C,BT1*%
X39266800Y-88589600D03*
X39266800Y-49589600D03*
%TD*%
%TO.C,BT3*%
X78459000Y-88589600D03*
X78459000Y-49589600D03*
%TD*%
%TO.C,BT2*%
X58955000Y-49586400D03*
X58955000Y-88586400D03*
%TD*%
D14*
%TO.C,J11*%
X120904000Y-117221000D03*
D15*
X120904000Y-119761000D03*
X120904000Y-122301000D03*
X120904000Y-124841000D03*
X120904000Y-127381000D03*
X120904000Y-129921000D03*
%TD*%
D14*
%TO.C,J10*%
X121031000Y-107696000D03*
D15*
X121031000Y-110236000D03*
X121031000Y-112776000D03*
%TD*%
D16*
%TO.C,D3*%
X34840900Y-128482500D03*
X33090900Y-128482500D03*
%TD*%
D17*
%TO.C,Y2*%
X64040900Y-94632500D03*
X64040900Y-92732500D03*
%TD*%
D18*
%TO.C,J6*%
X106110000Y-90855000D03*
X106110000Y-91955000D03*
X106110000Y-93055000D03*
X106110000Y-94155000D03*
X106110000Y-95255000D03*
X106110000Y-96355000D03*
X106110000Y-97455000D03*
X106110000Y-98555000D03*
X106110000Y-99505000D03*
D19*
X116610000Y-100455000D03*
D20*
X110410000Y-100455000D03*
D21*
X120760000Y-100455000D03*
D20*
X106110000Y-89305000D03*
D22*
X121210000Y-86955000D03*
%TD*%
D17*
%TO.C,Y1*%
X59090900Y-94632500D03*
X59090900Y-92732500D03*
%TD*%
D23*
%TO.C,Q1*%
X38615900Y-95532500D03*
X38615900Y-93632500D03*
X36740900Y-94582500D03*
%TD*%
D24*
%TO.C,FB3*%
X100187500Y-93620000D03*
X102012500Y-93620000D03*
%TD*%
D25*
%TO.C,D5*%
X44340900Y-99582500D03*
X44340900Y-94582500D03*
%TD*%
D26*
%TO.C,U4*%
X90600000Y-58300000D03*
X90600000Y-62110000D03*
X90600000Y-65920000D03*
X90600000Y-69730000D03*
X98220000Y-69730000D03*
X98220000Y-65920000D03*
X98220000Y-62110000D03*
X98220000Y-58300000D03*
%TD*%
D17*
%TO.C,U6*%
X120950000Y-69520000D03*
X120950000Y-68250000D03*
X120950000Y-66980000D03*
X120950000Y-65710000D03*
X120950000Y-64440000D03*
X120950000Y-63170000D03*
X120950000Y-61900000D03*
X120950000Y-60630000D03*
X120950000Y-59360000D03*
X120950000Y-58090000D03*
X120950000Y-56820000D03*
X120950000Y-55550000D03*
X120950000Y-54280000D03*
X101900000Y-54280000D03*
X101900000Y-55550000D03*
X101900000Y-56820000D03*
X101900000Y-58090000D03*
X101900000Y-59360000D03*
X101900000Y-60630000D03*
X101900000Y-61900000D03*
X101900000Y-63170000D03*
X101900000Y-64440000D03*
X101900000Y-65710000D03*
X101900000Y-66980000D03*
X101900000Y-68250000D03*
X101900000Y-69520000D03*
%TD*%
D27*
%TO.C,C18*%
X37040900Y-117382500D03*
X35315900Y-117382500D03*
%TD*%
D28*
%TO.C,R1*%
X81140900Y-95795000D03*
X81140900Y-93970000D03*
%TD*%
D14*
%TO.C,J4*%
X33629600Y-140004800D03*
D15*
X36169600Y-140004800D03*
%TD*%
D24*
%TO.C,R4*%
X39228400Y-134682500D03*
X41053400Y-134682500D03*
%TD*%
D29*
%TO.C,U11*%
X111500000Y-116550000D03*
D30*
X110400000Y-116550000D03*
X109300000Y-116550000D03*
X108200000Y-116550000D03*
X107100000Y-116550000D03*
X106000000Y-116550000D03*
X104900000Y-116550000D03*
X103800000Y-116550000D03*
D29*
X102700000Y-116550000D03*
X102700000Y-126050000D03*
D30*
X103800000Y-126050000D03*
X104900000Y-126050000D03*
X106000000Y-126050000D03*
X107100000Y-126050000D03*
X108200000Y-126050000D03*
X109300000Y-126050000D03*
X110400000Y-126050000D03*
D29*
X111500000Y-126050000D03*
%TD*%
D14*
%TO.C,J7*%
X45640000Y-143700000D03*
D15*
X43100000Y-143700000D03*
X40560000Y-143700000D03*
X38020000Y-143700000D03*
X35480000Y-143700000D03*
X32940000Y-143700000D03*
%TD*%
D24*
%TO.C,R32*%
X37003400Y-125282500D03*
X38828400Y-125282500D03*
%TD*%
D14*
%TO.C,J8*%
X95631000Y-48768000D03*
D15*
X95631000Y-51308000D03*
%TD*%
D31*
%TO.C,L1*%
X104997500Y-131000000D03*
X103802500Y-131000000D03*
%TD*%
D32*
%TO.C,C21*%
X106237500Y-129200000D03*
X107962500Y-129200000D03*
%TD*%
D24*
%TO.C,R31*%
X36953400Y-128482500D03*
X38778400Y-128482500D03*
%TD*%
D33*
%TO.C,D2*%
X42940900Y-126282500D03*
X42940900Y-128032500D03*
X46440900Y-128032500D03*
X46440900Y-126282500D03*
%TD*%
D24*
%TO.C,FB5*%
X100187500Y-99190000D03*
X102012500Y-99190000D03*
%TD*%
D34*
%TO.C,R35*%
X109012500Y-131100000D03*
X107187500Y-131100000D03*
%TD*%
D33*
%TO.C,D1*%
X50090900Y-126307500D03*
X50090900Y-128057500D03*
X53590900Y-128057500D03*
X53590900Y-126307500D03*
%TD*%
D24*
%TO.C,FB1*%
X100187500Y-88600000D03*
X102012500Y-88600000D03*
%TD*%
D14*
%TO.C,SW2*%
X26840900Y-97782500D03*
D15*
X26840900Y-100322500D03*
X26840900Y-102862500D03*
%TD*%
D24*
%TO.C,FB6*%
X100187500Y-101700000D03*
X102012500Y-101700000D03*
%TD*%
D35*
%TO.C,U3*%
X78090000Y-129750000D03*
X78090000Y-132290000D03*
X78090000Y-134830000D03*
X78090000Y-137370000D03*
X78090000Y-139910000D03*
X78090000Y-142450000D03*
%TD*%
D24*
%TO.C,FB4*%
X100187500Y-96130000D03*
X102012500Y-96130000D03*
%TD*%
D36*
%TO.C,D7*%
X105380000Y-107600000D03*
X100380000Y-107600000D03*
%TD*%
D37*
%TO.C,U7*%
X32800900Y-108827500D03*
D38*
X35340900Y-108827500D03*
X37880900Y-108827500D03*
%TD*%
D14*
%TO.C,J2*%
X61850000Y-137300000D03*
D15*
X59310000Y-137300000D03*
X56770000Y-137300000D03*
X54230000Y-137300000D03*
X51690000Y-137300000D03*
X49150000Y-137300000D03*
%TD*%
D24*
%TO.C,R33*%
X31515900Y-113282500D03*
X33340900Y-113282500D03*
%TD*%
D39*
%TO.C,C22*%
X103580000Y-113362500D03*
X103580000Y-111637500D03*
%TD*%
D32*
%TO.C,C2*%
X51137500Y-132000000D03*
X52862500Y-132000000D03*
%TD*%
D27*
%TO.C,C20*%
X37040900Y-112362500D03*
X35315900Y-112362500D03*
%TD*%
D16*
%TO.C,D4*%
X34890900Y-125282500D03*
X33140900Y-125282500D03*
%TD*%
D14*
%TO.C,J3*%
X64440000Y-143700000D03*
D15*
X61900000Y-143700000D03*
X59360000Y-143700000D03*
X56820000Y-143700000D03*
X54280000Y-143700000D03*
X51740000Y-143700000D03*
%TD*%
D40*
%TO.C,R36*%
X99280000Y-111587500D03*
X99280000Y-113412500D03*
%TD*%
D41*
%TO.C,D6*%
X98450000Y-134300000D03*
X102750000Y-134300000D03*
%TD*%
D28*
%TO.C,R3*%
X38760400Y-140917300D03*
X38760400Y-139092300D03*
%TD*%
D42*
%TO.C,J1*%
X28187000Y-123995000D03*
X28187000Y-124645000D03*
X28187000Y-125295000D03*
X28187000Y-125945000D03*
X28187000Y-126595000D03*
D43*
X25527000Y-121920000D03*
D44*
X28102000Y-122807500D03*
D45*
X25527000Y-124145000D03*
D46*
X25527000Y-126845000D03*
D44*
X28102000Y-127782500D03*
D43*
X25527000Y-128670000D03*
%TD*%
D24*
%TO.C,FB2*%
X100187500Y-91110000D03*
X102012500Y-91110000D03*
%TD*%
D14*
%TO.C,J5*%
X27100000Y-86260000D03*
D15*
X27100000Y-83720000D03*
X27100000Y-81180000D03*
X27100000Y-78640000D03*
X27100000Y-76100000D03*
X27100000Y-73560000D03*
%TD*%
D40*
%TO.C,R28*%
X33340900Y-94070000D03*
X33340900Y-95895000D03*
%TD*%
D47*
%TO.C,Q2*%
X31115000Y-101346000D03*
D48*
X31115000Y-99060000D03*
X31115000Y-96774000D03*
%TD*%
D49*
%TO.C,J9*%
X103660000Y-141990000D03*
D50*
X102185000Y-140465000D03*
X105135000Y-140465000D03*
%TD*%
D28*
%TO.C,R2*%
X77840900Y-95795000D03*
X77840900Y-93970000D03*
%TD*%
D24*
%TO.C,R34*%
X31515900Y-115792500D03*
X33340900Y-115792500D03*
%TD*%
D39*
%TO.C,C23*%
X106380000Y-113362500D03*
X106380000Y-111637500D03*
%TD*%
M02*
