%TF.GenerationSoftware,KiCad,Pcbnew,7.0.9*%
%TF.CreationDate,2024-04-16T11:52:51+09:00*%
%TF.ProjectId,balloon,62616c6c-6f6f-46e2-9e6b-696361645f70,rev?*%
%TF.SameCoordinates,Original*%
%TF.FileFunction,Legend,Top*%
%TF.FilePolarity,Positive*%
%FSLAX46Y46*%
G04 Gerber Fmt 4.6, Leading zero omitted, Abs format (unit mm)*
G04 Created by KiCad (PCBNEW 7.0.9) date 2024-04-16 11:52:51*
%MOMM*%
%LPD*%
G01*
G04 APERTURE LIST*
G04 Aperture macros list*
%AMRoundRect*
0 Rectangle with rounded corners*
0 $1 Rounding radius*
0 $2 $3 $4 $5 $6 $7 $8 $9 X,Y pos of 4 corners*
0 Add a 4 corners polygon primitive as box body*
4,1,4,$2,$3,$4,$5,$6,$7,$8,$9,$2,$3,0*
0 Add four circle primitives for the rounded corners*
1,1,$1+$1,$2,$3*
1,1,$1+$1,$4,$5*
1,1,$1+$1,$6,$7*
1,1,$1+$1,$8,$9*
0 Add four rect primitives between the rounded corners*
20,1,$1+$1,$2,$3,$4,$5,0*
20,1,$1+$1,$4,$5,$6,$7,0*
20,1,$1+$1,$6,$7,$8,$9,0*
20,1,$1+$1,$8,$9,$2,$3,0*%
G04 Aperture macros list end*
%ADD10C,0.150000*%
%ADD11C,0.300000*%
%ADD12C,0.120000*%
%ADD13C,0.177800*%
%ADD14C,3.200000*%
%ADD15R,1.700000X1.700000*%
%ADD16O,1.700000X1.700000*%
%ADD17C,2.000000*%
%ADD18RoundRect,0.237500X0.287500X0.237500X-0.287500X0.237500X-0.287500X-0.237500X0.287500X-0.237500X0*%
%ADD19C,1.000000*%
%ADD20R,1.200000X0.700000*%
%ADD21R,0.800000X1.000000*%
%ADD22R,1.200000X1.000000*%
%ADD23R,2.800000X1.000000*%
%ADD24R,1.900000X1.300000*%
%ADD25RoundRect,0.150000X0.587500X0.150000X-0.587500X0.150000X-0.587500X-0.150000X0.587500X-0.150000X0*%
%ADD26C,2.500000*%
%ADD27RoundRect,0.237500X-0.250000X-0.237500X0.250000X-0.237500X0.250000X0.237500X-0.250000X0.237500X0*%
%ADD28RoundRect,0.250000X0.650000X-1.500000X0.650000X1.500000X-0.650000X1.500000X-0.650000X-1.500000X0*%
%ADD29RoundRect,0.237500X0.300000X0.237500X-0.300000X0.237500X-0.300000X-0.237500X0.300000X-0.237500X0*%
%ADD30RoundRect,0.237500X0.237500X-0.250000X0.237500X0.250000X-0.237500X0.250000X-0.237500X-0.250000X0*%
%ADD31R,1.600000X0.850000*%
%ADD32RoundRect,0.075000X-0.075000X0.700000X-0.075000X-0.700000X0.075000X-0.700000X0.075000X0.700000X0*%
%ADD33RoundRect,0.075000X-0.700000X0.075000X-0.700000X-0.075000X0.700000X-0.075000X0.700000X0.075000X0*%
%ADD34R,1.905000X2.000000*%
%ADD35O,1.905000X2.000000*%
%ADD36RoundRect,0.237500X0.237500X-0.300000X0.237500X0.300000X-0.237500X0.300000X-0.237500X-0.300000X0*%
%ADD37RoundRect,0.237500X-0.300000X-0.237500X0.300000X-0.237500X0.300000X0.237500X-0.300000X0.237500X0*%
%ADD38RoundRect,0.237500X-0.237500X0.300000X-0.237500X-0.300000X0.237500X-0.300000X0.237500X0.300000X0*%
%ADD39RoundRect,0.237500X-0.237500X0.250000X-0.237500X-0.250000X0.237500X-0.250000X0.237500X0.250000X0*%
%ADD40R,1.380000X0.450000*%
%ADD41R,1.300000X1.650000*%
%ADD42R,1.550000X1.425000*%
%ADD43R,1.900000X1.800000*%
%ADD44R,1.900000X1.000000*%
%ADD45C,3.302000*%
%ADD46R,1.800000X1.714500*%
%ADD47O,1.800000X1.714500*%
G04 APERTURE END LIST*
D10*
X29541541Y-85769819D02*
X30160588Y-85769819D01*
X30160588Y-85769819D02*
X29827255Y-86150771D01*
X29827255Y-86150771D02*
X29970112Y-86150771D01*
X29970112Y-86150771D02*
X30065350Y-86198390D01*
X30065350Y-86198390D02*
X30112969Y-86246009D01*
X30112969Y-86246009D02*
X30160588Y-86341247D01*
X30160588Y-86341247D02*
X30160588Y-86579342D01*
X30160588Y-86579342D02*
X30112969Y-86674580D01*
X30112969Y-86674580D02*
X30065350Y-86722200D01*
X30065350Y-86722200D02*
X29970112Y-86769819D01*
X29970112Y-86769819D02*
X29684398Y-86769819D01*
X29684398Y-86769819D02*
X29589160Y-86722200D01*
X29589160Y-86722200D02*
X29541541Y-86674580D01*
X30446303Y-85769819D02*
X30779636Y-86769819D01*
X30779636Y-86769819D02*
X31112969Y-85769819D01*
X31351065Y-85769819D02*
X31970112Y-85769819D01*
X31970112Y-85769819D02*
X31636779Y-86150771D01*
X31636779Y-86150771D02*
X31779636Y-86150771D01*
X31779636Y-86150771D02*
X31874874Y-86198390D01*
X31874874Y-86198390D02*
X31922493Y-86246009D01*
X31922493Y-86246009D02*
X31970112Y-86341247D01*
X31970112Y-86341247D02*
X31970112Y-86579342D01*
X31970112Y-86579342D02*
X31922493Y-86674580D01*
X31922493Y-86674580D02*
X31874874Y-86722200D01*
X31874874Y-86722200D02*
X31779636Y-86769819D01*
X31779636Y-86769819D02*
X31493922Y-86769819D01*
X31493922Y-86769819D02*
X31398684Y-86722200D01*
X31398684Y-86722200D02*
X31351065Y-86674580D01*
X29389160Y-84022200D02*
X29532017Y-84069819D01*
X29532017Y-84069819D02*
X29770112Y-84069819D01*
X29770112Y-84069819D02*
X29865350Y-84022200D01*
X29865350Y-84022200D02*
X29912969Y-83974580D01*
X29912969Y-83974580D02*
X29960588Y-83879342D01*
X29960588Y-83879342D02*
X29960588Y-83784104D01*
X29960588Y-83784104D02*
X29912969Y-83688866D01*
X29912969Y-83688866D02*
X29865350Y-83641247D01*
X29865350Y-83641247D02*
X29770112Y-83593628D01*
X29770112Y-83593628D02*
X29579636Y-83546009D01*
X29579636Y-83546009D02*
X29484398Y-83498390D01*
X29484398Y-83498390D02*
X29436779Y-83450771D01*
X29436779Y-83450771D02*
X29389160Y-83355533D01*
X29389160Y-83355533D02*
X29389160Y-83260295D01*
X29389160Y-83260295D02*
X29436779Y-83165057D01*
X29436779Y-83165057D02*
X29484398Y-83117438D01*
X29484398Y-83117438D02*
X29579636Y-83069819D01*
X29579636Y-83069819D02*
X29817731Y-83069819D01*
X29817731Y-83069819D02*
X29960588Y-83117438D01*
X30293922Y-83069819D02*
X30532017Y-84069819D01*
X30532017Y-84069819D02*
X30722493Y-83355533D01*
X30722493Y-83355533D02*
X30912969Y-84069819D01*
X30912969Y-84069819D02*
X31151065Y-83069819D01*
X32103445Y-83974580D02*
X32055826Y-84022200D01*
X32055826Y-84022200D02*
X31912969Y-84069819D01*
X31912969Y-84069819D02*
X31817731Y-84069819D01*
X31817731Y-84069819D02*
X31674874Y-84022200D01*
X31674874Y-84022200D02*
X31579636Y-83926961D01*
X31579636Y-83926961D02*
X31532017Y-83831723D01*
X31532017Y-83831723D02*
X31484398Y-83641247D01*
X31484398Y-83641247D02*
X31484398Y-83498390D01*
X31484398Y-83498390D02*
X31532017Y-83307914D01*
X31532017Y-83307914D02*
X31579636Y-83212676D01*
X31579636Y-83212676D02*
X31674874Y-83117438D01*
X31674874Y-83117438D02*
X31817731Y-83069819D01*
X31817731Y-83069819D02*
X31912969Y-83069819D01*
X31912969Y-83069819D02*
X32055826Y-83117438D01*
X32055826Y-83117438D02*
X32103445Y-83165057D01*
X33008207Y-84069819D02*
X32532017Y-84069819D01*
X32532017Y-84069819D02*
X32532017Y-83069819D01*
X33341541Y-84069819D02*
X33341541Y-83069819D01*
X33912969Y-84069819D02*
X33484398Y-83498390D01*
X33912969Y-83069819D02*
X33341541Y-83641247D01*
X29960588Y-80417438D02*
X29865350Y-80369819D01*
X29865350Y-80369819D02*
X29722493Y-80369819D01*
X29722493Y-80369819D02*
X29579636Y-80417438D01*
X29579636Y-80417438D02*
X29484398Y-80512676D01*
X29484398Y-80512676D02*
X29436779Y-80607914D01*
X29436779Y-80607914D02*
X29389160Y-80798390D01*
X29389160Y-80798390D02*
X29389160Y-80941247D01*
X29389160Y-80941247D02*
X29436779Y-81131723D01*
X29436779Y-81131723D02*
X29484398Y-81226961D01*
X29484398Y-81226961D02*
X29579636Y-81322200D01*
X29579636Y-81322200D02*
X29722493Y-81369819D01*
X29722493Y-81369819D02*
X29817731Y-81369819D01*
X29817731Y-81369819D02*
X29960588Y-81322200D01*
X29960588Y-81322200D02*
X30008207Y-81274580D01*
X30008207Y-81274580D02*
X30008207Y-80941247D01*
X30008207Y-80941247D02*
X29817731Y-80941247D01*
X30436779Y-81369819D02*
X30436779Y-80369819D01*
X30436779Y-80369819D02*
X31008207Y-81369819D01*
X31008207Y-81369819D02*
X31008207Y-80369819D01*
X31484398Y-81369819D02*
X31484398Y-80369819D01*
X31484398Y-80369819D02*
X31722493Y-80369819D01*
X31722493Y-80369819D02*
X31865350Y-80417438D01*
X31865350Y-80417438D02*
X31960588Y-80512676D01*
X31960588Y-80512676D02*
X32008207Y-80607914D01*
X32008207Y-80607914D02*
X32055826Y-80798390D01*
X32055826Y-80798390D02*
X32055826Y-80941247D01*
X32055826Y-80941247D02*
X32008207Y-81131723D01*
X32008207Y-81131723D02*
X31960588Y-81226961D01*
X31960588Y-81226961D02*
X31865350Y-81322200D01*
X31865350Y-81322200D02*
X31722493Y-81369819D01*
X31722493Y-81369819D02*
X31484398Y-81369819D01*
X29289160Y-78822200D02*
X29432017Y-78869819D01*
X29432017Y-78869819D02*
X29670112Y-78869819D01*
X29670112Y-78869819D02*
X29765350Y-78822200D01*
X29765350Y-78822200D02*
X29812969Y-78774580D01*
X29812969Y-78774580D02*
X29860588Y-78679342D01*
X29860588Y-78679342D02*
X29860588Y-78584104D01*
X29860588Y-78584104D02*
X29812969Y-78488866D01*
X29812969Y-78488866D02*
X29765350Y-78441247D01*
X29765350Y-78441247D02*
X29670112Y-78393628D01*
X29670112Y-78393628D02*
X29479636Y-78346009D01*
X29479636Y-78346009D02*
X29384398Y-78298390D01*
X29384398Y-78298390D02*
X29336779Y-78250771D01*
X29336779Y-78250771D02*
X29289160Y-78155533D01*
X29289160Y-78155533D02*
X29289160Y-78060295D01*
X29289160Y-78060295D02*
X29336779Y-77965057D01*
X29336779Y-77965057D02*
X29384398Y-77917438D01*
X29384398Y-77917438D02*
X29479636Y-77869819D01*
X29479636Y-77869819D02*
X29717731Y-77869819D01*
X29717731Y-77869819D02*
X29860588Y-77917438D01*
X30193922Y-77869819D02*
X30432017Y-78869819D01*
X30432017Y-78869819D02*
X30622493Y-78155533D01*
X30622493Y-78155533D02*
X30812969Y-78869819D01*
X30812969Y-78869819D02*
X31051065Y-77869819D01*
X31432017Y-78869819D02*
X31432017Y-77869819D01*
X31432017Y-77869819D02*
X31670112Y-77869819D01*
X31670112Y-77869819D02*
X31812969Y-77917438D01*
X31812969Y-77917438D02*
X31908207Y-78012676D01*
X31908207Y-78012676D02*
X31955826Y-78107914D01*
X31955826Y-78107914D02*
X32003445Y-78298390D01*
X32003445Y-78298390D02*
X32003445Y-78441247D01*
X32003445Y-78441247D02*
X31955826Y-78631723D01*
X31955826Y-78631723D02*
X31908207Y-78726961D01*
X31908207Y-78726961D02*
X31812969Y-78822200D01*
X31812969Y-78822200D02*
X31670112Y-78869819D01*
X31670112Y-78869819D02*
X31432017Y-78869819D01*
X32432017Y-78869819D02*
X32432017Y-77869819D01*
X33098683Y-77869819D02*
X33289159Y-77869819D01*
X33289159Y-77869819D02*
X33384397Y-77917438D01*
X33384397Y-77917438D02*
X33479635Y-78012676D01*
X33479635Y-78012676D02*
X33527254Y-78203152D01*
X33527254Y-78203152D02*
X33527254Y-78536485D01*
X33527254Y-78536485D02*
X33479635Y-78726961D01*
X33479635Y-78726961D02*
X33384397Y-78822200D01*
X33384397Y-78822200D02*
X33289159Y-78869819D01*
X33289159Y-78869819D02*
X33098683Y-78869819D01*
X33098683Y-78869819D02*
X33003445Y-78822200D01*
X33003445Y-78822200D02*
X32908207Y-78726961D01*
X32908207Y-78726961D02*
X32860588Y-78536485D01*
X32860588Y-78536485D02*
X32860588Y-78203152D01*
X32860588Y-78203152D02*
X32908207Y-78012676D01*
X32908207Y-78012676D02*
X33003445Y-77917438D01*
X33003445Y-77917438D02*
X33098683Y-77869819D01*
X29336779Y-76269819D02*
X29336779Y-75269819D01*
X29336779Y-75269819D02*
X29908207Y-76269819D01*
X29908207Y-76269819D02*
X29908207Y-75269819D01*
X30955826Y-76269819D02*
X30622493Y-75793628D01*
X30384398Y-76269819D02*
X30384398Y-75269819D01*
X30384398Y-75269819D02*
X30765350Y-75269819D01*
X30765350Y-75269819D02*
X30860588Y-75317438D01*
X30860588Y-75317438D02*
X30908207Y-75365057D01*
X30908207Y-75365057D02*
X30955826Y-75460295D01*
X30955826Y-75460295D02*
X30955826Y-75603152D01*
X30955826Y-75603152D02*
X30908207Y-75698390D01*
X30908207Y-75698390D02*
X30860588Y-75746009D01*
X30860588Y-75746009D02*
X30765350Y-75793628D01*
X30765350Y-75793628D02*
X30384398Y-75793628D01*
X31336779Y-76222200D02*
X31479636Y-76269819D01*
X31479636Y-76269819D02*
X31717731Y-76269819D01*
X31717731Y-76269819D02*
X31812969Y-76222200D01*
X31812969Y-76222200D02*
X31860588Y-76174580D01*
X31860588Y-76174580D02*
X31908207Y-76079342D01*
X31908207Y-76079342D02*
X31908207Y-75984104D01*
X31908207Y-75984104D02*
X31860588Y-75888866D01*
X31860588Y-75888866D02*
X31812969Y-75841247D01*
X31812969Y-75841247D02*
X31717731Y-75793628D01*
X31717731Y-75793628D02*
X31527255Y-75746009D01*
X31527255Y-75746009D02*
X31432017Y-75698390D01*
X31432017Y-75698390D02*
X31384398Y-75650771D01*
X31384398Y-75650771D02*
X31336779Y-75555533D01*
X31336779Y-75555533D02*
X31336779Y-75460295D01*
X31336779Y-75460295D02*
X31384398Y-75365057D01*
X31384398Y-75365057D02*
X31432017Y-75317438D01*
X31432017Y-75317438D02*
X31527255Y-75269819D01*
X31527255Y-75269819D02*
X31765350Y-75269819D01*
X31765350Y-75269819D02*
X31908207Y-75317438D01*
X32193922Y-75269819D02*
X32765350Y-75269819D01*
X32479636Y-76269819D02*
X32479636Y-75269819D01*
X29289160Y-73822200D02*
X29432017Y-73869819D01*
X29432017Y-73869819D02*
X29670112Y-73869819D01*
X29670112Y-73869819D02*
X29765350Y-73822200D01*
X29765350Y-73822200D02*
X29812969Y-73774580D01*
X29812969Y-73774580D02*
X29860588Y-73679342D01*
X29860588Y-73679342D02*
X29860588Y-73584104D01*
X29860588Y-73584104D02*
X29812969Y-73488866D01*
X29812969Y-73488866D02*
X29765350Y-73441247D01*
X29765350Y-73441247D02*
X29670112Y-73393628D01*
X29670112Y-73393628D02*
X29479636Y-73346009D01*
X29479636Y-73346009D02*
X29384398Y-73298390D01*
X29384398Y-73298390D02*
X29336779Y-73250771D01*
X29336779Y-73250771D02*
X29289160Y-73155533D01*
X29289160Y-73155533D02*
X29289160Y-73060295D01*
X29289160Y-73060295D02*
X29336779Y-72965057D01*
X29336779Y-72965057D02*
X29384398Y-72917438D01*
X29384398Y-72917438D02*
X29479636Y-72869819D01*
X29479636Y-72869819D02*
X29717731Y-72869819D01*
X29717731Y-72869819D02*
X29860588Y-72917438D01*
X30193922Y-72869819D02*
X30432017Y-73869819D01*
X30432017Y-73869819D02*
X30622493Y-73155533D01*
X30622493Y-73155533D02*
X30812969Y-73869819D01*
X30812969Y-73869819D02*
X31051065Y-72869819D01*
X31622493Y-72869819D02*
X31812969Y-72869819D01*
X31812969Y-72869819D02*
X31908207Y-72917438D01*
X31908207Y-72917438D02*
X32003445Y-73012676D01*
X32003445Y-73012676D02*
X32051064Y-73203152D01*
X32051064Y-73203152D02*
X32051064Y-73536485D01*
X32051064Y-73536485D02*
X32003445Y-73726961D01*
X32003445Y-73726961D02*
X31908207Y-73822200D01*
X31908207Y-73822200D02*
X31812969Y-73869819D01*
X31812969Y-73869819D02*
X31622493Y-73869819D01*
X31622493Y-73869819D02*
X31527255Y-73822200D01*
X31527255Y-73822200D02*
X31432017Y-73726961D01*
X31432017Y-73726961D02*
X31384398Y-73536485D01*
X31384398Y-73536485D02*
X31384398Y-73203152D01*
X31384398Y-73203152D02*
X31432017Y-73012676D01*
X31432017Y-73012676D02*
X31527255Y-72917438D01*
X31527255Y-72917438D02*
X31622493Y-72869819D01*
X40869819Y-141963220D02*
X39869819Y-141963220D01*
X39869819Y-141963220D02*
X40584104Y-141629887D01*
X40584104Y-141629887D02*
X39869819Y-141296554D01*
X39869819Y-141296554D02*
X40869819Y-141296554D01*
X40869819Y-140820363D02*
X39869819Y-140820363D01*
X40822200Y-140391792D02*
X40869819Y-140248935D01*
X40869819Y-140248935D02*
X40869819Y-140010840D01*
X40869819Y-140010840D02*
X40822200Y-139915602D01*
X40822200Y-139915602D02*
X40774580Y-139867983D01*
X40774580Y-139867983D02*
X40679342Y-139820364D01*
X40679342Y-139820364D02*
X40584104Y-139820364D01*
X40584104Y-139820364D02*
X40488866Y-139867983D01*
X40488866Y-139867983D02*
X40441247Y-139915602D01*
X40441247Y-139915602D02*
X40393628Y-140010840D01*
X40393628Y-140010840D02*
X40346009Y-140201316D01*
X40346009Y-140201316D02*
X40298390Y-140296554D01*
X40298390Y-140296554D02*
X40250771Y-140344173D01*
X40250771Y-140344173D02*
X40155533Y-140391792D01*
X40155533Y-140391792D02*
X40060295Y-140391792D01*
X40060295Y-140391792D02*
X39965057Y-140344173D01*
X39965057Y-140344173D02*
X39917438Y-140296554D01*
X39917438Y-140296554D02*
X39869819Y-140201316D01*
X39869819Y-140201316D02*
X39869819Y-139963221D01*
X39869819Y-139963221D02*
X39917438Y-139820364D01*
X39869819Y-139201316D02*
X39869819Y-139010840D01*
X39869819Y-139010840D02*
X39917438Y-138915602D01*
X39917438Y-138915602D02*
X40012676Y-138820364D01*
X40012676Y-138820364D02*
X40203152Y-138772745D01*
X40203152Y-138772745D02*
X40536485Y-138772745D01*
X40536485Y-138772745D02*
X40726961Y-138820364D01*
X40726961Y-138820364D02*
X40822200Y-138915602D01*
X40822200Y-138915602D02*
X40869819Y-139010840D01*
X40869819Y-139010840D02*
X40869819Y-139201316D01*
X40869819Y-139201316D02*
X40822200Y-139296554D01*
X40822200Y-139296554D02*
X40726961Y-139391792D01*
X40726961Y-139391792D02*
X40536485Y-139439411D01*
X40536485Y-139439411D02*
X40203152Y-139439411D01*
X40203152Y-139439411D02*
X40012676Y-139391792D01*
X40012676Y-139391792D02*
X39917438Y-139296554D01*
X39917438Y-139296554D02*
X39869819Y-139201316D01*
X43569819Y-141463220D02*
X42569819Y-141463220D01*
X42569819Y-141463220D02*
X43284104Y-141129887D01*
X43284104Y-141129887D02*
X42569819Y-140796554D01*
X42569819Y-140796554D02*
X43569819Y-140796554D01*
X42569819Y-140129887D02*
X42569819Y-139939411D01*
X42569819Y-139939411D02*
X42617438Y-139844173D01*
X42617438Y-139844173D02*
X42712676Y-139748935D01*
X42712676Y-139748935D02*
X42903152Y-139701316D01*
X42903152Y-139701316D02*
X43236485Y-139701316D01*
X43236485Y-139701316D02*
X43426961Y-139748935D01*
X43426961Y-139748935D02*
X43522200Y-139844173D01*
X43522200Y-139844173D02*
X43569819Y-139939411D01*
X43569819Y-139939411D02*
X43569819Y-140129887D01*
X43569819Y-140129887D02*
X43522200Y-140225125D01*
X43522200Y-140225125D02*
X43426961Y-140320363D01*
X43426961Y-140320363D02*
X43236485Y-140367982D01*
X43236485Y-140367982D02*
X42903152Y-140367982D01*
X42903152Y-140367982D02*
X42712676Y-140320363D01*
X42712676Y-140320363D02*
X42617438Y-140225125D01*
X42617438Y-140225125D02*
X42569819Y-140129887D01*
X43522200Y-139320363D02*
X43569819Y-139177506D01*
X43569819Y-139177506D02*
X43569819Y-138939411D01*
X43569819Y-138939411D02*
X43522200Y-138844173D01*
X43522200Y-138844173D02*
X43474580Y-138796554D01*
X43474580Y-138796554D02*
X43379342Y-138748935D01*
X43379342Y-138748935D02*
X43284104Y-138748935D01*
X43284104Y-138748935D02*
X43188866Y-138796554D01*
X43188866Y-138796554D02*
X43141247Y-138844173D01*
X43141247Y-138844173D02*
X43093628Y-138939411D01*
X43093628Y-138939411D02*
X43046009Y-139129887D01*
X43046009Y-139129887D02*
X42998390Y-139225125D01*
X42998390Y-139225125D02*
X42950771Y-139272744D01*
X42950771Y-139272744D02*
X42855533Y-139320363D01*
X42855533Y-139320363D02*
X42760295Y-139320363D01*
X42760295Y-139320363D02*
X42665057Y-139272744D01*
X42665057Y-139272744D02*
X42617438Y-139225125D01*
X42617438Y-139225125D02*
X42569819Y-139129887D01*
X42569819Y-139129887D02*
X42569819Y-138891792D01*
X42569819Y-138891792D02*
X42617438Y-138748935D01*
X43569819Y-138320363D02*
X42569819Y-138320363D01*
X46122200Y-141010839D02*
X46169819Y-140867982D01*
X46169819Y-140867982D02*
X46169819Y-140629887D01*
X46169819Y-140629887D02*
X46122200Y-140534649D01*
X46122200Y-140534649D02*
X46074580Y-140487030D01*
X46074580Y-140487030D02*
X45979342Y-140439411D01*
X45979342Y-140439411D02*
X45884104Y-140439411D01*
X45884104Y-140439411D02*
X45788866Y-140487030D01*
X45788866Y-140487030D02*
X45741247Y-140534649D01*
X45741247Y-140534649D02*
X45693628Y-140629887D01*
X45693628Y-140629887D02*
X45646009Y-140820363D01*
X45646009Y-140820363D02*
X45598390Y-140915601D01*
X45598390Y-140915601D02*
X45550771Y-140963220D01*
X45550771Y-140963220D02*
X45455533Y-141010839D01*
X45455533Y-141010839D02*
X45360295Y-141010839D01*
X45360295Y-141010839D02*
X45265057Y-140963220D01*
X45265057Y-140963220D02*
X45217438Y-140915601D01*
X45217438Y-140915601D02*
X45169819Y-140820363D01*
X45169819Y-140820363D02*
X45169819Y-140582268D01*
X45169819Y-140582268D02*
X45217438Y-140439411D01*
X46122200Y-140058458D02*
X46169819Y-139915601D01*
X46169819Y-139915601D02*
X46169819Y-139677506D01*
X46169819Y-139677506D02*
X46122200Y-139582268D01*
X46122200Y-139582268D02*
X46074580Y-139534649D01*
X46074580Y-139534649D02*
X45979342Y-139487030D01*
X45979342Y-139487030D02*
X45884104Y-139487030D01*
X45884104Y-139487030D02*
X45788866Y-139534649D01*
X45788866Y-139534649D02*
X45741247Y-139582268D01*
X45741247Y-139582268D02*
X45693628Y-139677506D01*
X45693628Y-139677506D02*
X45646009Y-139867982D01*
X45646009Y-139867982D02*
X45598390Y-139963220D01*
X45598390Y-139963220D02*
X45550771Y-140010839D01*
X45550771Y-140010839D02*
X45455533Y-140058458D01*
X45455533Y-140058458D02*
X45360295Y-140058458D01*
X45360295Y-140058458D02*
X45265057Y-140010839D01*
X45265057Y-140010839D02*
X45217438Y-139963220D01*
X45217438Y-139963220D02*
X45169819Y-139867982D01*
X45169819Y-139867982D02*
X45169819Y-139629887D01*
X45169819Y-139629887D02*
X45217438Y-139487030D01*
X64956200Y-141348935D02*
X64994295Y-141234649D01*
X64994295Y-141234649D02*
X64994295Y-141044173D01*
X64994295Y-141044173D02*
X64956200Y-140967982D01*
X64956200Y-140967982D02*
X64918104Y-140929887D01*
X64918104Y-140929887D02*
X64841914Y-140891792D01*
X64841914Y-140891792D02*
X64765723Y-140891792D01*
X64765723Y-140891792D02*
X64689533Y-140929887D01*
X64689533Y-140929887D02*
X64651438Y-140967982D01*
X64651438Y-140967982D02*
X64613342Y-141044173D01*
X64613342Y-141044173D02*
X64575247Y-141196554D01*
X64575247Y-141196554D02*
X64537152Y-141272744D01*
X64537152Y-141272744D02*
X64499057Y-141310839D01*
X64499057Y-141310839D02*
X64422866Y-141348935D01*
X64422866Y-141348935D02*
X64346676Y-141348935D01*
X64346676Y-141348935D02*
X64270485Y-141310839D01*
X64270485Y-141310839D02*
X64232390Y-141272744D01*
X64232390Y-141272744D02*
X64194295Y-141196554D01*
X64194295Y-141196554D02*
X64194295Y-141006077D01*
X64194295Y-141006077D02*
X64232390Y-140891792D01*
X64994295Y-140548934D02*
X64194295Y-140548934D01*
X64194295Y-140548934D02*
X64194295Y-140358458D01*
X64194295Y-140358458D02*
X64232390Y-140244172D01*
X64232390Y-140244172D02*
X64308580Y-140167982D01*
X64308580Y-140167982D02*
X64384771Y-140129887D01*
X64384771Y-140129887D02*
X64537152Y-140091791D01*
X64537152Y-140091791D02*
X64651438Y-140091791D01*
X64651438Y-140091791D02*
X64803819Y-140129887D01*
X64803819Y-140129887D02*
X64880009Y-140167982D01*
X64880009Y-140167982D02*
X64956200Y-140244172D01*
X64956200Y-140244172D02*
X64994295Y-140358458D01*
X64994295Y-140358458D02*
X64994295Y-140548934D01*
X64765723Y-139787030D02*
X64765723Y-139406077D01*
X64994295Y-139863220D02*
X64194295Y-139596553D01*
X64194295Y-139596553D02*
X64994295Y-139329887D01*
X62256200Y-141448935D02*
X62294295Y-141334649D01*
X62294295Y-141334649D02*
X62294295Y-141144173D01*
X62294295Y-141144173D02*
X62256200Y-141067982D01*
X62256200Y-141067982D02*
X62218104Y-141029887D01*
X62218104Y-141029887D02*
X62141914Y-140991792D01*
X62141914Y-140991792D02*
X62065723Y-140991792D01*
X62065723Y-140991792D02*
X61989533Y-141029887D01*
X61989533Y-141029887D02*
X61951438Y-141067982D01*
X61951438Y-141067982D02*
X61913342Y-141144173D01*
X61913342Y-141144173D02*
X61875247Y-141296554D01*
X61875247Y-141296554D02*
X61837152Y-141372744D01*
X61837152Y-141372744D02*
X61799057Y-141410839D01*
X61799057Y-141410839D02*
X61722866Y-141448935D01*
X61722866Y-141448935D02*
X61646676Y-141448935D01*
X61646676Y-141448935D02*
X61570485Y-141410839D01*
X61570485Y-141410839D02*
X61532390Y-141372744D01*
X61532390Y-141372744D02*
X61494295Y-141296554D01*
X61494295Y-141296554D02*
X61494295Y-141106077D01*
X61494295Y-141106077D02*
X61532390Y-140991792D01*
X62218104Y-140191791D02*
X62256200Y-140229887D01*
X62256200Y-140229887D02*
X62294295Y-140344172D01*
X62294295Y-140344172D02*
X62294295Y-140420363D01*
X62294295Y-140420363D02*
X62256200Y-140534649D01*
X62256200Y-140534649D02*
X62180009Y-140610839D01*
X62180009Y-140610839D02*
X62103819Y-140648934D01*
X62103819Y-140648934D02*
X61951438Y-140687030D01*
X61951438Y-140687030D02*
X61837152Y-140687030D01*
X61837152Y-140687030D02*
X61684771Y-140648934D01*
X61684771Y-140648934D02*
X61608580Y-140610839D01*
X61608580Y-140610839D02*
X61532390Y-140534649D01*
X61532390Y-140534649D02*
X61494295Y-140420363D01*
X61494295Y-140420363D02*
X61494295Y-140344172D01*
X61494295Y-140344172D02*
X61532390Y-140229887D01*
X61532390Y-140229887D02*
X61570485Y-140191791D01*
X62294295Y-139467982D02*
X62294295Y-139848934D01*
X62294295Y-139848934D02*
X61494295Y-139848934D01*
X53932390Y-141291792D02*
X53894295Y-141367982D01*
X53894295Y-141367982D02*
X53894295Y-141482268D01*
X53894295Y-141482268D02*
X53932390Y-141596554D01*
X53932390Y-141596554D02*
X54008580Y-141672744D01*
X54008580Y-141672744D02*
X54084771Y-141710839D01*
X54084771Y-141710839D02*
X54237152Y-141748935D01*
X54237152Y-141748935D02*
X54351438Y-141748935D01*
X54351438Y-141748935D02*
X54503819Y-141710839D01*
X54503819Y-141710839D02*
X54580009Y-141672744D01*
X54580009Y-141672744D02*
X54656200Y-141596554D01*
X54656200Y-141596554D02*
X54694295Y-141482268D01*
X54694295Y-141482268D02*
X54694295Y-141406077D01*
X54694295Y-141406077D02*
X54656200Y-141291792D01*
X54656200Y-141291792D02*
X54618104Y-141253696D01*
X54618104Y-141253696D02*
X54351438Y-141253696D01*
X54351438Y-141253696D02*
X54351438Y-141406077D01*
X54694295Y-140910839D02*
X53894295Y-140910839D01*
X53894295Y-140910839D02*
X54694295Y-140453696D01*
X54694295Y-140453696D02*
X53894295Y-140453696D01*
X54694295Y-140072744D02*
X53894295Y-140072744D01*
X53894295Y-140072744D02*
X53894295Y-139882268D01*
X53894295Y-139882268D02*
X53932390Y-139767982D01*
X53932390Y-139767982D02*
X54008580Y-139691792D01*
X54008580Y-139691792D02*
X54084771Y-139653697D01*
X54084771Y-139653697D02*
X54237152Y-139615601D01*
X54237152Y-139615601D02*
X54351438Y-139615601D01*
X54351438Y-139615601D02*
X54503819Y-139653697D01*
X54503819Y-139653697D02*
X54580009Y-139691792D01*
X54580009Y-139691792D02*
X54656200Y-139767982D01*
X54656200Y-139767982D02*
X54694295Y-139882268D01*
X54694295Y-139882268D02*
X54694295Y-140072744D01*
X51094295Y-141487030D02*
X51094295Y-140991792D01*
X51094295Y-140991792D02*
X51399057Y-141258458D01*
X51399057Y-141258458D02*
X51399057Y-141144173D01*
X51399057Y-141144173D02*
X51437152Y-141067982D01*
X51437152Y-141067982D02*
X51475247Y-141029887D01*
X51475247Y-141029887D02*
X51551438Y-140991792D01*
X51551438Y-140991792D02*
X51741914Y-140991792D01*
X51741914Y-140991792D02*
X51818104Y-141029887D01*
X51818104Y-141029887D02*
X51856200Y-141067982D01*
X51856200Y-141067982D02*
X51894295Y-141144173D01*
X51894295Y-141144173D02*
X51894295Y-141372744D01*
X51894295Y-141372744D02*
X51856200Y-141448935D01*
X51856200Y-141448935D02*
X51818104Y-141487030D01*
X51094295Y-140763220D02*
X51894295Y-140496553D01*
X51894295Y-140496553D02*
X51094295Y-140229887D01*
X51094295Y-140039411D02*
X51094295Y-139544173D01*
X51094295Y-139544173D02*
X51399057Y-139810839D01*
X51399057Y-139810839D02*
X51399057Y-139696554D01*
X51399057Y-139696554D02*
X51437152Y-139620363D01*
X51437152Y-139620363D02*
X51475247Y-139582268D01*
X51475247Y-139582268D02*
X51551438Y-139544173D01*
X51551438Y-139544173D02*
X51741914Y-139544173D01*
X51741914Y-139544173D02*
X51818104Y-139582268D01*
X51818104Y-139582268D02*
X51856200Y-139620363D01*
X51856200Y-139620363D02*
X51894295Y-139696554D01*
X51894295Y-139696554D02*
X51894295Y-139925125D01*
X51894295Y-139925125D02*
X51856200Y-140001316D01*
X51856200Y-140001316D02*
X51818104Y-140039411D01*
D11*
X65540225Y-102200828D02*
X64683082Y-102200828D01*
X65111653Y-102200828D02*
X65111653Y-100700828D01*
X65111653Y-100700828D02*
X64968796Y-100915114D01*
X64968796Y-100915114D02*
X64825939Y-101057971D01*
X64825939Y-101057971D02*
X64683082Y-101129400D01*
D10*
X89946009Y-74929887D02*
X89993628Y-74787030D01*
X89993628Y-74787030D02*
X90041247Y-74739411D01*
X90041247Y-74739411D02*
X90136485Y-74691792D01*
X90136485Y-74691792D02*
X90279342Y-74691792D01*
X90279342Y-74691792D02*
X90374580Y-74739411D01*
X90374580Y-74739411D02*
X90422200Y-74787030D01*
X90422200Y-74787030D02*
X90469819Y-74882268D01*
X90469819Y-74882268D02*
X90469819Y-75263220D01*
X90469819Y-75263220D02*
X89469819Y-75263220D01*
X89469819Y-75263220D02*
X89469819Y-74929887D01*
X89469819Y-74929887D02*
X89517438Y-74834649D01*
X89517438Y-74834649D02*
X89565057Y-74787030D01*
X89565057Y-74787030D02*
X89660295Y-74739411D01*
X89660295Y-74739411D02*
X89755533Y-74739411D01*
X89755533Y-74739411D02*
X89850771Y-74787030D01*
X89850771Y-74787030D02*
X89898390Y-74834649D01*
X89898390Y-74834649D02*
X89946009Y-74929887D01*
X89946009Y-74929887D02*
X89946009Y-75263220D01*
X90469819Y-74263220D02*
X89469819Y-74263220D01*
X89469819Y-74263220D02*
X90469819Y-73691792D01*
X90469819Y-73691792D02*
X89469819Y-73691792D01*
X89469819Y-73025125D02*
X89469819Y-72834649D01*
X89469819Y-72834649D02*
X89517438Y-72739411D01*
X89517438Y-72739411D02*
X89612676Y-72644173D01*
X89612676Y-72644173D02*
X89803152Y-72596554D01*
X89803152Y-72596554D02*
X90136485Y-72596554D01*
X90136485Y-72596554D02*
X90326961Y-72644173D01*
X90326961Y-72644173D02*
X90422200Y-72739411D01*
X90422200Y-72739411D02*
X90469819Y-72834649D01*
X90469819Y-72834649D02*
X90469819Y-73025125D01*
X90469819Y-73025125D02*
X90422200Y-73120363D01*
X90422200Y-73120363D02*
X90326961Y-73215601D01*
X90326961Y-73215601D02*
X90136485Y-73263220D01*
X90136485Y-73263220D02*
X89803152Y-73263220D01*
X89803152Y-73263220D02*
X89612676Y-73215601D01*
X89612676Y-73215601D02*
X89517438Y-73120363D01*
X89517438Y-73120363D02*
X89469819Y-73025125D01*
X89469819Y-71977506D02*
X89469819Y-71882268D01*
X89469819Y-71882268D02*
X89517438Y-71787030D01*
X89517438Y-71787030D02*
X89565057Y-71739411D01*
X89565057Y-71739411D02*
X89660295Y-71691792D01*
X89660295Y-71691792D02*
X89850771Y-71644173D01*
X89850771Y-71644173D02*
X90088866Y-71644173D01*
X90088866Y-71644173D02*
X90279342Y-71691792D01*
X90279342Y-71691792D02*
X90374580Y-71739411D01*
X90374580Y-71739411D02*
X90422200Y-71787030D01*
X90422200Y-71787030D02*
X90469819Y-71882268D01*
X90469819Y-71882268D02*
X90469819Y-71977506D01*
X90469819Y-71977506D02*
X90422200Y-72072744D01*
X90422200Y-72072744D02*
X90374580Y-72120363D01*
X90374580Y-72120363D02*
X90279342Y-72167982D01*
X90279342Y-72167982D02*
X90088866Y-72215601D01*
X90088866Y-72215601D02*
X89850771Y-72215601D01*
X89850771Y-72215601D02*
X89660295Y-72167982D01*
X89660295Y-72167982D02*
X89565057Y-72120363D01*
X89565057Y-72120363D02*
X89517438Y-72072744D01*
X89517438Y-72072744D02*
X89469819Y-71977506D01*
X89469819Y-70739411D02*
X89469819Y-71215601D01*
X89469819Y-71215601D02*
X89946009Y-71263220D01*
X89946009Y-71263220D02*
X89898390Y-71215601D01*
X89898390Y-71215601D02*
X89850771Y-71120363D01*
X89850771Y-71120363D02*
X89850771Y-70882268D01*
X89850771Y-70882268D02*
X89898390Y-70787030D01*
X89898390Y-70787030D02*
X89946009Y-70739411D01*
X89946009Y-70739411D02*
X90041247Y-70691792D01*
X90041247Y-70691792D02*
X90279342Y-70691792D01*
X90279342Y-70691792D02*
X90374580Y-70739411D01*
X90374580Y-70739411D02*
X90422200Y-70787030D01*
X90422200Y-70787030D02*
X90469819Y-70882268D01*
X90469819Y-70882268D02*
X90469819Y-71120363D01*
X90469819Y-71120363D02*
X90422200Y-71215601D01*
X90422200Y-71215601D02*
X90374580Y-71263220D01*
X89469819Y-69787030D02*
X89469819Y-70263220D01*
X89469819Y-70263220D02*
X89946009Y-70310839D01*
X89946009Y-70310839D02*
X89898390Y-70263220D01*
X89898390Y-70263220D02*
X89850771Y-70167982D01*
X89850771Y-70167982D02*
X89850771Y-69929887D01*
X89850771Y-69929887D02*
X89898390Y-69834649D01*
X89898390Y-69834649D02*
X89946009Y-69787030D01*
X89946009Y-69787030D02*
X90041247Y-69739411D01*
X90041247Y-69739411D02*
X90279342Y-69739411D01*
X90279342Y-69739411D02*
X90374580Y-69787030D01*
X90374580Y-69787030D02*
X90422200Y-69834649D01*
X90422200Y-69834649D02*
X90469819Y-69929887D01*
X90469819Y-69929887D02*
X90469819Y-70167982D01*
X90469819Y-70167982D02*
X90422200Y-70263220D01*
X90422200Y-70263220D02*
X90374580Y-70310839D01*
X108408207Y-76169819D02*
X108074874Y-75693628D01*
X107836779Y-76169819D02*
X107836779Y-75169819D01*
X107836779Y-75169819D02*
X108217731Y-75169819D01*
X108217731Y-75169819D02*
X108312969Y-75217438D01*
X108312969Y-75217438D02*
X108360588Y-75265057D01*
X108360588Y-75265057D02*
X108408207Y-75360295D01*
X108408207Y-75360295D02*
X108408207Y-75503152D01*
X108408207Y-75503152D02*
X108360588Y-75598390D01*
X108360588Y-75598390D02*
X108312969Y-75646009D01*
X108312969Y-75646009D02*
X108217731Y-75693628D01*
X108217731Y-75693628D02*
X107836779Y-75693628D01*
X108836779Y-76169819D02*
X108836779Y-75169819D01*
X108836779Y-75169819D02*
X109170112Y-75884104D01*
X109170112Y-75884104D02*
X109503445Y-75169819D01*
X109503445Y-75169819D02*
X109503445Y-76169819D01*
X110027255Y-76169819D02*
X110217731Y-76169819D01*
X110217731Y-76169819D02*
X110312969Y-76122200D01*
X110312969Y-76122200D02*
X110360588Y-76074580D01*
X110360588Y-76074580D02*
X110455826Y-75931723D01*
X110455826Y-75931723D02*
X110503445Y-75741247D01*
X110503445Y-75741247D02*
X110503445Y-75360295D01*
X110503445Y-75360295D02*
X110455826Y-75265057D01*
X110455826Y-75265057D02*
X110408207Y-75217438D01*
X110408207Y-75217438D02*
X110312969Y-75169819D01*
X110312969Y-75169819D02*
X110122493Y-75169819D01*
X110122493Y-75169819D02*
X110027255Y-75217438D01*
X110027255Y-75217438D02*
X109979636Y-75265057D01*
X109979636Y-75265057D02*
X109932017Y-75360295D01*
X109932017Y-75360295D02*
X109932017Y-75598390D01*
X109932017Y-75598390D02*
X109979636Y-75693628D01*
X109979636Y-75693628D02*
X110027255Y-75741247D01*
X110027255Y-75741247D02*
X110122493Y-75788866D01*
X110122493Y-75788866D02*
X110312969Y-75788866D01*
X110312969Y-75788866D02*
X110408207Y-75741247D01*
X110408207Y-75741247D02*
X110455826Y-75693628D01*
X110455826Y-75693628D02*
X110503445Y-75598390D01*
X110884398Y-75265057D02*
X110932017Y-75217438D01*
X110932017Y-75217438D02*
X111027255Y-75169819D01*
X111027255Y-75169819D02*
X111265350Y-75169819D01*
X111265350Y-75169819D02*
X111360588Y-75217438D01*
X111360588Y-75217438D02*
X111408207Y-75265057D01*
X111408207Y-75265057D02*
X111455826Y-75360295D01*
X111455826Y-75360295D02*
X111455826Y-75455533D01*
X111455826Y-75455533D02*
X111408207Y-75598390D01*
X111408207Y-75598390D02*
X110836779Y-76169819D01*
X110836779Y-76169819D02*
X111455826Y-76169819D01*
X99160588Y-126117438D02*
X99065350Y-126069819D01*
X99065350Y-126069819D02*
X98922493Y-126069819D01*
X98922493Y-126069819D02*
X98779636Y-126117438D01*
X98779636Y-126117438D02*
X98684398Y-126212676D01*
X98684398Y-126212676D02*
X98636779Y-126307914D01*
X98636779Y-126307914D02*
X98589160Y-126498390D01*
X98589160Y-126498390D02*
X98589160Y-126641247D01*
X98589160Y-126641247D02*
X98636779Y-126831723D01*
X98636779Y-126831723D02*
X98684398Y-126926961D01*
X98684398Y-126926961D02*
X98779636Y-127022200D01*
X98779636Y-127022200D02*
X98922493Y-127069819D01*
X98922493Y-127069819D02*
X99017731Y-127069819D01*
X99017731Y-127069819D02*
X99160588Y-127022200D01*
X99160588Y-127022200D02*
X99208207Y-126974580D01*
X99208207Y-126974580D02*
X99208207Y-126641247D01*
X99208207Y-126641247D02*
X99017731Y-126641247D01*
X99636779Y-127069819D02*
X99636779Y-126069819D01*
X99636779Y-126069819D02*
X100208207Y-127069819D01*
X100208207Y-127069819D02*
X100208207Y-126069819D01*
X100636779Y-127022200D02*
X100779636Y-127069819D01*
X100779636Y-127069819D02*
X101017731Y-127069819D01*
X101017731Y-127069819D02*
X101112969Y-127022200D01*
X101112969Y-127022200D02*
X101160588Y-126974580D01*
X101160588Y-126974580D02*
X101208207Y-126879342D01*
X101208207Y-126879342D02*
X101208207Y-126784104D01*
X101208207Y-126784104D02*
X101160588Y-126688866D01*
X101160588Y-126688866D02*
X101112969Y-126641247D01*
X101112969Y-126641247D02*
X101017731Y-126593628D01*
X101017731Y-126593628D02*
X100827255Y-126546009D01*
X100827255Y-126546009D02*
X100732017Y-126498390D01*
X100732017Y-126498390D02*
X100684398Y-126450771D01*
X100684398Y-126450771D02*
X100636779Y-126355533D01*
X100636779Y-126355533D02*
X100636779Y-126260295D01*
X100636779Y-126260295D02*
X100684398Y-126165057D01*
X100684398Y-126165057D02*
X100732017Y-126117438D01*
X100732017Y-126117438D02*
X100827255Y-126069819D01*
X100827255Y-126069819D02*
X101065350Y-126069819D01*
X101065350Y-126069819D02*
X101208207Y-126117438D01*
X101589160Y-127022200D02*
X101732017Y-127069819D01*
X101732017Y-127069819D02*
X101970112Y-127069819D01*
X101970112Y-127069819D02*
X102065350Y-127022200D01*
X102065350Y-127022200D02*
X102112969Y-126974580D01*
X102112969Y-126974580D02*
X102160588Y-126879342D01*
X102160588Y-126879342D02*
X102160588Y-126784104D01*
X102160588Y-126784104D02*
X102112969Y-126688866D01*
X102112969Y-126688866D02*
X102065350Y-126641247D01*
X102065350Y-126641247D02*
X101970112Y-126593628D01*
X101970112Y-126593628D02*
X101779636Y-126546009D01*
X101779636Y-126546009D02*
X101684398Y-126498390D01*
X101684398Y-126498390D02*
X101636779Y-126450771D01*
X101636779Y-126450771D02*
X101589160Y-126355533D01*
X101589160Y-126355533D02*
X101589160Y-126260295D01*
X101589160Y-126260295D02*
X101636779Y-126165057D01*
X101636779Y-126165057D02*
X101684398Y-126117438D01*
X101684398Y-126117438D02*
X101779636Y-126069819D01*
X101779636Y-126069819D02*
X102017731Y-126069819D01*
X102017731Y-126069819D02*
X102160588Y-126117438D01*
X74684104Y-138010839D02*
X74684104Y-137534649D01*
X74969819Y-138106077D02*
X73969819Y-137772744D01*
X73969819Y-137772744D02*
X74969819Y-137439411D01*
X74446009Y-137106077D02*
X74446009Y-136772744D01*
X74969819Y-136629887D02*
X74969819Y-137106077D01*
X74969819Y-137106077D02*
X73969819Y-137106077D01*
X73969819Y-137106077D02*
X73969819Y-136629887D01*
X75065057Y-136439411D02*
X75065057Y-135677506D01*
X74446009Y-135106077D02*
X74493628Y-134963220D01*
X74493628Y-134963220D02*
X74541247Y-134915601D01*
X74541247Y-134915601D02*
X74636485Y-134867982D01*
X74636485Y-134867982D02*
X74779342Y-134867982D01*
X74779342Y-134867982D02*
X74874580Y-134915601D01*
X74874580Y-134915601D02*
X74922200Y-134963220D01*
X74922200Y-134963220D02*
X74969819Y-135058458D01*
X74969819Y-135058458D02*
X74969819Y-135439410D01*
X74969819Y-135439410D02*
X73969819Y-135439410D01*
X73969819Y-135439410D02*
X73969819Y-135106077D01*
X73969819Y-135106077D02*
X74017438Y-135010839D01*
X74017438Y-135010839D02*
X74065057Y-134963220D01*
X74065057Y-134963220D02*
X74160295Y-134915601D01*
X74160295Y-134915601D02*
X74255533Y-134915601D01*
X74255533Y-134915601D02*
X74350771Y-134963220D01*
X74350771Y-134963220D02*
X74398390Y-135010839D01*
X74398390Y-135010839D02*
X74446009Y-135106077D01*
X74446009Y-135106077D02*
X74446009Y-135439410D01*
X74969819Y-134439410D02*
X73969819Y-134439410D01*
X73969819Y-134439410D02*
X74969819Y-133867982D01*
X74969819Y-133867982D02*
X73969819Y-133867982D01*
X73969819Y-133201315D02*
X73969819Y-133010839D01*
X73969819Y-133010839D02*
X74017438Y-132915601D01*
X74017438Y-132915601D02*
X74112676Y-132820363D01*
X74112676Y-132820363D02*
X74303152Y-132772744D01*
X74303152Y-132772744D02*
X74636485Y-132772744D01*
X74636485Y-132772744D02*
X74826961Y-132820363D01*
X74826961Y-132820363D02*
X74922200Y-132915601D01*
X74922200Y-132915601D02*
X74969819Y-133010839D01*
X74969819Y-133010839D02*
X74969819Y-133201315D01*
X74969819Y-133201315D02*
X74922200Y-133296553D01*
X74922200Y-133296553D02*
X74826961Y-133391791D01*
X74826961Y-133391791D02*
X74636485Y-133439410D01*
X74636485Y-133439410D02*
X74303152Y-133439410D01*
X74303152Y-133439410D02*
X74112676Y-133391791D01*
X74112676Y-133391791D02*
X74017438Y-133296553D01*
X74017438Y-133296553D02*
X73969819Y-133201315D01*
X74065057Y-132391791D02*
X74017438Y-132344172D01*
X74017438Y-132344172D02*
X73969819Y-132248934D01*
X73969819Y-132248934D02*
X73969819Y-132010839D01*
X73969819Y-132010839D02*
X74017438Y-131915601D01*
X74017438Y-131915601D02*
X74065057Y-131867982D01*
X74065057Y-131867982D02*
X74160295Y-131820363D01*
X74160295Y-131820363D02*
X74255533Y-131820363D01*
X74255533Y-131820363D02*
X74398390Y-131867982D01*
X74398390Y-131867982D02*
X74969819Y-132439410D01*
X74969819Y-132439410D02*
X74969819Y-131820363D01*
X74398390Y-131248934D02*
X74350771Y-131344172D01*
X74350771Y-131344172D02*
X74303152Y-131391791D01*
X74303152Y-131391791D02*
X74207914Y-131439410D01*
X74207914Y-131439410D02*
X74160295Y-131439410D01*
X74160295Y-131439410D02*
X74065057Y-131391791D01*
X74065057Y-131391791D02*
X74017438Y-131344172D01*
X74017438Y-131344172D02*
X73969819Y-131248934D01*
X73969819Y-131248934D02*
X73969819Y-131058458D01*
X73969819Y-131058458D02*
X74017438Y-130963220D01*
X74017438Y-130963220D02*
X74065057Y-130915601D01*
X74065057Y-130915601D02*
X74160295Y-130867982D01*
X74160295Y-130867982D02*
X74207914Y-130867982D01*
X74207914Y-130867982D02*
X74303152Y-130915601D01*
X74303152Y-130915601D02*
X74350771Y-130963220D01*
X74350771Y-130963220D02*
X74398390Y-131058458D01*
X74398390Y-131058458D02*
X74398390Y-131248934D01*
X74398390Y-131248934D02*
X74446009Y-131344172D01*
X74446009Y-131344172D02*
X74493628Y-131391791D01*
X74493628Y-131391791D02*
X74588866Y-131439410D01*
X74588866Y-131439410D02*
X74779342Y-131439410D01*
X74779342Y-131439410D02*
X74874580Y-131391791D01*
X74874580Y-131391791D02*
X74922200Y-131344172D01*
X74922200Y-131344172D02*
X74969819Y-131248934D01*
X74969819Y-131248934D02*
X74969819Y-131058458D01*
X74969819Y-131058458D02*
X74922200Y-130963220D01*
X74922200Y-130963220D02*
X74874580Y-130915601D01*
X74874580Y-130915601D02*
X74779342Y-130867982D01*
X74779342Y-130867982D02*
X74588866Y-130867982D01*
X74588866Y-130867982D02*
X74493628Y-130915601D01*
X74493628Y-130915601D02*
X74446009Y-130963220D01*
X74446009Y-130963220D02*
X74398390Y-131058458D01*
X73969819Y-130248934D02*
X73969819Y-130153696D01*
X73969819Y-130153696D02*
X74017438Y-130058458D01*
X74017438Y-130058458D02*
X74065057Y-130010839D01*
X74065057Y-130010839D02*
X74160295Y-129963220D01*
X74160295Y-129963220D02*
X74350771Y-129915601D01*
X74350771Y-129915601D02*
X74588866Y-129915601D01*
X74588866Y-129915601D02*
X74779342Y-129963220D01*
X74779342Y-129963220D02*
X74874580Y-130010839D01*
X74874580Y-130010839D02*
X74922200Y-130058458D01*
X74922200Y-130058458D02*
X74969819Y-130153696D01*
X74969819Y-130153696D02*
X74969819Y-130248934D01*
X74969819Y-130248934D02*
X74922200Y-130344172D01*
X74922200Y-130344172D02*
X74874580Y-130391791D01*
X74874580Y-130391791D02*
X74779342Y-130439410D01*
X74779342Y-130439410D02*
X74588866Y-130487029D01*
X74588866Y-130487029D02*
X74350771Y-130487029D01*
X74350771Y-130487029D02*
X74160295Y-130439410D01*
X74160295Y-130439410D02*
X74065057Y-130391791D01*
X74065057Y-130391791D02*
X74017438Y-130344172D01*
X74017438Y-130344172D02*
X73969819Y-130248934D01*
X113638095Y-49054819D02*
X113638095Y-48054819D01*
X113638095Y-48531009D02*
X114209523Y-48531009D01*
X114209523Y-49054819D02*
X114209523Y-48054819D01*
X114590476Y-48054819D02*
X115209523Y-48054819D01*
X115209523Y-48054819D02*
X114876190Y-48435771D01*
X114876190Y-48435771D02*
X115019047Y-48435771D01*
X115019047Y-48435771D02*
X115114285Y-48483390D01*
X115114285Y-48483390D02*
X115161904Y-48531009D01*
X115161904Y-48531009D02*
X115209523Y-48626247D01*
X115209523Y-48626247D02*
X115209523Y-48864342D01*
X115209523Y-48864342D02*
X115161904Y-48959580D01*
X115161904Y-48959580D02*
X115114285Y-49007200D01*
X115114285Y-49007200D02*
X115019047Y-49054819D01*
X115019047Y-49054819D02*
X114733333Y-49054819D01*
X114733333Y-49054819D02*
X114638095Y-49007200D01*
X114638095Y-49007200D02*
X114590476Y-48959580D01*
X24438095Y-138654819D02*
X24438095Y-137654819D01*
X24438095Y-138131009D02*
X25009523Y-138131009D01*
X25009523Y-138654819D02*
X25009523Y-137654819D01*
X25438095Y-137750057D02*
X25485714Y-137702438D01*
X25485714Y-137702438D02*
X25580952Y-137654819D01*
X25580952Y-137654819D02*
X25819047Y-137654819D01*
X25819047Y-137654819D02*
X25914285Y-137702438D01*
X25914285Y-137702438D02*
X25961904Y-137750057D01*
X25961904Y-137750057D02*
X26009523Y-137845295D01*
X26009523Y-137845295D02*
X26009523Y-137940533D01*
X26009523Y-137940533D02*
X25961904Y-138083390D01*
X25961904Y-138083390D02*
X25390476Y-138654819D01*
X25390476Y-138654819D02*
X26009523Y-138654819D01*
X31738095Y-49354819D02*
X31738095Y-48354819D01*
X31738095Y-48831009D02*
X32309523Y-48831009D01*
X32309523Y-49354819D02*
X32309523Y-48354819D01*
X33309523Y-49354819D02*
X32738095Y-49354819D01*
X33023809Y-49354819D02*
X33023809Y-48354819D01*
X33023809Y-48354819D02*
X32928571Y-48497676D01*
X32928571Y-48497676D02*
X32833333Y-48592914D01*
X32833333Y-48592914D02*
X32738095Y-48640533D01*
X47424819Y-144033333D02*
X48139104Y-144033333D01*
X48139104Y-144033333D02*
X48281961Y-144080952D01*
X48281961Y-144080952D02*
X48377200Y-144176190D01*
X48377200Y-144176190D02*
X48424819Y-144319047D01*
X48424819Y-144319047D02*
X48424819Y-144414285D01*
X47424819Y-143652380D02*
X47424819Y-142985714D01*
X47424819Y-142985714D02*
X48424819Y-143414285D01*
X29908667Y-130353600D02*
X30051524Y-130401219D01*
X30051524Y-130401219D02*
X30289619Y-130401219D01*
X30289619Y-130401219D02*
X30384857Y-130353600D01*
X30384857Y-130353600D02*
X30432476Y-130305980D01*
X30432476Y-130305980D02*
X30480095Y-130210742D01*
X30480095Y-130210742D02*
X30480095Y-130115504D01*
X30480095Y-130115504D02*
X30432476Y-130020266D01*
X30432476Y-130020266D02*
X30384857Y-129972647D01*
X30384857Y-129972647D02*
X30289619Y-129925028D01*
X30289619Y-129925028D02*
X30099143Y-129877409D01*
X30099143Y-129877409D02*
X30003905Y-129829790D01*
X30003905Y-129829790D02*
X29956286Y-129782171D01*
X29956286Y-129782171D02*
X29908667Y-129686933D01*
X29908667Y-129686933D02*
X29908667Y-129591695D01*
X29908667Y-129591695D02*
X29956286Y-129496457D01*
X29956286Y-129496457D02*
X30003905Y-129448838D01*
X30003905Y-129448838D02*
X30099143Y-129401219D01*
X30099143Y-129401219D02*
X30337238Y-129401219D01*
X30337238Y-129401219D02*
X30480095Y-129448838D01*
X30813429Y-129401219D02*
X31051524Y-130401219D01*
X31051524Y-130401219D02*
X31242000Y-129686933D01*
X31242000Y-129686933D02*
X31432476Y-130401219D01*
X31432476Y-130401219D02*
X31670572Y-129401219D01*
X32575333Y-130401219D02*
X32003905Y-130401219D01*
X32289619Y-130401219D02*
X32289619Y-129401219D01*
X32289619Y-129401219D02*
X32194381Y-129544076D01*
X32194381Y-129544076D02*
X32099143Y-129639314D01*
X32099143Y-129639314D02*
X32003905Y-129686933D01*
X33227805Y-130367319D02*
X33227805Y-129367319D01*
X33227805Y-129367319D02*
X33465900Y-129367319D01*
X33465900Y-129367319D02*
X33608757Y-129414938D01*
X33608757Y-129414938D02*
X33703995Y-129510176D01*
X33703995Y-129510176D02*
X33751614Y-129605414D01*
X33751614Y-129605414D02*
X33799233Y-129795890D01*
X33799233Y-129795890D02*
X33799233Y-129938747D01*
X33799233Y-129938747D02*
X33751614Y-130129223D01*
X33751614Y-130129223D02*
X33703995Y-130224461D01*
X33703995Y-130224461D02*
X33608757Y-130319700D01*
X33608757Y-130319700D02*
X33465900Y-130367319D01*
X33465900Y-130367319D02*
X33227805Y-130367319D01*
X34132567Y-129367319D02*
X34751614Y-129367319D01*
X34751614Y-129367319D02*
X34418281Y-129748271D01*
X34418281Y-129748271D02*
X34561138Y-129748271D01*
X34561138Y-129748271D02*
X34656376Y-129795890D01*
X34656376Y-129795890D02*
X34703995Y-129843509D01*
X34703995Y-129843509D02*
X34751614Y-129938747D01*
X34751614Y-129938747D02*
X34751614Y-130176842D01*
X34751614Y-130176842D02*
X34703995Y-130272080D01*
X34703995Y-130272080D02*
X34656376Y-130319700D01*
X34656376Y-130319700D02*
X34561138Y-130367319D01*
X34561138Y-130367319D02*
X34275424Y-130367319D01*
X34275424Y-130367319D02*
X34180186Y-130319700D01*
X34180186Y-130319700D02*
X34132567Y-130272080D01*
X61802228Y-92068590D02*
X62278419Y-92068590D01*
X61278419Y-92401923D02*
X61802228Y-92068590D01*
X61802228Y-92068590D02*
X61278419Y-91735257D01*
X61373657Y-91449542D02*
X61326038Y-91401923D01*
X61326038Y-91401923D02*
X61278419Y-91306685D01*
X61278419Y-91306685D02*
X61278419Y-91068590D01*
X61278419Y-91068590D02*
X61326038Y-90973352D01*
X61326038Y-90973352D02*
X61373657Y-90925733D01*
X61373657Y-90925733D02*
X61468895Y-90878114D01*
X61468895Y-90878114D02*
X61564133Y-90878114D01*
X61564133Y-90878114D02*
X61706990Y-90925733D01*
X61706990Y-90925733D02*
X62278419Y-91497161D01*
X62278419Y-91497161D02*
X62278419Y-90878114D01*
X98929819Y-93408333D02*
X99644104Y-93408333D01*
X99644104Y-93408333D02*
X99786961Y-93455952D01*
X99786961Y-93455952D02*
X99882200Y-93551190D01*
X99882200Y-93551190D02*
X99929819Y-93694047D01*
X99929819Y-93694047D02*
X99929819Y-93789285D01*
X98929819Y-92503571D02*
X98929819Y-92694047D01*
X98929819Y-92694047D02*
X98977438Y-92789285D01*
X98977438Y-92789285D02*
X99025057Y-92836904D01*
X99025057Y-92836904D02*
X99167914Y-92932142D01*
X99167914Y-92932142D02*
X99358390Y-92979761D01*
X99358390Y-92979761D02*
X99739342Y-92979761D01*
X99739342Y-92979761D02*
X99834580Y-92932142D01*
X99834580Y-92932142D02*
X99882200Y-92884523D01*
X99882200Y-92884523D02*
X99929819Y-92789285D01*
X99929819Y-92789285D02*
X99929819Y-92598809D01*
X99929819Y-92598809D02*
X99882200Y-92503571D01*
X99882200Y-92503571D02*
X99834580Y-92455952D01*
X99834580Y-92455952D02*
X99739342Y-92408333D01*
X99739342Y-92408333D02*
X99501247Y-92408333D01*
X99501247Y-92408333D02*
X99406009Y-92455952D01*
X99406009Y-92455952D02*
X99358390Y-92503571D01*
X99358390Y-92503571D02*
X99310771Y-92598809D01*
X99310771Y-92598809D02*
X99310771Y-92789285D01*
X99310771Y-92789285D02*
X99358390Y-92884523D01*
X99358390Y-92884523D02*
X99406009Y-92932142D01*
X99406009Y-92932142D02*
X99501247Y-92979761D01*
X57433428Y-92068590D02*
X57909619Y-92068590D01*
X56909619Y-92401923D02*
X57433428Y-92068590D01*
X57433428Y-92068590D02*
X56909619Y-91735257D01*
X57909619Y-90878114D02*
X57909619Y-91449542D01*
X57909619Y-91163828D02*
X56909619Y-91163828D01*
X56909619Y-91163828D02*
X57052476Y-91259066D01*
X57052476Y-91259066D02*
X57147714Y-91354304D01*
X57147714Y-91354304D02*
X57195333Y-91449542D01*
X37583161Y-97532557D02*
X37487923Y-97484938D01*
X37487923Y-97484938D02*
X37392685Y-97389700D01*
X37392685Y-97389700D02*
X37249828Y-97246842D01*
X37249828Y-97246842D02*
X37154590Y-97199223D01*
X37154590Y-97199223D02*
X37059352Y-97199223D01*
X37106971Y-97437319D02*
X37011733Y-97389700D01*
X37011733Y-97389700D02*
X36916495Y-97294461D01*
X36916495Y-97294461D02*
X36868876Y-97103985D01*
X36868876Y-97103985D02*
X36868876Y-96770652D01*
X36868876Y-96770652D02*
X36916495Y-96580176D01*
X36916495Y-96580176D02*
X37011733Y-96484938D01*
X37011733Y-96484938D02*
X37106971Y-96437319D01*
X37106971Y-96437319D02*
X37297447Y-96437319D01*
X37297447Y-96437319D02*
X37392685Y-96484938D01*
X37392685Y-96484938D02*
X37487923Y-96580176D01*
X37487923Y-96580176D02*
X37535542Y-96770652D01*
X37535542Y-96770652D02*
X37535542Y-97103985D01*
X37535542Y-97103985D02*
X37487923Y-97294461D01*
X37487923Y-97294461D02*
X37392685Y-97389700D01*
X37392685Y-97389700D02*
X37297447Y-97437319D01*
X37297447Y-97437319D02*
X37106971Y-97437319D01*
X38487923Y-97437319D02*
X37916495Y-97437319D01*
X38202209Y-97437319D02*
X38202209Y-96437319D01*
X38202209Y-96437319D02*
X38106971Y-96580176D01*
X38106971Y-96580176D02*
X38011733Y-96675414D01*
X38011733Y-96675414D02*
X37916495Y-96723033D01*
X32797809Y-88175314D02*
X32845428Y-88032457D01*
X32845428Y-88032457D02*
X32893047Y-87984838D01*
X32893047Y-87984838D02*
X32988285Y-87937219D01*
X32988285Y-87937219D02*
X33131142Y-87937219D01*
X33131142Y-87937219D02*
X33226380Y-87984838D01*
X33226380Y-87984838D02*
X33274000Y-88032457D01*
X33274000Y-88032457D02*
X33321619Y-88127695D01*
X33321619Y-88127695D02*
X33321619Y-88508647D01*
X33321619Y-88508647D02*
X32321619Y-88508647D01*
X32321619Y-88508647D02*
X32321619Y-88175314D01*
X32321619Y-88175314D02*
X32369238Y-88080076D01*
X32369238Y-88080076D02*
X32416857Y-88032457D01*
X32416857Y-88032457D02*
X32512095Y-87984838D01*
X32512095Y-87984838D02*
X32607333Y-87984838D01*
X32607333Y-87984838D02*
X32702571Y-88032457D01*
X32702571Y-88032457D02*
X32750190Y-88080076D01*
X32750190Y-88080076D02*
X32797809Y-88175314D01*
X32797809Y-88175314D02*
X32797809Y-88508647D01*
X32321619Y-87651504D02*
X32321619Y-87080076D01*
X33321619Y-87365790D02*
X32321619Y-87365790D01*
X33321619Y-86222933D02*
X33321619Y-86794361D01*
X33321619Y-86508647D02*
X32321619Y-86508647D01*
X32321619Y-86508647D02*
X32464476Y-86603885D01*
X32464476Y-86603885D02*
X32559714Y-86699123D01*
X32559714Y-86699123D02*
X32607333Y-86794361D01*
X95431666Y-91726609D02*
X95098333Y-91726609D01*
X95098333Y-92250419D02*
X95098333Y-91250419D01*
X95098333Y-91250419D02*
X95574523Y-91250419D01*
X96288809Y-91726609D02*
X96431666Y-91774228D01*
X96431666Y-91774228D02*
X96479285Y-91821847D01*
X96479285Y-91821847D02*
X96526904Y-91917085D01*
X96526904Y-91917085D02*
X96526904Y-92059942D01*
X96526904Y-92059942D02*
X96479285Y-92155180D01*
X96479285Y-92155180D02*
X96431666Y-92202800D01*
X96431666Y-92202800D02*
X96336428Y-92250419D01*
X96336428Y-92250419D02*
X95955476Y-92250419D01*
X95955476Y-92250419D02*
X95955476Y-91250419D01*
X95955476Y-91250419D02*
X96288809Y-91250419D01*
X96288809Y-91250419D02*
X96384047Y-91298038D01*
X96384047Y-91298038D02*
X96431666Y-91345657D01*
X96431666Y-91345657D02*
X96479285Y-91440895D01*
X96479285Y-91440895D02*
X96479285Y-91536133D01*
X96479285Y-91536133D02*
X96431666Y-91631371D01*
X96431666Y-91631371D02*
X96384047Y-91678990D01*
X96384047Y-91678990D02*
X96288809Y-91726609D01*
X96288809Y-91726609D02*
X95955476Y-91726609D01*
X96860238Y-91250419D02*
X97479285Y-91250419D01*
X97479285Y-91250419D02*
X97145952Y-91631371D01*
X97145952Y-91631371D02*
X97288809Y-91631371D01*
X97288809Y-91631371D02*
X97384047Y-91678990D01*
X97384047Y-91678990D02*
X97431666Y-91726609D01*
X97431666Y-91726609D02*
X97479285Y-91821847D01*
X97479285Y-91821847D02*
X97479285Y-92059942D01*
X97479285Y-92059942D02*
X97431666Y-92155180D01*
X97431666Y-92155180D02*
X97384047Y-92202800D01*
X97384047Y-92202800D02*
X97288809Y-92250419D01*
X97288809Y-92250419D02*
X97003095Y-92250419D01*
X97003095Y-92250419D02*
X96907857Y-92202800D01*
X96907857Y-92202800D02*
X96860238Y-92155180D01*
X42295719Y-97820594D02*
X41295719Y-97820594D01*
X41295719Y-97820594D02*
X41295719Y-97582499D01*
X41295719Y-97582499D02*
X41343338Y-97439642D01*
X41343338Y-97439642D02*
X41438576Y-97344404D01*
X41438576Y-97344404D02*
X41533814Y-97296785D01*
X41533814Y-97296785D02*
X41724290Y-97249166D01*
X41724290Y-97249166D02*
X41867147Y-97249166D01*
X41867147Y-97249166D02*
X42057623Y-97296785D01*
X42057623Y-97296785D02*
X42152861Y-97344404D01*
X42152861Y-97344404D02*
X42248100Y-97439642D01*
X42248100Y-97439642D02*
X42295719Y-97582499D01*
X42295719Y-97582499D02*
X42295719Y-97820594D01*
X41295719Y-96344404D02*
X41295719Y-96820594D01*
X41295719Y-96820594D02*
X41771909Y-96868213D01*
X41771909Y-96868213D02*
X41724290Y-96820594D01*
X41724290Y-96820594D02*
X41676671Y-96725356D01*
X41676671Y-96725356D02*
X41676671Y-96487261D01*
X41676671Y-96487261D02*
X41724290Y-96392023D01*
X41724290Y-96392023D02*
X41771909Y-96344404D01*
X41771909Y-96344404D02*
X41867147Y-96296785D01*
X41867147Y-96296785D02*
X42105242Y-96296785D01*
X42105242Y-96296785D02*
X42200480Y-96344404D01*
X42200480Y-96344404D02*
X42248100Y-96392023D01*
X42248100Y-96392023D02*
X42295719Y-96487261D01*
X42295719Y-96487261D02*
X42295719Y-96725356D01*
X42295719Y-96725356D02*
X42248100Y-96820594D01*
X42248100Y-96820594D02*
X42200480Y-96868213D01*
X89663695Y-62309219D02*
X89663695Y-63118742D01*
X89663695Y-63118742D02*
X89711314Y-63213980D01*
X89711314Y-63213980D02*
X89758933Y-63261600D01*
X89758933Y-63261600D02*
X89854171Y-63309219D01*
X89854171Y-63309219D02*
X90044647Y-63309219D01*
X90044647Y-63309219D02*
X90139885Y-63261600D01*
X90139885Y-63261600D02*
X90187504Y-63213980D01*
X90187504Y-63213980D02*
X90235123Y-63118742D01*
X90235123Y-63118742D02*
X90235123Y-62309219D01*
X91139885Y-62642552D02*
X91139885Y-63309219D01*
X90901790Y-62261600D02*
X90663695Y-62975885D01*
X90663695Y-62975885D02*
X91282742Y-62975885D01*
X87186188Y-65104219D02*
X86614760Y-65104219D01*
X86900474Y-65104219D02*
X86900474Y-64104219D01*
X86900474Y-64104219D02*
X86805236Y-64247076D01*
X86805236Y-64247076D02*
X86709998Y-64342314D01*
X86709998Y-64342314D02*
X86614760Y-64389933D01*
X109038095Y-83054819D02*
X109038095Y-83864342D01*
X109038095Y-83864342D02*
X109085714Y-83959580D01*
X109085714Y-83959580D02*
X109133333Y-84007200D01*
X109133333Y-84007200D02*
X109228571Y-84054819D01*
X109228571Y-84054819D02*
X109419047Y-84054819D01*
X109419047Y-84054819D02*
X109514285Y-84007200D01*
X109514285Y-84007200D02*
X109561904Y-83959580D01*
X109561904Y-83959580D02*
X109609523Y-83864342D01*
X109609523Y-83864342D02*
X109609523Y-83054819D01*
X110514285Y-83054819D02*
X110323809Y-83054819D01*
X110323809Y-83054819D02*
X110228571Y-83102438D01*
X110228571Y-83102438D02*
X110180952Y-83150057D01*
X110180952Y-83150057D02*
X110085714Y-83292914D01*
X110085714Y-83292914D02*
X110038095Y-83483390D01*
X110038095Y-83483390D02*
X110038095Y-83864342D01*
X110038095Y-83864342D02*
X110085714Y-83959580D01*
X110085714Y-83959580D02*
X110133333Y-84007200D01*
X110133333Y-84007200D02*
X110228571Y-84054819D01*
X110228571Y-84054819D02*
X110419047Y-84054819D01*
X110419047Y-84054819D02*
X110514285Y-84007200D01*
X110514285Y-84007200D02*
X110561904Y-83959580D01*
X110561904Y-83959580D02*
X110609523Y-83864342D01*
X110609523Y-83864342D02*
X110609523Y-83626247D01*
X110609523Y-83626247D02*
X110561904Y-83531009D01*
X110561904Y-83531009D02*
X110514285Y-83483390D01*
X110514285Y-83483390D02*
X110419047Y-83435771D01*
X110419047Y-83435771D02*
X110228571Y-83435771D01*
X110228571Y-83435771D02*
X110133333Y-83483390D01*
X110133333Y-83483390D02*
X110085714Y-83531009D01*
X110085714Y-83531009D02*
X110038095Y-83626247D01*
X114708207Y-84069819D02*
X114374874Y-83593628D01*
X114136779Y-84069819D02*
X114136779Y-83069819D01*
X114136779Y-83069819D02*
X114517731Y-83069819D01*
X114517731Y-83069819D02*
X114612969Y-83117438D01*
X114612969Y-83117438D02*
X114660588Y-83165057D01*
X114660588Y-83165057D02*
X114708207Y-83260295D01*
X114708207Y-83260295D02*
X114708207Y-83403152D01*
X114708207Y-83403152D02*
X114660588Y-83498390D01*
X114660588Y-83498390D02*
X114612969Y-83546009D01*
X114612969Y-83546009D02*
X114517731Y-83593628D01*
X114517731Y-83593628D02*
X114136779Y-83593628D01*
X115136779Y-84069819D02*
X115136779Y-83069819D01*
X115136779Y-83069819D02*
X115470112Y-83784104D01*
X115470112Y-83784104D02*
X115803445Y-83069819D01*
X115803445Y-83069819D02*
X115803445Y-84069819D01*
X116327255Y-84069819D02*
X116517731Y-84069819D01*
X116517731Y-84069819D02*
X116612969Y-84022200D01*
X116612969Y-84022200D02*
X116660588Y-83974580D01*
X116660588Y-83974580D02*
X116755826Y-83831723D01*
X116755826Y-83831723D02*
X116803445Y-83641247D01*
X116803445Y-83641247D02*
X116803445Y-83260295D01*
X116803445Y-83260295D02*
X116755826Y-83165057D01*
X116755826Y-83165057D02*
X116708207Y-83117438D01*
X116708207Y-83117438D02*
X116612969Y-83069819D01*
X116612969Y-83069819D02*
X116422493Y-83069819D01*
X116422493Y-83069819D02*
X116327255Y-83117438D01*
X116327255Y-83117438D02*
X116279636Y-83165057D01*
X116279636Y-83165057D02*
X116232017Y-83260295D01*
X116232017Y-83260295D02*
X116232017Y-83498390D01*
X116232017Y-83498390D02*
X116279636Y-83593628D01*
X116279636Y-83593628D02*
X116327255Y-83641247D01*
X116327255Y-83641247D02*
X116422493Y-83688866D01*
X116422493Y-83688866D02*
X116612969Y-83688866D01*
X116612969Y-83688866D02*
X116708207Y-83641247D01*
X116708207Y-83641247D02*
X116755826Y-83593628D01*
X116755826Y-83593628D02*
X116803445Y-83498390D01*
X117184398Y-83165057D02*
X117232017Y-83117438D01*
X117232017Y-83117438D02*
X117327255Y-83069819D01*
X117327255Y-83069819D02*
X117565350Y-83069819D01*
X117565350Y-83069819D02*
X117660588Y-83117438D01*
X117660588Y-83117438D02*
X117708207Y-83165057D01*
X117708207Y-83165057D02*
X117755826Y-83260295D01*
X117755826Y-83260295D02*
X117755826Y-83355533D01*
X117755826Y-83355533D02*
X117708207Y-83498390D01*
X117708207Y-83498390D02*
X117136779Y-84069819D01*
X117136779Y-84069819D02*
X117755826Y-84069819D01*
X35535542Y-119172080D02*
X35487923Y-119219700D01*
X35487923Y-119219700D02*
X35345066Y-119267319D01*
X35345066Y-119267319D02*
X35249828Y-119267319D01*
X35249828Y-119267319D02*
X35106971Y-119219700D01*
X35106971Y-119219700D02*
X35011733Y-119124461D01*
X35011733Y-119124461D02*
X34964114Y-119029223D01*
X34964114Y-119029223D02*
X34916495Y-118838747D01*
X34916495Y-118838747D02*
X34916495Y-118695890D01*
X34916495Y-118695890D02*
X34964114Y-118505414D01*
X34964114Y-118505414D02*
X35011733Y-118410176D01*
X35011733Y-118410176D02*
X35106971Y-118314938D01*
X35106971Y-118314938D02*
X35249828Y-118267319D01*
X35249828Y-118267319D02*
X35345066Y-118267319D01*
X35345066Y-118267319D02*
X35487923Y-118314938D01*
X35487923Y-118314938D02*
X35535542Y-118362557D01*
X36487923Y-119267319D02*
X35916495Y-119267319D01*
X36202209Y-119267319D02*
X36202209Y-118267319D01*
X36202209Y-118267319D02*
X36106971Y-118410176D01*
X36106971Y-118410176D02*
X36011733Y-118505414D01*
X36011733Y-118505414D02*
X35916495Y-118553033D01*
X37059352Y-118695890D02*
X36964114Y-118648271D01*
X36964114Y-118648271D02*
X36916495Y-118600652D01*
X36916495Y-118600652D02*
X36868876Y-118505414D01*
X36868876Y-118505414D02*
X36868876Y-118457795D01*
X36868876Y-118457795D02*
X36916495Y-118362557D01*
X36916495Y-118362557D02*
X36964114Y-118314938D01*
X36964114Y-118314938D02*
X37059352Y-118267319D01*
X37059352Y-118267319D02*
X37249828Y-118267319D01*
X37249828Y-118267319D02*
X37345066Y-118314938D01*
X37345066Y-118314938D02*
X37392685Y-118362557D01*
X37392685Y-118362557D02*
X37440304Y-118457795D01*
X37440304Y-118457795D02*
X37440304Y-118505414D01*
X37440304Y-118505414D02*
X37392685Y-118600652D01*
X37392685Y-118600652D02*
X37345066Y-118648271D01*
X37345066Y-118648271D02*
X37249828Y-118695890D01*
X37249828Y-118695890D02*
X37059352Y-118695890D01*
X37059352Y-118695890D02*
X36964114Y-118743509D01*
X36964114Y-118743509D02*
X36916495Y-118791128D01*
X36916495Y-118791128D02*
X36868876Y-118886366D01*
X36868876Y-118886366D02*
X36868876Y-119076842D01*
X36868876Y-119076842D02*
X36916495Y-119172080D01*
X36916495Y-119172080D02*
X36964114Y-119219700D01*
X36964114Y-119219700D02*
X37059352Y-119267319D01*
X37059352Y-119267319D02*
X37249828Y-119267319D01*
X37249828Y-119267319D02*
X37345066Y-119219700D01*
X37345066Y-119219700D02*
X37392685Y-119172080D01*
X37392685Y-119172080D02*
X37440304Y-119076842D01*
X37440304Y-119076842D02*
X37440304Y-118886366D01*
X37440304Y-118886366D02*
X37392685Y-118791128D01*
X37392685Y-118791128D02*
X37345066Y-118743509D01*
X37345066Y-118743509D02*
X37249828Y-118695890D01*
X80165719Y-95049166D02*
X79689528Y-95382499D01*
X80165719Y-95620594D02*
X79165719Y-95620594D01*
X79165719Y-95620594D02*
X79165719Y-95239642D01*
X79165719Y-95239642D02*
X79213338Y-95144404D01*
X79213338Y-95144404D02*
X79260957Y-95096785D01*
X79260957Y-95096785D02*
X79356195Y-95049166D01*
X79356195Y-95049166D02*
X79499052Y-95049166D01*
X79499052Y-95049166D02*
X79594290Y-95096785D01*
X79594290Y-95096785D02*
X79641909Y-95144404D01*
X79641909Y-95144404D02*
X79689528Y-95239642D01*
X79689528Y-95239642D02*
X79689528Y-95620594D01*
X80165719Y-94096785D02*
X80165719Y-94668213D01*
X80165719Y-94382499D02*
X79165719Y-94382499D01*
X79165719Y-94382499D02*
X79308576Y-94477737D01*
X79308576Y-94477737D02*
X79403814Y-94572975D01*
X79403814Y-94572975D02*
X79451433Y-94668213D01*
X30754419Y-140338133D02*
X31468704Y-140338133D01*
X31468704Y-140338133D02*
X31611561Y-140385752D01*
X31611561Y-140385752D02*
X31706800Y-140480990D01*
X31706800Y-140480990D02*
X31754419Y-140623847D01*
X31754419Y-140623847D02*
X31754419Y-140719085D01*
X31087752Y-139433371D02*
X31754419Y-139433371D01*
X30706800Y-139671466D02*
X31421085Y-139909561D01*
X31421085Y-139909561D02*
X31421085Y-139290514D01*
X39974233Y-133707319D02*
X39640900Y-133231128D01*
X39402805Y-133707319D02*
X39402805Y-132707319D01*
X39402805Y-132707319D02*
X39783757Y-132707319D01*
X39783757Y-132707319D02*
X39878995Y-132754938D01*
X39878995Y-132754938D02*
X39926614Y-132802557D01*
X39926614Y-132802557D02*
X39974233Y-132897795D01*
X39974233Y-132897795D02*
X39974233Y-133040652D01*
X39974233Y-133040652D02*
X39926614Y-133135890D01*
X39926614Y-133135890D02*
X39878995Y-133183509D01*
X39878995Y-133183509D02*
X39783757Y-133231128D01*
X39783757Y-133231128D02*
X39402805Y-133231128D01*
X40831376Y-133040652D02*
X40831376Y-133707319D01*
X40593281Y-132659700D02*
X40355186Y-133373985D01*
X40355186Y-133373985D02*
X40974233Y-133373985D01*
X64498042Y-122672080D02*
X64450423Y-122719700D01*
X64450423Y-122719700D02*
X64307566Y-122767319D01*
X64307566Y-122767319D02*
X64212328Y-122767319D01*
X64212328Y-122767319D02*
X64069471Y-122719700D01*
X64069471Y-122719700D02*
X63974233Y-122624461D01*
X63974233Y-122624461D02*
X63926614Y-122529223D01*
X63926614Y-122529223D02*
X63878995Y-122338747D01*
X63878995Y-122338747D02*
X63878995Y-122195890D01*
X63878995Y-122195890D02*
X63926614Y-122005414D01*
X63926614Y-122005414D02*
X63974233Y-121910176D01*
X63974233Y-121910176D02*
X64069471Y-121814938D01*
X64069471Y-121814938D02*
X64212328Y-121767319D01*
X64212328Y-121767319D02*
X64307566Y-121767319D01*
X64307566Y-121767319D02*
X64450423Y-121814938D01*
X64450423Y-121814938D02*
X64498042Y-121862557D01*
X65450423Y-122767319D02*
X64878995Y-122767319D01*
X65164709Y-122767319D02*
X65164709Y-121767319D01*
X65164709Y-121767319D02*
X65069471Y-121910176D01*
X65069471Y-121910176D02*
X64974233Y-122005414D01*
X64974233Y-122005414D02*
X64878995Y-122053033D01*
X66307566Y-122100652D02*
X66307566Y-122767319D01*
X66069471Y-121719700D02*
X65831376Y-122433985D01*
X65831376Y-122433985D02*
X66450423Y-122433985D01*
X37273042Y-124307319D02*
X36939709Y-123831128D01*
X36701614Y-124307319D02*
X36701614Y-123307319D01*
X36701614Y-123307319D02*
X37082566Y-123307319D01*
X37082566Y-123307319D02*
X37177804Y-123354938D01*
X37177804Y-123354938D02*
X37225423Y-123402557D01*
X37225423Y-123402557D02*
X37273042Y-123497795D01*
X37273042Y-123497795D02*
X37273042Y-123640652D01*
X37273042Y-123640652D02*
X37225423Y-123735890D01*
X37225423Y-123735890D02*
X37177804Y-123783509D01*
X37177804Y-123783509D02*
X37082566Y-123831128D01*
X37082566Y-123831128D02*
X36701614Y-123831128D01*
X37606376Y-123307319D02*
X38225423Y-123307319D01*
X38225423Y-123307319D02*
X37892090Y-123688271D01*
X37892090Y-123688271D02*
X38034947Y-123688271D01*
X38034947Y-123688271D02*
X38130185Y-123735890D01*
X38130185Y-123735890D02*
X38177804Y-123783509D01*
X38177804Y-123783509D02*
X38225423Y-123878747D01*
X38225423Y-123878747D02*
X38225423Y-124116842D01*
X38225423Y-124116842D02*
X38177804Y-124212080D01*
X38177804Y-124212080D02*
X38130185Y-124259700D01*
X38130185Y-124259700D02*
X38034947Y-124307319D01*
X38034947Y-124307319D02*
X37749233Y-124307319D01*
X37749233Y-124307319D02*
X37653995Y-124259700D01*
X37653995Y-124259700D02*
X37606376Y-124212080D01*
X38606376Y-123402557D02*
X38653995Y-123354938D01*
X38653995Y-123354938D02*
X38749233Y-123307319D01*
X38749233Y-123307319D02*
X38987328Y-123307319D01*
X38987328Y-123307319D02*
X39082566Y-123354938D01*
X39082566Y-123354938D02*
X39130185Y-123402557D01*
X39130185Y-123402557D02*
X39177804Y-123497795D01*
X39177804Y-123497795D02*
X39177804Y-123593033D01*
X39177804Y-123593033D02*
X39130185Y-123735890D01*
X39130185Y-123735890D02*
X38558757Y-124307319D01*
X38558757Y-124307319D02*
X39177804Y-124307319D01*
X37223042Y-127507319D02*
X36889709Y-127031128D01*
X36651614Y-127507319D02*
X36651614Y-126507319D01*
X36651614Y-126507319D02*
X37032566Y-126507319D01*
X37032566Y-126507319D02*
X37127804Y-126554938D01*
X37127804Y-126554938D02*
X37175423Y-126602557D01*
X37175423Y-126602557D02*
X37223042Y-126697795D01*
X37223042Y-126697795D02*
X37223042Y-126840652D01*
X37223042Y-126840652D02*
X37175423Y-126935890D01*
X37175423Y-126935890D02*
X37127804Y-126983509D01*
X37127804Y-126983509D02*
X37032566Y-127031128D01*
X37032566Y-127031128D02*
X36651614Y-127031128D01*
X37556376Y-126507319D02*
X38175423Y-126507319D01*
X38175423Y-126507319D02*
X37842090Y-126888271D01*
X37842090Y-126888271D02*
X37984947Y-126888271D01*
X37984947Y-126888271D02*
X38080185Y-126935890D01*
X38080185Y-126935890D02*
X38127804Y-126983509D01*
X38127804Y-126983509D02*
X38175423Y-127078747D01*
X38175423Y-127078747D02*
X38175423Y-127316842D01*
X38175423Y-127316842D02*
X38127804Y-127412080D01*
X38127804Y-127412080D02*
X38080185Y-127459700D01*
X38080185Y-127459700D02*
X37984947Y-127507319D01*
X37984947Y-127507319D02*
X37699233Y-127507319D01*
X37699233Y-127507319D02*
X37603995Y-127459700D01*
X37603995Y-127459700D02*
X37556376Y-127412080D01*
X39127804Y-127507319D02*
X38556376Y-127507319D01*
X38842090Y-127507319D02*
X38842090Y-126507319D01*
X38842090Y-126507319D02*
X38746852Y-126650176D01*
X38746852Y-126650176D02*
X38651614Y-126745414D01*
X38651614Y-126745414D02*
X38556376Y-126793033D01*
X43952805Y-124862319D02*
X43952805Y-123862319D01*
X43952805Y-123862319D02*
X44190900Y-123862319D01*
X44190900Y-123862319D02*
X44333757Y-123909938D01*
X44333757Y-123909938D02*
X44428995Y-124005176D01*
X44428995Y-124005176D02*
X44476614Y-124100414D01*
X44476614Y-124100414D02*
X44524233Y-124290890D01*
X44524233Y-124290890D02*
X44524233Y-124433747D01*
X44524233Y-124433747D02*
X44476614Y-124624223D01*
X44476614Y-124624223D02*
X44428995Y-124719461D01*
X44428995Y-124719461D02*
X44333757Y-124814700D01*
X44333757Y-124814700D02*
X44190900Y-124862319D01*
X44190900Y-124862319D02*
X43952805Y-124862319D01*
X44905186Y-123957557D02*
X44952805Y-123909938D01*
X44952805Y-123909938D02*
X45048043Y-123862319D01*
X45048043Y-123862319D02*
X45286138Y-123862319D01*
X45286138Y-123862319D02*
X45381376Y-123909938D01*
X45381376Y-123909938D02*
X45428995Y-123957557D01*
X45428995Y-123957557D02*
X45476614Y-124052795D01*
X45476614Y-124052795D02*
X45476614Y-124148033D01*
X45476614Y-124148033D02*
X45428995Y-124290890D01*
X45428995Y-124290890D02*
X44857567Y-124862319D01*
X44857567Y-124862319D02*
X45476614Y-124862319D01*
X41476614Y-126737319D02*
X40905186Y-126737319D01*
X41190900Y-126737319D02*
X41190900Y-125737319D01*
X41190900Y-125737319D02*
X41095662Y-125880176D01*
X41095662Y-125880176D02*
X41000424Y-125975414D01*
X41000424Y-125975414D02*
X40905186Y-126023033D01*
X95431666Y-97061009D02*
X95098333Y-97061009D01*
X95098333Y-97584819D02*
X95098333Y-96584819D01*
X95098333Y-96584819D02*
X95574523Y-96584819D01*
X96288809Y-97061009D02*
X96431666Y-97108628D01*
X96431666Y-97108628D02*
X96479285Y-97156247D01*
X96479285Y-97156247D02*
X96526904Y-97251485D01*
X96526904Y-97251485D02*
X96526904Y-97394342D01*
X96526904Y-97394342D02*
X96479285Y-97489580D01*
X96479285Y-97489580D02*
X96431666Y-97537200D01*
X96431666Y-97537200D02*
X96336428Y-97584819D01*
X96336428Y-97584819D02*
X95955476Y-97584819D01*
X95955476Y-97584819D02*
X95955476Y-96584819D01*
X95955476Y-96584819D02*
X96288809Y-96584819D01*
X96288809Y-96584819D02*
X96384047Y-96632438D01*
X96384047Y-96632438D02*
X96431666Y-96680057D01*
X96431666Y-96680057D02*
X96479285Y-96775295D01*
X96479285Y-96775295D02*
X96479285Y-96870533D01*
X96479285Y-96870533D02*
X96431666Y-96965771D01*
X96431666Y-96965771D02*
X96384047Y-97013390D01*
X96384047Y-97013390D02*
X96288809Y-97061009D01*
X96288809Y-97061009D02*
X95955476Y-97061009D01*
X97431666Y-96584819D02*
X96955476Y-96584819D01*
X96955476Y-96584819D02*
X96907857Y-97061009D01*
X96907857Y-97061009D02*
X96955476Y-97013390D01*
X96955476Y-97013390D02*
X97050714Y-96965771D01*
X97050714Y-96965771D02*
X97288809Y-96965771D01*
X97288809Y-96965771D02*
X97384047Y-97013390D01*
X97384047Y-97013390D02*
X97431666Y-97061009D01*
X97431666Y-97061009D02*
X97479285Y-97156247D01*
X97479285Y-97156247D02*
X97479285Y-97394342D01*
X97479285Y-97394342D02*
X97431666Y-97489580D01*
X97431666Y-97489580D02*
X97384047Y-97537200D01*
X97384047Y-97537200D02*
X97288809Y-97584819D01*
X97288809Y-97584819D02*
X97050714Y-97584819D01*
X97050714Y-97584819D02*
X96955476Y-97537200D01*
X96955476Y-97537200D02*
X96907857Y-97489580D01*
X65074233Y-119772080D02*
X65026614Y-119819700D01*
X65026614Y-119819700D02*
X64883757Y-119867319D01*
X64883757Y-119867319D02*
X64788519Y-119867319D01*
X64788519Y-119867319D02*
X64645662Y-119819700D01*
X64645662Y-119819700D02*
X64550424Y-119724461D01*
X64550424Y-119724461D02*
X64502805Y-119629223D01*
X64502805Y-119629223D02*
X64455186Y-119438747D01*
X64455186Y-119438747D02*
X64455186Y-119295890D01*
X64455186Y-119295890D02*
X64502805Y-119105414D01*
X64502805Y-119105414D02*
X64550424Y-119010176D01*
X64550424Y-119010176D02*
X64645662Y-118914938D01*
X64645662Y-118914938D02*
X64788519Y-118867319D01*
X64788519Y-118867319D02*
X64883757Y-118867319D01*
X64883757Y-118867319D02*
X65026614Y-118914938D01*
X65026614Y-118914938D02*
X65074233Y-118962557D01*
X65931376Y-119200652D02*
X65931376Y-119867319D01*
X65693281Y-118819700D02*
X65455186Y-119533985D01*
X65455186Y-119533985D02*
X66074233Y-119533985D01*
X51102805Y-124887319D02*
X51102805Y-123887319D01*
X51102805Y-123887319D02*
X51340900Y-123887319D01*
X51340900Y-123887319D02*
X51483757Y-123934938D01*
X51483757Y-123934938D02*
X51578995Y-124030176D01*
X51578995Y-124030176D02*
X51626614Y-124125414D01*
X51626614Y-124125414D02*
X51674233Y-124315890D01*
X51674233Y-124315890D02*
X51674233Y-124458747D01*
X51674233Y-124458747D02*
X51626614Y-124649223D01*
X51626614Y-124649223D02*
X51578995Y-124744461D01*
X51578995Y-124744461D02*
X51483757Y-124839700D01*
X51483757Y-124839700D02*
X51340900Y-124887319D01*
X51340900Y-124887319D02*
X51102805Y-124887319D01*
X52626614Y-124887319D02*
X52055186Y-124887319D01*
X52340900Y-124887319D02*
X52340900Y-123887319D01*
X52340900Y-123887319D02*
X52245662Y-124030176D01*
X52245662Y-124030176D02*
X52150424Y-124125414D01*
X52150424Y-124125414D02*
X52055186Y-124173033D01*
X48626614Y-126762319D02*
X48055186Y-126762319D01*
X48340900Y-126762319D02*
X48340900Y-125762319D01*
X48340900Y-125762319D02*
X48245662Y-125905176D01*
X48245662Y-125905176D02*
X48150424Y-126000414D01*
X48150424Y-126000414D02*
X48055186Y-126048033D01*
X69577009Y-88175314D02*
X69624628Y-88032457D01*
X69624628Y-88032457D02*
X69672247Y-87984838D01*
X69672247Y-87984838D02*
X69767485Y-87937219D01*
X69767485Y-87937219D02*
X69910342Y-87937219D01*
X69910342Y-87937219D02*
X70005580Y-87984838D01*
X70005580Y-87984838D02*
X70053200Y-88032457D01*
X70053200Y-88032457D02*
X70100819Y-88127695D01*
X70100819Y-88127695D02*
X70100819Y-88508647D01*
X70100819Y-88508647D02*
X69100819Y-88508647D01*
X69100819Y-88508647D02*
X69100819Y-88175314D01*
X69100819Y-88175314D02*
X69148438Y-88080076D01*
X69148438Y-88080076D02*
X69196057Y-88032457D01*
X69196057Y-88032457D02*
X69291295Y-87984838D01*
X69291295Y-87984838D02*
X69386533Y-87984838D01*
X69386533Y-87984838D02*
X69481771Y-88032457D01*
X69481771Y-88032457D02*
X69529390Y-88080076D01*
X69529390Y-88080076D02*
X69577009Y-88175314D01*
X69577009Y-88175314D02*
X69577009Y-88508647D01*
X69100819Y-87651504D02*
X69100819Y-87080076D01*
X70100819Y-87365790D02*
X69100819Y-87365790D01*
X69100819Y-86841980D02*
X69100819Y-86222933D01*
X69100819Y-86222933D02*
X69481771Y-86556266D01*
X69481771Y-86556266D02*
X69481771Y-86413409D01*
X69481771Y-86413409D02*
X69529390Y-86318171D01*
X69529390Y-86318171D02*
X69577009Y-86270552D01*
X69577009Y-86270552D02*
X69672247Y-86222933D01*
X69672247Y-86222933D02*
X69910342Y-86222933D01*
X69910342Y-86222933D02*
X70005580Y-86270552D01*
X70005580Y-86270552D02*
X70053200Y-86318171D01*
X70053200Y-86318171D02*
X70100819Y-86413409D01*
X70100819Y-86413409D02*
X70100819Y-86699123D01*
X70100819Y-86699123D02*
X70053200Y-86794361D01*
X70053200Y-86794361D02*
X70005580Y-86841980D01*
X95431666Y-86471009D02*
X95098333Y-86471009D01*
X95098333Y-86994819D02*
X95098333Y-85994819D01*
X95098333Y-85994819D02*
X95574523Y-85994819D01*
X96288809Y-86471009D02*
X96431666Y-86518628D01*
X96431666Y-86518628D02*
X96479285Y-86566247D01*
X96479285Y-86566247D02*
X96526904Y-86661485D01*
X96526904Y-86661485D02*
X96526904Y-86804342D01*
X96526904Y-86804342D02*
X96479285Y-86899580D01*
X96479285Y-86899580D02*
X96431666Y-86947200D01*
X96431666Y-86947200D02*
X96336428Y-86994819D01*
X96336428Y-86994819D02*
X95955476Y-86994819D01*
X95955476Y-86994819D02*
X95955476Y-85994819D01*
X95955476Y-85994819D02*
X96288809Y-85994819D01*
X96288809Y-85994819D02*
X96384047Y-86042438D01*
X96384047Y-86042438D02*
X96431666Y-86090057D01*
X96431666Y-86090057D02*
X96479285Y-86185295D01*
X96479285Y-86185295D02*
X96479285Y-86280533D01*
X96479285Y-86280533D02*
X96431666Y-86375771D01*
X96431666Y-86375771D02*
X96384047Y-86423390D01*
X96384047Y-86423390D02*
X96288809Y-86471009D01*
X96288809Y-86471009D02*
X95955476Y-86471009D01*
X97479285Y-86994819D02*
X96907857Y-86994819D01*
X97193571Y-86994819D02*
X97193571Y-85994819D01*
X97193571Y-85994819D02*
X97098333Y-86137676D01*
X97098333Y-86137676D02*
X97003095Y-86232914D01*
X97003095Y-86232914D02*
X96907857Y-86280533D01*
X25507567Y-95419700D02*
X25650424Y-95467319D01*
X25650424Y-95467319D02*
X25888519Y-95467319D01*
X25888519Y-95467319D02*
X25983757Y-95419700D01*
X25983757Y-95419700D02*
X26031376Y-95372080D01*
X26031376Y-95372080D02*
X26078995Y-95276842D01*
X26078995Y-95276842D02*
X26078995Y-95181604D01*
X26078995Y-95181604D02*
X26031376Y-95086366D01*
X26031376Y-95086366D02*
X25983757Y-95038747D01*
X25983757Y-95038747D02*
X25888519Y-94991128D01*
X25888519Y-94991128D02*
X25698043Y-94943509D01*
X25698043Y-94943509D02*
X25602805Y-94895890D01*
X25602805Y-94895890D02*
X25555186Y-94848271D01*
X25555186Y-94848271D02*
X25507567Y-94753033D01*
X25507567Y-94753033D02*
X25507567Y-94657795D01*
X25507567Y-94657795D02*
X25555186Y-94562557D01*
X25555186Y-94562557D02*
X25602805Y-94514938D01*
X25602805Y-94514938D02*
X25698043Y-94467319D01*
X25698043Y-94467319D02*
X25936138Y-94467319D01*
X25936138Y-94467319D02*
X26078995Y-94514938D01*
X26412329Y-94467319D02*
X26650424Y-95467319D01*
X26650424Y-95467319D02*
X26840900Y-94753033D01*
X26840900Y-94753033D02*
X27031376Y-95467319D01*
X27031376Y-95467319D02*
X27269472Y-94467319D01*
X27602805Y-94562557D02*
X27650424Y-94514938D01*
X27650424Y-94514938D02*
X27745662Y-94467319D01*
X27745662Y-94467319D02*
X27983757Y-94467319D01*
X27983757Y-94467319D02*
X28078995Y-94514938D01*
X28078995Y-94514938D02*
X28126614Y-94562557D01*
X28126614Y-94562557D02*
X28174233Y-94657795D01*
X28174233Y-94657795D02*
X28174233Y-94753033D01*
X28174233Y-94753033D02*
X28126614Y-94895890D01*
X28126614Y-94895890D02*
X27555186Y-95467319D01*
X27555186Y-95467319D02*
X28174233Y-95467319D01*
X95381866Y-99702209D02*
X95048533Y-99702209D01*
X95048533Y-100226019D02*
X95048533Y-99226019D01*
X95048533Y-99226019D02*
X95524723Y-99226019D01*
X96239009Y-99702209D02*
X96381866Y-99749828D01*
X96381866Y-99749828D02*
X96429485Y-99797447D01*
X96429485Y-99797447D02*
X96477104Y-99892685D01*
X96477104Y-99892685D02*
X96477104Y-100035542D01*
X96477104Y-100035542D02*
X96429485Y-100130780D01*
X96429485Y-100130780D02*
X96381866Y-100178400D01*
X96381866Y-100178400D02*
X96286628Y-100226019D01*
X96286628Y-100226019D02*
X95905676Y-100226019D01*
X95905676Y-100226019D02*
X95905676Y-99226019D01*
X95905676Y-99226019D02*
X96239009Y-99226019D01*
X96239009Y-99226019D02*
X96334247Y-99273638D01*
X96334247Y-99273638D02*
X96381866Y-99321257D01*
X96381866Y-99321257D02*
X96429485Y-99416495D01*
X96429485Y-99416495D02*
X96429485Y-99511733D01*
X96429485Y-99511733D02*
X96381866Y-99606971D01*
X96381866Y-99606971D02*
X96334247Y-99654590D01*
X96334247Y-99654590D02*
X96239009Y-99702209D01*
X96239009Y-99702209D02*
X95905676Y-99702209D01*
X97334247Y-99226019D02*
X97143771Y-99226019D01*
X97143771Y-99226019D02*
X97048533Y-99273638D01*
X97048533Y-99273638D02*
X97000914Y-99321257D01*
X97000914Y-99321257D02*
X96905676Y-99464114D01*
X96905676Y-99464114D02*
X96858057Y-99654590D01*
X96858057Y-99654590D02*
X96858057Y-100035542D01*
X96858057Y-100035542D02*
X96905676Y-100130780D01*
X96905676Y-100130780D02*
X96953295Y-100178400D01*
X96953295Y-100178400D02*
X97048533Y-100226019D01*
X97048533Y-100226019D02*
X97239009Y-100226019D01*
X97239009Y-100226019D02*
X97334247Y-100178400D01*
X97334247Y-100178400D02*
X97381866Y-100130780D01*
X97381866Y-100130780D02*
X97429485Y-100035542D01*
X97429485Y-100035542D02*
X97429485Y-99797447D01*
X97429485Y-99797447D02*
X97381866Y-99702209D01*
X97381866Y-99702209D02*
X97334247Y-99654590D01*
X97334247Y-99654590D02*
X97239009Y-99606971D01*
X97239009Y-99606971D02*
X97048533Y-99606971D01*
X97048533Y-99606971D02*
X96953295Y-99654590D01*
X96953295Y-99654590D02*
X96905676Y-99702209D01*
X96905676Y-99702209D02*
X96858057Y-99797447D01*
X64077790Y-50000685D02*
X64030171Y-50143542D01*
X64030171Y-50143542D02*
X63982552Y-50191161D01*
X63982552Y-50191161D02*
X63887314Y-50238780D01*
X63887314Y-50238780D02*
X63744457Y-50238780D01*
X63744457Y-50238780D02*
X63649219Y-50191161D01*
X63649219Y-50191161D02*
X63601600Y-50143542D01*
X63601600Y-50143542D02*
X63553980Y-50048304D01*
X63553980Y-50048304D02*
X63553980Y-49667352D01*
X63553980Y-49667352D02*
X64553980Y-49667352D01*
X64553980Y-49667352D02*
X64553980Y-50000685D01*
X64553980Y-50000685D02*
X64506361Y-50095923D01*
X64506361Y-50095923D02*
X64458742Y-50143542D01*
X64458742Y-50143542D02*
X64363504Y-50191161D01*
X64363504Y-50191161D02*
X64268266Y-50191161D01*
X64268266Y-50191161D02*
X64173028Y-50143542D01*
X64173028Y-50143542D02*
X64125409Y-50095923D01*
X64125409Y-50095923D02*
X64077790Y-50000685D01*
X64077790Y-50000685D02*
X64077790Y-49667352D01*
X64553980Y-50524495D02*
X64553980Y-51095923D01*
X63553980Y-50810209D02*
X64553980Y-50810209D01*
X64458742Y-51381638D02*
X64506361Y-51429257D01*
X64506361Y-51429257D02*
X64553980Y-51524495D01*
X64553980Y-51524495D02*
X64553980Y-51762590D01*
X64553980Y-51762590D02*
X64506361Y-51857828D01*
X64506361Y-51857828D02*
X64458742Y-51905447D01*
X64458742Y-51905447D02*
X64363504Y-51953066D01*
X64363504Y-51953066D02*
X64268266Y-51953066D01*
X64268266Y-51953066D02*
X64125409Y-51905447D01*
X64125409Y-51905447D02*
X63553980Y-51334019D01*
X63553980Y-51334019D02*
X63553980Y-51953066D01*
X72644095Y-126684819D02*
X72644095Y-127494342D01*
X72644095Y-127494342D02*
X72691714Y-127589580D01*
X72691714Y-127589580D02*
X72739333Y-127637200D01*
X72739333Y-127637200D02*
X72834571Y-127684819D01*
X72834571Y-127684819D02*
X73025047Y-127684819D01*
X73025047Y-127684819D02*
X73120285Y-127637200D01*
X73120285Y-127637200D02*
X73167904Y-127589580D01*
X73167904Y-127589580D02*
X73215523Y-127494342D01*
X73215523Y-127494342D02*
X73215523Y-126684819D01*
X73596476Y-126684819D02*
X74215523Y-126684819D01*
X74215523Y-126684819D02*
X73882190Y-127065771D01*
X73882190Y-127065771D02*
X74025047Y-127065771D01*
X74025047Y-127065771D02*
X74120285Y-127113390D01*
X74120285Y-127113390D02*
X74167904Y-127161009D01*
X74167904Y-127161009D02*
X74215523Y-127256247D01*
X74215523Y-127256247D02*
X74215523Y-127494342D01*
X74215523Y-127494342D02*
X74167904Y-127589580D01*
X74167904Y-127589580D02*
X74120285Y-127637200D01*
X74120285Y-127637200D02*
X74025047Y-127684819D01*
X74025047Y-127684819D02*
X73739333Y-127684819D01*
X73739333Y-127684819D02*
X73644095Y-127637200D01*
X73644095Y-127637200D02*
X73596476Y-127589580D01*
X70666588Y-128499819D02*
X70095160Y-128499819D01*
X70380874Y-128499819D02*
X70380874Y-127499819D01*
X70380874Y-127499819D02*
X70285636Y-127642676D01*
X70285636Y-127642676D02*
X70190398Y-127737914D01*
X70190398Y-127737914D02*
X70095160Y-127785533D01*
X68195719Y-110144404D02*
X69005242Y-110144404D01*
X69005242Y-110144404D02*
X69100480Y-110096785D01*
X69100480Y-110096785D02*
X69148100Y-110049166D01*
X69148100Y-110049166D02*
X69195719Y-109953928D01*
X69195719Y-109953928D02*
X69195719Y-109763452D01*
X69195719Y-109763452D02*
X69148100Y-109668214D01*
X69148100Y-109668214D02*
X69100480Y-109620595D01*
X69100480Y-109620595D02*
X69005242Y-109572976D01*
X69005242Y-109572976D02*
X68195719Y-109572976D01*
X68195719Y-108620595D02*
X68195719Y-109096785D01*
X68195719Y-109096785D02*
X68671909Y-109144404D01*
X68671909Y-109144404D02*
X68624290Y-109096785D01*
X68624290Y-109096785D02*
X68576671Y-109001547D01*
X68576671Y-109001547D02*
X68576671Y-108763452D01*
X68576671Y-108763452D02*
X68624290Y-108668214D01*
X68624290Y-108668214D02*
X68671909Y-108620595D01*
X68671909Y-108620595D02*
X68767147Y-108572976D01*
X68767147Y-108572976D02*
X69005242Y-108572976D01*
X69005242Y-108572976D02*
X69100480Y-108620595D01*
X69100480Y-108620595D02*
X69148100Y-108668214D01*
X69148100Y-108668214D02*
X69195719Y-108763452D01*
X69195719Y-108763452D02*
X69195719Y-109001547D01*
X69195719Y-109001547D02*
X69148100Y-109096785D01*
X69148100Y-109096785D02*
X69100480Y-109144404D01*
X95431666Y-94165009D02*
X95098333Y-94165009D01*
X95098333Y-94688819D02*
X95098333Y-93688819D01*
X95098333Y-93688819D02*
X95574523Y-93688819D01*
X96288809Y-94165009D02*
X96431666Y-94212628D01*
X96431666Y-94212628D02*
X96479285Y-94260247D01*
X96479285Y-94260247D02*
X96526904Y-94355485D01*
X96526904Y-94355485D02*
X96526904Y-94498342D01*
X96526904Y-94498342D02*
X96479285Y-94593580D01*
X96479285Y-94593580D02*
X96431666Y-94641200D01*
X96431666Y-94641200D02*
X96336428Y-94688819D01*
X96336428Y-94688819D02*
X95955476Y-94688819D01*
X95955476Y-94688819D02*
X95955476Y-93688819D01*
X95955476Y-93688819D02*
X96288809Y-93688819D01*
X96288809Y-93688819D02*
X96384047Y-93736438D01*
X96384047Y-93736438D02*
X96431666Y-93784057D01*
X96431666Y-93784057D02*
X96479285Y-93879295D01*
X96479285Y-93879295D02*
X96479285Y-93974533D01*
X96479285Y-93974533D02*
X96431666Y-94069771D01*
X96431666Y-94069771D02*
X96384047Y-94117390D01*
X96384047Y-94117390D02*
X96288809Y-94165009D01*
X96288809Y-94165009D02*
X95955476Y-94165009D01*
X97384047Y-94022152D02*
X97384047Y-94688819D01*
X97145952Y-93641200D02*
X96907857Y-94355485D01*
X96907857Y-94355485D02*
X97526904Y-94355485D01*
X34578995Y-104012319D02*
X34578995Y-104821842D01*
X34578995Y-104821842D02*
X34626614Y-104917080D01*
X34626614Y-104917080D02*
X34674233Y-104964700D01*
X34674233Y-104964700D02*
X34769471Y-105012319D01*
X34769471Y-105012319D02*
X34959947Y-105012319D01*
X34959947Y-105012319D02*
X35055185Y-104964700D01*
X35055185Y-104964700D02*
X35102804Y-104917080D01*
X35102804Y-104917080D02*
X35150423Y-104821842D01*
X35150423Y-104821842D02*
X35150423Y-104012319D01*
X35531376Y-104012319D02*
X36198042Y-104012319D01*
X36198042Y-104012319D02*
X35769471Y-105012319D01*
X63634819Y-137633333D02*
X64349104Y-137633333D01*
X64349104Y-137633333D02*
X64491961Y-137680952D01*
X64491961Y-137680952D02*
X64587200Y-137776190D01*
X64587200Y-137776190D02*
X64634819Y-137919047D01*
X64634819Y-137919047D02*
X64634819Y-138014285D01*
X63730057Y-137204761D02*
X63682438Y-137157142D01*
X63682438Y-137157142D02*
X63634819Y-137061904D01*
X63634819Y-137061904D02*
X63634819Y-136823809D01*
X63634819Y-136823809D02*
X63682438Y-136728571D01*
X63682438Y-136728571D02*
X63730057Y-136680952D01*
X63730057Y-136680952D02*
X63825295Y-136633333D01*
X63825295Y-136633333D02*
X63920533Y-136633333D01*
X63920533Y-136633333D02*
X64063390Y-136680952D01*
X64063390Y-136680952D02*
X64634819Y-137252380D01*
X64634819Y-137252380D02*
X64634819Y-136633333D01*
X69770480Y-102325357D02*
X69818100Y-102372976D01*
X69818100Y-102372976D02*
X69865719Y-102515833D01*
X69865719Y-102515833D02*
X69865719Y-102611071D01*
X69865719Y-102611071D02*
X69818100Y-102753928D01*
X69818100Y-102753928D02*
X69722861Y-102849166D01*
X69722861Y-102849166D02*
X69627623Y-102896785D01*
X69627623Y-102896785D02*
X69437147Y-102944404D01*
X69437147Y-102944404D02*
X69294290Y-102944404D01*
X69294290Y-102944404D02*
X69103814Y-102896785D01*
X69103814Y-102896785D02*
X69008576Y-102849166D01*
X69008576Y-102849166D02*
X68913338Y-102753928D01*
X68913338Y-102753928D02*
X68865719Y-102611071D01*
X68865719Y-102611071D02*
X68865719Y-102515833D01*
X68865719Y-102515833D02*
X68913338Y-102372976D01*
X68913338Y-102372976D02*
X68960957Y-102325357D01*
X69865719Y-101372976D02*
X69865719Y-101944404D01*
X69865719Y-101658690D02*
X68865719Y-101658690D01*
X68865719Y-101658690D02*
X69008576Y-101753928D01*
X69008576Y-101753928D02*
X69103814Y-101849166D01*
X69103814Y-101849166D02*
X69151433Y-101944404D01*
X68865719Y-101039642D02*
X68865719Y-100372976D01*
X68865719Y-100372976D02*
X69865719Y-100801547D01*
X31785542Y-112307319D02*
X31452209Y-111831128D01*
X31214114Y-112307319D02*
X31214114Y-111307319D01*
X31214114Y-111307319D02*
X31595066Y-111307319D01*
X31595066Y-111307319D02*
X31690304Y-111354938D01*
X31690304Y-111354938D02*
X31737923Y-111402557D01*
X31737923Y-111402557D02*
X31785542Y-111497795D01*
X31785542Y-111497795D02*
X31785542Y-111640652D01*
X31785542Y-111640652D02*
X31737923Y-111735890D01*
X31737923Y-111735890D02*
X31690304Y-111783509D01*
X31690304Y-111783509D02*
X31595066Y-111831128D01*
X31595066Y-111831128D02*
X31214114Y-111831128D01*
X32118876Y-111307319D02*
X32737923Y-111307319D01*
X32737923Y-111307319D02*
X32404590Y-111688271D01*
X32404590Y-111688271D02*
X32547447Y-111688271D01*
X32547447Y-111688271D02*
X32642685Y-111735890D01*
X32642685Y-111735890D02*
X32690304Y-111783509D01*
X32690304Y-111783509D02*
X32737923Y-111878747D01*
X32737923Y-111878747D02*
X32737923Y-112116842D01*
X32737923Y-112116842D02*
X32690304Y-112212080D01*
X32690304Y-112212080D02*
X32642685Y-112259700D01*
X32642685Y-112259700D02*
X32547447Y-112307319D01*
X32547447Y-112307319D02*
X32261733Y-112307319D01*
X32261733Y-112307319D02*
X32166495Y-112259700D01*
X32166495Y-112259700D02*
X32118876Y-112212080D01*
X33071257Y-111307319D02*
X33690304Y-111307319D01*
X33690304Y-111307319D02*
X33356971Y-111688271D01*
X33356971Y-111688271D02*
X33499828Y-111688271D01*
X33499828Y-111688271D02*
X33595066Y-111735890D01*
X33595066Y-111735890D02*
X33642685Y-111783509D01*
X33642685Y-111783509D02*
X33690304Y-111878747D01*
X33690304Y-111878747D02*
X33690304Y-112116842D01*
X33690304Y-112116842D02*
X33642685Y-112212080D01*
X33642685Y-112212080D02*
X33595066Y-112259700D01*
X33595066Y-112259700D02*
X33499828Y-112307319D01*
X33499828Y-112307319D02*
X33214114Y-112307319D01*
X33214114Y-112307319D02*
X33118876Y-112259700D01*
X33118876Y-112259700D02*
X33071257Y-112212080D01*
X51270480Y-113549166D02*
X51318100Y-113596785D01*
X51318100Y-113596785D02*
X51365719Y-113739642D01*
X51365719Y-113739642D02*
X51365719Y-113834880D01*
X51365719Y-113834880D02*
X51318100Y-113977737D01*
X51318100Y-113977737D02*
X51222861Y-114072975D01*
X51222861Y-114072975D02*
X51127623Y-114120594D01*
X51127623Y-114120594D02*
X50937147Y-114168213D01*
X50937147Y-114168213D02*
X50794290Y-114168213D01*
X50794290Y-114168213D02*
X50603814Y-114120594D01*
X50603814Y-114120594D02*
X50508576Y-114072975D01*
X50508576Y-114072975D02*
X50413338Y-113977737D01*
X50413338Y-113977737D02*
X50365719Y-113834880D01*
X50365719Y-113834880D02*
X50365719Y-113739642D01*
X50365719Y-113739642D02*
X50413338Y-113596785D01*
X50413338Y-113596785D02*
X50460957Y-113549166D01*
X51365719Y-113072975D02*
X51365719Y-112882499D01*
X51365719Y-112882499D02*
X51318100Y-112787261D01*
X51318100Y-112787261D02*
X51270480Y-112739642D01*
X51270480Y-112739642D02*
X51127623Y-112644404D01*
X51127623Y-112644404D02*
X50937147Y-112596785D01*
X50937147Y-112596785D02*
X50556195Y-112596785D01*
X50556195Y-112596785D02*
X50460957Y-112644404D01*
X50460957Y-112644404D02*
X50413338Y-112692023D01*
X50413338Y-112692023D02*
X50365719Y-112787261D01*
X50365719Y-112787261D02*
X50365719Y-112977737D01*
X50365719Y-112977737D02*
X50413338Y-113072975D01*
X50413338Y-113072975D02*
X50460957Y-113120594D01*
X50460957Y-113120594D02*
X50556195Y-113168213D01*
X50556195Y-113168213D02*
X50794290Y-113168213D01*
X50794290Y-113168213D02*
X50889528Y-113120594D01*
X50889528Y-113120594D02*
X50937147Y-113072975D01*
X50937147Y-113072975D02*
X50984766Y-112977737D01*
X50984766Y-112977737D02*
X50984766Y-112787261D01*
X50984766Y-112787261D02*
X50937147Y-112692023D01*
X50937147Y-112692023D02*
X50889528Y-112644404D01*
X50889528Y-112644404D02*
X50794290Y-112596785D01*
X51833333Y-130929580D02*
X51785714Y-130977200D01*
X51785714Y-130977200D02*
X51642857Y-131024819D01*
X51642857Y-131024819D02*
X51547619Y-131024819D01*
X51547619Y-131024819D02*
X51404762Y-130977200D01*
X51404762Y-130977200D02*
X51309524Y-130881961D01*
X51309524Y-130881961D02*
X51261905Y-130786723D01*
X51261905Y-130786723D02*
X51214286Y-130596247D01*
X51214286Y-130596247D02*
X51214286Y-130453390D01*
X51214286Y-130453390D02*
X51261905Y-130262914D01*
X51261905Y-130262914D02*
X51309524Y-130167676D01*
X51309524Y-130167676D02*
X51404762Y-130072438D01*
X51404762Y-130072438D02*
X51547619Y-130024819D01*
X51547619Y-130024819D02*
X51642857Y-130024819D01*
X51642857Y-130024819D02*
X51785714Y-130072438D01*
X51785714Y-130072438D02*
X51833333Y-130120057D01*
X52214286Y-130120057D02*
X52261905Y-130072438D01*
X52261905Y-130072438D02*
X52357143Y-130024819D01*
X52357143Y-130024819D02*
X52595238Y-130024819D01*
X52595238Y-130024819D02*
X52690476Y-130072438D01*
X52690476Y-130072438D02*
X52738095Y-130120057D01*
X52738095Y-130120057D02*
X52785714Y-130215295D01*
X52785714Y-130215295D02*
X52785714Y-130310533D01*
X52785714Y-130310533D02*
X52738095Y-130453390D01*
X52738095Y-130453390D02*
X52166667Y-131024819D01*
X52166667Y-131024819D02*
X52785714Y-131024819D01*
X35535542Y-114152080D02*
X35487923Y-114199700D01*
X35487923Y-114199700D02*
X35345066Y-114247319D01*
X35345066Y-114247319D02*
X35249828Y-114247319D01*
X35249828Y-114247319D02*
X35106971Y-114199700D01*
X35106971Y-114199700D02*
X35011733Y-114104461D01*
X35011733Y-114104461D02*
X34964114Y-114009223D01*
X34964114Y-114009223D02*
X34916495Y-113818747D01*
X34916495Y-113818747D02*
X34916495Y-113675890D01*
X34916495Y-113675890D02*
X34964114Y-113485414D01*
X34964114Y-113485414D02*
X35011733Y-113390176D01*
X35011733Y-113390176D02*
X35106971Y-113294938D01*
X35106971Y-113294938D02*
X35249828Y-113247319D01*
X35249828Y-113247319D02*
X35345066Y-113247319D01*
X35345066Y-113247319D02*
X35487923Y-113294938D01*
X35487923Y-113294938D02*
X35535542Y-113342557D01*
X35916495Y-113342557D02*
X35964114Y-113294938D01*
X35964114Y-113294938D02*
X36059352Y-113247319D01*
X36059352Y-113247319D02*
X36297447Y-113247319D01*
X36297447Y-113247319D02*
X36392685Y-113294938D01*
X36392685Y-113294938D02*
X36440304Y-113342557D01*
X36440304Y-113342557D02*
X36487923Y-113437795D01*
X36487923Y-113437795D02*
X36487923Y-113533033D01*
X36487923Y-113533033D02*
X36440304Y-113675890D01*
X36440304Y-113675890D02*
X35868876Y-114247319D01*
X35868876Y-114247319D02*
X36487923Y-114247319D01*
X37106971Y-113247319D02*
X37202209Y-113247319D01*
X37202209Y-113247319D02*
X37297447Y-113294938D01*
X37297447Y-113294938D02*
X37345066Y-113342557D01*
X37345066Y-113342557D02*
X37392685Y-113437795D01*
X37392685Y-113437795D02*
X37440304Y-113628271D01*
X37440304Y-113628271D02*
X37440304Y-113866366D01*
X37440304Y-113866366D02*
X37392685Y-114056842D01*
X37392685Y-114056842D02*
X37345066Y-114152080D01*
X37345066Y-114152080D02*
X37297447Y-114199700D01*
X37297447Y-114199700D02*
X37202209Y-114247319D01*
X37202209Y-114247319D02*
X37106971Y-114247319D01*
X37106971Y-114247319D02*
X37011733Y-114199700D01*
X37011733Y-114199700D02*
X36964114Y-114152080D01*
X36964114Y-114152080D02*
X36916495Y-114056842D01*
X36916495Y-114056842D02*
X36868876Y-113866366D01*
X36868876Y-113866366D02*
X36868876Y-113628271D01*
X36868876Y-113628271D02*
X36916495Y-113437795D01*
X36916495Y-113437795D02*
X36964114Y-113342557D01*
X36964114Y-113342557D02*
X37011733Y-113294938D01*
X37011733Y-113294938D02*
X37106971Y-113247319D01*
X33277805Y-127353219D02*
X33277805Y-126353219D01*
X33277805Y-126353219D02*
X33515900Y-126353219D01*
X33515900Y-126353219D02*
X33658757Y-126400838D01*
X33658757Y-126400838D02*
X33753995Y-126496076D01*
X33753995Y-126496076D02*
X33801614Y-126591314D01*
X33801614Y-126591314D02*
X33849233Y-126781790D01*
X33849233Y-126781790D02*
X33849233Y-126924647D01*
X33849233Y-126924647D02*
X33801614Y-127115123D01*
X33801614Y-127115123D02*
X33753995Y-127210361D01*
X33753995Y-127210361D02*
X33658757Y-127305600D01*
X33658757Y-127305600D02*
X33515900Y-127353219D01*
X33515900Y-127353219D02*
X33277805Y-127353219D01*
X34706376Y-126686552D02*
X34706376Y-127353219D01*
X34468281Y-126305600D02*
X34230186Y-127019885D01*
X34230186Y-127019885D02*
X34849233Y-127019885D01*
X51570480Y-106025357D02*
X51618100Y-106072976D01*
X51618100Y-106072976D02*
X51665719Y-106215833D01*
X51665719Y-106215833D02*
X51665719Y-106311071D01*
X51665719Y-106311071D02*
X51618100Y-106453928D01*
X51618100Y-106453928D02*
X51522861Y-106549166D01*
X51522861Y-106549166D02*
X51427623Y-106596785D01*
X51427623Y-106596785D02*
X51237147Y-106644404D01*
X51237147Y-106644404D02*
X51094290Y-106644404D01*
X51094290Y-106644404D02*
X50903814Y-106596785D01*
X50903814Y-106596785D02*
X50808576Y-106549166D01*
X50808576Y-106549166D02*
X50713338Y-106453928D01*
X50713338Y-106453928D02*
X50665719Y-106311071D01*
X50665719Y-106311071D02*
X50665719Y-106215833D01*
X50665719Y-106215833D02*
X50713338Y-106072976D01*
X50713338Y-106072976D02*
X50760957Y-106025357D01*
X51665719Y-105072976D02*
X51665719Y-105644404D01*
X51665719Y-105358690D02*
X50665719Y-105358690D01*
X50665719Y-105358690D02*
X50808576Y-105453928D01*
X50808576Y-105453928D02*
X50903814Y-105549166D01*
X50903814Y-105549166D02*
X50951433Y-105644404D01*
X50760957Y-104692023D02*
X50713338Y-104644404D01*
X50713338Y-104644404D02*
X50665719Y-104549166D01*
X50665719Y-104549166D02*
X50665719Y-104311071D01*
X50665719Y-104311071D02*
X50713338Y-104215833D01*
X50713338Y-104215833D02*
X50760957Y-104168214D01*
X50760957Y-104168214D02*
X50856195Y-104120595D01*
X50856195Y-104120595D02*
X50951433Y-104120595D01*
X50951433Y-104120595D02*
X51094290Y-104168214D01*
X51094290Y-104168214D02*
X51665719Y-104739642D01*
X51665719Y-104739642D02*
X51665719Y-104120595D01*
X67669580Y-99042457D02*
X67717200Y-99090076D01*
X67717200Y-99090076D02*
X67764819Y-99232933D01*
X67764819Y-99232933D02*
X67764819Y-99328171D01*
X67764819Y-99328171D02*
X67717200Y-99471028D01*
X67717200Y-99471028D02*
X67621961Y-99566266D01*
X67621961Y-99566266D02*
X67526723Y-99613885D01*
X67526723Y-99613885D02*
X67336247Y-99661504D01*
X67336247Y-99661504D02*
X67193390Y-99661504D01*
X67193390Y-99661504D02*
X67002914Y-99613885D01*
X67002914Y-99613885D02*
X66907676Y-99566266D01*
X66907676Y-99566266D02*
X66812438Y-99471028D01*
X66812438Y-99471028D02*
X66764819Y-99328171D01*
X66764819Y-99328171D02*
X66764819Y-99232933D01*
X66764819Y-99232933D02*
X66812438Y-99090076D01*
X66812438Y-99090076D02*
X66860057Y-99042457D01*
X67764819Y-98090076D02*
X67764819Y-98661504D01*
X67764819Y-98375790D02*
X66764819Y-98375790D01*
X66764819Y-98375790D02*
X66907676Y-98471028D01*
X66907676Y-98471028D02*
X67002914Y-98566266D01*
X67002914Y-98566266D02*
X67050533Y-98661504D01*
X66764819Y-97756742D02*
X66764819Y-97137695D01*
X66764819Y-97137695D02*
X67145771Y-97471028D01*
X67145771Y-97471028D02*
X67145771Y-97328171D01*
X67145771Y-97328171D02*
X67193390Y-97232933D01*
X67193390Y-97232933D02*
X67241009Y-97185314D01*
X67241009Y-97185314D02*
X67336247Y-97137695D01*
X67336247Y-97137695D02*
X67574342Y-97137695D01*
X67574342Y-97137695D02*
X67669580Y-97185314D01*
X67669580Y-97185314D02*
X67717200Y-97232933D01*
X67717200Y-97232933D02*
X67764819Y-97328171D01*
X67764819Y-97328171D02*
X67764819Y-97613885D01*
X67764819Y-97613885D02*
X67717200Y-97709123D01*
X67717200Y-97709123D02*
X67669580Y-97756742D01*
X66224819Y-144033333D02*
X66939104Y-144033333D01*
X66939104Y-144033333D02*
X67081961Y-144080952D01*
X67081961Y-144080952D02*
X67177200Y-144176190D01*
X67177200Y-144176190D02*
X67224819Y-144319047D01*
X67224819Y-144319047D02*
X67224819Y-144414285D01*
X66224819Y-143652380D02*
X66224819Y-143033333D01*
X66224819Y-143033333D02*
X66605771Y-143366666D01*
X66605771Y-143366666D02*
X66605771Y-143223809D01*
X66605771Y-143223809D02*
X66653390Y-143128571D01*
X66653390Y-143128571D02*
X66701009Y-143080952D01*
X66701009Y-143080952D02*
X66796247Y-143033333D01*
X66796247Y-143033333D02*
X67034342Y-143033333D01*
X67034342Y-143033333D02*
X67129580Y-143080952D01*
X67129580Y-143080952D02*
X67177200Y-143128571D01*
X67177200Y-143128571D02*
X67224819Y-143223809D01*
X67224819Y-143223809D02*
X67224819Y-143509523D01*
X67224819Y-143509523D02*
X67177200Y-143604761D01*
X67177200Y-143604761D02*
X67129580Y-143652380D01*
X59474233Y-99712080D02*
X59426614Y-99759700D01*
X59426614Y-99759700D02*
X59283757Y-99807319D01*
X59283757Y-99807319D02*
X59188519Y-99807319D01*
X59188519Y-99807319D02*
X59045662Y-99759700D01*
X59045662Y-99759700D02*
X58950424Y-99664461D01*
X58950424Y-99664461D02*
X58902805Y-99569223D01*
X58902805Y-99569223D02*
X58855186Y-99378747D01*
X58855186Y-99378747D02*
X58855186Y-99235890D01*
X58855186Y-99235890D02*
X58902805Y-99045414D01*
X58902805Y-99045414D02*
X58950424Y-98950176D01*
X58950424Y-98950176D02*
X59045662Y-98854938D01*
X59045662Y-98854938D02*
X59188519Y-98807319D01*
X59188519Y-98807319D02*
X59283757Y-98807319D01*
X59283757Y-98807319D02*
X59426614Y-98854938D01*
X59426614Y-98854938D02*
X59474233Y-98902557D01*
X59807567Y-98807319D02*
X60426614Y-98807319D01*
X60426614Y-98807319D02*
X60093281Y-99188271D01*
X60093281Y-99188271D02*
X60236138Y-99188271D01*
X60236138Y-99188271D02*
X60331376Y-99235890D01*
X60331376Y-99235890D02*
X60378995Y-99283509D01*
X60378995Y-99283509D02*
X60426614Y-99378747D01*
X60426614Y-99378747D02*
X60426614Y-99616842D01*
X60426614Y-99616842D02*
X60378995Y-99712080D01*
X60378995Y-99712080D02*
X60331376Y-99759700D01*
X60331376Y-99759700D02*
X60236138Y-99807319D01*
X60236138Y-99807319D02*
X59950424Y-99807319D01*
X59950424Y-99807319D02*
X59855186Y-99759700D01*
X59855186Y-99759700D02*
X59807567Y-99712080D01*
X57230480Y-117925357D02*
X57278100Y-117972976D01*
X57278100Y-117972976D02*
X57325719Y-118115833D01*
X57325719Y-118115833D02*
X57325719Y-118211071D01*
X57325719Y-118211071D02*
X57278100Y-118353928D01*
X57278100Y-118353928D02*
X57182861Y-118449166D01*
X57182861Y-118449166D02*
X57087623Y-118496785D01*
X57087623Y-118496785D02*
X56897147Y-118544404D01*
X56897147Y-118544404D02*
X56754290Y-118544404D01*
X56754290Y-118544404D02*
X56563814Y-118496785D01*
X56563814Y-118496785D02*
X56468576Y-118449166D01*
X56468576Y-118449166D02*
X56373338Y-118353928D01*
X56373338Y-118353928D02*
X56325719Y-118211071D01*
X56325719Y-118211071D02*
X56325719Y-118115833D01*
X56325719Y-118115833D02*
X56373338Y-117972976D01*
X56373338Y-117972976D02*
X56420957Y-117925357D01*
X57325719Y-116972976D02*
X57325719Y-117544404D01*
X57325719Y-117258690D02*
X56325719Y-117258690D01*
X56325719Y-117258690D02*
X56468576Y-117353928D01*
X56468576Y-117353928D02*
X56563814Y-117449166D01*
X56563814Y-117449166D02*
X56611433Y-117544404D01*
X57325719Y-116020595D02*
X57325719Y-116592023D01*
X57325719Y-116306309D02*
X56325719Y-116306309D01*
X56325719Y-116306309D02*
X56468576Y-116401547D01*
X56468576Y-116401547D02*
X56563814Y-116496785D01*
X56563814Y-116496785D02*
X56611433Y-116592023D01*
X66856780Y-103055657D02*
X66904400Y-103103276D01*
X66904400Y-103103276D02*
X66952019Y-103246133D01*
X66952019Y-103246133D02*
X66952019Y-103341371D01*
X66952019Y-103341371D02*
X66904400Y-103484228D01*
X66904400Y-103484228D02*
X66809161Y-103579466D01*
X66809161Y-103579466D02*
X66713923Y-103627085D01*
X66713923Y-103627085D02*
X66523447Y-103674704D01*
X66523447Y-103674704D02*
X66380590Y-103674704D01*
X66380590Y-103674704D02*
X66190114Y-103627085D01*
X66190114Y-103627085D02*
X66094876Y-103579466D01*
X66094876Y-103579466D02*
X65999638Y-103484228D01*
X65999638Y-103484228D02*
X65952019Y-103341371D01*
X65952019Y-103341371D02*
X65952019Y-103246133D01*
X65952019Y-103246133D02*
X65999638Y-103103276D01*
X65999638Y-103103276D02*
X66047257Y-103055657D01*
X66952019Y-102103276D02*
X66952019Y-102674704D01*
X66952019Y-102388990D02*
X65952019Y-102388990D01*
X65952019Y-102388990D02*
X66094876Y-102484228D01*
X66094876Y-102484228D02*
X66190114Y-102579466D01*
X66190114Y-102579466D02*
X66237733Y-102674704D01*
X65952019Y-101484228D02*
X65952019Y-101388990D01*
X65952019Y-101388990D02*
X65999638Y-101293752D01*
X65999638Y-101293752D02*
X66047257Y-101246133D01*
X66047257Y-101246133D02*
X66142495Y-101198514D01*
X66142495Y-101198514D02*
X66332971Y-101150895D01*
X66332971Y-101150895D02*
X66571066Y-101150895D01*
X66571066Y-101150895D02*
X66761542Y-101198514D01*
X66761542Y-101198514D02*
X66856780Y-101246133D01*
X66856780Y-101246133D02*
X66904400Y-101293752D01*
X66904400Y-101293752D02*
X66952019Y-101388990D01*
X66952019Y-101388990D02*
X66952019Y-101484228D01*
X66952019Y-101484228D02*
X66904400Y-101579466D01*
X66904400Y-101579466D02*
X66856780Y-101627085D01*
X66856780Y-101627085D02*
X66761542Y-101674704D01*
X66761542Y-101674704D02*
X66571066Y-101722323D01*
X66571066Y-101722323D02*
X66332971Y-101722323D01*
X66332971Y-101722323D02*
X66142495Y-101674704D01*
X66142495Y-101674704D02*
X66047257Y-101627085D01*
X66047257Y-101627085D02*
X65999638Y-101579466D01*
X65999638Y-101579466D02*
X65952019Y-101484228D01*
X64625719Y-99649166D02*
X64149528Y-99982499D01*
X64625719Y-100220594D02*
X63625719Y-100220594D01*
X63625719Y-100220594D02*
X63625719Y-99839642D01*
X63625719Y-99839642D02*
X63673338Y-99744404D01*
X63673338Y-99744404D02*
X63720957Y-99696785D01*
X63720957Y-99696785D02*
X63816195Y-99649166D01*
X63816195Y-99649166D02*
X63959052Y-99649166D01*
X63959052Y-99649166D02*
X64054290Y-99696785D01*
X64054290Y-99696785D02*
X64101909Y-99744404D01*
X64101909Y-99744404D02*
X64149528Y-99839642D01*
X64149528Y-99839642D02*
X64149528Y-100220594D01*
X63625719Y-98744404D02*
X63625719Y-99220594D01*
X63625719Y-99220594D02*
X64101909Y-99268213D01*
X64101909Y-99268213D02*
X64054290Y-99220594D01*
X64054290Y-99220594D02*
X64006671Y-99125356D01*
X64006671Y-99125356D02*
X64006671Y-98887261D01*
X64006671Y-98887261D02*
X64054290Y-98792023D01*
X64054290Y-98792023D02*
X64101909Y-98744404D01*
X64101909Y-98744404D02*
X64197147Y-98696785D01*
X64197147Y-98696785D02*
X64435242Y-98696785D01*
X64435242Y-98696785D02*
X64530480Y-98744404D01*
X64530480Y-98744404D02*
X64578100Y-98792023D01*
X64578100Y-98792023D02*
X64625719Y-98887261D01*
X64625719Y-98887261D02*
X64625719Y-99125356D01*
X64625719Y-99125356D02*
X64578100Y-99220594D01*
X64578100Y-99220594D02*
X64530480Y-99268213D01*
X40654819Y-137966666D02*
X40178628Y-138299999D01*
X40654819Y-138538094D02*
X39654819Y-138538094D01*
X39654819Y-138538094D02*
X39654819Y-138157142D01*
X39654819Y-138157142D02*
X39702438Y-138061904D01*
X39702438Y-138061904D02*
X39750057Y-138014285D01*
X39750057Y-138014285D02*
X39845295Y-137966666D01*
X39845295Y-137966666D02*
X39988152Y-137966666D01*
X39988152Y-137966666D02*
X40083390Y-138014285D01*
X40083390Y-138014285D02*
X40131009Y-138061904D01*
X40131009Y-138061904D02*
X40178628Y-138157142D01*
X40178628Y-138157142D02*
X40178628Y-138538094D01*
X39654819Y-137633332D02*
X39654819Y-137014285D01*
X39654819Y-137014285D02*
X40035771Y-137347618D01*
X40035771Y-137347618D02*
X40035771Y-137204761D01*
X40035771Y-137204761D02*
X40083390Y-137109523D01*
X40083390Y-137109523D02*
X40131009Y-137061904D01*
X40131009Y-137061904D02*
X40226247Y-137014285D01*
X40226247Y-137014285D02*
X40464342Y-137014285D01*
X40464342Y-137014285D02*
X40559580Y-137061904D01*
X40559580Y-137061904D02*
X40607200Y-137109523D01*
X40607200Y-137109523D02*
X40654819Y-137204761D01*
X40654819Y-137204761D02*
X40654819Y-137490475D01*
X40654819Y-137490475D02*
X40607200Y-137585713D01*
X40607200Y-137585713D02*
X40559580Y-137633332D01*
X29481819Y-125628333D02*
X30196104Y-125628333D01*
X30196104Y-125628333D02*
X30338961Y-125675952D01*
X30338961Y-125675952D02*
X30434200Y-125771190D01*
X30434200Y-125771190D02*
X30481819Y-125914047D01*
X30481819Y-125914047D02*
X30481819Y-126009285D01*
X30481819Y-124628333D02*
X30481819Y-125199761D01*
X30481819Y-124914047D02*
X29481819Y-124914047D01*
X29481819Y-124914047D02*
X29624676Y-125009285D01*
X29624676Y-125009285D02*
X29719914Y-125104523D01*
X29719914Y-125104523D02*
X29767533Y-125199761D01*
X95534266Y-89186609D02*
X95200933Y-89186609D01*
X95200933Y-89710419D02*
X95200933Y-88710419D01*
X95200933Y-88710419D02*
X95677123Y-88710419D01*
X96391409Y-89186609D02*
X96534266Y-89234228D01*
X96534266Y-89234228D02*
X96581885Y-89281847D01*
X96581885Y-89281847D02*
X96629504Y-89377085D01*
X96629504Y-89377085D02*
X96629504Y-89519942D01*
X96629504Y-89519942D02*
X96581885Y-89615180D01*
X96581885Y-89615180D02*
X96534266Y-89662800D01*
X96534266Y-89662800D02*
X96439028Y-89710419D01*
X96439028Y-89710419D02*
X96058076Y-89710419D01*
X96058076Y-89710419D02*
X96058076Y-88710419D01*
X96058076Y-88710419D02*
X96391409Y-88710419D01*
X96391409Y-88710419D02*
X96486647Y-88758038D01*
X96486647Y-88758038D02*
X96534266Y-88805657D01*
X96534266Y-88805657D02*
X96581885Y-88900895D01*
X96581885Y-88900895D02*
X96581885Y-88996133D01*
X96581885Y-88996133D02*
X96534266Y-89091371D01*
X96534266Y-89091371D02*
X96486647Y-89138990D01*
X96486647Y-89138990D02*
X96391409Y-89186609D01*
X96391409Y-89186609D02*
X96058076Y-89186609D01*
X97010457Y-88805657D02*
X97058076Y-88758038D01*
X97058076Y-88758038D02*
X97153314Y-88710419D01*
X97153314Y-88710419D02*
X97391409Y-88710419D01*
X97391409Y-88710419D02*
X97486647Y-88758038D01*
X97486647Y-88758038D02*
X97534266Y-88805657D01*
X97534266Y-88805657D02*
X97581885Y-88900895D01*
X97581885Y-88900895D02*
X97581885Y-88996133D01*
X97581885Y-88996133D02*
X97534266Y-89138990D01*
X97534266Y-89138990D02*
X96962838Y-89710419D01*
X96962838Y-89710419D02*
X97581885Y-89710419D01*
X123262705Y-123688995D02*
X122453182Y-123688995D01*
X122453182Y-123688995D02*
X122357944Y-123736614D01*
X122357944Y-123736614D02*
X122310325Y-123784233D01*
X122310325Y-123784233D02*
X122262705Y-123879471D01*
X122262705Y-123879471D02*
X122262705Y-124069947D01*
X122262705Y-124069947D02*
X122310325Y-124165185D01*
X122310325Y-124165185D02*
X122357944Y-124212804D01*
X122357944Y-124212804D02*
X122453182Y-124260423D01*
X122453182Y-124260423D02*
X123262705Y-124260423D01*
X123167467Y-124688995D02*
X123215086Y-124736614D01*
X123215086Y-124736614D02*
X123262705Y-124831852D01*
X123262705Y-124831852D02*
X123262705Y-125069947D01*
X123262705Y-125069947D02*
X123215086Y-125165185D01*
X123215086Y-125165185D02*
X123167467Y-125212804D01*
X123167467Y-125212804D02*
X123072229Y-125260423D01*
X123072229Y-125260423D02*
X122976991Y-125260423D01*
X122976991Y-125260423D02*
X122834134Y-125212804D01*
X122834134Y-125212804D02*
X122262705Y-124641376D01*
X122262705Y-124641376D02*
X122262705Y-125260423D01*
X26766666Y-88484819D02*
X26766666Y-89199104D01*
X26766666Y-89199104D02*
X26719047Y-89341961D01*
X26719047Y-89341961D02*
X26623809Y-89437200D01*
X26623809Y-89437200D02*
X26480952Y-89484819D01*
X26480952Y-89484819D02*
X26385714Y-89484819D01*
X27719047Y-88484819D02*
X27242857Y-88484819D01*
X27242857Y-88484819D02*
X27195238Y-88961009D01*
X27195238Y-88961009D02*
X27242857Y-88913390D01*
X27242857Y-88913390D02*
X27338095Y-88865771D01*
X27338095Y-88865771D02*
X27576190Y-88865771D01*
X27576190Y-88865771D02*
X27671428Y-88913390D01*
X27671428Y-88913390D02*
X27719047Y-88961009D01*
X27719047Y-88961009D02*
X27766666Y-89056247D01*
X27766666Y-89056247D02*
X27766666Y-89294342D01*
X27766666Y-89294342D02*
X27719047Y-89389580D01*
X27719047Y-89389580D02*
X27671428Y-89437200D01*
X27671428Y-89437200D02*
X27576190Y-89484819D01*
X27576190Y-89484819D02*
X27338095Y-89484819D01*
X27338095Y-89484819D02*
X27242857Y-89437200D01*
X27242857Y-89437200D02*
X27195238Y-89389580D01*
X35225719Y-95625357D02*
X34749528Y-95958690D01*
X35225719Y-96196785D02*
X34225719Y-96196785D01*
X34225719Y-96196785D02*
X34225719Y-95815833D01*
X34225719Y-95815833D02*
X34273338Y-95720595D01*
X34273338Y-95720595D02*
X34320957Y-95672976D01*
X34320957Y-95672976D02*
X34416195Y-95625357D01*
X34416195Y-95625357D02*
X34559052Y-95625357D01*
X34559052Y-95625357D02*
X34654290Y-95672976D01*
X34654290Y-95672976D02*
X34701909Y-95720595D01*
X34701909Y-95720595D02*
X34749528Y-95815833D01*
X34749528Y-95815833D02*
X34749528Y-96196785D01*
X34320957Y-95244404D02*
X34273338Y-95196785D01*
X34273338Y-95196785D02*
X34225719Y-95101547D01*
X34225719Y-95101547D02*
X34225719Y-94863452D01*
X34225719Y-94863452D02*
X34273338Y-94768214D01*
X34273338Y-94768214D02*
X34320957Y-94720595D01*
X34320957Y-94720595D02*
X34416195Y-94672976D01*
X34416195Y-94672976D02*
X34511433Y-94672976D01*
X34511433Y-94672976D02*
X34654290Y-94720595D01*
X34654290Y-94720595D02*
X35225719Y-95292023D01*
X35225719Y-95292023D02*
X35225719Y-94672976D01*
X34654290Y-94101547D02*
X34606671Y-94196785D01*
X34606671Y-94196785D02*
X34559052Y-94244404D01*
X34559052Y-94244404D02*
X34463814Y-94292023D01*
X34463814Y-94292023D02*
X34416195Y-94292023D01*
X34416195Y-94292023D02*
X34320957Y-94244404D01*
X34320957Y-94244404D02*
X34273338Y-94196785D01*
X34273338Y-94196785D02*
X34225719Y-94101547D01*
X34225719Y-94101547D02*
X34225719Y-93911071D01*
X34225719Y-93911071D02*
X34273338Y-93815833D01*
X34273338Y-93815833D02*
X34320957Y-93768214D01*
X34320957Y-93768214D02*
X34416195Y-93720595D01*
X34416195Y-93720595D02*
X34463814Y-93720595D01*
X34463814Y-93720595D02*
X34559052Y-93768214D01*
X34559052Y-93768214D02*
X34606671Y-93815833D01*
X34606671Y-93815833D02*
X34654290Y-93911071D01*
X34654290Y-93911071D02*
X34654290Y-94101547D01*
X34654290Y-94101547D02*
X34701909Y-94196785D01*
X34701909Y-94196785D02*
X34749528Y-94244404D01*
X34749528Y-94244404D02*
X34844766Y-94292023D01*
X34844766Y-94292023D02*
X35035242Y-94292023D01*
X35035242Y-94292023D02*
X35130480Y-94244404D01*
X35130480Y-94244404D02*
X35178100Y-94196785D01*
X35178100Y-94196785D02*
X35225719Y-94101547D01*
X35225719Y-94101547D02*
X35225719Y-93911071D01*
X35225719Y-93911071D02*
X35178100Y-93815833D01*
X35178100Y-93815833D02*
X35130480Y-93768214D01*
X35130480Y-93768214D02*
X35035242Y-93720595D01*
X35035242Y-93720595D02*
X34844766Y-93720595D01*
X34844766Y-93720595D02*
X34749528Y-93768214D01*
X34749528Y-93768214D02*
X34701909Y-93815833D01*
X34701909Y-93815833D02*
X34654290Y-93911071D01*
X30350957Y-100977738D02*
X30303338Y-101072976D01*
X30303338Y-101072976D02*
X30208100Y-101168214D01*
X30208100Y-101168214D02*
X30065242Y-101311071D01*
X30065242Y-101311071D02*
X30017623Y-101406309D01*
X30017623Y-101406309D02*
X30017623Y-101501547D01*
X30255719Y-101453928D02*
X30208100Y-101549166D01*
X30208100Y-101549166D02*
X30112861Y-101644404D01*
X30112861Y-101644404D02*
X29922385Y-101692023D01*
X29922385Y-101692023D02*
X29589052Y-101692023D01*
X29589052Y-101692023D02*
X29398576Y-101644404D01*
X29398576Y-101644404D02*
X29303338Y-101549166D01*
X29303338Y-101549166D02*
X29255719Y-101453928D01*
X29255719Y-101453928D02*
X29255719Y-101263452D01*
X29255719Y-101263452D02*
X29303338Y-101168214D01*
X29303338Y-101168214D02*
X29398576Y-101072976D01*
X29398576Y-101072976D02*
X29589052Y-101025357D01*
X29589052Y-101025357D02*
X29922385Y-101025357D01*
X29922385Y-101025357D02*
X30112861Y-101072976D01*
X30112861Y-101072976D02*
X30208100Y-101168214D01*
X30208100Y-101168214D02*
X30255719Y-101263452D01*
X30255719Y-101263452D02*
X30255719Y-101453928D01*
X29350957Y-100644404D02*
X29303338Y-100596785D01*
X29303338Y-100596785D02*
X29255719Y-100501547D01*
X29255719Y-100501547D02*
X29255719Y-100263452D01*
X29255719Y-100263452D02*
X29303338Y-100168214D01*
X29303338Y-100168214D02*
X29350957Y-100120595D01*
X29350957Y-100120595D02*
X29446195Y-100072976D01*
X29446195Y-100072976D02*
X29541433Y-100072976D01*
X29541433Y-100072976D02*
X29684290Y-100120595D01*
X29684290Y-100120595D02*
X30255719Y-100692023D01*
X30255719Y-100692023D02*
X30255719Y-100072976D01*
X76865719Y-95049166D02*
X76389528Y-95382499D01*
X76865719Y-95620594D02*
X75865719Y-95620594D01*
X75865719Y-95620594D02*
X75865719Y-95239642D01*
X75865719Y-95239642D02*
X75913338Y-95144404D01*
X75913338Y-95144404D02*
X75960957Y-95096785D01*
X75960957Y-95096785D02*
X76056195Y-95049166D01*
X76056195Y-95049166D02*
X76199052Y-95049166D01*
X76199052Y-95049166D02*
X76294290Y-95096785D01*
X76294290Y-95096785D02*
X76341909Y-95144404D01*
X76341909Y-95144404D02*
X76389528Y-95239642D01*
X76389528Y-95239642D02*
X76389528Y-95620594D01*
X75960957Y-94668213D02*
X75913338Y-94620594D01*
X75913338Y-94620594D02*
X75865719Y-94525356D01*
X75865719Y-94525356D02*
X75865719Y-94287261D01*
X75865719Y-94287261D02*
X75913338Y-94192023D01*
X75913338Y-94192023D02*
X75960957Y-94144404D01*
X75960957Y-94144404D02*
X76056195Y-94096785D01*
X76056195Y-94096785D02*
X76151433Y-94096785D01*
X76151433Y-94096785D02*
X76294290Y-94144404D01*
X76294290Y-94144404D02*
X76865719Y-94715832D01*
X76865719Y-94715832D02*
X76865719Y-94096785D01*
X33728819Y-118651257D02*
X33252628Y-118984590D01*
X33728819Y-119222685D02*
X32728819Y-119222685D01*
X32728819Y-119222685D02*
X32728819Y-118841733D01*
X32728819Y-118841733D02*
X32776438Y-118746495D01*
X32776438Y-118746495D02*
X32824057Y-118698876D01*
X32824057Y-118698876D02*
X32919295Y-118651257D01*
X32919295Y-118651257D02*
X33062152Y-118651257D01*
X33062152Y-118651257D02*
X33157390Y-118698876D01*
X33157390Y-118698876D02*
X33205009Y-118746495D01*
X33205009Y-118746495D02*
X33252628Y-118841733D01*
X33252628Y-118841733D02*
X33252628Y-119222685D01*
X32728819Y-118317923D02*
X32728819Y-117698876D01*
X32728819Y-117698876D02*
X33109771Y-118032209D01*
X33109771Y-118032209D02*
X33109771Y-117889352D01*
X33109771Y-117889352D02*
X33157390Y-117794114D01*
X33157390Y-117794114D02*
X33205009Y-117746495D01*
X33205009Y-117746495D02*
X33300247Y-117698876D01*
X33300247Y-117698876D02*
X33538342Y-117698876D01*
X33538342Y-117698876D02*
X33633580Y-117746495D01*
X33633580Y-117746495D02*
X33681200Y-117794114D01*
X33681200Y-117794114D02*
X33728819Y-117889352D01*
X33728819Y-117889352D02*
X33728819Y-118175066D01*
X33728819Y-118175066D02*
X33681200Y-118270304D01*
X33681200Y-118270304D02*
X33633580Y-118317923D01*
X33062152Y-116841733D02*
X33728819Y-116841733D01*
X32681200Y-117079828D02*
X33395485Y-117317923D01*
X33395485Y-117317923D02*
X33395485Y-116698876D01*
D12*
%TO.C,J7*%
X44370000Y-142370000D02*
X31610000Y-142370000D01*
X45640000Y-142370000D02*
X46970000Y-142370000D01*
X46970000Y-142370000D02*
X46970000Y-143700000D01*
X44370000Y-142370000D02*
X44370000Y-145030000D01*
X31610000Y-142370000D02*
X31610000Y-145030000D01*
X44370000Y-145030000D02*
X31610000Y-145030000D01*
%TO.C,SW1*%
X28502800Y-133478400D02*
X28502800Y-134978400D01*
X29752800Y-137478400D02*
X34252800Y-137478400D01*
X34252800Y-130978400D02*
X29752800Y-130978400D01*
X35502800Y-134978400D02*
X35502800Y-133478400D01*
%TO.C,D3*%
X35625900Y-129217500D02*
X35625900Y-127747500D01*
X35625900Y-127747500D02*
X33165900Y-127747500D01*
X33165900Y-129217500D02*
X35625900Y-129217500D01*
%TO.C,Y2*%
X64040900Y-91982500D02*
G75*
G03*
X64040900Y-95382500I0J-1700000D01*
G01*
X64040900Y-95382500D02*
G75*
G03*
X64040900Y-91982500I0J1700000D01*
G01*
%TO.C,J6*%
X101115000Y-99975000D02*
X104725000Y-99975000D01*
X106425000Y-99975000D02*
X111125000Y-99975000D01*
X112425000Y-99975000D02*
X114225000Y-99975000D01*
X101115000Y-99525000D02*
X101115000Y-99975000D01*
X117385000Y-98945000D02*
X117185000Y-99145000D01*
X117385000Y-98945000D02*
X117385000Y-97085000D01*
X117385000Y-97085000D02*
X117185000Y-96875000D01*
X117035000Y-96875000D02*
X117185000Y-96875000D01*
X117035000Y-96875000D02*
X117035000Y-90505000D01*
X117385000Y-89995000D02*
X117035000Y-90505000D01*
X101115000Y-87925000D02*
X101115000Y-86005000D01*
X117385000Y-87685000D02*
X117385000Y-89995000D01*
X117385000Y-87685000D02*
X117185000Y-87485000D01*
X117185000Y-87485000D02*
X117185000Y-87225000D01*
X101115000Y-86005000D02*
X115125000Y-86005000D01*
%TO.C,Y1*%
X59090900Y-91982500D02*
G75*
G03*
X59090900Y-95382500I0J-1700000D01*
G01*
X59090900Y-95382500D02*
G75*
G03*
X59090900Y-91982500I0J1700000D01*
G01*
%TO.C,Q1*%
X37678400Y-96142500D02*
X39353400Y-96142500D01*
X37678400Y-96142500D02*
X37028400Y-96142500D01*
X37678400Y-93022500D02*
X38328400Y-93022500D01*
X37678400Y-93022500D02*
X37028400Y-93022500D01*
%TO.C,BT1*%
X39166800Y-85189600D02*
X39166800Y-77989600D01*
X43466800Y-81689600D02*
X34466800Y-81689600D01*
X39266800Y-59989600D02*
X39266800Y-52689600D01*
X30866800Y-90189600D02*
X47566800Y-90189600D01*
X47566800Y-90189600D02*
X47566800Y-47989600D01*
X47566800Y-47989600D02*
X30866800Y-47989600D01*
X30866800Y-47989600D02*
X30866800Y-90189600D01*
%TO.C,FB3*%
X96010276Y-92467500D02*
X96519724Y-92467500D01*
X96010276Y-93512500D02*
X96519724Y-93512500D01*
%TO.C,D5*%
X42690900Y-101592500D02*
X45990900Y-101592500D01*
X42690900Y-101592500D02*
X42690900Y-94582500D01*
X45990900Y-101592500D02*
X45990900Y-94582500D01*
%TO.C,U4*%
X85325600Y-65634400D02*
X85325600Y-68034400D01*
X85325600Y-65634400D02*
X87925600Y-65634400D01*
X85325600Y-68034400D02*
X85325600Y-65634400D01*
%TO.C,C18*%
X36324667Y-117892500D02*
X36032133Y-117892500D01*
X36324667Y-116872500D02*
X36032133Y-116872500D01*
%TO.C,R1*%
X80618400Y-95137224D02*
X80618400Y-94627776D01*
X81663400Y-95137224D02*
X81663400Y-94627776D01*
%TO.C,J4*%
X32299600Y-141334800D02*
X32299600Y-140004800D01*
X33629600Y-141334800D02*
X32299600Y-141334800D01*
X34899600Y-141334800D02*
X37499600Y-141334800D01*
X34899600Y-141334800D02*
X34899600Y-138674800D01*
X37499600Y-141334800D02*
X37499600Y-138674800D01*
X34899600Y-138674800D02*
X37499600Y-138674800D01*
%TO.C,R4*%
X39886176Y-134160000D02*
X40395624Y-134160000D01*
X39886176Y-135205000D02*
X40395624Y-135205000D01*
%TO.C,C14*%
X65287167Y-121392500D02*
X64994633Y-121392500D01*
X65287167Y-120372500D02*
X64994633Y-120372500D01*
%TO.C,R32*%
X37661176Y-124760000D02*
X38170624Y-124760000D01*
X37661176Y-125805000D02*
X38170624Y-125805000D01*
%TO.C,R31*%
X37611176Y-127960000D02*
X38120624Y-127960000D01*
X37611176Y-129005000D02*
X38120624Y-129005000D01*
%TO.C,D2*%
X41740900Y-125207500D02*
X47640900Y-125207500D01*
X41740900Y-129107500D02*
X47640900Y-129107500D01*
X47640900Y-129107500D02*
X47640900Y-128032500D01*
%TO.C,FB5*%
X96010276Y-98037500D02*
X96519724Y-98037500D01*
X96010276Y-99082500D02*
X96519724Y-99082500D01*
%TO.C,C4*%
X65387167Y-118492500D02*
X65094633Y-118492500D01*
X65387167Y-117472500D02*
X65094633Y-117472500D01*
%TO.C,D1*%
X48890900Y-125232500D02*
X54790900Y-125232500D01*
X48890900Y-129132500D02*
X54790900Y-129132500D01*
X54790900Y-129132500D02*
X54790900Y-128057500D01*
%TO.C,BT3*%
X75946000Y-85189600D02*
X75946000Y-77989600D01*
X80246000Y-81689600D02*
X71246000Y-81689600D01*
X76046000Y-59989600D02*
X76046000Y-52689600D01*
X67646000Y-90189600D02*
X84346000Y-90189600D01*
X84346000Y-90189600D02*
X84346000Y-47989600D01*
X84346000Y-47989600D02*
X67646000Y-47989600D01*
X67646000Y-47989600D02*
X67646000Y-90189600D01*
%TO.C,FB1*%
X96010276Y-87447500D02*
X96519724Y-87447500D01*
X96010276Y-88492500D02*
X96519724Y-88492500D01*
%TO.C,SW2*%
X25510900Y-99052500D02*
X25510900Y-104192500D01*
X25510900Y-99052500D02*
X28170900Y-99052500D01*
X25510900Y-104192500D02*
X28170900Y-104192500D01*
X26840900Y-96452500D02*
X28170900Y-96452500D01*
X28170900Y-96452500D02*
X28170900Y-97782500D01*
X28170900Y-99052500D02*
X28170900Y-104192500D01*
%TO.C,FB6*%
X96010276Y-100547500D02*
X96519724Y-100547500D01*
X96010276Y-101592500D02*
X96519724Y-101592500D01*
%TO.C,BT2*%
X57708800Y-52986400D02*
X57708800Y-60186400D01*
X53408800Y-56486400D02*
X62408800Y-56486400D01*
X57608800Y-78186400D02*
X57608800Y-85486400D01*
X66008800Y-47986400D02*
X49308800Y-47986400D01*
X49308800Y-47986400D02*
X49308800Y-90186400D01*
X49308800Y-90186400D02*
X66008800Y-90186400D01*
X66008800Y-90186400D02*
X66008800Y-47986400D01*
%TO.C,U3*%
X67006000Y-128630000D02*
X67006000Y-127030000D01*
X67006000Y-127030000D02*
X68006000Y-127030000D01*
X67006000Y-127030000D02*
X67006000Y-128630000D01*
%TO.C,U5*%
X66450900Y-104272500D02*
X65500900Y-104272500D01*
X65500900Y-104272500D02*
X65500900Y-102932500D01*
X56230900Y-104272500D02*
X57180900Y-104272500D01*
X66450900Y-105222500D02*
X66450900Y-104272500D01*
X56230900Y-105222500D02*
X56230900Y-104272500D01*
X66450900Y-113542500D02*
X66450900Y-114492500D01*
X56230900Y-113542500D02*
X56230900Y-114492500D01*
X66450900Y-114492500D02*
X65500900Y-114492500D01*
X56230900Y-114492500D02*
X57180900Y-114492500D01*
%TO.C,FB4*%
X96010276Y-94977500D02*
X96519724Y-94977500D01*
X96010276Y-96022500D02*
X96519724Y-96022500D01*
%TO.C,U7*%
X30220900Y-105557500D02*
X30220900Y-110198500D01*
X30220900Y-105557500D02*
X40460900Y-105557500D01*
X30220900Y-107067500D02*
X40460900Y-107067500D01*
X30220900Y-110198500D02*
X40460900Y-110198500D01*
X33490900Y-105557500D02*
X33490900Y-107067500D01*
X37191900Y-105557500D02*
X37191900Y-107067500D01*
X40460900Y-105557500D02*
X40460900Y-110198500D01*
%TO.C,J2*%
X63180000Y-135970000D02*
X63180000Y-137300000D01*
X61850000Y-135970000D02*
X63180000Y-135970000D01*
X60580000Y-135970000D02*
X47820000Y-135970000D01*
X60580000Y-135970000D02*
X60580000Y-138630000D01*
X47820000Y-135970000D02*
X47820000Y-138630000D01*
X60580000Y-138630000D02*
X47820000Y-138630000D01*
%TO.C,C17*%
X70330900Y-101828767D02*
X70330900Y-101536233D01*
X71350900Y-101828767D02*
X71350900Y-101536233D01*
%TO.C,R33*%
X32173676Y-112760000D02*
X32683124Y-112760000D01*
X32173676Y-113805000D02*
X32683124Y-113805000D01*
%TO.C,C9*%
X51830900Y-113528767D02*
X51830900Y-113236233D01*
X52850900Y-113528767D02*
X52850900Y-113236233D01*
%TO.C,C2*%
X51853733Y-131490000D02*
X52146267Y-131490000D01*
X51853733Y-132510000D02*
X52146267Y-132510000D01*
%TO.C,C20*%
X36324667Y-112872500D02*
X36032133Y-112872500D01*
X36324667Y-111852500D02*
X36032133Y-111852500D01*
%TO.C,D4*%
X35675900Y-126017500D02*
X35675900Y-124547500D01*
X35675900Y-124547500D02*
X33215900Y-124547500D01*
X33215900Y-126017500D02*
X35675900Y-126017500D01*
%TO.C,C12*%
X52130900Y-105528767D02*
X52130900Y-105236233D01*
X53150900Y-105528767D02*
X53150900Y-105236233D01*
%TO.C,C13*%
X65330900Y-99528767D02*
X65330900Y-99236233D01*
X66350900Y-99528767D02*
X66350900Y-99236233D01*
%TO.C,J3*%
X65770000Y-142370000D02*
X65770000Y-143700000D01*
X64440000Y-142370000D02*
X65770000Y-142370000D01*
X63170000Y-142370000D02*
X50410000Y-142370000D01*
X63170000Y-142370000D02*
X63170000Y-145030000D01*
X50410000Y-142370000D02*
X50410000Y-145030000D01*
X63170000Y-145030000D02*
X50410000Y-145030000D01*
%TO.C,C3*%
X59494633Y-100272500D02*
X59787167Y-100272500D01*
X59494633Y-101292500D02*
X59787167Y-101292500D01*
%TO.C,C11*%
X55950900Y-117136233D02*
X55950900Y-117428767D01*
X54930900Y-117136233D02*
X54930900Y-117428767D01*
%TO.C,C10*%
X67430900Y-101828767D02*
X67430900Y-101536233D01*
X68450900Y-101828767D02*
X68450900Y-101536233D01*
%TO.C,R5*%
X63263400Y-99227776D02*
X63263400Y-99737224D01*
X62218400Y-99227776D02*
X62218400Y-99737224D01*
%TO.C,R3*%
X39282900Y-140259524D02*
X39282900Y-139750076D01*
X38237900Y-140259524D02*
X38237900Y-139750076D01*
%TO.C,J1*%
X28437000Y-121485000D02*
X28437000Y-121865000D01*
X26667000Y-121485000D02*
X28437000Y-121485000D01*
X24127000Y-121485000D02*
X24387000Y-121485000D01*
X28437000Y-129105000D02*
X28437000Y-128725000D01*
X28437000Y-129105000D02*
X26667000Y-129105000D01*
X24387000Y-129105000D02*
X24127000Y-129105000D01*
%TO.C,FB2*%
X96010276Y-89957500D02*
X96519724Y-89957500D01*
X96010276Y-91002500D02*
X96519724Y-91002500D01*
D13*
%TO.C,U2*%
X122057525Y-116100900D02*
X119517525Y-116100900D01*
X119517525Y-116100900D02*
X119517525Y-131340900D01*
X119517525Y-131340900D02*
X122057525Y-131340900D01*
D12*
X122066000Y-103410000D02*
X81426000Y-103410000D01*
X81426000Y-103410000D02*
X81426000Y-144050000D01*
X81426000Y-144050000D02*
X122066000Y-144050000D01*
X122066000Y-144050000D02*
X122066000Y-103410000D01*
%TO.C,J5*%
X28430000Y-84990000D02*
X28430000Y-72230000D01*
X28430000Y-84990000D02*
X25770000Y-84990000D01*
X28430000Y-72230000D02*
X25770000Y-72230000D01*
X27100000Y-87590000D02*
X25770000Y-87590000D01*
X25770000Y-87590000D02*
X25770000Y-86260000D01*
X25770000Y-84990000D02*
X25770000Y-72230000D01*
%TO.C,R28*%
X33863400Y-94727776D02*
X33863400Y-95237224D01*
X32818400Y-94727776D02*
X32818400Y-95237224D01*
%TO.C,Q2*%
X30800900Y-104302500D02*
X33340900Y-104302500D01*
X30800900Y-104302500D02*
X30800900Y-97462500D01*
X31440900Y-104302500D02*
X31440900Y-104176500D01*
X33340900Y-104302500D02*
X33340900Y-104176500D01*
X31440900Y-102160500D02*
X31440900Y-101889500D01*
X33340900Y-102160500D02*
X33340900Y-101889500D01*
X31440900Y-99874500D02*
X31440900Y-99603500D01*
X33340900Y-99874500D02*
X33340900Y-99603500D01*
X31440900Y-97588500D02*
X31440900Y-97462500D01*
X33340900Y-97588500D02*
X33340900Y-97462500D01*
X30800900Y-97462500D02*
X33340900Y-97462500D01*
%TO.C,R2*%
X77318400Y-95137224D02*
X77318400Y-94627776D01*
X78363400Y-95137224D02*
X78363400Y-94627776D01*
%TO.C,R34*%
X32173676Y-115270000D02*
X32683124Y-115270000D01*
X32173676Y-116315000D02*
X32683124Y-116315000D01*
%TD*%
%LPC*%
D14*
%TO.C,H3*%
X119600000Y-50000000D03*
%TD*%
%TO.C,H2*%
X27800000Y-141500000D03*
%TD*%
%TO.C,H1*%
X27800000Y-49900000D03*
%TD*%
D15*
%TO.C,J7*%
X45640000Y-143700000D03*
D16*
X43100000Y-143700000D03*
X40560000Y-143700000D03*
X38020000Y-143700000D03*
X35480000Y-143700000D03*
X32940000Y-143700000D03*
%TD*%
D17*
%TO.C,SW1*%
X28752800Y-131978400D03*
X35252800Y-131978400D03*
X28752800Y-136478400D03*
X35252800Y-136478400D03*
%TD*%
D18*
%TO.C,D3*%
X34840900Y-128482500D03*
X33090900Y-128482500D03*
%TD*%
D19*
%TO.C,Y2*%
X64040900Y-94632500D03*
X64040900Y-92732500D03*
%TD*%
D20*
%TO.C,J6*%
X101275000Y-90225000D03*
X101275000Y-91325000D03*
X101275000Y-92425000D03*
X101275000Y-93525000D03*
X101275000Y-94625000D03*
X101275000Y-95725000D03*
X101275000Y-96825000D03*
X101275000Y-97925000D03*
X101275000Y-98875000D03*
D21*
X111775000Y-99825000D03*
D22*
X105575000Y-99825000D03*
D23*
X115925000Y-99825000D03*
D22*
X101275000Y-88675000D03*
D24*
X116375000Y-86325000D03*
%TD*%
D19*
%TO.C,Y1*%
X59090900Y-94632500D03*
X59090900Y-92732500D03*
%TD*%
D25*
%TO.C,Q1*%
X38615900Y-95532500D03*
X38615900Y-93632500D03*
X36740900Y-94582500D03*
%TD*%
D26*
%TO.C,BT1*%
X39266800Y-88589600D03*
X39266800Y-49589600D03*
%TD*%
D27*
%TO.C,FB3*%
X95352500Y-92990000D03*
X97177500Y-92990000D03*
%TD*%
D28*
%TO.C,D5*%
X44340900Y-99582500D03*
X44340900Y-94582500D03*
%TD*%
D26*
%TO.C,U4*%
X86805600Y-67134400D03*
X86805600Y-70944400D03*
X86805600Y-74754400D03*
X86805600Y-78564400D03*
X94425600Y-78564400D03*
X94425600Y-74754400D03*
X94425600Y-70944400D03*
X94425600Y-67134400D03*
%TD*%
D19*
%TO.C,U6*%
X100650000Y-65180000D03*
X100650000Y-66450000D03*
X100650000Y-67720000D03*
X100650000Y-68990000D03*
X100650000Y-70260000D03*
X100650000Y-71530000D03*
X100650000Y-72800000D03*
X100650000Y-74070000D03*
X100650000Y-75340000D03*
X100650000Y-76610000D03*
X100650000Y-77880000D03*
X100650000Y-79150000D03*
X100650000Y-80420000D03*
X119700000Y-80420000D03*
X119700000Y-79150000D03*
X119700000Y-77880000D03*
X119700000Y-76610000D03*
X119700000Y-75340000D03*
X119700000Y-74070000D03*
X119700000Y-72800000D03*
X119700000Y-71530000D03*
X119700000Y-70260000D03*
X119700000Y-68990000D03*
X119700000Y-67720000D03*
X119700000Y-66450000D03*
X119700000Y-65180000D03*
%TD*%
D29*
%TO.C,C18*%
X37040900Y-117382500D03*
X35315900Y-117382500D03*
%TD*%
D30*
%TO.C,R1*%
X81140900Y-95795000D03*
X81140900Y-93970000D03*
%TD*%
D15*
%TO.C,J4*%
X33629600Y-140004800D03*
D16*
X36169600Y-140004800D03*
%TD*%
D27*
%TO.C,R4*%
X39228400Y-134682500D03*
X41053400Y-134682500D03*
%TD*%
D29*
%TO.C,C14*%
X66003400Y-120882500D03*
X64278400Y-120882500D03*
%TD*%
D27*
%TO.C,R32*%
X37003400Y-125282500D03*
X38828400Y-125282500D03*
%TD*%
%TO.C,R31*%
X36953400Y-128482500D03*
X38778400Y-128482500D03*
%TD*%
D31*
%TO.C,D2*%
X42940900Y-126282500D03*
X42940900Y-128032500D03*
X46440900Y-128032500D03*
X46440900Y-126282500D03*
%TD*%
D27*
%TO.C,FB5*%
X95352500Y-98560000D03*
X97177500Y-98560000D03*
%TD*%
D29*
%TO.C,C4*%
X66103400Y-117982500D03*
X64378400Y-117982500D03*
%TD*%
D31*
%TO.C,D1*%
X50090900Y-126307500D03*
X50090900Y-128057500D03*
X53590900Y-128057500D03*
X53590900Y-126307500D03*
%TD*%
D26*
%TO.C,BT3*%
X76046000Y-88589600D03*
X76046000Y-49589600D03*
%TD*%
D27*
%TO.C,FB1*%
X95352500Y-87970000D03*
X97177500Y-87970000D03*
%TD*%
D15*
%TO.C,SW2*%
X26840900Y-97782500D03*
D16*
X26840900Y-100322500D03*
X26840900Y-102862500D03*
%TD*%
D27*
%TO.C,FB6*%
X95352500Y-101070000D03*
X97177500Y-101070000D03*
%TD*%
D26*
%TO.C,BT2*%
X57608800Y-49586400D03*
X57608800Y-88586400D03*
%TD*%
D17*
%TO.C,U3*%
X68326000Y-140970000D03*
X68326000Y-138430000D03*
X68326000Y-135890000D03*
X68326000Y-133350000D03*
X68326000Y-130810000D03*
X68326000Y-128270000D03*
%TD*%
D32*
%TO.C,U5*%
X65090900Y-103707500D03*
X64590900Y-103707500D03*
X64090900Y-103707500D03*
X63590900Y-103707500D03*
X63090900Y-103707500D03*
X62590900Y-103707500D03*
X62090900Y-103707500D03*
X61590900Y-103707500D03*
X61090900Y-103707500D03*
X60590900Y-103707500D03*
X60090900Y-103707500D03*
X59590900Y-103707500D03*
X59090900Y-103707500D03*
X58590900Y-103707500D03*
X58090900Y-103707500D03*
X57590900Y-103707500D03*
D33*
X55665900Y-105632500D03*
X55665900Y-106132500D03*
X55665900Y-106632500D03*
X55665900Y-107132500D03*
X55665900Y-107632500D03*
X55665900Y-108132500D03*
X55665900Y-108632500D03*
X55665900Y-109132500D03*
X55665900Y-109632500D03*
X55665900Y-110132500D03*
X55665900Y-110632500D03*
X55665900Y-111132500D03*
X55665900Y-111632500D03*
X55665900Y-112132500D03*
X55665900Y-112632500D03*
X55665900Y-113132500D03*
D32*
X57590900Y-115057500D03*
X58090900Y-115057500D03*
X58590900Y-115057500D03*
X59090900Y-115057500D03*
X59590900Y-115057500D03*
X60090900Y-115057500D03*
X60590900Y-115057500D03*
X61090900Y-115057500D03*
X61590900Y-115057500D03*
X62090900Y-115057500D03*
X62590900Y-115057500D03*
X63090900Y-115057500D03*
X63590900Y-115057500D03*
X64090900Y-115057500D03*
X64590900Y-115057500D03*
X65090900Y-115057500D03*
D33*
X67015900Y-113132500D03*
X67015900Y-112632500D03*
X67015900Y-112132500D03*
X67015900Y-111632500D03*
X67015900Y-111132500D03*
X67015900Y-110632500D03*
X67015900Y-110132500D03*
X67015900Y-109632500D03*
X67015900Y-109132500D03*
X67015900Y-108632500D03*
X67015900Y-108132500D03*
X67015900Y-107632500D03*
X67015900Y-107132500D03*
X67015900Y-106632500D03*
X67015900Y-106132500D03*
X67015900Y-105632500D03*
%TD*%
D27*
%TO.C,FB4*%
X95352500Y-95500000D03*
X97177500Y-95500000D03*
%TD*%
D34*
%TO.C,U7*%
X32800900Y-108827500D03*
D35*
X35340900Y-108827500D03*
X37880900Y-108827500D03*
%TD*%
D15*
%TO.C,J2*%
X61850000Y-137300000D03*
D16*
X59310000Y-137300000D03*
X56770000Y-137300000D03*
X54230000Y-137300000D03*
X51690000Y-137300000D03*
X49150000Y-137300000D03*
%TD*%
D36*
%TO.C,C17*%
X70840900Y-102545000D03*
X70840900Y-100820000D03*
%TD*%
D27*
%TO.C,R33*%
X31515900Y-113282500D03*
X33340900Y-113282500D03*
%TD*%
D36*
%TO.C,C9*%
X52340900Y-114245000D03*
X52340900Y-112520000D03*
%TD*%
D37*
%TO.C,C2*%
X51137500Y-132000000D03*
X52862500Y-132000000D03*
%TD*%
D29*
%TO.C,C20*%
X37040900Y-112362500D03*
X35315900Y-112362500D03*
%TD*%
D18*
%TO.C,D4*%
X34890900Y-125282500D03*
X33140900Y-125282500D03*
%TD*%
D36*
%TO.C,C12*%
X52640900Y-106245000D03*
X52640900Y-104520000D03*
%TD*%
%TO.C,C13*%
X65840900Y-100245000D03*
X65840900Y-98520000D03*
%TD*%
D15*
%TO.C,J3*%
X64440000Y-143700000D03*
D16*
X61900000Y-143700000D03*
X59360000Y-143700000D03*
X56820000Y-143700000D03*
X54280000Y-143700000D03*
X51740000Y-143700000D03*
%TD*%
D37*
%TO.C,C3*%
X58778400Y-100782500D03*
X60503400Y-100782500D03*
%TD*%
D38*
%TO.C,C11*%
X55440900Y-116420000D03*
X55440900Y-118145000D03*
%TD*%
D36*
%TO.C,C10*%
X67940900Y-102545000D03*
X67940900Y-100820000D03*
%TD*%
D39*
%TO.C,R5*%
X62740900Y-98570000D03*
X62740900Y-100395000D03*
%TD*%
D30*
%TO.C,R3*%
X38760400Y-139092300D03*
X38760400Y-140917300D03*
%TD*%
D40*
%TO.C,J1*%
X28187000Y-123995000D03*
X28187000Y-124645000D03*
X28187000Y-125295000D03*
X28187000Y-125945000D03*
X28187000Y-126595000D03*
D41*
X25527000Y-121920000D03*
D42*
X28102000Y-122807500D03*
D43*
X25527000Y-124145000D03*
D44*
X25527000Y-126845000D03*
D42*
X28102000Y-127782500D03*
D41*
X25527000Y-128670000D03*
%TD*%
D27*
%TO.C,FB2*%
X95352500Y-90480000D03*
X97177500Y-90480000D03*
%TD*%
D45*
%TO.C,U2*%
X119517525Y-105940900D03*
X83957525Y-105940900D03*
X119517525Y-141500900D03*
X83957525Y-141500900D03*
D17*
X82696000Y-114840000D03*
X82696000Y-117380000D03*
X82696000Y-119920000D03*
X82696000Y-122460000D03*
X82696000Y-125000000D03*
X82696000Y-127540000D03*
X82696000Y-130080000D03*
X82696000Y-132620000D03*
X120796000Y-130080000D03*
X120796000Y-127540000D03*
X120796000Y-125000000D03*
X120796000Y-122460000D03*
X120796000Y-119920000D03*
X120796000Y-117380000D03*
%TD*%
D15*
%TO.C,J5*%
X27100000Y-86260000D03*
D16*
X27100000Y-83720000D03*
X27100000Y-81180000D03*
X27100000Y-78640000D03*
X27100000Y-76100000D03*
X27100000Y-73560000D03*
%TD*%
D39*
%TO.C,R28*%
X33340900Y-94070000D03*
X33340900Y-95895000D03*
%TD*%
D46*
%TO.C,Q2*%
X32340900Y-103168500D03*
D47*
X32340900Y-100882500D03*
X32340900Y-98596500D03*
%TD*%
D30*
%TO.C,R2*%
X77840900Y-95795000D03*
X77840900Y-93970000D03*
%TD*%
D27*
%TO.C,R34*%
X31515900Y-115792500D03*
X33340900Y-115792500D03*
%TD*%
%LPD*%
M02*
