%TF.GenerationSoftware,KiCad,Pcbnew,7.0.9*%
%TF.CreationDate,2024-04-16T11:52:51+09:00*%
%TF.ProjectId,balloon,62616c6c-6f6f-46e2-9e6b-696361645f70,rev?*%
%TF.SameCoordinates,Original*%
%TF.FileFunction,Other,Comment*%
%FSLAX46Y46*%
G04 Gerber Fmt 4.6, Leading zero omitted, Abs format (unit mm)*
G04 Created by KiCad (PCBNEW 7.0.9) date 2024-04-16 11:52:51*
%MOMM*%
%LPD*%
G01*
G04 APERTURE LIST*
%ADD10C,0.090000*%
%ADD11C,0.060000*%
%ADD12C,0.100000*%
%ADD13C,0.150000*%
G04 APERTURE END LIST*
D10*
X109517858Y-99047891D02*
X109517858Y-98447891D01*
X109860715Y-99047891D02*
X109603572Y-98705034D01*
X109860715Y-98447891D02*
X109517858Y-98790748D01*
X110117858Y-98733605D02*
X110317858Y-98733605D01*
X110403572Y-99047891D02*
X110117858Y-99047891D01*
X110117858Y-99047891D02*
X110117858Y-98447891D01*
X110117858Y-98447891D02*
X110403572Y-98447891D01*
X110660715Y-98733605D02*
X110860715Y-98733605D01*
X110946429Y-99047891D02*
X110660715Y-99047891D01*
X110660715Y-99047891D02*
X110660715Y-98447891D01*
X110660715Y-98447891D02*
X110946429Y-98447891D01*
X111203572Y-99047891D02*
X111203572Y-98447891D01*
X111203572Y-98447891D02*
X111432143Y-98447891D01*
X111432143Y-98447891D02*
X111489286Y-98476462D01*
X111489286Y-98476462D02*
X111517857Y-98505034D01*
X111517857Y-98505034D02*
X111546429Y-98562177D01*
X111546429Y-98562177D02*
X111546429Y-98647891D01*
X111546429Y-98647891D02*
X111517857Y-98705034D01*
X111517857Y-98705034D02*
X111489286Y-98733605D01*
X111489286Y-98733605D02*
X111432143Y-98762177D01*
X111432143Y-98762177D02*
X111203572Y-98762177D01*
X111917857Y-98447891D02*
X112032143Y-98447891D01*
X112032143Y-98447891D02*
X112089286Y-98476462D01*
X112089286Y-98476462D02*
X112146429Y-98533605D01*
X112146429Y-98533605D02*
X112175000Y-98647891D01*
X112175000Y-98647891D02*
X112175000Y-98847891D01*
X112175000Y-98847891D02*
X112146429Y-98962177D01*
X112146429Y-98962177D02*
X112089286Y-99019320D01*
X112089286Y-99019320D02*
X112032143Y-99047891D01*
X112032143Y-99047891D02*
X111917857Y-99047891D01*
X111917857Y-99047891D02*
X111860715Y-99019320D01*
X111860715Y-99019320D02*
X111803572Y-98962177D01*
X111803572Y-98962177D02*
X111775000Y-98847891D01*
X111775000Y-98847891D02*
X111775000Y-98647891D01*
X111775000Y-98647891D02*
X111803572Y-98533605D01*
X111803572Y-98533605D02*
X111860715Y-98476462D01*
X111860715Y-98476462D02*
X111917857Y-98447891D01*
X112432143Y-98447891D02*
X112432143Y-98933605D01*
X112432143Y-98933605D02*
X112460714Y-98990748D01*
X112460714Y-98990748D02*
X112489286Y-99019320D01*
X112489286Y-99019320D02*
X112546428Y-99047891D01*
X112546428Y-99047891D02*
X112660714Y-99047891D01*
X112660714Y-99047891D02*
X112717857Y-99019320D01*
X112717857Y-99019320D02*
X112746428Y-98990748D01*
X112746428Y-98990748D02*
X112775000Y-98933605D01*
X112775000Y-98933605D02*
X112775000Y-98447891D01*
X112974999Y-98447891D02*
X113317857Y-98447891D01*
X113146428Y-99047891D02*
X113146428Y-98447891D01*
X103892858Y-100122891D02*
X103892858Y-99522891D01*
X104235715Y-100122891D02*
X103978572Y-99780034D01*
X104235715Y-99522891D02*
X103892858Y-99865748D01*
X104492858Y-99808605D02*
X104692858Y-99808605D01*
X104778572Y-100122891D02*
X104492858Y-100122891D01*
X104492858Y-100122891D02*
X104492858Y-99522891D01*
X104492858Y-99522891D02*
X104778572Y-99522891D01*
X105035715Y-99808605D02*
X105235715Y-99808605D01*
X105321429Y-100122891D02*
X105035715Y-100122891D01*
X105035715Y-100122891D02*
X105035715Y-99522891D01*
X105035715Y-99522891D02*
X105321429Y-99522891D01*
X105578572Y-100122891D02*
X105578572Y-99522891D01*
X105578572Y-99522891D02*
X105807143Y-99522891D01*
X105807143Y-99522891D02*
X105864286Y-99551462D01*
X105864286Y-99551462D02*
X105892857Y-99580034D01*
X105892857Y-99580034D02*
X105921429Y-99637177D01*
X105921429Y-99637177D02*
X105921429Y-99722891D01*
X105921429Y-99722891D02*
X105892857Y-99780034D01*
X105892857Y-99780034D02*
X105864286Y-99808605D01*
X105864286Y-99808605D02*
X105807143Y-99837177D01*
X105807143Y-99837177D02*
X105578572Y-99837177D01*
X106292857Y-99522891D02*
X106407143Y-99522891D01*
X106407143Y-99522891D02*
X106464286Y-99551462D01*
X106464286Y-99551462D02*
X106521429Y-99608605D01*
X106521429Y-99608605D02*
X106550000Y-99722891D01*
X106550000Y-99722891D02*
X106550000Y-99922891D01*
X106550000Y-99922891D02*
X106521429Y-100037177D01*
X106521429Y-100037177D02*
X106464286Y-100094320D01*
X106464286Y-100094320D02*
X106407143Y-100122891D01*
X106407143Y-100122891D02*
X106292857Y-100122891D01*
X106292857Y-100122891D02*
X106235715Y-100094320D01*
X106235715Y-100094320D02*
X106178572Y-100037177D01*
X106178572Y-100037177D02*
X106150000Y-99922891D01*
X106150000Y-99922891D02*
X106150000Y-99722891D01*
X106150000Y-99722891D02*
X106178572Y-99608605D01*
X106178572Y-99608605D02*
X106235715Y-99551462D01*
X106235715Y-99551462D02*
X106292857Y-99522891D01*
X106807143Y-99522891D02*
X106807143Y-100008605D01*
X106807143Y-100008605D02*
X106835714Y-100065748D01*
X106835714Y-100065748D02*
X106864286Y-100094320D01*
X106864286Y-100094320D02*
X106921428Y-100122891D01*
X106921428Y-100122891D02*
X107035714Y-100122891D01*
X107035714Y-100122891D02*
X107092857Y-100094320D01*
X107092857Y-100094320D02*
X107121428Y-100065748D01*
X107121428Y-100065748D02*
X107150000Y-100008605D01*
X107150000Y-100008605D02*
X107150000Y-99522891D01*
X107349999Y-99522891D02*
X107692857Y-99522891D01*
X107521428Y-100122891D02*
X107521428Y-99522891D01*
D11*
X116831927Y-90038095D02*
X116431927Y-90038095D01*
X116831927Y-89809524D02*
X116603356Y-89980953D01*
X116431927Y-89809524D02*
X116660499Y-90038095D01*
X116622403Y-89638095D02*
X116622403Y-89504762D01*
X116831927Y-89447619D02*
X116831927Y-89638095D01*
X116831927Y-89638095D02*
X116431927Y-89638095D01*
X116431927Y-89638095D02*
X116431927Y-89447619D01*
X116622403Y-89276190D02*
X116622403Y-89142857D01*
X116831927Y-89085714D02*
X116831927Y-89276190D01*
X116831927Y-89276190D02*
X116431927Y-89276190D01*
X116431927Y-89276190D02*
X116431927Y-89085714D01*
X116831927Y-88914285D02*
X116431927Y-88914285D01*
X116431927Y-88914285D02*
X116431927Y-88761904D01*
X116431927Y-88761904D02*
X116450975Y-88723809D01*
X116450975Y-88723809D02*
X116470022Y-88704762D01*
X116470022Y-88704762D02*
X116508118Y-88685714D01*
X116508118Y-88685714D02*
X116565260Y-88685714D01*
X116565260Y-88685714D02*
X116603356Y-88704762D01*
X116603356Y-88704762D02*
X116622403Y-88723809D01*
X116622403Y-88723809D02*
X116641451Y-88761904D01*
X116641451Y-88761904D02*
X116641451Y-88914285D01*
X116431927Y-88438095D02*
X116431927Y-88361904D01*
X116431927Y-88361904D02*
X116450975Y-88323809D01*
X116450975Y-88323809D02*
X116489070Y-88285714D01*
X116489070Y-88285714D02*
X116565260Y-88266666D01*
X116565260Y-88266666D02*
X116698594Y-88266666D01*
X116698594Y-88266666D02*
X116774784Y-88285714D01*
X116774784Y-88285714D02*
X116812880Y-88323809D01*
X116812880Y-88323809D02*
X116831927Y-88361904D01*
X116831927Y-88361904D02*
X116831927Y-88438095D01*
X116831927Y-88438095D02*
X116812880Y-88476190D01*
X116812880Y-88476190D02*
X116774784Y-88514285D01*
X116774784Y-88514285D02*
X116698594Y-88533333D01*
X116698594Y-88533333D02*
X116565260Y-88533333D01*
X116565260Y-88533333D02*
X116489070Y-88514285D01*
X116489070Y-88514285D02*
X116450975Y-88476190D01*
X116450975Y-88476190D02*
X116431927Y-88438095D01*
X116431927Y-88095237D02*
X116755737Y-88095237D01*
X116755737Y-88095237D02*
X116793832Y-88076190D01*
X116793832Y-88076190D02*
X116812880Y-88057142D01*
X116812880Y-88057142D02*
X116831927Y-88019047D01*
X116831927Y-88019047D02*
X116831927Y-87942856D01*
X116831927Y-87942856D02*
X116812880Y-87904761D01*
X116812880Y-87904761D02*
X116793832Y-87885714D01*
X116793832Y-87885714D02*
X116755737Y-87866666D01*
X116755737Y-87866666D02*
X116431927Y-87866666D01*
X116431927Y-87733332D02*
X116431927Y-87504761D01*
X116831927Y-87619047D02*
X116431927Y-87619047D01*
D12*
X107532419Y-97170237D02*
X106532419Y-97170237D01*
X107532419Y-96598809D02*
X106960990Y-97027380D01*
X106532419Y-96598809D02*
X107103847Y-97170237D01*
X107008609Y-96170237D02*
X107008609Y-95836904D01*
X107532419Y-95694047D02*
X107532419Y-96170237D01*
X107532419Y-96170237D02*
X106532419Y-96170237D01*
X106532419Y-96170237D02*
X106532419Y-95694047D01*
X107008609Y-95265475D02*
X107008609Y-94932142D01*
X107532419Y-94789285D02*
X107532419Y-95265475D01*
X107532419Y-95265475D02*
X106532419Y-95265475D01*
X106532419Y-95265475D02*
X106532419Y-94789285D01*
X107532419Y-94360713D02*
X106532419Y-94360713D01*
X106532419Y-94360713D02*
X106532419Y-93979761D01*
X106532419Y-93979761D02*
X106580038Y-93884523D01*
X106580038Y-93884523D02*
X106627657Y-93836904D01*
X106627657Y-93836904D02*
X106722895Y-93789285D01*
X106722895Y-93789285D02*
X106865752Y-93789285D01*
X106865752Y-93789285D02*
X106960990Y-93836904D01*
X106960990Y-93836904D02*
X107008609Y-93884523D01*
X107008609Y-93884523D02*
X107056228Y-93979761D01*
X107056228Y-93979761D02*
X107056228Y-94360713D01*
X106532419Y-93170237D02*
X106532419Y-92979761D01*
X106532419Y-92979761D02*
X106580038Y-92884523D01*
X106580038Y-92884523D02*
X106675276Y-92789285D01*
X106675276Y-92789285D02*
X106865752Y-92741666D01*
X106865752Y-92741666D02*
X107199085Y-92741666D01*
X107199085Y-92741666D02*
X107389561Y-92789285D01*
X107389561Y-92789285D02*
X107484800Y-92884523D01*
X107484800Y-92884523D02*
X107532419Y-92979761D01*
X107532419Y-92979761D02*
X107532419Y-93170237D01*
X107532419Y-93170237D02*
X107484800Y-93265475D01*
X107484800Y-93265475D02*
X107389561Y-93360713D01*
X107389561Y-93360713D02*
X107199085Y-93408332D01*
X107199085Y-93408332D02*
X106865752Y-93408332D01*
X106865752Y-93408332D02*
X106675276Y-93360713D01*
X106675276Y-93360713D02*
X106580038Y-93265475D01*
X106580038Y-93265475D02*
X106532419Y-93170237D01*
X106532419Y-92313094D02*
X107341942Y-92313094D01*
X107341942Y-92313094D02*
X107437180Y-92265475D01*
X107437180Y-92265475D02*
X107484800Y-92217856D01*
X107484800Y-92217856D02*
X107532419Y-92122618D01*
X107532419Y-92122618D02*
X107532419Y-91932142D01*
X107532419Y-91932142D02*
X107484800Y-91836904D01*
X107484800Y-91836904D02*
X107437180Y-91789285D01*
X107437180Y-91789285D02*
X107341942Y-91741666D01*
X107341942Y-91741666D02*
X106532419Y-91741666D01*
X106532419Y-91408332D02*
X106532419Y-90836904D01*
X107532419Y-91122618D02*
X106532419Y-91122618D01*
D13*
%TO.C,H3*%
X122450000Y-50000000D02*
G75*
G03*
X122450000Y-50000000I-2850000J0D01*
G01*
%TO.C,H2*%
X30650000Y-141500000D02*
G75*
G03*
X30650000Y-141500000I-2850000J0D01*
G01*
%TO.C,H1*%
X30650000Y-49900000D02*
G75*
G03*
X30650000Y-49900000I-2850000J0D01*
G01*
%TD*%
M02*
