%TF.GenerationSoftware,KiCad,Pcbnew,7.0.6*%
%TF.CreationDate,2024-04-20T19:15:45+09:00*%
%TF.ProjectId,balloon,62616c6c-6f6f-46e2-9e6b-696361645f70,rev?*%
%TF.SameCoordinates,Original*%
%TF.FileFunction,Legend,Bot*%
%TF.FilePolarity,Positive*%
%FSLAX46Y46*%
G04 Gerber Fmt 4.6, Leading zero omitted, Abs format (unit mm)*
G04 Created by KiCad (PCBNEW 7.0.6) date 2024-04-20 19:15:45*
%MOMM*%
%LPD*%
G01*
G04 APERTURE LIST*
G04 Aperture macros list*
%AMRoundRect*
0 Rectangle with rounded corners*
0 $1 Rounding radius*
0 $2 $3 $4 $5 $6 $7 $8 $9 X,Y pos of 4 corners*
0 Add a 4 corners polygon primitive as box body*
4,1,4,$2,$3,$4,$5,$6,$7,$8,$9,$2,$3,0*
0 Add four circle primitives for the rounded corners*
1,1,$1+$1,$2,$3*
1,1,$1+$1,$4,$5*
1,1,$1+$1,$6,$7*
1,1,$1+$1,$8,$9*
0 Add four rect primitives between the rounded corners*
20,1,$1+$1,$2,$3,$4,$5,0*
20,1,$1+$1,$4,$5,$6,$7,0*
20,1,$1+$1,$6,$7,$8,$9,0*
20,1,$1+$1,$8,$9,$2,$3,0*%
G04 Aperture macros list end*
%ADD10C,0.150000*%
%ADD11C,0.300000*%
%ADD12C,0.120000*%
%ADD13R,1.700000X1.700000*%
%ADD14O,1.700000X1.700000*%
%ADD15C,2.000000*%
%ADD16C,1.000000*%
%ADD17C,2.500000*%
%ADD18C,3.200000*%
%ADD19R,1.905000X2.000000*%
%ADD20O,1.905000X2.000000*%
%ADD21R,1.800000X1.714500*%
%ADD22O,1.800000X1.714500*%
%ADD23RoundRect,0.237500X0.250000X0.237500X-0.250000X0.237500X-0.250000X-0.237500X0.250000X-0.237500X0*%
%ADD24RoundRect,0.237500X0.237500X-0.300000X0.237500X0.300000X-0.237500X0.300000X-0.237500X-0.300000X0*%
%ADD25RoundRect,0.237500X0.300000X0.237500X-0.300000X0.237500X-0.300000X-0.237500X0.300000X-0.237500X0*%
%ADD26RoundRect,0.150000X-0.675000X-0.150000X0.675000X-0.150000X0.675000X0.150000X-0.675000X0.150000X0*%
%ADD27RoundRect,0.237500X-0.237500X0.300000X-0.237500X-0.300000X0.237500X-0.300000X0.237500X0.300000X0*%
%ADD28R,0.650000X1.560000*%
%ADD29RoundRect,0.237500X-0.250000X-0.237500X0.250000X-0.237500X0.250000X0.237500X-0.250000X0.237500X0*%
%ADD30RoundRect,0.237500X-0.300000X-0.237500X0.300000X-0.237500X0.300000X0.237500X-0.300000X0.237500X0*%
%ADD31RoundRect,0.237500X0.237500X-0.250000X0.237500X0.250000X-0.237500X0.250000X-0.237500X-0.250000X0*%
%ADD32RoundRect,0.237500X-0.237500X0.250000X-0.237500X-0.250000X0.237500X-0.250000X0.237500X0.250000X0*%
%ADD33RoundRect,0.075000X0.700000X0.075000X-0.700000X0.075000X-0.700000X-0.075000X0.700000X-0.075000X0*%
%ADD34RoundRect,0.075000X0.075000X0.700000X-0.075000X0.700000X-0.075000X-0.700000X0.075000X-0.700000X0*%
%ADD35RoundRect,0.150000X-0.150000X0.587500X-0.150000X-0.587500X0.150000X-0.587500X0.150000X0.587500X0*%
G04 APERTURE END LIST*
D10*
X52863220Y-96969819D02*
X52863220Y-95969819D01*
X52863220Y-95969819D02*
X52625125Y-95969819D01*
X52625125Y-95969819D02*
X52482268Y-96017438D01*
X52482268Y-96017438D02*
X52387030Y-96112676D01*
X52387030Y-96112676D02*
X52339411Y-96207914D01*
X52339411Y-96207914D02*
X52291792Y-96398390D01*
X52291792Y-96398390D02*
X52291792Y-96541247D01*
X52291792Y-96541247D02*
X52339411Y-96731723D01*
X52339411Y-96731723D02*
X52387030Y-96826961D01*
X52387030Y-96826961D02*
X52482268Y-96922200D01*
X52482268Y-96922200D02*
X52625125Y-96969819D01*
X52625125Y-96969819D02*
X52863220Y-96969819D01*
X51863220Y-96969819D02*
X51863220Y-95969819D01*
X51863220Y-95969819D02*
X51291792Y-96969819D01*
X51291792Y-96969819D02*
X51291792Y-95969819D01*
X50815601Y-96969819D02*
X50815601Y-95969819D01*
X50815601Y-95969819D02*
X50434649Y-95969819D01*
X50434649Y-95969819D02*
X50339411Y-96017438D01*
X50339411Y-96017438D02*
X50291792Y-96065057D01*
X50291792Y-96065057D02*
X50244173Y-96160295D01*
X50244173Y-96160295D02*
X50244173Y-96303152D01*
X50244173Y-96303152D02*
X50291792Y-96398390D01*
X50291792Y-96398390D02*
X50339411Y-96446009D01*
X50339411Y-96446009D02*
X50434649Y-96493628D01*
X50434649Y-96493628D02*
X50815601Y-96493628D01*
X72363220Y-96069819D02*
X72363220Y-95069819D01*
X72363220Y-95069819D02*
X72125125Y-95069819D01*
X72125125Y-95069819D02*
X71982268Y-95117438D01*
X71982268Y-95117438D02*
X71887030Y-95212676D01*
X71887030Y-95212676D02*
X71839411Y-95307914D01*
X71839411Y-95307914D02*
X71791792Y-95498390D01*
X71791792Y-95498390D02*
X71791792Y-95641247D01*
X71791792Y-95641247D02*
X71839411Y-95831723D01*
X71839411Y-95831723D02*
X71887030Y-95926961D01*
X71887030Y-95926961D02*
X71982268Y-96022200D01*
X71982268Y-96022200D02*
X72125125Y-96069819D01*
X72125125Y-96069819D02*
X72363220Y-96069819D01*
X71363220Y-96069819D02*
X71363220Y-95069819D01*
X71363220Y-95069819D02*
X70791792Y-96069819D01*
X70791792Y-96069819D02*
X70791792Y-95069819D01*
X70315601Y-96069819D02*
X70315601Y-95069819D01*
X70315601Y-95069819D02*
X69934649Y-95069819D01*
X69934649Y-95069819D02*
X69839411Y-95117438D01*
X69839411Y-95117438D02*
X69791792Y-95165057D01*
X69791792Y-95165057D02*
X69744173Y-95260295D01*
X69744173Y-95260295D02*
X69744173Y-95403152D01*
X69744173Y-95403152D02*
X69791792Y-95498390D01*
X69791792Y-95498390D02*
X69839411Y-95546009D01*
X69839411Y-95546009D02*
X69934649Y-95593628D01*
X69934649Y-95593628D02*
X70315601Y-95593628D01*
X72363220Y-92069819D02*
X72363220Y-91069819D01*
X72363220Y-91069819D02*
X72125125Y-91069819D01*
X72125125Y-91069819D02*
X71982268Y-91117438D01*
X71982268Y-91117438D02*
X71887030Y-91212676D01*
X71887030Y-91212676D02*
X71839411Y-91307914D01*
X71839411Y-91307914D02*
X71791792Y-91498390D01*
X71791792Y-91498390D02*
X71791792Y-91641247D01*
X71791792Y-91641247D02*
X71839411Y-91831723D01*
X71839411Y-91831723D02*
X71887030Y-91926961D01*
X71887030Y-91926961D02*
X71982268Y-92022200D01*
X71982268Y-92022200D02*
X72125125Y-92069819D01*
X72125125Y-92069819D02*
X72363220Y-92069819D01*
X71363220Y-92069819D02*
X71363220Y-91069819D01*
X71363220Y-91069819D02*
X70791792Y-92069819D01*
X70791792Y-92069819D02*
X70791792Y-91069819D01*
X70315601Y-92069819D02*
X70315601Y-91069819D01*
X70315601Y-91069819D02*
X69934649Y-91069819D01*
X69934649Y-91069819D02*
X69839411Y-91117438D01*
X69839411Y-91117438D02*
X69791792Y-91165057D01*
X69791792Y-91165057D02*
X69744173Y-91260295D01*
X69744173Y-91260295D02*
X69744173Y-91403152D01*
X69744173Y-91403152D02*
X69791792Y-91498390D01*
X69791792Y-91498390D02*
X69839411Y-91546009D01*
X69839411Y-91546009D02*
X69934649Y-91593628D01*
X69934649Y-91593628D02*
X70315601Y-91593628D01*
X52663220Y-92469819D02*
X52663220Y-91469819D01*
X52663220Y-91469819D02*
X52425125Y-91469819D01*
X52425125Y-91469819D02*
X52282268Y-91517438D01*
X52282268Y-91517438D02*
X52187030Y-91612676D01*
X52187030Y-91612676D02*
X52139411Y-91707914D01*
X52139411Y-91707914D02*
X52091792Y-91898390D01*
X52091792Y-91898390D02*
X52091792Y-92041247D01*
X52091792Y-92041247D02*
X52139411Y-92231723D01*
X52139411Y-92231723D02*
X52187030Y-92326961D01*
X52187030Y-92326961D02*
X52282268Y-92422200D01*
X52282268Y-92422200D02*
X52425125Y-92469819D01*
X52425125Y-92469819D02*
X52663220Y-92469819D01*
X51663220Y-92469819D02*
X51663220Y-91469819D01*
X51663220Y-91469819D02*
X51091792Y-92469819D01*
X51091792Y-92469819D02*
X51091792Y-91469819D01*
X50615601Y-92469819D02*
X50615601Y-91469819D01*
X50615601Y-91469819D02*
X50234649Y-91469819D01*
X50234649Y-91469819D02*
X50139411Y-91517438D01*
X50139411Y-91517438D02*
X50091792Y-91565057D01*
X50091792Y-91565057D02*
X50044173Y-91660295D01*
X50044173Y-91660295D02*
X50044173Y-91803152D01*
X50044173Y-91803152D02*
X50091792Y-91898390D01*
X50091792Y-91898390D02*
X50139411Y-91946009D01*
X50139411Y-91946009D02*
X50234649Y-91993628D01*
X50234649Y-91993628D02*
X50615601Y-91993628D01*
D11*
X77081671Y-106500674D02*
X77081671Y-107357817D01*
X77081671Y-106929246D02*
X78581671Y-106929246D01*
X78581671Y-106929246D02*
X78367385Y-107072103D01*
X78367385Y-107072103D02*
X78224528Y-107214960D01*
X78224528Y-107214960D02*
X78153100Y-107357817D01*
D10*
X116954166Y-69104819D02*
X117287499Y-68628628D01*
X117525594Y-69104819D02*
X117525594Y-68104819D01*
X117525594Y-68104819D02*
X117144642Y-68104819D01*
X117144642Y-68104819D02*
X117049404Y-68152438D01*
X117049404Y-68152438D02*
X117001785Y-68200057D01*
X117001785Y-68200057D02*
X116954166Y-68295295D01*
X116954166Y-68295295D02*
X116954166Y-68438152D01*
X116954166Y-68438152D02*
X117001785Y-68533390D01*
X117001785Y-68533390D02*
X117049404Y-68581009D01*
X117049404Y-68581009D02*
X117144642Y-68628628D01*
X117144642Y-68628628D02*
X117525594Y-68628628D01*
X116620832Y-68104819D02*
X115954166Y-68104819D01*
X115954166Y-68104819D02*
X116382737Y-69104819D01*
X40589580Y-122533333D02*
X40637200Y-122485714D01*
X40637200Y-122485714D02*
X40684819Y-122342857D01*
X40684819Y-122342857D02*
X40684819Y-122247619D01*
X40684819Y-122247619D02*
X40637200Y-122104762D01*
X40637200Y-122104762D02*
X40541961Y-122009524D01*
X40541961Y-122009524D02*
X40446723Y-121961905D01*
X40446723Y-121961905D02*
X40256247Y-121914286D01*
X40256247Y-121914286D02*
X40113390Y-121914286D01*
X40113390Y-121914286D02*
X39922914Y-121961905D01*
X39922914Y-121961905D02*
X39827676Y-122009524D01*
X39827676Y-122009524D02*
X39732438Y-122104762D01*
X39732438Y-122104762D02*
X39684819Y-122247619D01*
X39684819Y-122247619D02*
X39684819Y-122342857D01*
X39684819Y-122342857D02*
X39732438Y-122485714D01*
X39732438Y-122485714D02*
X39780057Y-122533333D01*
X40684819Y-123485714D02*
X40684819Y-122914286D01*
X40684819Y-123200000D02*
X39684819Y-123200000D01*
X39684819Y-123200000D02*
X39827676Y-123104762D01*
X39827676Y-123104762D02*
X39922914Y-123009524D01*
X39922914Y-123009524D02*
X39970533Y-122914286D01*
X36783757Y-111412080D02*
X36831376Y-111459700D01*
X36831376Y-111459700D02*
X36974233Y-111507319D01*
X36974233Y-111507319D02*
X37069471Y-111507319D01*
X37069471Y-111507319D02*
X37212328Y-111459700D01*
X37212328Y-111459700D02*
X37307566Y-111364461D01*
X37307566Y-111364461D02*
X37355185Y-111269223D01*
X37355185Y-111269223D02*
X37402804Y-111078747D01*
X37402804Y-111078747D02*
X37402804Y-110935890D01*
X37402804Y-110935890D02*
X37355185Y-110745414D01*
X37355185Y-110745414D02*
X37307566Y-110650176D01*
X37307566Y-110650176D02*
X37212328Y-110554938D01*
X37212328Y-110554938D02*
X37069471Y-110507319D01*
X37069471Y-110507319D02*
X36974233Y-110507319D01*
X36974233Y-110507319D02*
X36831376Y-110554938D01*
X36831376Y-110554938D02*
X36783757Y-110602557D01*
X35831376Y-111507319D02*
X36402804Y-111507319D01*
X36117090Y-111507319D02*
X36117090Y-110507319D01*
X36117090Y-110507319D02*
X36212328Y-110650176D01*
X36212328Y-110650176D02*
X36307566Y-110745414D01*
X36307566Y-110745414D02*
X36402804Y-110793033D01*
X34974233Y-110507319D02*
X35164709Y-110507319D01*
X35164709Y-110507319D02*
X35259947Y-110554938D01*
X35259947Y-110554938D02*
X35307566Y-110602557D01*
X35307566Y-110602557D02*
X35402804Y-110745414D01*
X35402804Y-110745414D02*
X35450423Y-110935890D01*
X35450423Y-110935890D02*
X35450423Y-111316842D01*
X35450423Y-111316842D02*
X35402804Y-111412080D01*
X35402804Y-111412080D02*
X35355185Y-111459700D01*
X35355185Y-111459700D02*
X35259947Y-111507319D01*
X35259947Y-111507319D02*
X35069471Y-111507319D01*
X35069471Y-111507319D02*
X34974233Y-111459700D01*
X34974233Y-111459700D02*
X34926614Y-111412080D01*
X34926614Y-111412080D02*
X34878995Y-111316842D01*
X34878995Y-111316842D02*
X34878995Y-111078747D01*
X34878995Y-111078747D02*
X34926614Y-110983509D01*
X34926614Y-110983509D02*
X34974233Y-110935890D01*
X34974233Y-110935890D02*
X35069471Y-110888271D01*
X35069471Y-110888271D02*
X35259947Y-110888271D01*
X35259947Y-110888271D02*
X35355185Y-110935890D01*
X35355185Y-110935890D02*
X35402804Y-110983509D01*
X35402804Y-110983509D02*
X35450423Y-111078747D01*
X55207566Y-95312080D02*
X55255185Y-95359700D01*
X55255185Y-95359700D02*
X55398042Y-95407319D01*
X55398042Y-95407319D02*
X55493280Y-95407319D01*
X55493280Y-95407319D02*
X55636137Y-95359700D01*
X55636137Y-95359700D02*
X55731375Y-95264461D01*
X55731375Y-95264461D02*
X55778994Y-95169223D01*
X55778994Y-95169223D02*
X55826613Y-94978747D01*
X55826613Y-94978747D02*
X55826613Y-94835890D01*
X55826613Y-94835890D02*
X55778994Y-94645414D01*
X55778994Y-94645414D02*
X55731375Y-94550176D01*
X55731375Y-94550176D02*
X55636137Y-94454938D01*
X55636137Y-94454938D02*
X55493280Y-94407319D01*
X55493280Y-94407319D02*
X55398042Y-94407319D01*
X55398042Y-94407319D02*
X55255185Y-94454938D01*
X55255185Y-94454938D02*
X55207566Y-94502557D01*
X54350423Y-94407319D02*
X54540899Y-94407319D01*
X54540899Y-94407319D02*
X54636137Y-94454938D01*
X54636137Y-94454938D02*
X54683756Y-94502557D01*
X54683756Y-94502557D02*
X54778994Y-94645414D01*
X54778994Y-94645414D02*
X54826613Y-94835890D01*
X54826613Y-94835890D02*
X54826613Y-95216842D01*
X54826613Y-95216842D02*
X54778994Y-95312080D01*
X54778994Y-95312080D02*
X54731375Y-95359700D01*
X54731375Y-95359700D02*
X54636137Y-95407319D01*
X54636137Y-95407319D02*
X54445661Y-95407319D01*
X54445661Y-95407319D02*
X54350423Y-95359700D01*
X54350423Y-95359700D02*
X54302804Y-95312080D01*
X54302804Y-95312080D02*
X54255185Y-95216842D01*
X54255185Y-95216842D02*
X54255185Y-94978747D01*
X54255185Y-94978747D02*
X54302804Y-94883509D01*
X54302804Y-94883509D02*
X54350423Y-94835890D01*
X54350423Y-94835890D02*
X54445661Y-94788271D01*
X54445661Y-94788271D02*
X54636137Y-94788271D01*
X54636137Y-94788271D02*
X54731375Y-94835890D01*
X54731375Y-94835890D02*
X54778994Y-94883509D01*
X54778994Y-94883509D02*
X54826613Y-94978747D01*
X34561904Y-126554819D02*
X34561904Y-127364342D01*
X34561904Y-127364342D02*
X34514285Y-127459580D01*
X34514285Y-127459580D02*
X34466666Y-127507200D01*
X34466666Y-127507200D02*
X34371428Y-127554819D01*
X34371428Y-127554819D02*
X34180952Y-127554819D01*
X34180952Y-127554819D02*
X34085714Y-127507200D01*
X34085714Y-127507200D02*
X34038095Y-127459580D01*
X34038095Y-127459580D02*
X33990476Y-127364342D01*
X33990476Y-127364342D02*
X33990476Y-126554819D01*
X32990476Y-127554819D02*
X33561904Y-127554819D01*
X33276190Y-127554819D02*
X33276190Y-126554819D01*
X33276190Y-126554819D02*
X33371428Y-126697676D01*
X33371428Y-126697676D02*
X33466666Y-126792914D01*
X33466666Y-126792914D02*
X33561904Y-126840533D01*
X116954166Y-66004819D02*
X117287499Y-65528628D01*
X117525594Y-66004819D02*
X117525594Y-65004819D01*
X117525594Y-65004819D02*
X117144642Y-65004819D01*
X117144642Y-65004819D02*
X117049404Y-65052438D01*
X117049404Y-65052438D02*
X117001785Y-65100057D01*
X117001785Y-65100057D02*
X116954166Y-65195295D01*
X116954166Y-65195295D02*
X116954166Y-65338152D01*
X116954166Y-65338152D02*
X117001785Y-65433390D01*
X117001785Y-65433390D02*
X117049404Y-65481009D01*
X117049404Y-65481009D02*
X117144642Y-65528628D01*
X117144642Y-65528628D02*
X117525594Y-65528628D01*
X116382737Y-65433390D02*
X116477975Y-65385771D01*
X116477975Y-65385771D02*
X116525594Y-65338152D01*
X116525594Y-65338152D02*
X116573213Y-65242914D01*
X116573213Y-65242914D02*
X116573213Y-65195295D01*
X116573213Y-65195295D02*
X116525594Y-65100057D01*
X116525594Y-65100057D02*
X116477975Y-65052438D01*
X116477975Y-65052438D02*
X116382737Y-65004819D01*
X116382737Y-65004819D02*
X116192261Y-65004819D01*
X116192261Y-65004819D02*
X116097023Y-65052438D01*
X116097023Y-65052438D02*
X116049404Y-65100057D01*
X116049404Y-65100057D02*
X116001785Y-65195295D01*
X116001785Y-65195295D02*
X116001785Y-65242914D01*
X116001785Y-65242914D02*
X116049404Y-65338152D01*
X116049404Y-65338152D02*
X116097023Y-65385771D01*
X116097023Y-65385771D02*
X116192261Y-65433390D01*
X116192261Y-65433390D02*
X116382737Y-65433390D01*
X116382737Y-65433390D02*
X116477975Y-65481009D01*
X116477975Y-65481009D02*
X116525594Y-65528628D01*
X116525594Y-65528628D02*
X116573213Y-65623866D01*
X116573213Y-65623866D02*
X116573213Y-65814342D01*
X116573213Y-65814342D02*
X116525594Y-65909580D01*
X116525594Y-65909580D02*
X116477975Y-65957200D01*
X116477975Y-65957200D02*
X116382737Y-66004819D01*
X116382737Y-66004819D02*
X116192261Y-66004819D01*
X116192261Y-66004819D02*
X116097023Y-65957200D01*
X116097023Y-65957200D02*
X116049404Y-65909580D01*
X116049404Y-65909580D02*
X116001785Y-65814342D01*
X116001785Y-65814342D02*
X116001785Y-65623866D01*
X116001785Y-65623866D02*
X116049404Y-65528628D01*
X116049404Y-65528628D02*
X116097023Y-65481009D01*
X116097023Y-65481009D02*
X116192261Y-65433390D01*
X57329580Y-106257142D02*
X57377200Y-106209523D01*
X57377200Y-106209523D02*
X57424819Y-106066666D01*
X57424819Y-106066666D02*
X57424819Y-105971428D01*
X57424819Y-105971428D02*
X57377200Y-105828571D01*
X57377200Y-105828571D02*
X57281961Y-105733333D01*
X57281961Y-105733333D02*
X57186723Y-105685714D01*
X57186723Y-105685714D02*
X56996247Y-105638095D01*
X56996247Y-105638095D02*
X56853390Y-105638095D01*
X56853390Y-105638095D02*
X56662914Y-105685714D01*
X56662914Y-105685714D02*
X56567676Y-105733333D01*
X56567676Y-105733333D02*
X56472438Y-105828571D01*
X56472438Y-105828571D02*
X56424819Y-105971428D01*
X56424819Y-105971428D02*
X56424819Y-106066666D01*
X56424819Y-106066666D02*
X56472438Y-106209523D01*
X56472438Y-106209523D02*
X56520057Y-106257142D01*
X57424819Y-107209523D02*
X57424819Y-106638095D01*
X57424819Y-106923809D02*
X56424819Y-106923809D01*
X56424819Y-106923809D02*
X56567676Y-106828571D01*
X56567676Y-106828571D02*
X56662914Y-106733333D01*
X56662914Y-106733333D02*
X56710533Y-106638095D01*
X56758152Y-108066666D02*
X57424819Y-108066666D01*
X56377200Y-107828571D02*
X57091485Y-107590476D01*
X57091485Y-107590476D02*
X57091485Y-108209523D01*
X42645719Y-114694405D02*
X43455242Y-114694405D01*
X43455242Y-114694405D02*
X43550480Y-114742024D01*
X43550480Y-114742024D02*
X43598100Y-114789643D01*
X43598100Y-114789643D02*
X43645719Y-114884881D01*
X43645719Y-114884881D02*
X43645719Y-115075357D01*
X43645719Y-115075357D02*
X43598100Y-115170595D01*
X43598100Y-115170595D02*
X43550480Y-115218214D01*
X43550480Y-115218214D02*
X43455242Y-115265833D01*
X43455242Y-115265833D02*
X42645719Y-115265833D01*
X43645719Y-116265833D02*
X43645719Y-115694405D01*
X43645719Y-115980119D02*
X42645719Y-115980119D01*
X42645719Y-115980119D02*
X42788576Y-115884881D01*
X42788576Y-115884881D02*
X42883814Y-115789643D01*
X42883814Y-115789643D02*
X42931433Y-115694405D01*
X42645719Y-116884881D02*
X42645719Y-116980119D01*
X42645719Y-116980119D02*
X42693338Y-117075357D01*
X42693338Y-117075357D02*
X42740957Y-117122976D01*
X42740957Y-117122976D02*
X42836195Y-117170595D01*
X42836195Y-117170595D02*
X43026671Y-117218214D01*
X43026671Y-117218214D02*
X43264766Y-117218214D01*
X43264766Y-117218214D02*
X43455242Y-117170595D01*
X43455242Y-117170595D02*
X43550480Y-117122976D01*
X43550480Y-117122976D02*
X43598100Y-117075357D01*
X43598100Y-117075357D02*
X43645719Y-116980119D01*
X43645719Y-116980119D02*
X43645719Y-116884881D01*
X43645719Y-116884881D02*
X43598100Y-116789643D01*
X43598100Y-116789643D02*
X43550480Y-116742024D01*
X43550480Y-116742024D02*
X43455242Y-116694405D01*
X43455242Y-116694405D02*
X43264766Y-116646786D01*
X43264766Y-116646786D02*
X43026671Y-116646786D01*
X43026671Y-116646786D02*
X42836195Y-116694405D01*
X42836195Y-116694405D02*
X42740957Y-116742024D01*
X42740957Y-116742024D02*
X42693338Y-116789643D01*
X42693338Y-116789643D02*
X42645719Y-116884881D01*
X106342857Y-77564819D02*
X106676190Y-77088628D01*
X106914285Y-77564819D02*
X106914285Y-76564819D01*
X106914285Y-76564819D02*
X106533333Y-76564819D01*
X106533333Y-76564819D02*
X106438095Y-76612438D01*
X106438095Y-76612438D02*
X106390476Y-76660057D01*
X106390476Y-76660057D02*
X106342857Y-76755295D01*
X106342857Y-76755295D02*
X106342857Y-76898152D01*
X106342857Y-76898152D02*
X106390476Y-76993390D01*
X106390476Y-76993390D02*
X106438095Y-77041009D01*
X106438095Y-77041009D02*
X106533333Y-77088628D01*
X106533333Y-77088628D02*
X106914285Y-77088628D01*
X105390476Y-77564819D02*
X105961904Y-77564819D01*
X105676190Y-77564819D02*
X105676190Y-76564819D01*
X105676190Y-76564819D02*
X105771428Y-76707676D01*
X105771428Y-76707676D02*
X105866666Y-76802914D01*
X105866666Y-76802914D02*
X105961904Y-76850533D01*
X104438095Y-77564819D02*
X105009523Y-77564819D01*
X104723809Y-77564819D02*
X104723809Y-76564819D01*
X104723809Y-76564819D02*
X104819047Y-76707676D01*
X104819047Y-76707676D02*
X104914285Y-76802914D01*
X104914285Y-76802914D02*
X105009523Y-76850533D01*
X68059580Y-97233333D02*
X68107200Y-97185714D01*
X68107200Y-97185714D02*
X68154819Y-97042857D01*
X68154819Y-97042857D02*
X68154819Y-96947619D01*
X68154819Y-96947619D02*
X68107200Y-96804762D01*
X68107200Y-96804762D02*
X68011961Y-96709524D01*
X68011961Y-96709524D02*
X67916723Y-96661905D01*
X67916723Y-96661905D02*
X67726247Y-96614286D01*
X67726247Y-96614286D02*
X67583390Y-96614286D01*
X67583390Y-96614286D02*
X67392914Y-96661905D01*
X67392914Y-96661905D02*
X67297676Y-96709524D01*
X67297676Y-96709524D02*
X67202438Y-96804762D01*
X67202438Y-96804762D02*
X67154819Y-96947619D01*
X67154819Y-96947619D02*
X67154819Y-97042857D01*
X67154819Y-97042857D02*
X67202438Y-97185714D01*
X67202438Y-97185714D02*
X67250057Y-97233333D01*
X67583390Y-97804762D02*
X67535771Y-97709524D01*
X67535771Y-97709524D02*
X67488152Y-97661905D01*
X67488152Y-97661905D02*
X67392914Y-97614286D01*
X67392914Y-97614286D02*
X67345295Y-97614286D01*
X67345295Y-97614286D02*
X67250057Y-97661905D01*
X67250057Y-97661905D02*
X67202438Y-97709524D01*
X67202438Y-97709524D02*
X67154819Y-97804762D01*
X67154819Y-97804762D02*
X67154819Y-97995238D01*
X67154819Y-97995238D02*
X67202438Y-98090476D01*
X67202438Y-98090476D02*
X67250057Y-98138095D01*
X67250057Y-98138095D02*
X67345295Y-98185714D01*
X67345295Y-98185714D02*
X67392914Y-98185714D01*
X67392914Y-98185714D02*
X67488152Y-98138095D01*
X67488152Y-98138095D02*
X67535771Y-98090476D01*
X67535771Y-98090476D02*
X67583390Y-97995238D01*
X67583390Y-97995238D02*
X67583390Y-97804762D01*
X67583390Y-97804762D02*
X67631009Y-97709524D01*
X67631009Y-97709524D02*
X67678628Y-97661905D01*
X67678628Y-97661905D02*
X67773866Y-97614286D01*
X67773866Y-97614286D02*
X67964342Y-97614286D01*
X67964342Y-97614286D02*
X68059580Y-97661905D01*
X68059580Y-97661905D02*
X68107200Y-97709524D01*
X68107200Y-97709524D02*
X68154819Y-97804762D01*
X68154819Y-97804762D02*
X68154819Y-97995238D01*
X68154819Y-97995238D02*
X68107200Y-98090476D01*
X68107200Y-98090476D02*
X68059580Y-98138095D01*
X68059580Y-98138095D02*
X67964342Y-98185714D01*
X67964342Y-98185714D02*
X67773866Y-98185714D01*
X67773866Y-98185714D02*
X67678628Y-98138095D01*
X67678628Y-98138095D02*
X67631009Y-98090476D01*
X67631009Y-98090476D02*
X67583390Y-97995238D01*
X106342857Y-80464819D02*
X106676190Y-79988628D01*
X106914285Y-80464819D02*
X106914285Y-79464819D01*
X106914285Y-79464819D02*
X106533333Y-79464819D01*
X106533333Y-79464819D02*
X106438095Y-79512438D01*
X106438095Y-79512438D02*
X106390476Y-79560057D01*
X106390476Y-79560057D02*
X106342857Y-79655295D01*
X106342857Y-79655295D02*
X106342857Y-79798152D01*
X106342857Y-79798152D02*
X106390476Y-79893390D01*
X106390476Y-79893390D02*
X106438095Y-79941009D01*
X106438095Y-79941009D02*
X106533333Y-79988628D01*
X106533333Y-79988628D02*
X106914285Y-79988628D01*
X105390476Y-80464819D02*
X105961904Y-80464819D01*
X105676190Y-80464819D02*
X105676190Y-79464819D01*
X105676190Y-79464819D02*
X105771428Y-79607676D01*
X105771428Y-79607676D02*
X105866666Y-79702914D01*
X105866666Y-79702914D02*
X105961904Y-79750533D01*
X104771428Y-79464819D02*
X104676190Y-79464819D01*
X104676190Y-79464819D02*
X104580952Y-79512438D01*
X104580952Y-79512438D02*
X104533333Y-79560057D01*
X104533333Y-79560057D02*
X104485714Y-79655295D01*
X104485714Y-79655295D02*
X104438095Y-79845771D01*
X104438095Y-79845771D02*
X104438095Y-80083866D01*
X104438095Y-80083866D02*
X104485714Y-80274342D01*
X104485714Y-80274342D02*
X104533333Y-80369580D01*
X104533333Y-80369580D02*
X104580952Y-80417200D01*
X104580952Y-80417200D02*
X104676190Y-80464819D01*
X104676190Y-80464819D02*
X104771428Y-80464819D01*
X104771428Y-80464819D02*
X104866666Y-80417200D01*
X104866666Y-80417200D02*
X104914285Y-80369580D01*
X104914285Y-80369580D02*
X104961904Y-80274342D01*
X104961904Y-80274342D02*
X105009523Y-80083866D01*
X105009523Y-80083866D02*
X105009523Y-79845771D01*
X105009523Y-79845771D02*
X104961904Y-79655295D01*
X104961904Y-79655295D02*
X104914285Y-79560057D01*
X104914285Y-79560057D02*
X104866666Y-79512438D01*
X104866666Y-79512438D02*
X104771428Y-79464819D01*
X106342857Y-74564819D02*
X106676190Y-74088628D01*
X106914285Y-74564819D02*
X106914285Y-73564819D01*
X106914285Y-73564819D02*
X106533333Y-73564819D01*
X106533333Y-73564819D02*
X106438095Y-73612438D01*
X106438095Y-73612438D02*
X106390476Y-73660057D01*
X106390476Y-73660057D02*
X106342857Y-73755295D01*
X106342857Y-73755295D02*
X106342857Y-73898152D01*
X106342857Y-73898152D02*
X106390476Y-73993390D01*
X106390476Y-73993390D02*
X106438095Y-74041009D01*
X106438095Y-74041009D02*
X106533333Y-74088628D01*
X106533333Y-74088628D02*
X106914285Y-74088628D01*
X105390476Y-74564819D02*
X105961904Y-74564819D01*
X105676190Y-74564819D02*
X105676190Y-73564819D01*
X105676190Y-73564819D02*
X105771428Y-73707676D01*
X105771428Y-73707676D02*
X105866666Y-73802914D01*
X105866666Y-73802914D02*
X105961904Y-73850533D01*
X105009523Y-73660057D02*
X104961904Y-73612438D01*
X104961904Y-73612438D02*
X104866666Y-73564819D01*
X104866666Y-73564819D02*
X104628571Y-73564819D01*
X104628571Y-73564819D02*
X104533333Y-73612438D01*
X104533333Y-73612438D02*
X104485714Y-73660057D01*
X104485714Y-73660057D02*
X104438095Y-73755295D01*
X104438095Y-73755295D02*
X104438095Y-73850533D01*
X104438095Y-73850533D02*
X104485714Y-73993390D01*
X104485714Y-73993390D02*
X105057142Y-74564819D01*
X105057142Y-74564819D02*
X104438095Y-74564819D01*
X42325719Y-97839642D02*
X41849528Y-97506309D01*
X42325719Y-97268214D02*
X41325719Y-97268214D01*
X41325719Y-97268214D02*
X41325719Y-97649166D01*
X41325719Y-97649166D02*
X41373338Y-97744404D01*
X41373338Y-97744404D02*
X41420957Y-97792023D01*
X41420957Y-97792023D02*
X41516195Y-97839642D01*
X41516195Y-97839642D02*
X41659052Y-97839642D01*
X41659052Y-97839642D02*
X41754290Y-97792023D01*
X41754290Y-97792023D02*
X41801909Y-97744404D01*
X41801909Y-97744404D02*
X41849528Y-97649166D01*
X41849528Y-97649166D02*
X41849528Y-97268214D01*
X41420957Y-98220595D02*
X41373338Y-98268214D01*
X41373338Y-98268214D02*
X41325719Y-98363452D01*
X41325719Y-98363452D02*
X41325719Y-98601547D01*
X41325719Y-98601547D02*
X41373338Y-98696785D01*
X41373338Y-98696785D02*
X41420957Y-98744404D01*
X41420957Y-98744404D02*
X41516195Y-98792023D01*
X41516195Y-98792023D02*
X41611433Y-98792023D01*
X41611433Y-98792023D02*
X41754290Y-98744404D01*
X41754290Y-98744404D02*
X42325719Y-98172976D01*
X42325719Y-98172976D02*
X42325719Y-98792023D01*
X42325719Y-99268214D02*
X42325719Y-99458690D01*
X42325719Y-99458690D02*
X42278100Y-99553928D01*
X42278100Y-99553928D02*
X42230480Y-99601547D01*
X42230480Y-99601547D02*
X42087623Y-99696785D01*
X42087623Y-99696785D02*
X41897147Y-99744404D01*
X41897147Y-99744404D02*
X41516195Y-99744404D01*
X41516195Y-99744404D02*
X41420957Y-99696785D01*
X41420957Y-99696785D02*
X41373338Y-99649166D01*
X41373338Y-99649166D02*
X41325719Y-99553928D01*
X41325719Y-99553928D02*
X41325719Y-99363452D01*
X41325719Y-99363452D02*
X41373338Y-99268214D01*
X41373338Y-99268214D02*
X41420957Y-99220595D01*
X41420957Y-99220595D02*
X41516195Y-99172976D01*
X41516195Y-99172976D02*
X41754290Y-99172976D01*
X41754290Y-99172976D02*
X41849528Y-99220595D01*
X41849528Y-99220595D02*
X41897147Y-99268214D01*
X41897147Y-99268214D02*
X41944766Y-99363452D01*
X41944766Y-99363452D02*
X41944766Y-99553928D01*
X41944766Y-99553928D02*
X41897147Y-99649166D01*
X41897147Y-99649166D02*
X41849528Y-99696785D01*
X41849528Y-99696785D02*
X41754290Y-99744404D01*
X27945719Y-112770595D02*
X28755242Y-112770595D01*
X28755242Y-112770595D02*
X28850480Y-112818214D01*
X28850480Y-112818214D02*
X28898100Y-112865833D01*
X28898100Y-112865833D02*
X28945719Y-112961071D01*
X28945719Y-112961071D02*
X28945719Y-113151547D01*
X28945719Y-113151547D02*
X28898100Y-113246785D01*
X28898100Y-113246785D02*
X28850480Y-113294404D01*
X28850480Y-113294404D02*
X28755242Y-113342023D01*
X28755242Y-113342023D02*
X27945719Y-113342023D01*
X28374290Y-113961071D02*
X28326671Y-113865833D01*
X28326671Y-113865833D02*
X28279052Y-113818214D01*
X28279052Y-113818214D02*
X28183814Y-113770595D01*
X28183814Y-113770595D02*
X28136195Y-113770595D01*
X28136195Y-113770595D02*
X28040957Y-113818214D01*
X28040957Y-113818214D02*
X27993338Y-113865833D01*
X27993338Y-113865833D02*
X27945719Y-113961071D01*
X27945719Y-113961071D02*
X27945719Y-114151547D01*
X27945719Y-114151547D02*
X27993338Y-114246785D01*
X27993338Y-114246785D02*
X28040957Y-114294404D01*
X28040957Y-114294404D02*
X28136195Y-114342023D01*
X28136195Y-114342023D02*
X28183814Y-114342023D01*
X28183814Y-114342023D02*
X28279052Y-114294404D01*
X28279052Y-114294404D02*
X28326671Y-114246785D01*
X28326671Y-114246785D02*
X28374290Y-114151547D01*
X28374290Y-114151547D02*
X28374290Y-113961071D01*
X28374290Y-113961071D02*
X28421909Y-113865833D01*
X28421909Y-113865833D02*
X28469528Y-113818214D01*
X28469528Y-113818214D02*
X28564766Y-113770595D01*
X28564766Y-113770595D02*
X28755242Y-113770595D01*
X28755242Y-113770595D02*
X28850480Y-113818214D01*
X28850480Y-113818214D02*
X28898100Y-113865833D01*
X28898100Y-113865833D02*
X28945719Y-113961071D01*
X28945719Y-113961071D02*
X28945719Y-114151547D01*
X28945719Y-114151547D02*
X28898100Y-114246785D01*
X28898100Y-114246785D02*
X28850480Y-114294404D01*
X28850480Y-114294404D02*
X28755242Y-114342023D01*
X28755242Y-114342023D02*
X28564766Y-114342023D01*
X28564766Y-114342023D02*
X28469528Y-114294404D01*
X28469528Y-114294404D02*
X28421909Y-114246785D01*
X28421909Y-114246785D02*
X28374290Y-114151547D01*
X106342857Y-71664819D02*
X106676190Y-71188628D01*
X106914285Y-71664819D02*
X106914285Y-70664819D01*
X106914285Y-70664819D02*
X106533333Y-70664819D01*
X106533333Y-70664819D02*
X106438095Y-70712438D01*
X106438095Y-70712438D02*
X106390476Y-70760057D01*
X106390476Y-70760057D02*
X106342857Y-70855295D01*
X106342857Y-70855295D02*
X106342857Y-70998152D01*
X106342857Y-70998152D02*
X106390476Y-71093390D01*
X106390476Y-71093390D02*
X106438095Y-71141009D01*
X106438095Y-71141009D02*
X106533333Y-71188628D01*
X106533333Y-71188628D02*
X106914285Y-71188628D01*
X105390476Y-71664819D02*
X105961904Y-71664819D01*
X105676190Y-71664819D02*
X105676190Y-70664819D01*
X105676190Y-70664819D02*
X105771428Y-70807676D01*
X105771428Y-70807676D02*
X105866666Y-70902914D01*
X105866666Y-70902914D02*
X105961904Y-70950533D01*
X105057142Y-70664819D02*
X104438095Y-70664819D01*
X104438095Y-70664819D02*
X104771428Y-71045771D01*
X104771428Y-71045771D02*
X104628571Y-71045771D01*
X104628571Y-71045771D02*
X104533333Y-71093390D01*
X104533333Y-71093390D02*
X104485714Y-71141009D01*
X104485714Y-71141009D02*
X104438095Y-71236247D01*
X104438095Y-71236247D02*
X104438095Y-71474342D01*
X104438095Y-71474342D02*
X104485714Y-71569580D01*
X104485714Y-71569580D02*
X104533333Y-71617200D01*
X104533333Y-71617200D02*
X104628571Y-71664819D01*
X104628571Y-71664819D02*
X104914285Y-71664819D01*
X104914285Y-71664819D02*
X105009523Y-71617200D01*
X105009523Y-71617200D02*
X105057142Y-71569580D01*
X100942857Y-96324819D02*
X101276190Y-95848628D01*
X101514285Y-96324819D02*
X101514285Y-95324819D01*
X101514285Y-95324819D02*
X101133333Y-95324819D01*
X101133333Y-95324819D02*
X101038095Y-95372438D01*
X101038095Y-95372438D02*
X100990476Y-95420057D01*
X100990476Y-95420057D02*
X100942857Y-95515295D01*
X100942857Y-95515295D02*
X100942857Y-95658152D01*
X100942857Y-95658152D02*
X100990476Y-95753390D01*
X100990476Y-95753390D02*
X101038095Y-95801009D01*
X101038095Y-95801009D02*
X101133333Y-95848628D01*
X101133333Y-95848628D02*
X101514285Y-95848628D01*
X100561904Y-95420057D02*
X100514285Y-95372438D01*
X100514285Y-95372438D02*
X100419047Y-95324819D01*
X100419047Y-95324819D02*
X100180952Y-95324819D01*
X100180952Y-95324819D02*
X100085714Y-95372438D01*
X100085714Y-95372438D02*
X100038095Y-95420057D01*
X100038095Y-95420057D02*
X99990476Y-95515295D01*
X99990476Y-95515295D02*
X99990476Y-95610533D01*
X99990476Y-95610533D02*
X100038095Y-95753390D01*
X100038095Y-95753390D02*
X100609523Y-96324819D01*
X100609523Y-96324819D02*
X99990476Y-96324819D01*
X99133333Y-95324819D02*
X99323809Y-95324819D01*
X99323809Y-95324819D02*
X99419047Y-95372438D01*
X99419047Y-95372438D02*
X99466666Y-95420057D01*
X99466666Y-95420057D02*
X99561904Y-95562914D01*
X99561904Y-95562914D02*
X99609523Y-95753390D01*
X99609523Y-95753390D02*
X99609523Y-96134342D01*
X99609523Y-96134342D02*
X99561904Y-96229580D01*
X99561904Y-96229580D02*
X99514285Y-96277200D01*
X99514285Y-96277200D02*
X99419047Y-96324819D01*
X99419047Y-96324819D02*
X99228571Y-96324819D01*
X99228571Y-96324819D02*
X99133333Y-96277200D01*
X99133333Y-96277200D02*
X99085714Y-96229580D01*
X99085714Y-96229580D02*
X99038095Y-96134342D01*
X99038095Y-96134342D02*
X99038095Y-95896247D01*
X99038095Y-95896247D02*
X99085714Y-95801009D01*
X99085714Y-95801009D02*
X99133333Y-95753390D01*
X99133333Y-95753390D02*
X99228571Y-95705771D01*
X99228571Y-95705771D02*
X99419047Y-95705771D01*
X99419047Y-95705771D02*
X99514285Y-95753390D01*
X99514285Y-95753390D02*
X99561904Y-95801009D01*
X99561904Y-95801009D02*
X99609523Y-95896247D01*
X100942857Y-99224819D02*
X101276190Y-98748628D01*
X101514285Y-99224819D02*
X101514285Y-98224819D01*
X101514285Y-98224819D02*
X101133333Y-98224819D01*
X101133333Y-98224819D02*
X101038095Y-98272438D01*
X101038095Y-98272438D02*
X100990476Y-98320057D01*
X100990476Y-98320057D02*
X100942857Y-98415295D01*
X100942857Y-98415295D02*
X100942857Y-98558152D01*
X100942857Y-98558152D02*
X100990476Y-98653390D01*
X100990476Y-98653390D02*
X101038095Y-98701009D01*
X101038095Y-98701009D02*
X101133333Y-98748628D01*
X101133333Y-98748628D02*
X101514285Y-98748628D01*
X100561904Y-98320057D02*
X100514285Y-98272438D01*
X100514285Y-98272438D02*
X100419047Y-98224819D01*
X100419047Y-98224819D02*
X100180952Y-98224819D01*
X100180952Y-98224819D02*
X100085714Y-98272438D01*
X100085714Y-98272438D02*
X100038095Y-98320057D01*
X100038095Y-98320057D02*
X99990476Y-98415295D01*
X99990476Y-98415295D02*
X99990476Y-98510533D01*
X99990476Y-98510533D02*
X100038095Y-98653390D01*
X100038095Y-98653390D02*
X100609523Y-99224819D01*
X100609523Y-99224819D02*
X99990476Y-99224819D01*
X99657142Y-98224819D02*
X98990476Y-98224819D01*
X98990476Y-98224819D02*
X99419047Y-99224819D01*
X108624819Y-96357142D02*
X108148628Y-96023809D01*
X108624819Y-95785714D02*
X107624819Y-95785714D01*
X107624819Y-95785714D02*
X107624819Y-96166666D01*
X107624819Y-96166666D02*
X107672438Y-96261904D01*
X107672438Y-96261904D02*
X107720057Y-96309523D01*
X107720057Y-96309523D02*
X107815295Y-96357142D01*
X107815295Y-96357142D02*
X107958152Y-96357142D01*
X107958152Y-96357142D02*
X108053390Y-96309523D01*
X108053390Y-96309523D02*
X108101009Y-96261904D01*
X108101009Y-96261904D02*
X108148628Y-96166666D01*
X108148628Y-96166666D02*
X108148628Y-95785714D01*
X107720057Y-96738095D02*
X107672438Y-96785714D01*
X107672438Y-96785714D02*
X107624819Y-96880952D01*
X107624819Y-96880952D02*
X107624819Y-97119047D01*
X107624819Y-97119047D02*
X107672438Y-97214285D01*
X107672438Y-97214285D02*
X107720057Y-97261904D01*
X107720057Y-97261904D02*
X107815295Y-97309523D01*
X107815295Y-97309523D02*
X107910533Y-97309523D01*
X107910533Y-97309523D02*
X108053390Y-97261904D01*
X108053390Y-97261904D02*
X108624819Y-96690476D01*
X108624819Y-96690476D02*
X108624819Y-97309523D01*
X107720057Y-97690476D02*
X107672438Y-97738095D01*
X107672438Y-97738095D02*
X107624819Y-97833333D01*
X107624819Y-97833333D02*
X107624819Y-98071428D01*
X107624819Y-98071428D02*
X107672438Y-98166666D01*
X107672438Y-98166666D02*
X107720057Y-98214285D01*
X107720057Y-98214285D02*
X107815295Y-98261904D01*
X107815295Y-98261904D02*
X107910533Y-98261904D01*
X107910533Y-98261904D02*
X108053390Y-98214285D01*
X108053390Y-98214285D02*
X108624819Y-97642857D01*
X108624819Y-97642857D02*
X108624819Y-98261904D01*
X106342857Y-65664819D02*
X106676190Y-65188628D01*
X106914285Y-65664819D02*
X106914285Y-64664819D01*
X106914285Y-64664819D02*
X106533333Y-64664819D01*
X106533333Y-64664819D02*
X106438095Y-64712438D01*
X106438095Y-64712438D02*
X106390476Y-64760057D01*
X106390476Y-64760057D02*
X106342857Y-64855295D01*
X106342857Y-64855295D02*
X106342857Y-64998152D01*
X106342857Y-64998152D02*
X106390476Y-65093390D01*
X106390476Y-65093390D02*
X106438095Y-65141009D01*
X106438095Y-65141009D02*
X106533333Y-65188628D01*
X106533333Y-65188628D02*
X106914285Y-65188628D01*
X105961904Y-64760057D02*
X105914285Y-64712438D01*
X105914285Y-64712438D02*
X105819047Y-64664819D01*
X105819047Y-64664819D02*
X105580952Y-64664819D01*
X105580952Y-64664819D02*
X105485714Y-64712438D01*
X105485714Y-64712438D02*
X105438095Y-64760057D01*
X105438095Y-64760057D02*
X105390476Y-64855295D01*
X105390476Y-64855295D02*
X105390476Y-64950533D01*
X105390476Y-64950533D02*
X105438095Y-65093390D01*
X105438095Y-65093390D02*
X106009523Y-65664819D01*
X106009523Y-65664819D02*
X105390476Y-65664819D01*
X104438095Y-65664819D02*
X105009523Y-65664819D01*
X104723809Y-65664819D02*
X104723809Y-64664819D01*
X104723809Y-64664819D02*
X104819047Y-64807676D01*
X104819047Y-64807676D02*
X104914285Y-64902914D01*
X104914285Y-64902914D02*
X105009523Y-64950533D01*
X55207566Y-93872080D02*
X55255185Y-93919700D01*
X55255185Y-93919700D02*
X55398042Y-93967319D01*
X55398042Y-93967319D02*
X55493280Y-93967319D01*
X55493280Y-93967319D02*
X55636137Y-93919700D01*
X55636137Y-93919700D02*
X55731375Y-93824461D01*
X55731375Y-93824461D02*
X55778994Y-93729223D01*
X55778994Y-93729223D02*
X55826613Y-93538747D01*
X55826613Y-93538747D02*
X55826613Y-93395890D01*
X55826613Y-93395890D02*
X55778994Y-93205414D01*
X55778994Y-93205414D02*
X55731375Y-93110176D01*
X55731375Y-93110176D02*
X55636137Y-93014938D01*
X55636137Y-93014938D02*
X55493280Y-92967319D01*
X55493280Y-92967319D02*
X55398042Y-92967319D01*
X55398042Y-92967319D02*
X55255185Y-93014938D01*
X55255185Y-93014938D02*
X55207566Y-93062557D01*
X54302804Y-92967319D02*
X54778994Y-92967319D01*
X54778994Y-92967319D02*
X54826613Y-93443509D01*
X54826613Y-93443509D02*
X54778994Y-93395890D01*
X54778994Y-93395890D02*
X54683756Y-93348271D01*
X54683756Y-93348271D02*
X54445661Y-93348271D01*
X54445661Y-93348271D02*
X54350423Y-93395890D01*
X54350423Y-93395890D02*
X54302804Y-93443509D01*
X54302804Y-93443509D02*
X54255185Y-93538747D01*
X54255185Y-93538747D02*
X54255185Y-93776842D01*
X54255185Y-93776842D02*
X54302804Y-93872080D01*
X54302804Y-93872080D02*
X54350423Y-93919700D01*
X54350423Y-93919700D02*
X54445661Y-93967319D01*
X54445661Y-93967319D02*
X54683756Y-93967319D01*
X54683756Y-93967319D02*
X54778994Y-93919700D01*
X54778994Y-93919700D02*
X54826613Y-93872080D01*
X60229580Y-106633333D02*
X60277200Y-106585714D01*
X60277200Y-106585714D02*
X60324819Y-106442857D01*
X60324819Y-106442857D02*
X60324819Y-106347619D01*
X60324819Y-106347619D02*
X60277200Y-106204762D01*
X60277200Y-106204762D02*
X60181961Y-106109524D01*
X60181961Y-106109524D02*
X60086723Y-106061905D01*
X60086723Y-106061905D02*
X59896247Y-106014286D01*
X59896247Y-106014286D02*
X59753390Y-106014286D01*
X59753390Y-106014286D02*
X59562914Y-106061905D01*
X59562914Y-106061905D02*
X59467676Y-106109524D01*
X59467676Y-106109524D02*
X59372438Y-106204762D01*
X59372438Y-106204762D02*
X59324819Y-106347619D01*
X59324819Y-106347619D02*
X59324819Y-106442857D01*
X59324819Y-106442857D02*
X59372438Y-106585714D01*
X59372438Y-106585714D02*
X59420057Y-106633333D01*
X59658152Y-107490476D02*
X60324819Y-107490476D01*
X59277200Y-107252381D02*
X59991485Y-107014286D01*
X59991485Y-107014286D02*
X59991485Y-107633333D01*
X33165719Y-94339642D02*
X32689528Y-94006309D01*
X33165719Y-93768214D02*
X32165719Y-93768214D01*
X32165719Y-93768214D02*
X32165719Y-94149166D01*
X32165719Y-94149166D02*
X32213338Y-94244404D01*
X32213338Y-94244404D02*
X32260957Y-94292023D01*
X32260957Y-94292023D02*
X32356195Y-94339642D01*
X32356195Y-94339642D02*
X32499052Y-94339642D01*
X32499052Y-94339642D02*
X32594290Y-94292023D01*
X32594290Y-94292023D02*
X32641909Y-94244404D01*
X32641909Y-94244404D02*
X32689528Y-94149166D01*
X32689528Y-94149166D02*
X32689528Y-93768214D01*
X32165719Y-94672976D02*
X32165719Y-95292023D01*
X32165719Y-95292023D02*
X32546671Y-94958690D01*
X32546671Y-94958690D02*
X32546671Y-95101547D01*
X32546671Y-95101547D02*
X32594290Y-95196785D01*
X32594290Y-95196785D02*
X32641909Y-95244404D01*
X32641909Y-95244404D02*
X32737147Y-95292023D01*
X32737147Y-95292023D02*
X32975242Y-95292023D01*
X32975242Y-95292023D02*
X33070480Y-95244404D01*
X33070480Y-95244404D02*
X33118100Y-95196785D01*
X33118100Y-95196785D02*
X33165719Y-95101547D01*
X33165719Y-95101547D02*
X33165719Y-94815833D01*
X33165719Y-94815833D02*
X33118100Y-94720595D01*
X33118100Y-94720595D02*
X33070480Y-94672976D01*
X32165719Y-95911071D02*
X32165719Y-96006309D01*
X32165719Y-96006309D02*
X32213338Y-96101547D01*
X32213338Y-96101547D02*
X32260957Y-96149166D01*
X32260957Y-96149166D02*
X32356195Y-96196785D01*
X32356195Y-96196785D02*
X32546671Y-96244404D01*
X32546671Y-96244404D02*
X32784766Y-96244404D01*
X32784766Y-96244404D02*
X32975242Y-96196785D01*
X32975242Y-96196785D02*
X33070480Y-96149166D01*
X33070480Y-96149166D02*
X33118100Y-96101547D01*
X33118100Y-96101547D02*
X33165719Y-96006309D01*
X33165719Y-96006309D02*
X33165719Y-95911071D01*
X33165719Y-95911071D02*
X33118100Y-95815833D01*
X33118100Y-95815833D02*
X33070480Y-95768214D01*
X33070480Y-95768214D02*
X32975242Y-95720595D01*
X32975242Y-95720595D02*
X32784766Y-95672976D01*
X32784766Y-95672976D02*
X32546671Y-95672976D01*
X32546671Y-95672976D02*
X32356195Y-95720595D01*
X32356195Y-95720595D02*
X32260957Y-95768214D01*
X32260957Y-95768214D02*
X32213338Y-95815833D01*
X32213338Y-95815833D02*
X32165719Y-95911071D01*
X117430357Y-56504819D02*
X117763690Y-56028628D01*
X118001785Y-56504819D02*
X118001785Y-55504819D01*
X118001785Y-55504819D02*
X117620833Y-55504819D01*
X117620833Y-55504819D02*
X117525595Y-55552438D01*
X117525595Y-55552438D02*
X117477976Y-55600057D01*
X117477976Y-55600057D02*
X117430357Y-55695295D01*
X117430357Y-55695295D02*
X117430357Y-55838152D01*
X117430357Y-55838152D02*
X117477976Y-55933390D01*
X117477976Y-55933390D02*
X117525595Y-55981009D01*
X117525595Y-55981009D02*
X117620833Y-56028628D01*
X117620833Y-56028628D02*
X118001785Y-56028628D01*
X116477976Y-56504819D02*
X117049404Y-56504819D01*
X116763690Y-56504819D02*
X116763690Y-55504819D01*
X116763690Y-55504819D02*
X116858928Y-55647676D01*
X116858928Y-55647676D02*
X116954166Y-55742914D01*
X116954166Y-55742914D02*
X117049404Y-55790533D01*
X116144642Y-55504819D02*
X115477976Y-55504819D01*
X115477976Y-55504819D02*
X115906547Y-56504819D01*
X35319619Y-118770495D02*
X36129142Y-118770495D01*
X36129142Y-118770495D02*
X36224380Y-118818114D01*
X36224380Y-118818114D02*
X36272000Y-118865733D01*
X36272000Y-118865733D02*
X36319619Y-118960971D01*
X36319619Y-118960971D02*
X36319619Y-119151447D01*
X36319619Y-119151447D02*
X36272000Y-119246685D01*
X36272000Y-119246685D02*
X36224380Y-119294304D01*
X36224380Y-119294304D02*
X36129142Y-119341923D01*
X36129142Y-119341923D02*
X35319619Y-119341923D01*
X36319619Y-119865733D02*
X36319619Y-120056209D01*
X36319619Y-120056209D02*
X36272000Y-120151447D01*
X36272000Y-120151447D02*
X36224380Y-120199066D01*
X36224380Y-120199066D02*
X36081523Y-120294304D01*
X36081523Y-120294304D02*
X35891047Y-120341923D01*
X35891047Y-120341923D02*
X35510095Y-120341923D01*
X35510095Y-120341923D02*
X35414857Y-120294304D01*
X35414857Y-120294304D02*
X35367238Y-120246685D01*
X35367238Y-120246685D02*
X35319619Y-120151447D01*
X35319619Y-120151447D02*
X35319619Y-119960971D01*
X35319619Y-119960971D02*
X35367238Y-119865733D01*
X35367238Y-119865733D02*
X35414857Y-119818114D01*
X35414857Y-119818114D02*
X35510095Y-119770495D01*
X35510095Y-119770495D02*
X35748190Y-119770495D01*
X35748190Y-119770495D02*
X35843428Y-119818114D01*
X35843428Y-119818114D02*
X35891047Y-119865733D01*
X35891047Y-119865733D02*
X35938666Y-119960971D01*
X35938666Y-119960971D02*
X35938666Y-120151447D01*
X35938666Y-120151447D02*
X35891047Y-120246685D01*
X35891047Y-120246685D02*
X35843428Y-120294304D01*
X35843428Y-120294304D02*
X35748190Y-120341923D01*
X70661904Y-102754819D02*
X70661904Y-103564342D01*
X70661904Y-103564342D02*
X70614285Y-103659580D01*
X70614285Y-103659580D02*
X70566666Y-103707200D01*
X70566666Y-103707200D02*
X70471428Y-103754819D01*
X70471428Y-103754819D02*
X70280952Y-103754819D01*
X70280952Y-103754819D02*
X70185714Y-103707200D01*
X70185714Y-103707200D02*
X70138095Y-103659580D01*
X70138095Y-103659580D02*
X70090476Y-103564342D01*
X70090476Y-103564342D02*
X70090476Y-102754819D01*
X69138095Y-102754819D02*
X69614285Y-102754819D01*
X69614285Y-102754819D02*
X69661904Y-103231009D01*
X69661904Y-103231009D02*
X69614285Y-103183390D01*
X69614285Y-103183390D02*
X69519047Y-103135771D01*
X69519047Y-103135771D02*
X69280952Y-103135771D01*
X69280952Y-103135771D02*
X69185714Y-103183390D01*
X69185714Y-103183390D02*
X69138095Y-103231009D01*
X69138095Y-103231009D02*
X69090476Y-103326247D01*
X69090476Y-103326247D02*
X69090476Y-103564342D01*
X69090476Y-103564342D02*
X69138095Y-103659580D01*
X69138095Y-103659580D02*
X69185714Y-103707200D01*
X69185714Y-103707200D02*
X69280952Y-103754819D01*
X69280952Y-103754819D02*
X69519047Y-103754819D01*
X69519047Y-103754819D02*
X69614285Y-103707200D01*
X69614285Y-103707200D02*
X69661904Y-103659580D01*
X106342857Y-62764819D02*
X106676190Y-62288628D01*
X106914285Y-62764819D02*
X106914285Y-61764819D01*
X106914285Y-61764819D02*
X106533333Y-61764819D01*
X106533333Y-61764819D02*
X106438095Y-61812438D01*
X106438095Y-61812438D02*
X106390476Y-61860057D01*
X106390476Y-61860057D02*
X106342857Y-61955295D01*
X106342857Y-61955295D02*
X106342857Y-62098152D01*
X106342857Y-62098152D02*
X106390476Y-62193390D01*
X106390476Y-62193390D02*
X106438095Y-62241009D01*
X106438095Y-62241009D02*
X106533333Y-62288628D01*
X106533333Y-62288628D02*
X106914285Y-62288628D01*
X105961904Y-61860057D02*
X105914285Y-61812438D01*
X105914285Y-61812438D02*
X105819047Y-61764819D01*
X105819047Y-61764819D02*
X105580952Y-61764819D01*
X105580952Y-61764819D02*
X105485714Y-61812438D01*
X105485714Y-61812438D02*
X105438095Y-61860057D01*
X105438095Y-61860057D02*
X105390476Y-61955295D01*
X105390476Y-61955295D02*
X105390476Y-62050533D01*
X105390476Y-62050533D02*
X105438095Y-62193390D01*
X105438095Y-62193390D02*
X106009523Y-62764819D01*
X106009523Y-62764819D02*
X105390476Y-62764819D01*
X104771428Y-61764819D02*
X104676190Y-61764819D01*
X104676190Y-61764819D02*
X104580952Y-61812438D01*
X104580952Y-61812438D02*
X104533333Y-61860057D01*
X104533333Y-61860057D02*
X104485714Y-61955295D01*
X104485714Y-61955295D02*
X104438095Y-62145771D01*
X104438095Y-62145771D02*
X104438095Y-62383866D01*
X104438095Y-62383866D02*
X104485714Y-62574342D01*
X104485714Y-62574342D02*
X104533333Y-62669580D01*
X104533333Y-62669580D02*
X104580952Y-62717200D01*
X104580952Y-62717200D02*
X104676190Y-62764819D01*
X104676190Y-62764819D02*
X104771428Y-62764819D01*
X104771428Y-62764819D02*
X104866666Y-62717200D01*
X104866666Y-62717200D02*
X104914285Y-62669580D01*
X104914285Y-62669580D02*
X104961904Y-62574342D01*
X104961904Y-62574342D02*
X105009523Y-62383866D01*
X105009523Y-62383866D02*
X105009523Y-62145771D01*
X105009523Y-62145771D02*
X104961904Y-61955295D01*
X104961904Y-61955295D02*
X104914285Y-61860057D01*
X104914285Y-61860057D02*
X104866666Y-61812438D01*
X104866666Y-61812438D02*
X104771428Y-61764819D01*
X31283757Y-117012080D02*
X31331376Y-117059700D01*
X31331376Y-117059700D02*
X31474233Y-117107319D01*
X31474233Y-117107319D02*
X31569471Y-117107319D01*
X31569471Y-117107319D02*
X31712328Y-117059700D01*
X31712328Y-117059700D02*
X31807566Y-116964461D01*
X31807566Y-116964461D02*
X31855185Y-116869223D01*
X31855185Y-116869223D02*
X31902804Y-116678747D01*
X31902804Y-116678747D02*
X31902804Y-116535890D01*
X31902804Y-116535890D02*
X31855185Y-116345414D01*
X31855185Y-116345414D02*
X31807566Y-116250176D01*
X31807566Y-116250176D02*
X31712328Y-116154938D01*
X31712328Y-116154938D02*
X31569471Y-116107319D01*
X31569471Y-116107319D02*
X31474233Y-116107319D01*
X31474233Y-116107319D02*
X31331376Y-116154938D01*
X31331376Y-116154938D02*
X31283757Y-116202557D01*
X30331376Y-117107319D02*
X30902804Y-117107319D01*
X30617090Y-117107319D02*
X30617090Y-116107319D01*
X30617090Y-116107319D02*
X30712328Y-116250176D01*
X30712328Y-116250176D02*
X30807566Y-116345414D01*
X30807566Y-116345414D02*
X30902804Y-116393033D01*
X29855185Y-117107319D02*
X29664709Y-117107319D01*
X29664709Y-117107319D02*
X29569471Y-117059700D01*
X29569471Y-117059700D02*
X29521852Y-117012080D01*
X29521852Y-117012080D02*
X29426614Y-116869223D01*
X29426614Y-116869223D02*
X29378995Y-116678747D01*
X29378995Y-116678747D02*
X29378995Y-116297795D01*
X29378995Y-116297795D02*
X29426614Y-116202557D01*
X29426614Y-116202557D02*
X29474233Y-116154938D01*
X29474233Y-116154938D02*
X29569471Y-116107319D01*
X29569471Y-116107319D02*
X29759947Y-116107319D01*
X29759947Y-116107319D02*
X29855185Y-116154938D01*
X29855185Y-116154938D02*
X29902804Y-116202557D01*
X29902804Y-116202557D02*
X29950423Y-116297795D01*
X29950423Y-116297795D02*
X29950423Y-116535890D01*
X29950423Y-116535890D02*
X29902804Y-116631128D01*
X29902804Y-116631128D02*
X29855185Y-116678747D01*
X29855185Y-116678747D02*
X29759947Y-116726366D01*
X29759947Y-116726366D02*
X29569471Y-116726366D01*
X29569471Y-116726366D02*
X29474233Y-116678747D01*
X29474233Y-116678747D02*
X29426614Y-116631128D01*
X29426614Y-116631128D02*
X29378995Y-116535890D01*
X35790957Y-99049761D02*
X35743338Y-98954523D01*
X35743338Y-98954523D02*
X35648100Y-98859285D01*
X35648100Y-98859285D02*
X35505242Y-98716428D01*
X35505242Y-98716428D02*
X35457623Y-98621190D01*
X35457623Y-98621190D02*
X35457623Y-98525952D01*
X35695719Y-98573571D02*
X35648100Y-98478333D01*
X35648100Y-98478333D02*
X35552861Y-98383095D01*
X35552861Y-98383095D02*
X35362385Y-98335476D01*
X35362385Y-98335476D02*
X35029052Y-98335476D01*
X35029052Y-98335476D02*
X34838576Y-98383095D01*
X34838576Y-98383095D02*
X34743338Y-98478333D01*
X34743338Y-98478333D02*
X34695719Y-98573571D01*
X34695719Y-98573571D02*
X34695719Y-98764047D01*
X34695719Y-98764047D02*
X34743338Y-98859285D01*
X34743338Y-98859285D02*
X34838576Y-98954523D01*
X34838576Y-98954523D02*
X35029052Y-99002142D01*
X35029052Y-99002142D02*
X35362385Y-99002142D01*
X35362385Y-99002142D02*
X35552861Y-98954523D01*
X35552861Y-98954523D02*
X35648100Y-98859285D01*
X35648100Y-98859285D02*
X35695719Y-98764047D01*
X35695719Y-98764047D02*
X35695719Y-98573571D01*
X34695719Y-99335476D02*
X34695719Y-99954523D01*
X34695719Y-99954523D02*
X35076671Y-99621190D01*
X35076671Y-99621190D02*
X35076671Y-99764047D01*
X35076671Y-99764047D02*
X35124290Y-99859285D01*
X35124290Y-99859285D02*
X35171909Y-99906904D01*
X35171909Y-99906904D02*
X35267147Y-99954523D01*
X35267147Y-99954523D02*
X35505242Y-99954523D01*
X35505242Y-99954523D02*
X35600480Y-99906904D01*
X35600480Y-99906904D02*
X35648100Y-99859285D01*
X35648100Y-99859285D02*
X35695719Y-99764047D01*
X35695719Y-99764047D02*
X35695719Y-99478333D01*
X35695719Y-99478333D02*
X35648100Y-99383095D01*
X35648100Y-99383095D02*
X35600480Y-99335476D01*
X68035066Y-90487080D02*
X68082685Y-90534700D01*
X68082685Y-90534700D02*
X68225542Y-90582319D01*
X68225542Y-90582319D02*
X68320780Y-90582319D01*
X68320780Y-90582319D02*
X68463637Y-90534700D01*
X68463637Y-90534700D02*
X68558875Y-90439461D01*
X68558875Y-90439461D02*
X68606494Y-90344223D01*
X68606494Y-90344223D02*
X68654113Y-90153747D01*
X68654113Y-90153747D02*
X68654113Y-90010890D01*
X68654113Y-90010890D02*
X68606494Y-89820414D01*
X68606494Y-89820414D02*
X68558875Y-89725176D01*
X68558875Y-89725176D02*
X68463637Y-89629938D01*
X68463637Y-89629938D02*
X68320780Y-89582319D01*
X68320780Y-89582319D02*
X68225542Y-89582319D01*
X68225542Y-89582319D02*
X68082685Y-89629938D01*
X68082685Y-89629938D02*
X68035066Y-89677557D01*
X67701732Y-89582319D02*
X67035066Y-89582319D01*
X67035066Y-89582319D02*
X67463637Y-90582319D01*
X78242857Y-102989580D02*
X78290476Y-103037200D01*
X78290476Y-103037200D02*
X78433333Y-103084819D01*
X78433333Y-103084819D02*
X78528571Y-103084819D01*
X78528571Y-103084819D02*
X78671428Y-103037200D01*
X78671428Y-103037200D02*
X78766666Y-102941961D01*
X78766666Y-102941961D02*
X78814285Y-102846723D01*
X78814285Y-102846723D02*
X78861904Y-102656247D01*
X78861904Y-102656247D02*
X78861904Y-102513390D01*
X78861904Y-102513390D02*
X78814285Y-102322914D01*
X78814285Y-102322914D02*
X78766666Y-102227676D01*
X78766666Y-102227676D02*
X78671428Y-102132438D01*
X78671428Y-102132438D02*
X78528571Y-102084819D01*
X78528571Y-102084819D02*
X78433333Y-102084819D01*
X78433333Y-102084819D02*
X78290476Y-102132438D01*
X78290476Y-102132438D02*
X78242857Y-102180057D01*
X77290476Y-103084819D02*
X77861904Y-103084819D01*
X77576190Y-103084819D02*
X77576190Y-102084819D01*
X77576190Y-102084819D02*
X77671428Y-102227676D01*
X77671428Y-102227676D02*
X77766666Y-102322914D01*
X77766666Y-102322914D02*
X77861904Y-102370533D01*
X76957142Y-102084819D02*
X76290476Y-102084819D01*
X76290476Y-102084819D02*
X76719047Y-103084819D01*
X66066666Y-121489580D02*
X66114285Y-121537200D01*
X66114285Y-121537200D02*
X66257142Y-121584819D01*
X66257142Y-121584819D02*
X66352380Y-121584819D01*
X66352380Y-121584819D02*
X66495237Y-121537200D01*
X66495237Y-121537200D02*
X66590475Y-121441961D01*
X66590475Y-121441961D02*
X66638094Y-121346723D01*
X66638094Y-121346723D02*
X66685713Y-121156247D01*
X66685713Y-121156247D02*
X66685713Y-121013390D01*
X66685713Y-121013390D02*
X66638094Y-120822914D01*
X66638094Y-120822914D02*
X66590475Y-120727676D01*
X66590475Y-120727676D02*
X66495237Y-120632438D01*
X66495237Y-120632438D02*
X66352380Y-120584819D01*
X66352380Y-120584819D02*
X66257142Y-120584819D01*
X66257142Y-120584819D02*
X66114285Y-120632438D01*
X66114285Y-120632438D02*
X66066666Y-120680057D01*
X65590475Y-121584819D02*
X65399999Y-121584819D01*
X65399999Y-121584819D02*
X65304761Y-121537200D01*
X65304761Y-121537200D02*
X65257142Y-121489580D01*
X65257142Y-121489580D02*
X65161904Y-121346723D01*
X65161904Y-121346723D02*
X65114285Y-121156247D01*
X65114285Y-121156247D02*
X65114285Y-120775295D01*
X65114285Y-120775295D02*
X65161904Y-120680057D01*
X65161904Y-120680057D02*
X65209523Y-120632438D01*
X65209523Y-120632438D02*
X65304761Y-120584819D01*
X65304761Y-120584819D02*
X65495237Y-120584819D01*
X65495237Y-120584819D02*
X65590475Y-120632438D01*
X65590475Y-120632438D02*
X65638094Y-120680057D01*
X65638094Y-120680057D02*
X65685713Y-120775295D01*
X65685713Y-120775295D02*
X65685713Y-121013390D01*
X65685713Y-121013390D02*
X65638094Y-121108628D01*
X65638094Y-121108628D02*
X65590475Y-121156247D01*
X65590475Y-121156247D02*
X65495237Y-121203866D01*
X65495237Y-121203866D02*
X65304761Y-121203866D01*
X65304761Y-121203866D02*
X65209523Y-121156247D01*
X65209523Y-121156247D02*
X65161904Y-121108628D01*
X65161904Y-121108628D02*
X65114285Y-121013390D01*
X40883757Y-111312080D02*
X40931376Y-111359700D01*
X40931376Y-111359700D02*
X41074233Y-111407319D01*
X41074233Y-111407319D02*
X41169471Y-111407319D01*
X41169471Y-111407319D02*
X41312328Y-111359700D01*
X41312328Y-111359700D02*
X41407566Y-111264461D01*
X41407566Y-111264461D02*
X41455185Y-111169223D01*
X41455185Y-111169223D02*
X41502804Y-110978747D01*
X41502804Y-110978747D02*
X41502804Y-110835890D01*
X41502804Y-110835890D02*
X41455185Y-110645414D01*
X41455185Y-110645414D02*
X41407566Y-110550176D01*
X41407566Y-110550176D02*
X41312328Y-110454938D01*
X41312328Y-110454938D02*
X41169471Y-110407319D01*
X41169471Y-110407319D02*
X41074233Y-110407319D01*
X41074233Y-110407319D02*
X40931376Y-110454938D01*
X40931376Y-110454938D02*
X40883757Y-110502557D01*
X39931376Y-111407319D02*
X40502804Y-111407319D01*
X40217090Y-111407319D02*
X40217090Y-110407319D01*
X40217090Y-110407319D02*
X40312328Y-110550176D01*
X40312328Y-110550176D02*
X40407566Y-110645414D01*
X40407566Y-110645414D02*
X40502804Y-110693033D01*
X39026614Y-110407319D02*
X39502804Y-110407319D01*
X39502804Y-110407319D02*
X39550423Y-110883509D01*
X39550423Y-110883509D02*
X39502804Y-110835890D01*
X39502804Y-110835890D02*
X39407566Y-110788271D01*
X39407566Y-110788271D02*
X39169471Y-110788271D01*
X39169471Y-110788271D02*
X39074233Y-110835890D01*
X39074233Y-110835890D02*
X39026614Y-110883509D01*
X39026614Y-110883509D02*
X38978995Y-110978747D01*
X38978995Y-110978747D02*
X38978995Y-111216842D01*
X38978995Y-111216842D02*
X39026614Y-111312080D01*
X39026614Y-111312080D02*
X39074233Y-111359700D01*
X39074233Y-111359700D02*
X39169471Y-111407319D01*
X39169471Y-111407319D02*
X39407566Y-111407319D01*
X39407566Y-111407319D02*
X39502804Y-111359700D01*
X39502804Y-111359700D02*
X39550423Y-111312080D01*
X74542857Y-121189580D02*
X74590476Y-121237200D01*
X74590476Y-121237200D02*
X74733333Y-121284819D01*
X74733333Y-121284819D02*
X74828571Y-121284819D01*
X74828571Y-121284819D02*
X74971428Y-121237200D01*
X74971428Y-121237200D02*
X75066666Y-121141961D01*
X75066666Y-121141961D02*
X75114285Y-121046723D01*
X75114285Y-121046723D02*
X75161904Y-120856247D01*
X75161904Y-120856247D02*
X75161904Y-120713390D01*
X75161904Y-120713390D02*
X75114285Y-120522914D01*
X75114285Y-120522914D02*
X75066666Y-120427676D01*
X75066666Y-120427676D02*
X74971428Y-120332438D01*
X74971428Y-120332438D02*
X74828571Y-120284819D01*
X74828571Y-120284819D02*
X74733333Y-120284819D01*
X74733333Y-120284819D02*
X74590476Y-120332438D01*
X74590476Y-120332438D02*
X74542857Y-120380057D01*
X73590476Y-121284819D02*
X74161904Y-121284819D01*
X73876190Y-121284819D02*
X73876190Y-120284819D01*
X73876190Y-120284819D02*
X73971428Y-120427676D01*
X73971428Y-120427676D02*
X74066666Y-120522914D01*
X74066666Y-120522914D02*
X74161904Y-120570533D01*
X73209523Y-120380057D02*
X73161904Y-120332438D01*
X73161904Y-120332438D02*
X73066666Y-120284819D01*
X73066666Y-120284819D02*
X72828571Y-120284819D01*
X72828571Y-120284819D02*
X72733333Y-120332438D01*
X72733333Y-120332438D02*
X72685714Y-120380057D01*
X72685714Y-120380057D02*
X72638095Y-120475295D01*
X72638095Y-120475295D02*
X72638095Y-120570533D01*
X72638095Y-120570533D02*
X72685714Y-120713390D01*
X72685714Y-120713390D02*
X73257142Y-121284819D01*
X73257142Y-121284819D02*
X72638095Y-121284819D01*
X116954166Y-59504819D02*
X117287499Y-59028628D01*
X117525594Y-59504819D02*
X117525594Y-58504819D01*
X117525594Y-58504819D02*
X117144642Y-58504819D01*
X117144642Y-58504819D02*
X117049404Y-58552438D01*
X117049404Y-58552438D02*
X117001785Y-58600057D01*
X117001785Y-58600057D02*
X116954166Y-58695295D01*
X116954166Y-58695295D02*
X116954166Y-58838152D01*
X116954166Y-58838152D02*
X117001785Y-58933390D01*
X117001785Y-58933390D02*
X117049404Y-58981009D01*
X117049404Y-58981009D02*
X117144642Y-59028628D01*
X117144642Y-59028628D02*
X117525594Y-59028628D01*
X116477975Y-59504819D02*
X116287499Y-59504819D01*
X116287499Y-59504819D02*
X116192261Y-59457200D01*
X116192261Y-59457200D02*
X116144642Y-59409580D01*
X116144642Y-59409580D02*
X116049404Y-59266723D01*
X116049404Y-59266723D02*
X116001785Y-59076247D01*
X116001785Y-59076247D02*
X116001785Y-58695295D01*
X116001785Y-58695295D02*
X116049404Y-58600057D01*
X116049404Y-58600057D02*
X116097023Y-58552438D01*
X116097023Y-58552438D02*
X116192261Y-58504819D01*
X116192261Y-58504819D02*
X116382737Y-58504819D01*
X116382737Y-58504819D02*
X116477975Y-58552438D01*
X116477975Y-58552438D02*
X116525594Y-58600057D01*
X116525594Y-58600057D02*
X116573213Y-58695295D01*
X116573213Y-58695295D02*
X116573213Y-58933390D01*
X116573213Y-58933390D02*
X116525594Y-59028628D01*
X116525594Y-59028628D02*
X116477975Y-59076247D01*
X116477975Y-59076247D02*
X116382737Y-59123866D01*
X116382737Y-59123866D02*
X116192261Y-59123866D01*
X116192261Y-59123866D02*
X116097023Y-59076247D01*
X116097023Y-59076247D02*
X116049404Y-59028628D01*
X116049404Y-59028628D02*
X116001785Y-58933390D01*
X100942857Y-87624819D02*
X101276190Y-87148628D01*
X101514285Y-87624819D02*
X101514285Y-86624819D01*
X101514285Y-86624819D02*
X101133333Y-86624819D01*
X101133333Y-86624819D02*
X101038095Y-86672438D01*
X101038095Y-86672438D02*
X100990476Y-86720057D01*
X100990476Y-86720057D02*
X100942857Y-86815295D01*
X100942857Y-86815295D02*
X100942857Y-86958152D01*
X100942857Y-86958152D02*
X100990476Y-87053390D01*
X100990476Y-87053390D02*
X101038095Y-87101009D01*
X101038095Y-87101009D02*
X101133333Y-87148628D01*
X101133333Y-87148628D02*
X101514285Y-87148628D01*
X100561904Y-86720057D02*
X100514285Y-86672438D01*
X100514285Y-86672438D02*
X100419047Y-86624819D01*
X100419047Y-86624819D02*
X100180952Y-86624819D01*
X100180952Y-86624819D02*
X100085714Y-86672438D01*
X100085714Y-86672438D02*
X100038095Y-86720057D01*
X100038095Y-86720057D02*
X99990476Y-86815295D01*
X99990476Y-86815295D02*
X99990476Y-86910533D01*
X99990476Y-86910533D02*
X100038095Y-87053390D01*
X100038095Y-87053390D02*
X100609523Y-87624819D01*
X100609523Y-87624819D02*
X99990476Y-87624819D01*
X99657142Y-86624819D02*
X99038095Y-86624819D01*
X99038095Y-86624819D02*
X99371428Y-87005771D01*
X99371428Y-87005771D02*
X99228571Y-87005771D01*
X99228571Y-87005771D02*
X99133333Y-87053390D01*
X99133333Y-87053390D02*
X99085714Y-87101009D01*
X99085714Y-87101009D02*
X99038095Y-87196247D01*
X99038095Y-87196247D02*
X99038095Y-87434342D01*
X99038095Y-87434342D02*
X99085714Y-87529580D01*
X99085714Y-87529580D02*
X99133333Y-87577200D01*
X99133333Y-87577200D02*
X99228571Y-87624819D01*
X99228571Y-87624819D02*
X99514285Y-87624819D01*
X99514285Y-87624819D02*
X99609523Y-87577200D01*
X99609523Y-87577200D02*
X99657142Y-87529580D01*
X81525757Y-105090480D02*
X81573376Y-105138100D01*
X81573376Y-105138100D02*
X81716233Y-105185719D01*
X81716233Y-105185719D02*
X81811471Y-105185719D01*
X81811471Y-105185719D02*
X81954328Y-105138100D01*
X81954328Y-105138100D02*
X82049566Y-105042861D01*
X82049566Y-105042861D02*
X82097185Y-104947623D01*
X82097185Y-104947623D02*
X82144804Y-104757147D01*
X82144804Y-104757147D02*
X82144804Y-104614290D01*
X82144804Y-104614290D02*
X82097185Y-104423814D01*
X82097185Y-104423814D02*
X82049566Y-104328576D01*
X82049566Y-104328576D02*
X81954328Y-104233338D01*
X81954328Y-104233338D02*
X81811471Y-104185719D01*
X81811471Y-104185719D02*
X81716233Y-104185719D01*
X81716233Y-104185719D02*
X81573376Y-104233338D01*
X81573376Y-104233338D02*
X81525757Y-104280957D01*
X80573376Y-105185719D02*
X81144804Y-105185719D01*
X80859090Y-105185719D02*
X80859090Y-104185719D01*
X80859090Y-104185719D02*
X80954328Y-104328576D01*
X80954328Y-104328576D02*
X81049566Y-104423814D01*
X81049566Y-104423814D02*
X81144804Y-104471433D01*
X80240042Y-104185719D02*
X79620995Y-104185719D01*
X79620995Y-104185719D02*
X79954328Y-104566671D01*
X79954328Y-104566671D02*
X79811471Y-104566671D01*
X79811471Y-104566671D02*
X79716233Y-104614290D01*
X79716233Y-104614290D02*
X79668614Y-104661909D01*
X79668614Y-104661909D02*
X79620995Y-104757147D01*
X79620995Y-104757147D02*
X79620995Y-104995242D01*
X79620995Y-104995242D02*
X79668614Y-105090480D01*
X79668614Y-105090480D02*
X79716233Y-105138100D01*
X79716233Y-105138100D02*
X79811471Y-105185719D01*
X79811471Y-105185719D02*
X80097185Y-105185719D01*
X80097185Y-105185719D02*
X80192423Y-105138100D01*
X80192423Y-105138100D02*
X80240042Y-105090480D01*
X80289580Y-112233333D02*
X80337200Y-112185714D01*
X80337200Y-112185714D02*
X80384819Y-112042857D01*
X80384819Y-112042857D02*
X80384819Y-111947619D01*
X80384819Y-111947619D02*
X80337200Y-111804762D01*
X80337200Y-111804762D02*
X80241961Y-111709524D01*
X80241961Y-111709524D02*
X80146723Y-111661905D01*
X80146723Y-111661905D02*
X79956247Y-111614286D01*
X79956247Y-111614286D02*
X79813390Y-111614286D01*
X79813390Y-111614286D02*
X79622914Y-111661905D01*
X79622914Y-111661905D02*
X79527676Y-111709524D01*
X79527676Y-111709524D02*
X79432438Y-111804762D01*
X79432438Y-111804762D02*
X79384819Y-111947619D01*
X79384819Y-111947619D02*
X79384819Y-112042857D01*
X79384819Y-112042857D02*
X79432438Y-112185714D01*
X79432438Y-112185714D02*
X79480057Y-112233333D01*
X79384819Y-112566667D02*
X79384819Y-113185714D01*
X79384819Y-113185714D02*
X79765771Y-112852381D01*
X79765771Y-112852381D02*
X79765771Y-112995238D01*
X79765771Y-112995238D02*
X79813390Y-113090476D01*
X79813390Y-113090476D02*
X79861009Y-113138095D01*
X79861009Y-113138095D02*
X79956247Y-113185714D01*
X79956247Y-113185714D02*
X80194342Y-113185714D01*
X80194342Y-113185714D02*
X80289580Y-113138095D01*
X80289580Y-113138095D02*
X80337200Y-113090476D01*
X80337200Y-113090476D02*
X80384819Y-112995238D01*
X80384819Y-112995238D02*
X80384819Y-112709524D01*
X80384819Y-112709524D02*
X80337200Y-112614286D01*
X80337200Y-112614286D02*
X80289580Y-112566667D01*
X62642857Y-115529580D02*
X62690476Y-115577200D01*
X62690476Y-115577200D02*
X62833333Y-115624819D01*
X62833333Y-115624819D02*
X62928571Y-115624819D01*
X62928571Y-115624819D02*
X63071428Y-115577200D01*
X63071428Y-115577200D02*
X63166666Y-115481961D01*
X63166666Y-115481961D02*
X63214285Y-115386723D01*
X63214285Y-115386723D02*
X63261904Y-115196247D01*
X63261904Y-115196247D02*
X63261904Y-115053390D01*
X63261904Y-115053390D02*
X63214285Y-114862914D01*
X63214285Y-114862914D02*
X63166666Y-114767676D01*
X63166666Y-114767676D02*
X63071428Y-114672438D01*
X63071428Y-114672438D02*
X62928571Y-114624819D01*
X62928571Y-114624819D02*
X62833333Y-114624819D01*
X62833333Y-114624819D02*
X62690476Y-114672438D01*
X62690476Y-114672438D02*
X62642857Y-114720057D01*
X61690476Y-115624819D02*
X62261904Y-115624819D01*
X61976190Y-115624819D02*
X61976190Y-114624819D01*
X61976190Y-114624819D02*
X62071428Y-114767676D01*
X62071428Y-114767676D02*
X62166666Y-114862914D01*
X62166666Y-114862914D02*
X62261904Y-114910533D01*
X60738095Y-115624819D02*
X61309523Y-115624819D01*
X61023809Y-115624819D02*
X61023809Y-114624819D01*
X61023809Y-114624819D02*
X61119047Y-114767676D01*
X61119047Y-114767676D02*
X61214285Y-114862914D01*
X61214285Y-114862914D02*
X61309523Y-114910533D01*
X77512557Y-105903280D02*
X77560176Y-105950900D01*
X77560176Y-105950900D02*
X77703033Y-105998519D01*
X77703033Y-105998519D02*
X77798271Y-105998519D01*
X77798271Y-105998519D02*
X77941128Y-105950900D01*
X77941128Y-105950900D02*
X78036366Y-105855661D01*
X78036366Y-105855661D02*
X78083985Y-105760423D01*
X78083985Y-105760423D02*
X78131604Y-105569947D01*
X78131604Y-105569947D02*
X78131604Y-105427090D01*
X78131604Y-105427090D02*
X78083985Y-105236614D01*
X78083985Y-105236614D02*
X78036366Y-105141376D01*
X78036366Y-105141376D02*
X77941128Y-105046138D01*
X77941128Y-105046138D02*
X77798271Y-104998519D01*
X77798271Y-104998519D02*
X77703033Y-104998519D01*
X77703033Y-104998519D02*
X77560176Y-105046138D01*
X77560176Y-105046138D02*
X77512557Y-105093757D01*
X76560176Y-105998519D02*
X77131604Y-105998519D01*
X76845890Y-105998519D02*
X76845890Y-104998519D01*
X76845890Y-104998519D02*
X76941128Y-105141376D01*
X76941128Y-105141376D02*
X77036366Y-105236614D01*
X77036366Y-105236614D02*
X77131604Y-105284233D01*
X75941128Y-104998519D02*
X75845890Y-104998519D01*
X75845890Y-104998519D02*
X75750652Y-105046138D01*
X75750652Y-105046138D02*
X75703033Y-105093757D01*
X75703033Y-105093757D02*
X75655414Y-105188995D01*
X75655414Y-105188995D02*
X75607795Y-105379471D01*
X75607795Y-105379471D02*
X75607795Y-105617566D01*
X75607795Y-105617566D02*
X75655414Y-105808042D01*
X75655414Y-105808042D02*
X75703033Y-105903280D01*
X75703033Y-105903280D02*
X75750652Y-105950900D01*
X75750652Y-105950900D02*
X75845890Y-105998519D01*
X75845890Y-105998519D02*
X75941128Y-105998519D01*
X75941128Y-105998519D02*
X76036366Y-105950900D01*
X76036366Y-105950900D02*
X76083985Y-105903280D01*
X76083985Y-105903280D02*
X76131604Y-105808042D01*
X76131604Y-105808042D02*
X76179223Y-105617566D01*
X76179223Y-105617566D02*
X76179223Y-105379471D01*
X76179223Y-105379471D02*
X76131604Y-105188995D01*
X76131604Y-105188995D02*
X76083985Y-105093757D01*
X76083985Y-105093757D02*
X76036366Y-105046138D01*
X76036366Y-105046138D02*
X75941128Y-104998519D01*
X106342857Y-56664819D02*
X106676190Y-56188628D01*
X106914285Y-56664819D02*
X106914285Y-55664819D01*
X106914285Y-55664819D02*
X106533333Y-55664819D01*
X106533333Y-55664819D02*
X106438095Y-55712438D01*
X106438095Y-55712438D02*
X106390476Y-55760057D01*
X106390476Y-55760057D02*
X106342857Y-55855295D01*
X106342857Y-55855295D02*
X106342857Y-55998152D01*
X106342857Y-55998152D02*
X106390476Y-56093390D01*
X106390476Y-56093390D02*
X106438095Y-56141009D01*
X106438095Y-56141009D02*
X106533333Y-56188628D01*
X106533333Y-56188628D02*
X106914285Y-56188628D01*
X105390476Y-56664819D02*
X105961904Y-56664819D01*
X105676190Y-56664819D02*
X105676190Y-55664819D01*
X105676190Y-55664819D02*
X105771428Y-55807676D01*
X105771428Y-55807676D02*
X105866666Y-55902914D01*
X105866666Y-55902914D02*
X105961904Y-55950533D01*
X104819047Y-56093390D02*
X104914285Y-56045771D01*
X104914285Y-56045771D02*
X104961904Y-55998152D01*
X104961904Y-55998152D02*
X105009523Y-55902914D01*
X105009523Y-55902914D02*
X105009523Y-55855295D01*
X105009523Y-55855295D02*
X104961904Y-55760057D01*
X104961904Y-55760057D02*
X104914285Y-55712438D01*
X104914285Y-55712438D02*
X104819047Y-55664819D01*
X104819047Y-55664819D02*
X104628571Y-55664819D01*
X104628571Y-55664819D02*
X104533333Y-55712438D01*
X104533333Y-55712438D02*
X104485714Y-55760057D01*
X104485714Y-55760057D02*
X104438095Y-55855295D01*
X104438095Y-55855295D02*
X104438095Y-55902914D01*
X104438095Y-55902914D02*
X104485714Y-55998152D01*
X104485714Y-55998152D02*
X104533333Y-56045771D01*
X104533333Y-56045771D02*
X104628571Y-56093390D01*
X104628571Y-56093390D02*
X104819047Y-56093390D01*
X104819047Y-56093390D02*
X104914285Y-56141009D01*
X104914285Y-56141009D02*
X104961904Y-56188628D01*
X104961904Y-56188628D02*
X105009523Y-56283866D01*
X105009523Y-56283866D02*
X105009523Y-56474342D01*
X105009523Y-56474342D02*
X104961904Y-56569580D01*
X104961904Y-56569580D02*
X104914285Y-56617200D01*
X104914285Y-56617200D02*
X104819047Y-56664819D01*
X104819047Y-56664819D02*
X104628571Y-56664819D01*
X104628571Y-56664819D02*
X104533333Y-56617200D01*
X104533333Y-56617200D02*
X104485714Y-56569580D01*
X104485714Y-56569580D02*
X104438095Y-56474342D01*
X104438095Y-56474342D02*
X104438095Y-56283866D01*
X104438095Y-56283866D02*
X104485714Y-56188628D01*
X104485714Y-56188628D02*
X104533333Y-56141009D01*
X104533333Y-56141009D02*
X104628571Y-56093390D01*
X79966666Y-108324819D02*
X80299999Y-107848628D01*
X80538094Y-108324819D02*
X80538094Y-107324819D01*
X80538094Y-107324819D02*
X80157142Y-107324819D01*
X80157142Y-107324819D02*
X80061904Y-107372438D01*
X80061904Y-107372438D02*
X80014285Y-107420057D01*
X80014285Y-107420057D02*
X79966666Y-107515295D01*
X79966666Y-107515295D02*
X79966666Y-107658152D01*
X79966666Y-107658152D02*
X80014285Y-107753390D01*
X80014285Y-107753390D02*
X80061904Y-107801009D01*
X80061904Y-107801009D02*
X80157142Y-107848628D01*
X80157142Y-107848628D02*
X80538094Y-107848628D01*
X79061904Y-107324819D02*
X79538094Y-107324819D01*
X79538094Y-107324819D02*
X79585713Y-107801009D01*
X79585713Y-107801009D02*
X79538094Y-107753390D01*
X79538094Y-107753390D02*
X79442856Y-107705771D01*
X79442856Y-107705771D02*
X79204761Y-107705771D01*
X79204761Y-107705771D02*
X79109523Y-107753390D01*
X79109523Y-107753390D02*
X79061904Y-107801009D01*
X79061904Y-107801009D02*
X79014285Y-107896247D01*
X79014285Y-107896247D02*
X79014285Y-108134342D01*
X79014285Y-108134342D02*
X79061904Y-108229580D01*
X79061904Y-108229580D02*
X79109523Y-108277200D01*
X79109523Y-108277200D02*
X79204761Y-108324819D01*
X79204761Y-108324819D02*
X79442856Y-108324819D01*
X79442856Y-108324819D02*
X79538094Y-108277200D01*
X79538094Y-108277200D02*
X79585713Y-108229580D01*
X116954166Y-72304819D02*
X117287499Y-71828628D01*
X117525594Y-72304819D02*
X117525594Y-71304819D01*
X117525594Y-71304819D02*
X117144642Y-71304819D01*
X117144642Y-71304819D02*
X117049404Y-71352438D01*
X117049404Y-71352438D02*
X117001785Y-71400057D01*
X117001785Y-71400057D02*
X116954166Y-71495295D01*
X116954166Y-71495295D02*
X116954166Y-71638152D01*
X116954166Y-71638152D02*
X117001785Y-71733390D01*
X117001785Y-71733390D02*
X117049404Y-71781009D01*
X117049404Y-71781009D02*
X117144642Y-71828628D01*
X117144642Y-71828628D02*
X117525594Y-71828628D01*
X116097023Y-71304819D02*
X116287499Y-71304819D01*
X116287499Y-71304819D02*
X116382737Y-71352438D01*
X116382737Y-71352438D02*
X116430356Y-71400057D01*
X116430356Y-71400057D02*
X116525594Y-71542914D01*
X116525594Y-71542914D02*
X116573213Y-71733390D01*
X116573213Y-71733390D02*
X116573213Y-72114342D01*
X116573213Y-72114342D02*
X116525594Y-72209580D01*
X116525594Y-72209580D02*
X116477975Y-72257200D01*
X116477975Y-72257200D02*
X116382737Y-72304819D01*
X116382737Y-72304819D02*
X116192261Y-72304819D01*
X116192261Y-72304819D02*
X116097023Y-72257200D01*
X116097023Y-72257200D02*
X116049404Y-72209580D01*
X116049404Y-72209580D02*
X116001785Y-72114342D01*
X116001785Y-72114342D02*
X116001785Y-71876247D01*
X116001785Y-71876247D02*
X116049404Y-71781009D01*
X116049404Y-71781009D02*
X116097023Y-71733390D01*
X116097023Y-71733390D02*
X116192261Y-71685771D01*
X116192261Y-71685771D02*
X116382737Y-71685771D01*
X116382737Y-71685771D02*
X116477975Y-71733390D01*
X116477975Y-71733390D02*
X116525594Y-71781009D01*
X116525594Y-71781009D02*
X116573213Y-71876247D01*
X117430357Y-62534819D02*
X117763690Y-62058628D01*
X118001785Y-62534819D02*
X118001785Y-61534819D01*
X118001785Y-61534819D02*
X117620833Y-61534819D01*
X117620833Y-61534819D02*
X117525595Y-61582438D01*
X117525595Y-61582438D02*
X117477976Y-61630057D01*
X117477976Y-61630057D02*
X117430357Y-61725295D01*
X117430357Y-61725295D02*
X117430357Y-61868152D01*
X117430357Y-61868152D02*
X117477976Y-61963390D01*
X117477976Y-61963390D02*
X117525595Y-62011009D01*
X117525595Y-62011009D02*
X117620833Y-62058628D01*
X117620833Y-62058628D02*
X118001785Y-62058628D01*
X116477976Y-62534819D02*
X117049404Y-62534819D01*
X116763690Y-62534819D02*
X116763690Y-61534819D01*
X116763690Y-61534819D02*
X116858928Y-61677676D01*
X116858928Y-61677676D02*
X116954166Y-61772914D01*
X116954166Y-61772914D02*
X117049404Y-61820533D01*
X115620833Y-61868152D02*
X115620833Y-62534819D01*
X115858928Y-61487200D02*
X116097023Y-62201485D01*
X116097023Y-62201485D02*
X115477976Y-62201485D01*
X100942857Y-90524819D02*
X101276190Y-90048628D01*
X101514285Y-90524819D02*
X101514285Y-89524819D01*
X101514285Y-89524819D02*
X101133333Y-89524819D01*
X101133333Y-89524819D02*
X101038095Y-89572438D01*
X101038095Y-89572438D02*
X100990476Y-89620057D01*
X100990476Y-89620057D02*
X100942857Y-89715295D01*
X100942857Y-89715295D02*
X100942857Y-89858152D01*
X100942857Y-89858152D02*
X100990476Y-89953390D01*
X100990476Y-89953390D02*
X101038095Y-90001009D01*
X101038095Y-90001009D02*
X101133333Y-90048628D01*
X101133333Y-90048628D02*
X101514285Y-90048628D01*
X100561904Y-89620057D02*
X100514285Y-89572438D01*
X100514285Y-89572438D02*
X100419047Y-89524819D01*
X100419047Y-89524819D02*
X100180952Y-89524819D01*
X100180952Y-89524819D02*
X100085714Y-89572438D01*
X100085714Y-89572438D02*
X100038095Y-89620057D01*
X100038095Y-89620057D02*
X99990476Y-89715295D01*
X99990476Y-89715295D02*
X99990476Y-89810533D01*
X99990476Y-89810533D02*
X100038095Y-89953390D01*
X100038095Y-89953390D02*
X100609523Y-90524819D01*
X100609523Y-90524819D02*
X99990476Y-90524819D01*
X99133333Y-89858152D02*
X99133333Y-90524819D01*
X99371428Y-89477200D02*
X99609523Y-90191485D01*
X99609523Y-90191485D02*
X98990476Y-90191485D01*
X100942857Y-93424819D02*
X101276190Y-92948628D01*
X101514285Y-93424819D02*
X101514285Y-92424819D01*
X101514285Y-92424819D02*
X101133333Y-92424819D01*
X101133333Y-92424819D02*
X101038095Y-92472438D01*
X101038095Y-92472438D02*
X100990476Y-92520057D01*
X100990476Y-92520057D02*
X100942857Y-92615295D01*
X100942857Y-92615295D02*
X100942857Y-92758152D01*
X100942857Y-92758152D02*
X100990476Y-92853390D01*
X100990476Y-92853390D02*
X101038095Y-92901009D01*
X101038095Y-92901009D02*
X101133333Y-92948628D01*
X101133333Y-92948628D02*
X101514285Y-92948628D01*
X100561904Y-92520057D02*
X100514285Y-92472438D01*
X100514285Y-92472438D02*
X100419047Y-92424819D01*
X100419047Y-92424819D02*
X100180952Y-92424819D01*
X100180952Y-92424819D02*
X100085714Y-92472438D01*
X100085714Y-92472438D02*
X100038095Y-92520057D01*
X100038095Y-92520057D02*
X99990476Y-92615295D01*
X99990476Y-92615295D02*
X99990476Y-92710533D01*
X99990476Y-92710533D02*
X100038095Y-92853390D01*
X100038095Y-92853390D02*
X100609523Y-93424819D01*
X100609523Y-93424819D02*
X99990476Y-93424819D01*
X99085714Y-92424819D02*
X99561904Y-92424819D01*
X99561904Y-92424819D02*
X99609523Y-92901009D01*
X99609523Y-92901009D02*
X99561904Y-92853390D01*
X99561904Y-92853390D02*
X99466666Y-92805771D01*
X99466666Y-92805771D02*
X99228571Y-92805771D01*
X99228571Y-92805771D02*
X99133333Y-92853390D01*
X99133333Y-92853390D02*
X99085714Y-92901009D01*
X99085714Y-92901009D02*
X99038095Y-92996247D01*
X99038095Y-92996247D02*
X99038095Y-93234342D01*
X99038095Y-93234342D02*
X99085714Y-93329580D01*
X99085714Y-93329580D02*
X99133333Y-93377200D01*
X99133333Y-93377200D02*
X99228571Y-93424819D01*
X99228571Y-93424819D02*
X99466666Y-93424819D01*
X99466666Y-93424819D02*
X99561904Y-93377200D01*
X99561904Y-93377200D02*
X99609523Y-93329580D01*
X117430357Y-53404819D02*
X117763690Y-52928628D01*
X118001785Y-53404819D02*
X118001785Y-52404819D01*
X118001785Y-52404819D02*
X117620833Y-52404819D01*
X117620833Y-52404819D02*
X117525595Y-52452438D01*
X117525595Y-52452438D02*
X117477976Y-52500057D01*
X117477976Y-52500057D02*
X117430357Y-52595295D01*
X117430357Y-52595295D02*
X117430357Y-52738152D01*
X117430357Y-52738152D02*
X117477976Y-52833390D01*
X117477976Y-52833390D02*
X117525595Y-52881009D01*
X117525595Y-52881009D02*
X117620833Y-52928628D01*
X117620833Y-52928628D02*
X118001785Y-52928628D01*
X116477976Y-53404819D02*
X117049404Y-53404819D01*
X116763690Y-53404819D02*
X116763690Y-52404819D01*
X116763690Y-52404819D02*
X116858928Y-52547676D01*
X116858928Y-52547676D02*
X116954166Y-52642914D01*
X116954166Y-52642914D02*
X117049404Y-52690533D01*
X115620833Y-52404819D02*
X115811309Y-52404819D01*
X115811309Y-52404819D02*
X115906547Y-52452438D01*
X115906547Y-52452438D02*
X115954166Y-52500057D01*
X115954166Y-52500057D02*
X116049404Y-52642914D01*
X116049404Y-52642914D02*
X116097023Y-52833390D01*
X116097023Y-52833390D02*
X116097023Y-53214342D01*
X116097023Y-53214342D02*
X116049404Y-53309580D01*
X116049404Y-53309580D02*
X116001785Y-53357200D01*
X116001785Y-53357200D02*
X115906547Y-53404819D01*
X115906547Y-53404819D02*
X115716071Y-53404819D01*
X115716071Y-53404819D02*
X115620833Y-53357200D01*
X115620833Y-53357200D02*
X115573214Y-53309580D01*
X115573214Y-53309580D02*
X115525595Y-53214342D01*
X115525595Y-53214342D02*
X115525595Y-52976247D01*
X115525595Y-52976247D02*
X115573214Y-52881009D01*
X115573214Y-52881009D02*
X115620833Y-52833390D01*
X115620833Y-52833390D02*
X115716071Y-52785771D01*
X115716071Y-52785771D02*
X115906547Y-52785771D01*
X115906547Y-52785771D02*
X116001785Y-52833390D01*
X116001785Y-52833390D02*
X116049404Y-52881009D01*
X116049404Y-52881009D02*
X116097023Y-52976247D01*
X106342857Y-68464819D02*
X106676190Y-67988628D01*
X106914285Y-68464819D02*
X106914285Y-67464819D01*
X106914285Y-67464819D02*
X106533333Y-67464819D01*
X106533333Y-67464819D02*
X106438095Y-67512438D01*
X106438095Y-67512438D02*
X106390476Y-67560057D01*
X106390476Y-67560057D02*
X106342857Y-67655295D01*
X106342857Y-67655295D02*
X106342857Y-67798152D01*
X106342857Y-67798152D02*
X106390476Y-67893390D01*
X106390476Y-67893390D02*
X106438095Y-67941009D01*
X106438095Y-67941009D02*
X106533333Y-67988628D01*
X106533333Y-67988628D02*
X106914285Y-67988628D01*
X105390476Y-68464819D02*
X105961904Y-68464819D01*
X105676190Y-68464819D02*
X105676190Y-67464819D01*
X105676190Y-67464819D02*
X105771428Y-67607676D01*
X105771428Y-67607676D02*
X105866666Y-67702914D01*
X105866666Y-67702914D02*
X105961904Y-67750533D01*
X104485714Y-67464819D02*
X104961904Y-67464819D01*
X104961904Y-67464819D02*
X105009523Y-67941009D01*
X105009523Y-67941009D02*
X104961904Y-67893390D01*
X104961904Y-67893390D02*
X104866666Y-67845771D01*
X104866666Y-67845771D02*
X104628571Y-67845771D01*
X104628571Y-67845771D02*
X104533333Y-67893390D01*
X104533333Y-67893390D02*
X104485714Y-67941009D01*
X104485714Y-67941009D02*
X104438095Y-68036247D01*
X104438095Y-68036247D02*
X104438095Y-68274342D01*
X104438095Y-68274342D02*
X104485714Y-68369580D01*
X104485714Y-68369580D02*
X104533333Y-68417200D01*
X104533333Y-68417200D02*
X104628571Y-68464819D01*
X104628571Y-68464819D02*
X104866666Y-68464819D01*
X104866666Y-68464819D02*
X104961904Y-68417200D01*
X104961904Y-68417200D02*
X105009523Y-68369580D01*
X106342857Y-59664819D02*
X106676190Y-59188628D01*
X106914285Y-59664819D02*
X106914285Y-58664819D01*
X106914285Y-58664819D02*
X106533333Y-58664819D01*
X106533333Y-58664819D02*
X106438095Y-58712438D01*
X106438095Y-58712438D02*
X106390476Y-58760057D01*
X106390476Y-58760057D02*
X106342857Y-58855295D01*
X106342857Y-58855295D02*
X106342857Y-58998152D01*
X106342857Y-58998152D02*
X106390476Y-59093390D01*
X106390476Y-59093390D02*
X106438095Y-59141009D01*
X106438095Y-59141009D02*
X106533333Y-59188628D01*
X106533333Y-59188628D02*
X106914285Y-59188628D01*
X105390476Y-59664819D02*
X105961904Y-59664819D01*
X105676190Y-59664819D02*
X105676190Y-58664819D01*
X105676190Y-58664819D02*
X105771428Y-58807676D01*
X105771428Y-58807676D02*
X105866666Y-58902914D01*
X105866666Y-58902914D02*
X105961904Y-58950533D01*
X104914285Y-59664819D02*
X104723809Y-59664819D01*
X104723809Y-59664819D02*
X104628571Y-59617200D01*
X104628571Y-59617200D02*
X104580952Y-59569580D01*
X104580952Y-59569580D02*
X104485714Y-59426723D01*
X104485714Y-59426723D02*
X104438095Y-59236247D01*
X104438095Y-59236247D02*
X104438095Y-58855295D01*
X104438095Y-58855295D02*
X104485714Y-58760057D01*
X104485714Y-58760057D02*
X104533333Y-58712438D01*
X104533333Y-58712438D02*
X104628571Y-58664819D01*
X104628571Y-58664819D02*
X104819047Y-58664819D01*
X104819047Y-58664819D02*
X104914285Y-58712438D01*
X104914285Y-58712438D02*
X104961904Y-58760057D01*
X104961904Y-58760057D02*
X105009523Y-58855295D01*
X105009523Y-58855295D02*
X105009523Y-59093390D01*
X105009523Y-59093390D02*
X104961904Y-59188628D01*
X104961904Y-59188628D02*
X104914285Y-59236247D01*
X104914285Y-59236247D02*
X104819047Y-59283866D01*
X104819047Y-59283866D02*
X104628571Y-59283866D01*
X104628571Y-59283866D02*
X104533333Y-59236247D01*
X104533333Y-59236247D02*
X104485714Y-59188628D01*
X104485714Y-59188628D02*
X104438095Y-59093390D01*
D12*
%TO.C,R7*%
X117042224Y-70602500D02*
X116532776Y-70602500D01*
X117042224Y-69557500D02*
X116532776Y-69557500D01*
%TO.C,C1*%
X38290000Y-122846267D02*
X38290000Y-122553733D01*
X39310000Y-122846267D02*
X39310000Y-122553733D01*
%TO.C,C16*%
X36287167Y-112992500D02*
X35994633Y-112992500D01*
X36287167Y-111972500D02*
X35994633Y-111972500D01*
%TO.C,C6*%
X55187167Y-96892500D02*
X54894633Y-96892500D01*
X55187167Y-95872500D02*
X54894633Y-95872500D01*
%TO.C,U1*%
X33800000Y-121140000D02*
X31850000Y-121140000D01*
X33800000Y-121140000D02*
X35750000Y-121140000D01*
X33800000Y-126260000D02*
X30350000Y-126260000D01*
X33800000Y-126260000D02*
X35750000Y-126260000D01*
%TO.C,R8*%
X117042224Y-67502500D02*
X116532776Y-67502500D01*
X117042224Y-66457500D02*
X116532776Y-66457500D01*
%TO.C,C14*%
X58910000Y-106753733D02*
X58910000Y-107046267D01*
X57890000Y-106753733D02*
X57890000Y-107046267D01*
%TO.C,U10*%
X38680900Y-116832500D02*
X38680900Y-115032500D01*
X41900900Y-115032500D02*
X41900900Y-117482500D01*
%TO.C,R11*%
X105445276Y-75157500D02*
X105954724Y-75157500D01*
X105445276Y-76202500D02*
X105954724Y-76202500D01*
%TO.C,C8*%
X67659633Y-95147500D02*
X67952167Y-95147500D01*
X67659633Y-96167500D02*
X67952167Y-96167500D01*
%TO.C,R10*%
X105445276Y-78057500D02*
X105954724Y-78057500D01*
X105445276Y-79102500D02*
X105954724Y-79102500D01*
%TO.C,R12*%
X105445276Y-72157500D02*
X105954724Y-72157500D01*
X105445276Y-73202500D02*
X105954724Y-73202500D01*
%TO.C,R29*%
X39918400Y-98737224D02*
X39918400Y-98227776D01*
X40963400Y-98737224D02*
X40963400Y-98227776D01*
%TO.C,U8*%
X33000900Y-112632500D02*
X33000900Y-114432500D01*
X29780900Y-114432500D02*
X29780900Y-111482500D01*
%TO.C,R13*%
X105445276Y-69257500D02*
X105954724Y-69257500D01*
X105445276Y-70302500D02*
X105954724Y-70302500D01*
%TO.C,R26*%
X100554724Y-97822500D02*
X100045276Y-97822500D01*
X100554724Y-96777500D02*
X100045276Y-96777500D01*
%TO.C,R27*%
X100554724Y-100722500D02*
X100045276Y-100722500D01*
X100554724Y-99677500D02*
X100045276Y-99677500D01*
%TO.C,R22*%
X110122500Y-96745276D02*
X110122500Y-97254724D01*
X109077500Y-96745276D02*
X109077500Y-97254724D01*
%TO.C,R21*%
X105445276Y-63257500D02*
X105954724Y-63257500D01*
X105445276Y-64302500D02*
X105954724Y-64302500D01*
%TO.C,C5*%
X54894633Y-91572500D02*
X55187167Y-91572500D01*
X54894633Y-92592500D02*
X55187167Y-92592500D01*
%TO.C,C4*%
X61810000Y-106653733D02*
X61810000Y-106946267D01*
X60790000Y-106653733D02*
X60790000Y-106946267D01*
%TO.C,R30*%
X34663400Y-94727776D02*
X34663400Y-95237224D01*
X33618400Y-94727776D02*
X33618400Y-95237224D01*
%TO.C,R17*%
X117042224Y-58002500D02*
X116532776Y-58002500D01*
X117042224Y-56957500D02*
X116532776Y-56957500D01*
%TO.C,U9*%
X34630900Y-116782500D02*
X34630900Y-114982500D01*
X37850900Y-114982500D02*
X37850900Y-117432500D01*
%TO.C,U5*%
X75010000Y-115810000D02*
X75010000Y-114860000D01*
X75010000Y-106540000D02*
X76350000Y-106540000D01*
X75010000Y-105590000D02*
X75010000Y-106540000D01*
X74060000Y-115810000D02*
X75010000Y-115810000D01*
X74060000Y-105590000D02*
X75010000Y-105590000D01*
X65740000Y-115810000D02*
X64790000Y-115810000D01*
X65740000Y-105590000D02*
X64790000Y-105590000D01*
X64790000Y-115810000D02*
X64790000Y-114860000D01*
X64790000Y-105590000D02*
X64790000Y-106540000D01*
%TO.C,R20*%
X105445276Y-60357500D02*
X105954724Y-60357500D01*
X105445276Y-61402500D02*
X105954724Y-61402500D01*
%TO.C,C19*%
X30787167Y-118592500D02*
X30494633Y-118592500D01*
X30787167Y-117572500D02*
X30494633Y-117572500D01*
%TO.C,Q3*%
X39200900Y-99145000D02*
X39200900Y-98495000D01*
X39200900Y-99145000D02*
X39200900Y-99795000D01*
X36080900Y-99145000D02*
X36080900Y-97470000D01*
X36080900Y-99145000D02*
X36080900Y-99795000D01*
%TO.C,C7*%
X68014667Y-92067500D02*
X67722133Y-92067500D01*
X68014667Y-91047500D02*
X67722133Y-91047500D01*
%TO.C,C17*%
X77453733Y-100690000D02*
X77746267Y-100690000D01*
X77453733Y-101710000D02*
X77746267Y-101710000D01*
%TO.C,C9*%
X65753733Y-119190000D02*
X66046267Y-119190000D01*
X65753733Y-120210000D02*
X66046267Y-120210000D01*
%TO.C,C15*%
X40387167Y-112892500D02*
X40094633Y-112892500D01*
X40387167Y-111872500D02*
X40094633Y-111872500D01*
%TO.C,C12*%
X73753733Y-118890000D02*
X74046267Y-118890000D01*
X73753733Y-119910000D02*
X74046267Y-119910000D01*
%TO.C,R9*%
X117042224Y-61002500D02*
X116532776Y-61002500D01*
X117042224Y-59957500D02*
X116532776Y-59957500D01*
%TO.C,R23*%
X100554724Y-89122500D02*
X100045276Y-89122500D01*
X100554724Y-88077500D02*
X100045276Y-88077500D01*
%TO.C,C13*%
X79753733Y-105690000D02*
X80046267Y-105690000D01*
X79753733Y-106710000D02*
X80046267Y-106710000D01*
%TO.C,C3*%
X77990000Y-112546267D02*
X77990000Y-112253733D01*
X79010000Y-112546267D02*
X79010000Y-112253733D01*
%TO.C,C11*%
X62146267Y-117110000D02*
X61853733Y-117110000D01*
X62146267Y-116090000D02*
X61853733Y-116090000D01*
%TO.C,C10*%
X77453733Y-103590000D02*
X77746267Y-103590000D01*
X77453733Y-104610000D02*
X77746267Y-104610000D01*
%TO.C,R18*%
X105445276Y-54257500D02*
X105954724Y-54257500D01*
X105445276Y-55302500D02*
X105954724Y-55302500D01*
%TO.C,R5*%
X80054724Y-109822500D02*
X79545276Y-109822500D01*
X80054724Y-108777500D02*
X79545276Y-108777500D01*
%TO.C,R6*%
X117042224Y-73802500D02*
X116532776Y-73802500D01*
X117042224Y-72757500D02*
X116532776Y-72757500D01*
%TO.C,R14*%
X116532776Y-63157500D02*
X117042224Y-63157500D01*
X116532776Y-64202500D02*
X117042224Y-64202500D01*
%TO.C,R24*%
X100554724Y-92022500D02*
X100045276Y-92022500D01*
X100554724Y-90977500D02*
X100045276Y-90977500D01*
%TO.C,R25*%
X100554724Y-94922500D02*
X100045276Y-94922500D01*
X100554724Y-93877500D02*
X100045276Y-93877500D01*
%TO.C,R16*%
X117042224Y-54902500D02*
X116532776Y-54902500D01*
X117042224Y-53857500D02*
X116532776Y-53857500D01*
%TO.C,R15*%
X105445276Y-66057500D02*
X105954724Y-66057500D01*
X105445276Y-67102500D02*
X105954724Y-67102500D01*
%TO.C,R19*%
X105445276Y-57257500D02*
X105954724Y-57257500D01*
X105445276Y-58302500D02*
X105954724Y-58302500D01*
%TD*%
%LPC*%
D13*
%TO.C,J10*%
X121100000Y-110420000D03*
D14*
X121100000Y-112960000D03*
X121100000Y-115500000D03*
%TD*%
D15*
%TO.C,SW1*%
X28752800Y-131978400D03*
X35252800Y-131978400D03*
X28752800Y-136478400D03*
X35252800Y-136478400D03*
%TD*%
D16*
%TO.C,Y2*%
X64040900Y-94632500D03*
X64040900Y-92732500D03*
%TD*%
%TO.C,Y1*%
X59090900Y-94632500D03*
X59090900Y-92732500D03*
%TD*%
D17*
%TO.C,BT1*%
X39266800Y-88589600D03*
X39266800Y-49589600D03*
%TD*%
%TO.C,U4*%
X90600000Y-58300000D03*
X90600000Y-62110000D03*
X90600000Y-65920000D03*
X90600000Y-69730000D03*
X98220000Y-69730000D03*
X98220000Y-65920000D03*
X98220000Y-62110000D03*
X98220000Y-58300000D03*
%TD*%
D16*
%TO.C,U6*%
X120950000Y-69520000D03*
X120950000Y-68250000D03*
X120950000Y-66980000D03*
X120950000Y-65710000D03*
X120950000Y-64440000D03*
X120950000Y-63170000D03*
X120950000Y-61900000D03*
X120950000Y-60630000D03*
X120950000Y-59360000D03*
X120950000Y-58090000D03*
X120950000Y-56820000D03*
X120950000Y-55550000D03*
X120950000Y-54280000D03*
X101900000Y-54280000D03*
X101900000Y-55550000D03*
X101900000Y-56820000D03*
X101900000Y-58090000D03*
X101900000Y-59360000D03*
X101900000Y-60630000D03*
X101900000Y-61900000D03*
X101900000Y-63170000D03*
X101900000Y-64440000D03*
X101900000Y-65710000D03*
X101900000Y-66980000D03*
X101900000Y-68250000D03*
X101900000Y-69520000D03*
%TD*%
D13*
%TO.C,J4*%
X33629600Y-140004800D03*
D14*
X36169600Y-140004800D03*
%TD*%
D18*
%TO.C,H3*%
X119600000Y-50000000D03*
%TD*%
D13*
%TO.C,J7*%
X45640000Y-143700000D03*
D14*
X43100000Y-143700000D03*
X40560000Y-143700000D03*
X38020000Y-143700000D03*
X35480000Y-143700000D03*
X32940000Y-143700000D03*
%TD*%
D13*
%TO.C,J8*%
X95631000Y-48768000D03*
D14*
X95631000Y-51308000D03*
%TD*%
D17*
%TO.C,BT3*%
X78459000Y-88589600D03*
X78459000Y-49589600D03*
%TD*%
D13*
%TO.C,SW2*%
X26840900Y-97782500D03*
D14*
X26840900Y-100322500D03*
X26840900Y-102862500D03*
%TD*%
D17*
%TO.C,BT2*%
X58955000Y-49586400D03*
X58955000Y-88586400D03*
%TD*%
D15*
%TO.C,U3*%
X78090000Y-129750000D03*
X78090000Y-132290000D03*
X78090000Y-134830000D03*
X78090000Y-137370000D03*
X78090000Y-139910000D03*
X78090000Y-142450000D03*
%TD*%
D19*
%TO.C,U7*%
X32800900Y-108827500D03*
D20*
X35340900Y-108827500D03*
X37880900Y-108827500D03*
%TD*%
D13*
%TO.C,J2*%
X61850000Y-137300000D03*
D14*
X59310000Y-137300000D03*
X56770000Y-137300000D03*
X54230000Y-137300000D03*
X51690000Y-137300000D03*
X49150000Y-137300000D03*
%TD*%
D18*
%TO.C,H2*%
X27800000Y-141500000D03*
%TD*%
%TO.C,H1*%
X27800000Y-49900000D03*
%TD*%
%TO.C,H4*%
X119600000Y-141500000D03*
%TD*%
D13*
%TO.C,J3*%
X64440000Y-143700000D03*
D14*
X61900000Y-143700000D03*
X59360000Y-143700000D03*
X56820000Y-143700000D03*
X54280000Y-143700000D03*
X51740000Y-143700000D03*
%TD*%
D13*
%TO.C,J5*%
X27100000Y-86260000D03*
D14*
X27100000Y-83720000D03*
X27100000Y-81180000D03*
X27100000Y-78640000D03*
X27100000Y-76100000D03*
X27100000Y-73560000D03*
%TD*%
D21*
%TO.C,Q2*%
X31115000Y-101346000D03*
D22*
X31115000Y-99060000D03*
X31115000Y-96774000D03*
%TD*%
D23*
%TO.C,R7*%
X117700000Y-70080000D03*
X115875000Y-70080000D03*
%TD*%
D24*
%TO.C,C1*%
X38800000Y-123562500D03*
X38800000Y-121837500D03*
%TD*%
D25*
%TO.C,C16*%
X37003400Y-112482500D03*
X35278400Y-112482500D03*
%TD*%
%TO.C,C6*%
X55903400Y-96382500D03*
X54178400Y-96382500D03*
%TD*%
D26*
%TO.C,U1*%
X31175000Y-125605000D03*
X31175000Y-124335000D03*
X31175000Y-123065000D03*
X31175000Y-121795000D03*
X36425000Y-121795000D03*
X36425000Y-123065000D03*
X36425000Y-124335000D03*
X36425000Y-125605000D03*
%TD*%
D23*
%TO.C,R8*%
X117700000Y-66980000D03*
X115875000Y-66980000D03*
%TD*%
D27*
%TO.C,C14*%
X58400000Y-106037500D03*
X58400000Y-107762500D03*
%TD*%
D28*
%TO.C,U10*%
X41240900Y-117282500D03*
X40290900Y-117282500D03*
X39340900Y-117282500D03*
X39340900Y-114582500D03*
X41240900Y-114582500D03*
%TD*%
D29*
%TO.C,R11*%
X104787500Y-75680000D03*
X106612500Y-75680000D03*
%TD*%
D30*
%TO.C,C8*%
X66943400Y-95657500D03*
X68668400Y-95657500D03*
%TD*%
D29*
%TO.C,R10*%
X104787500Y-78580000D03*
X106612500Y-78580000D03*
%TD*%
%TO.C,R12*%
X104787500Y-72680000D03*
X106612500Y-72680000D03*
%TD*%
D31*
%TO.C,R29*%
X40440900Y-99395000D03*
X40440900Y-97570000D03*
%TD*%
D28*
%TO.C,U8*%
X30440900Y-112182500D03*
X31390900Y-112182500D03*
X32340900Y-112182500D03*
X32340900Y-114882500D03*
X31390900Y-114882500D03*
X30440900Y-114882500D03*
%TD*%
D29*
%TO.C,R13*%
X104787500Y-69780000D03*
X106612500Y-69780000D03*
%TD*%
D23*
%TO.C,R26*%
X101212500Y-97300000D03*
X99387500Y-97300000D03*
%TD*%
%TO.C,R27*%
X101212500Y-100200000D03*
X99387500Y-100200000D03*
%TD*%
D32*
%TO.C,R22*%
X109600000Y-96087500D03*
X109600000Y-97912500D03*
%TD*%
D29*
%TO.C,R21*%
X104787500Y-63780000D03*
X106612500Y-63780000D03*
%TD*%
D30*
%TO.C,C5*%
X54178400Y-92082500D03*
X55903400Y-92082500D03*
%TD*%
D27*
%TO.C,C4*%
X61300000Y-105937500D03*
X61300000Y-107662500D03*
%TD*%
D32*
%TO.C,R30*%
X34140900Y-94070000D03*
X34140900Y-95895000D03*
%TD*%
D23*
%TO.C,R17*%
X117700000Y-57480000D03*
X115875000Y-57480000D03*
%TD*%
D28*
%TO.C,U9*%
X37190900Y-117232500D03*
X36240900Y-117232500D03*
X35290900Y-117232500D03*
X35290900Y-114532500D03*
X37190900Y-114532500D03*
%TD*%
D33*
%TO.C,U5*%
X75575000Y-106950000D03*
X75575000Y-107450000D03*
X75575000Y-107950000D03*
X75575000Y-108450000D03*
X75575000Y-108950000D03*
X75575000Y-109450000D03*
X75575000Y-109950000D03*
X75575000Y-110450000D03*
X75575000Y-110950000D03*
X75575000Y-111450000D03*
X75575000Y-111950000D03*
X75575000Y-112450000D03*
X75575000Y-112950000D03*
X75575000Y-113450000D03*
X75575000Y-113950000D03*
X75575000Y-114450000D03*
D34*
X73650000Y-116375000D03*
X73150000Y-116375000D03*
X72650000Y-116375000D03*
X72150000Y-116375000D03*
X71650000Y-116375000D03*
X71150000Y-116375000D03*
X70650000Y-116375000D03*
X70150000Y-116375000D03*
X69650000Y-116375000D03*
X69150000Y-116375000D03*
X68650000Y-116375000D03*
X68150000Y-116375000D03*
X67650000Y-116375000D03*
X67150000Y-116375000D03*
X66650000Y-116375000D03*
X66150000Y-116375000D03*
D33*
X64225000Y-114450000D03*
X64225000Y-113950000D03*
X64225000Y-113450000D03*
X64225000Y-112950000D03*
X64225000Y-112450000D03*
X64225000Y-111950000D03*
X64225000Y-111450000D03*
X64225000Y-110950000D03*
X64225000Y-110450000D03*
X64225000Y-109950000D03*
X64225000Y-109450000D03*
X64225000Y-108950000D03*
X64225000Y-108450000D03*
X64225000Y-107950000D03*
X64225000Y-107450000D03*
X64225000Y-106950000D03*
D34*
X66150000Y-105025000D03*
X66650000Y-105025000D03*
X67150000Y-105025000D03*
X67650000Y-105025000D03*
X68150000Y-105025000D03*
X68650000Y-105025000D03*
X69150000Y-105025000D03*
X69650000Y-105025000D03*
X70150000Y-105025000D03*
X70650000Y-105025000D03*
X71150000Y-105025000D03*
X71650000Y-105025000D03*
X72150000Y-105025000D03*
X72650000Y-105025000D03*
X73150000Y-105025000D03*
X73650000Y-105025000D03*
%TD*%
D29*
%TO.C,R20*%
X104787500Y-60880000D03*
X106612500Y-60880000D03*
%TD*%
D25*
%TO.C,C19*%
X31503400Y-118082500D03*
X29778400Y-118082500D03*
%TD*%
D35*
%TO.C,Q3*%
X36690900Y-98207500D03*
X38590900Y-98207500D03*
X37640900Y-100082500D03*
%TD*%
D25*
%TO.C,C7*%
X68730900Y-91557500D03*
X67005900Y-91557500D03*
%TD*%
D30*
%TO.C,C17*%
X76737500Y-101200000D03*
X78462500Y-101200000D03*
%TD*%
%TO.C,C9*%
X65037500Y-119700000D03*
X66762500Y-119700000D03*
%TD*%
D25*
%TO.C,C15*%
X41103400Y-112382500D03*
X39378400Y-112382500D03*
%TD*%
D30*
%TO.C,C12*%
X73037500Y-119400000D03*
X74762500Y-119400000D03*
%TD*%
D23*
%TO.C,R9*%
X117700000Y-60480000D03*
X115875000Y-60480000D03*
%TD*%
%TO.C,R23*%
X101212500Y-88600000D03*
X99387500Y-88600000D03*
%TD*%
D30*
%TO.C,C13*%
X79037500Y-106200000D03*
X80762500Y-106200000D03*
%TD*%
D24*
%TO.C,C3*%
X78500000Y-113262500D03*
X78500000Y-111537500D03*
%TD*%
D25*
%TO.C,C11*%
X62862500Y-116600000D03*
X61137500Y-116600000D03*
%TD*%
D30*
%TO.C,C10*%
X76737500Y-104100000D03*
X78462500Y-104100000D03*
%TD*%
D29*
%TO.C,R18*%
X104787500Y-54780000D03*
X106612500Y-54780000D03*
%TD*%
D23*
%TO.C,R5*%
X80712500Y-109300000D03*
X78887500Y-109300000D03*
%TD*%
%TO.C,R6*%
X117700000Y-73280000D03*
X115875000Y-73280000D03*
%TD*%
D29*
%TO.C,R14*%
X115875000Y-63680000D03*
X117700000Y-63680000D03*
%TD*%
D23*
%TO.C,R24*%
X101212500Y-91500000D03*
X99387500Y-91500000D03*
%TD*%
%TO.C,R25*%
X101212500Y-94400000D03*
X99387500Y-94400000D03*
%TD*%
%TO.C,R16*%
X117700000Y-54380000D03*
X115875000Y-54380000D03*
%TD*%
D29*
%TO.C,R15*%
X104787500Y-66580000D03*
X106612500Y-66580000D03*
%TD*%
%TO.C,R19*%
X104787500Y-57780000D03*
X106612500Y-57780000D03*
%TD*%
%LPD*%
M02*
