%TF.GenerationSoftware,KiCad,Pcbnew,7.0.9*%
%TF.CreationDate,2024-04-16T11:52:51+09:00*%
%TF.ProjectId,balloon,62616c6c-6f6f-46e2-9e6b-696361645f70,rev?*%
%TF.SameCoordinates,Original*%
%TF.FileFunction,Soldermask,Top*%
%TF.FilePolarity,Negative*%
%FSLAX46Y46*%
G04 Gerber Fmt 4.6, Leading zero omitted, Abs format (unit mm)*
G04 Created by KiCad (PCBNEW 7.0.9) date 2024-04-16 11:52:51*
%MOMM*%
%LPD*%
G01*
G04 APERTURE LIST*
G04 Aperture macros list*
%AMRoundRect*
0 Rectangle with rounded corners*
0 $1 Rounding radius*
0 $2 $3 $4 $5 $6 $7 $8 $9 X,Y pos of 4 corners*
0 Add a 4 corners polygon primitive as box body*
4,1,4,$2,$3,$4,$5,$6,$7,$8,$9,$2,$3,0*
0 Add four circle primitives for the rounded corners*
1,1,$1+$1,$2,$3*
1,1,$1+$1,$4,$5*
1,1,$1+$1,$6,$7*
1,1,$1+$1,$8,$9*
0 Add four rect primitives between the rounded corners*
20,1,$1+$1,$2,$3,$4,$5,0*
20,1,$1+$1,$4,$5,$6,$7,0*
20,1,$1+$1,$6,$7,$8,$9,0*
20,1,$1+$1,$8,$9,$2,$3,0*%
G04 Aperture macros list end*
%ADD10C,3.200000*%
%ADD11R,1.700000X1.700000*%
%ADD12O,1.700000X1.700000*%
%ADD13C,2.000000*%
%ADD14RoundRect,0.237500X0.287500X0.237500X-0.287500X0.237500X-0.287500X-0.237500X0.287500X-0.237500X0*%
%ADD15C,1.000000*%
%ADD16R,1.200000X0.700000*%
%ADD17R,0.800000X1.000000*%
%ADD18R,1.200000X1.000000*%
%ADD19R,2.800000X1.000000*%
%ADD20R,1.900000X1.300000*%
%ADD21RoundRect,0.150000X0.587500X0.150000X-0.587500X0.150000X-0.587500X-0.150000X0.587500X-0.150000X0*%
%ADD22C,2.500000*%
%ADD23RoundRect,0.237500X-0.250000X-0.237500X0.250000X-0.237500X0.250000X0.237500X-0.250000X0.237500X0*%
%ADD24RoundRect,0.250000X0.650000X-1.500000X0.650000X1.500000X-0.650000X1.500000X-0.650000X-1.500000X0*%
%ADD25RoundRect,0.237500X0.300000X0.237500X-0.300000X0.237500X-0.300000X-0.237500X0.300000X-0.237500X0*%
%ADD26RoundRect,0.237500X0.237500X-0.250000X0.237500X0.250000X-0.237500X0.250000X-0.237500X-0.250000X0*%
%ADD27R,1.600000X0.850000*%
%ADD28RoundRect,0.075000X-0.075000X0.700000X-0.075000X-0.700000X0.075000X-0.700000X0.075000X0.700000X0*%
%ADD29RoundRect,0.075000X-0.700000X0.075000X-0.700000X-0.075000X0.700000X-0.075000X0.700000X0.075000X0*%
%ADD30R,1.905000X2.000000*%
%ADD31O,1.905000X2.000000*%
%ADD32RoundRect,0.237500X0.237500X-0.300000X0.237500X0.300000X-0.237500X0.300000X-0.237500X-0.300000X0*%
%ADD33RoundRect,0.237500X-0.300000X-0.237500X0.300000X-0.237500X0.300000X0.237500X-0.300000X0.237500X0*%
%ADD34RoundRect,0.237500X-0.237500X0.300000X-0.237500X-0.300000X0.237500X-0.300000X0.237500X0.300000X0*%
%ADD35RoundRect,0.237500X-0.237500X0.250000X-0.237500X-0.250000X0.237500X-0.250000X0.237500X0.250000X0*%
%ADD36R,1.380000X0.450000*%
%ADD37R,1.300000X1.650000*%
%ADD38R,1.550000X1.425000*%
%ADD39R,1.900000X1.800000*%
%ADD40R,1.900000X1.000000*%
%ADD41C,3.302000*%
%ADD42R,1.800000X1.714500*%
%ADD43O,1.800000X1.714500*%
G04 APERTURE END LIST*
D10*
%TO.C,H3*%
X119600000Y-50000000D03*
%TD*%
%TO.C,H2*%
X27800000Y-141500000D03*
%TD*%
%TO.C,H1*%
X27800000Y-49900000D03*
%TD*%
D11*
%TO.C,J7*%
X45640000Y-143700000D03*
D12*
X43100000Y-143700000D03*
X40560000Y-143700000D03*
X38020000Y-143700000D03*
X35480000Y-143700000D03*
X32940000Y-143700000D03*
%TD*%
D13*
%TO.C,SW1*%
X28752800Y-131978400D03*
X35252800Y-131978400D03*
X28752800Y-136478400D03*
X35252800Y-136478400D03*
%TD*%
D14*
%TO.C,D3*%
X34840900Y-128482500D03*
X33090900Y-128482500D03*
%TD*%
D15*
%TO.C,Y2*%
X64040900Y-94632500D03*
X64040900Y-92732500D03*
%TD*%
D16*
%TO.C,J6*%
X101275000Y-90225000D03*
X101275000Y-91325000D03*
X101275000Y-92425000D03*
X101275000Y-93525000D03*
X101275000Y-94625000D03*
X101275000Y-95725000D03*
X101275000Y-96825000D03*
X101275000Y-97925000D03*
X101275000Y-98875000D03*
D17*
X111775000Y-99825000D03*
D18*
X105575000Y-99825000D03*
D19*
X115925000Y-99825000D03*
D18*
X101275000Y-88675000D03*
D20*
X116375000Y-86325000D03*
%TD*%
D15*
%TO.C,Y1*%
X59090900Y-94632500D03*
X59090900Y-92732500D03*
%TD*%
D21*
%TO.C,Q1*%
X38615900Y-95532500D03*
X38615900Y-93632500D03*
X36740900Y-94582500D03*
%TD*%
D22*
%TO.C,BT1*%
X39266800Y-88589600D03*
X39266800Y-49589600D03*
%TD*%
D23*
%TO.C,FB3*%
X95352500Y-92990000D03*
X97177500Y-92990000D03*
%TD*%
D24*
%TO.C,D5*%
X44340900Y-99582500D03*
X44340900Y-94582500D03*
%TD*%
D22*
%TO.C,U4*%
X86805600Y-67134400D03*
X86805600Y-70944400D03*
X86805600Y-74754400D03*
X86805600Y-78564400D03*
X94425600Y-78564400D03*
X94425600Y-74754400D03*
X94425600Y-70944400D03*
X94425600Y-67134400D03*
%TD*%
D15*
%TO.C,U6*%
X100650000Y-65180000D03*
X100650000Y-66450000D03*
X100650000Y-67720000D03*
X100650000Y-68990000D03*
X100650000Y-70260000D03*
X100650000Y-71530000D03*
X100650000Y-72800000D03*
X100650000Y-74070000D03*
X100650000Y-75340000D03*
X100650000Y-76610000D03*
X100650000Y-77880000D03*
X100650000Y-79150000D03*
X100650000Y-80420000D03*
X119700000Y-80420000D03*
X119700000Y-79150000D03*
X119700000Y-77880000D03*
X119700000Y-76610000D03*
X119700000Y-75340000D03*
X119700000Y-74070000D03*
X119700000Y-72800000D03*
X119700000Y-71530000D03*
X119700000Y-70260000D03*
X119700000Y-68990000D03*
X119700000Y-67720000D03*
X119700000Y-66450000D03*
X119700000Y-65180000D03*
%TD*%
D25*
%TO.C,C18*%
X37040900Y-117382500D03*
X35315900Y-117382500D03*
%TD*%
D26*
%TO.C,R1*%
X81140900Y-95795000D03*
X81140900Y-93970000D03*
%TD*%
D11*
%TO.C,J4*%
X33629600Y-140004800D03*
D12*
X36169600Y-140004800D03*
%TD*%
D23*
%TO.C,R4*%
X39228400Y-134682500D03*
X41053400Y-134682500D03*
%TD*%
D25*
%TO.C,C14*%
X66003400Y-120882500D03*
X64278400Y-120882500D03*
%TD*%
D23*
%TO.C,R32*%
X37003400Y-125282500D03*
X38828400Y-125282500D03*
%TD*%
%TO.C,R31*%
X36953400Y-128482500D03*
X38778400Y-128482500D03*
%TD*%
D27*
%TO.C,D2*%
X42940900Y-126282500D03*
X42940900Y-128032500D03*
X46440900Y-128032500D03*
X46440900Y-126282500D03*
%TD*%
D23*
%TO.C,FB5*%
X95352500Y-98560000D03*
X97177500Y-98560000D03*
%TD*%
D25*
%TO.C,C4*%
X66103400Y-117982500D03*
X64378400Y-117982500D03*
%TD*%
D27*
%TO.C,D1*%
X50090900Y-126307500D03*
X50090900Y-128057500D03*
X53590900Y-128057500D03*
X53590900Y-126307500D03*
%TD*%
D22*
%TO.C,BT3*%
X76046000Y-88589600D03*
X76046000Y-49589600D03*
%TD*%
D23*
%TO.C,FB1*%
X95352500Y-87970000D03*
X97177500Y-87970000D03*
%TD*%
D11*
%TO.C,SW2*%
X26840900Y-97782500D03*
D12*
X26840900Y-100322500D03*
X26840900Y-102862500D03*
%TD*%
D23*
%TO.C,FB6*%
X95352500Y-101070000D03*
X97177500Y-101070000D03*
%TD*%
D22*
%TO.C,BT2*%
X57608800Y-49586400D03*
X57608800Y-88586400D03*
%TD*%
D13*
%TO.C,U3*%
X68326000Y-140970000D03*
X68326000Y-138430000D03*
X68326000Y-135890000D03*
X68326000Y-133350000D03*
X68326000Y-130810000D03*
X68326000Y-128270000D03*
%TD*%
D28*
%TO.C,U5*%
X65090900Y-103707500D03*
X64590900Y-103707500D03*
X64090900Y-103707500D03*
X63590900Y-103707500D03*
X63090900Y-103707500D03*
X62590900Y-103707500D03*
X62090900Y-103707500D03*
X61590900Y-103707500D03*
X61090900Y-103707500D03*
X60590900Y-103707500D03*
X60090900Y-103707500D03*
X59590900Y-103707500D03*
X59090900Y-103707500D03*
X58590900Y-103707500D03*
X58090900Y-103707500D03*
X57590900Y-103707500D03*
D29*
X55665900Y-105632500D03*
X55665900Y-106132500D03*
X55665900Y-106632500D03*
X55665900Y-107132500D03*
X55665900Y-107632500D03*
X55665900Y-108132500D03*
X55665900Y-108632500D03*
X55665900Y-109132500D03*
X55665900Y-109632500D03*
X55665900Y-110132500D03*
X55665900Y-110632500D03*
X55665900Y-111132500D03*
X55665900Y-111632500D03*
X55665900Y-112132500D03*
X55665900Y-112632500D03*
X55665900Y-113132500D03*
D28*
X57590900Y-115057500D03*
X58090900Y-115057500D03*
X58590900Y-115057500D03*
X59090900Y-115057500D03*
X59590900Y-115057500D03*
X60090900Y-115057500D03*
X60590900Y-115057500D03*
X61090900Y-115057500D03*
X61590900Y-115057500D03*
X62090900Y-115057500D03*
X62590900Y-115057500D03*
X63090900Y-115057500D03*
X63590900Y-115057500D03*
X64090900Y-115057500D03*
X64590900Y-115057500D03*
X65090900Y-115057500D03*
D29*
X67015900Y-113132500D03*
X67015900Y-112632500D03*
X67015900Y-112132500D03*
X67015900Y-111632500D03*
X67015900Y-111132500D03*
X67015900Y-110632500D03*
X67015900Y-110132500D03*
X67015900Y-109632500D03*
X67015900Y-109132500D03*
X67015900Y-108632500D03*
X67015900Y-108132500D03*
X67015900Y-107632500D03*
X67015900Y-107132500D03*
X67015900Y-106632500D03*
X67015900Y-106132500D03*
X67015900Y-105632500D03*
%TD*%
D23*
%TO.C,FB4*%
X95352500Y-95500000D03*
X97177500Y-95500000D03*
%TD*%
D30*
%TO.C,U7*%
X32800900Y-108827500D03*
D31*
X35340900Y-108827500D03*
X37880900Y-108827500D03*
%TD*%
D11*
%TO.C,J2*%
X61850000Y-137300000D03*
D12*
X59310000Y-137300000D03*
X56770000Y-137300000D03*
X54230000Y-137300000D03*
X51690000Y-137300000D03*
X49150000Y-137300000D03*
%TD*%
D32*
%TO.C,C17*%
X70840900Y-102545000D03*
X70840900Y-100820000D03*
%TD*%
D23*
%TO.C,R33*%
X31515900Y-113282500D03*
X33340900Y-113282500D03*
%TD*%
D32*
%TO.C,C9*%
X52340900Y-114245000D03*
X52340900Y-112520000D03*
%TD*%
D33*
%TO.C,C2*%
X51137500Y-132000000D03*
X52862500Y-132000000D03*
%TD*%
D25*
%TO.C,C20*%
X37040900Y-112362500D03*
X35315900Y-112362500D03*
%TD*%
D14*
%TO.C,D4*%
X34890900Y-125282500D03*
X33140900Y-125282500D03*
%TD*%
D32*
%TO.C,C12*%
X52640900Y-106245000D03*
X52640900Y-104520000D03*
%TD*%
%TO.C,C13*%
X65840900Y-100245000D03*
X65840900Y-98520000D03*
%TD*%
D11*
%TO.C,J3*%
X64440000Y-143700000D03*
D12*
X61900000Y-143700000D03*
X59360000Y-143700000D03*
X56820000Y-143700000D03*
X54280000Y-143700000D03*
X51740000Y-143700000D03*
%TD*%
D33*
%TO.C,C3*%
X58778400Y-100782500D03*
X60503400Y-100782500D03*
%TD*%
D34*
%TO.C,C11*%
X55440900Y-116420000D03*
X55440900Y-118145000D03*
%TD*%
D32*
%TO.C,C10*%
X67940900Y-102545000D03*
X67940900Y-100820000D03*
%TD*%
D35*
%TO.C,R5*%
X62740900Y-98570000D03*
X62740900Y-100395000D03*
%TD*%
D26*
%TO.C,R3*%
X38760400Y-139092300D03*
X38760400Y-140917300D03*
%TD*%
D36*
%TO.C,J1*%
X28187000Y-123995000D03*
X28187000Y-124645000D03*
X28187000Y-125295000D03*
X28187000Y-125945000D03*
X28187000Y-126595000D03*
D37*
X25527000Y-121920000D03*
D38*
X28102000Y-122807500D03*
D39*
X25527000Y-124145000D03*
D40*
X25527000Y-126845000D03*
D38*
X28102000Y-127782500D03*
D37*
X25527000Y-128670000D03*
%TD*%
D23*
%TO.C,FB2*%
X95352500Y-90480000D03*
X97177500Y-90480000D03*
%TD*%
D41*
%TO.C,U2*%
X119517525Y-105940900D03*
X83957525Y-105940900D03*
X119517525Y-141500900D03*
X83957525Y-141500900D03*
D13*
X82696000Y-114840000D03*
X82696000Y-117380000D03*
X82696000Y-119920000D03*
X82696000Y-122460000D03*
X82696000Y-125000000D03*
X82696000Y-127540000D03*
X82696000Y-130080000D03*
X82696000Y-132620000D03*
X120796000Y-130080000D03*
X120796000Y-127540000D03*
X120796000Y-125000000D03*
X120796000Y-122460000D03*
X120796000Y-119920000D03*
X120796000Y-117380000D03*
%TD*%
D11*
%TO.C,J5*%
X27100000Y-86260000D03*
D12*
X27100000Y-83720000D03*
X27100000Y-81180000D03*
X27100000Y-78640000D03*
X27100000Y-76100000D03*
X27100000Y-73560000D03*
%TD*%
D35*
%TO.C,R28*%
X33340900Y-94070000D03*
X33340900Y-95895000D03*
%TD*%
D42*
%TO.C,Q2*%
X32340900Y-103168500D03*
D43*
X32340900Y-100882500D03*
X32340900Y-98596500D03*
%TD*%
D26*
%TO.C,R2*%
X77840900Y-95795000D03*
X77840900Y-93970000D03*
%TD*%
D23*
%TO.C,R34*%
X31515900Y-115792500D03*
X33340900Y-115792500D03*
%TD*%
M02*
