%TF.GenerationSoftware,KiCad,Pcbnew,7.0.9*%
%TF.CreationDate,2024-04-16T11:52:51+09:00*%
%TF.ProjectId,balloon,62616c6c-6f6f-46e2-9e6b-696361645f70,rev?*%
%TF.SameCoordinates,Original*%
%TF.FileFunction,Soldermask,Bot*%
%TF.FilePolarity,Negative*%
%FSLAX46Y46*%
G04 Gerber Fmt 4.6, Leading zero omitted, Abs format (unit mm)*
G04 Created by KiCad (PCBNEW 7.0.9) date 2024-04-16 11:52:51*
%MOMM*%
%LPD*%
G01*
G04 APERTURE LIST*
G04 Aperture macros list*
%AMRoundRect*
0 Rectangle with rounded corners*
0 $1 Rounding radius*
0 $2 $3 $4 $5 $6 $7 $8 $9 X,Y pos of 4 corners*
0 Add a 4 corners polygon primitive as box body*
4,1,4,$2,$3,$4,$5,$6,$7,$8,$9,$2,$3,0*
0 Add four circle primitives for the rounded corners*
1,1,$1+$1,$2,$3*
1,1,$1+$1,$4,$5*
1,1,$1+$1,$6,$7*
1,1,$1+$1,$8,$9*
0 Add four rect primitives between the rounded corners*
20,1,$1+$1,$2,$3,$4,$5,0*
20,1,$1+$1,$4,$5,$6,$7,0*
20,1,$1+$1,$6,$7,$8,$9,0*
20,1,$1+$1,$8,$9,$2,$3,0*%
G04 Aperture macros list end*
%ADD10RoundRect,0.150000X-0.675000X-0.150000X0.675000X-0.150000X0.675000X0.150000X-0.675000X0.150000X0*%
%ADD11C,3.200000*%
%ADD12R,1.700000X1.700000*%
%ADD13O,1.700000X1.700000*%
%ADD14C,2.000000*%
%ADD15C,1.000000*%
%ADD16C,2.500000*%
%ADD17R,1.905000X2.000000*%
%ADD18O,1.905000X2.000000*%
%ADD19C,3.302000*%
%ADD20R,1.800000X1.714500*%
%ADD21O,1.800000X1.714500*%
%ADD22RoundRect,0.237500X-0.250000X-0.237500X0.250000X-0.237500X0.250000X0.237500X-0.250000X0.237500X0*%
%ADD23RoundRect,0.237500X0.237500X-0.300000X0.237500X0.300000X-0.237500X0.300000X-0.237500X-0.300000X0*%
%ADD24RoundRect,0.237500X0.300000X0.237500X-0.300000X0.237500X-0.300000X-0.237500X0.300000X-0.237500X0*%
%ADD25R,0.650000X1.560000*%
%ADD26RoundRect,0.237500X0.250000X0.237500X-0.250000X0.237500X-0.250000X-0.237500X0.250000X-0.237500X0*%
%ADD27RoundRect,0.237500X-0.300000X-0.237500X0.300000X-0.237500X0.300000X0.237500X-0.300000X0.237500X0*%
%ADD28RoundRect,0.237500X0.237500X-0.250000X0.237500X0.250000X-0.237500X0.250000X-0.237500X-0.250000X0*%
%ADD29RoundRect,0.237500X-0.237500X0.250000X-0.237500X-0.250000X0.237500X-0.250000X0.237500X0.250000X0*%
%ADD30RoundRect,0.150000X-0.150000X0.587500X-0.150000X-0.587500X0.150000X-0.587500X0.150000X0.587500X0*%
G04 APERTURE END LIST*
D10*
%TO.C,U1*%
X31175000Y-125605000D03*
X31175000Y-124335000D03*
X31175000Y-123065000D03*
X31175000Y-121795000D03*
X36425000Y-121795000D03*
X36425000Y-123065000D03*
X36425000Y-124335000D03*
X36425000Y-125605000D03*
%TD*%
D11*
%TO.C,H3*%
X119600000Y-50000000D03*
%TD*%
%TO.C,H2*%
X27800000Y-141500000D03*
%TD*%
%TO.C,H1*%
X27800000Y-49900000D03*
%TD*%
D12*
%TO.C,J7*%
X45640000Y-143700000D03*
D13*
X43100000Y-143700000D03*
X40560000Y-143700000D03*
X38020000Y-143700000D03*
X35480000Y-143700000D03*
X32940000Y-143700000D03*
%TD*%
D14*
%TO.C,SW1*%
X28752800Y-131978400D03*
X35252800Y-131978400D03*
X28752800Y-136478400D03*
X35252800Y-136478400D03*
%TD*%
D15*
%TO.C,Y2*%
X64040900Y-94632500D03*
X64040900Y-92732500D03*
%TD*%
%TO.C,Y1*%
X59090900Y-94632500D03*
X59090900Y-92732500D03*
%TD*%
D16*
%TO.C,BT1*%
X39266800Y-88589600D03*
X39266800Y-49589600D03*
%TD*%
%TO.C,U4*%
X86805600Y-67134400D03*
X86805600Y-70944400D03*
X86805600Y-74754400D03*
X86805600Y-78564400D03*
X94425600Y-78564400D03*
X94425600Y-74754400D03*
X94425600Y-70944400D03*
X94425600Y-67134400D03*
%TD*%
D15*
%TO.C,U6*%
X100650000Y-65180000D03*
X100650000Y-66450000D03*
X100650000Y-67720000D03*
X100650000Y-68990000D03*
X100650000Y-70260000D03*
X100650000Y-71530000D03*
X100650000Y-72800000D03*
X100650000Y-74070000D03*
X100650000Y-75340000D03*
X100650000Y-76610000D03*
X100650000Y-77880000D03*
X100650000Y-79150000D03*
X100650000Y-80420000D03*
X119700000Y-80420000D03*
X119700000Y-79150000D03*
X119700000Y-77880000D03*
X119700000Y-76610000D03*
X119700000Y-75340000D03*
X119700000Y-74070000D03*
X119700000Y-72800000D03*
X119700000Y-71530000D03*
X119700000Y-70260000D03*
X119700000Y-68990000D03*
X119700000Y-67720000D03*
X119700000Y-66450000D03*
X119700000Y-65180000D03*
%TD*%
D12*
%TO.C,J4*%
X33629600Y-140004800D03*
D13*
X36169600Y-140004800D03*
%TD*%
D16*
%TO.C,BT3*%
X76046000Y-88589600D03*
X76046000Y-49589600D03*
%TD*%
D12*
%TO.C,SW2*%
X26840900Y-97782500D03*
D13*
X26840900Y-100322500D03*
X26840900Y-102862500D03*
%TD*%
D16*
%TO.C,BT2*%
X57608800Y-49586400D03*
X57608800Y-88586400D03*
%TD*%
D14*
%TO.C,U3*%
X68326000Y-140970000D03*
X68326000Y-138430000D03*
X68326000Y-135890000D03*
X68326000Y-133350000D03*
X68326000Y-130810000D03*
X68326000Y-128270000D03*
%TD*%
D17*
%TO.C,U7*%
X32800900Y-108827500D03*
D18*
X35340900Y-108827500D03*
X37880900Y-108827500D03*
%TD*%
D12*
%TO.C,J2*%
X61850000Y-137300000D03*
D13*
X59310000Y-137300000D03*
X56770000Y-137300000D03*
X54230000Y-137300000D03*
X51690000Y-137300000D03*
X49150000Y-137300000D03*
%TD*%
D12*
%TO.C,J3*%
X64440000Y-143700000D03*
D13*
X61900000Y-143700000D03*
X59360000Y-143700000D03*
X56820000Y-143700000D03*
X54280000Y-143700000D03*
X51740000Y-143700000D03*
%TD*%
D19*
%TO.C,U2*%
X119517525Y-105940900D03*
X83957525Y-105940900D03*
X119517525Y-141500900D03*
X83957525Y-141500900D03*
D14*
X82696000Y-114840000D03*
X82696000Y-117380000D03*
X82696000Y-119920000D03*
X82696000Y-122460000D03*
X82696000Y-125000000D03*
X82696000Y-127540000D03*
X82696000Y-130080000D03*
X82696000Y-132620000D03*
X120796000Y-130080000D03*
X120796000Y-127540000D03*
X120796000Y-125000000D03*
X120796000Y-122460000D03*
X120796000Y-119920000D03*
X120796000Y-117380000D03*
%TD*%
D12*
%TO.C,J5*%
X27100000Y-86260000D03*
D13*
X27100000Y-83720000D03*
X27100000Y-81180000D03*
X27100000Y-78640000D03*
X27100000Y-76100000D03*
X27100000Y-73560000D03*
%TD*%
D20*
%TO.C,Q2*%
X32340900Y-103168500D03*
D21*
X32340900Y-100882500D03*
X32340900Y-98596500D03*
%TD*%
D22*
%TO.C,R7*%
X103900000Y-64620000D03*
X105725000Y-64620000D03*
%TD*%
D23*
%TO.C,C1*%
X38800000Y-123562500D03*
X38800000Y-121837500D03*
%TD*%
D24*
%TO.C,C16*%
X37003400Y-112482500D03*
X35278400Y-112482500D03*
%TD*%
%TO.C,C6*%
X55903400Y-96382500D03*
X54178400Y-96382500D03*
%TD*%
D22*
%TO.C,R8*%
X103900000Y-67720000D03*
X105725000Y-67720000D03*
%TD*%
D25*
%TO.C,U10*%
X41240900Y-117282500D03*
X40290900Y-117282500D03*
X39340900Y-117282500D03*
X39340900Y-114582500D03*
X41240900Y-114582500D03*
%TD*%
D26*
%TO.C,R11*%
X116812500Y-59020000D03*
X114987500Y-59020000D03*
%TD*%
D27*
%TO.C,C8*%
X66943400Y-95657500D03*
X68668400Y-95657500D03*
%TD*%
D26*
%TO.C,R10*%
X116812500Y-56120000D03*
X114987500Y-56120000D03*
%TD*%
%TO.C,R12*%
X116812500Y-62020000D03*
X114987500Y-62020000D03*
%TD*%
D28*
%TO.C,R29*%
X40440900Y-99395000D03*
X40440900Y-97570000D03*
%TD*%
D25*
%TO.C,U8*%
X30440900Y-112182500D03*
X31390900Y-112182500D03*
X32340900Y-112182500D03*
X32340900Y-114882500D03*
X31390900Y-114882500D03*
X30440900Y-114882500D03*
%TD*%
D26*
%TO.C,R13*%
X116812500Y-64920000D03*
X114987500Y-64920000D03*
%TD*%
%TO.C,R26*%
X96377500Y-96670000D03*
X94552500Y-96670000D03*
%TD*%
%TO.C,R27*%
X96377500Y-99570000D03*
X94552500Y-99570000D03*
%TD*%
D29*
%TO.C,R22*%
X104765000Y-95457500D03*
X104765000Y-97282500D03*
%TD*%
D26*
%TO.C,R21*%
X116812500Y-70920000D03*
X114987500Y-70920000D03*
%TD*%
D27*
%TO.C,C5*%
X54178400Y-92082500D03*
X55903400Y-92082500D03*
%TD*%
D29*
%TO.C,R30*%
X34140900Y-94070000D03*
X34140900Y-95895000D03*
%TD*%
D22*
%TO.C,R17*%
X103900000Y-77220000D03*
X105725000Y-77220000D03*
%TD*%
D25*
%TO.C,U9*%
X37190900Y-117232500D03*
X36240900Y-117232500D03*
X35290900Y-117232500D03*
X35290900Y-114532500D03*
X37190900Y-114532500D03*
%TD*%
D26*
%TO.C,R20*%
X116812500Y-73820000D03*
X114987500Y-73820000D03*
%TD*%
D24*
%TO.C,C19*%
X31503400Y-118082500D03*
X29778400Y-118082500D03*
%TD*%
D30*
%TO.C,Q3*%
X36690900Y-98207500D03*
X38590900Y-98207500D03*
X37640900Y-100082500D03*
%TD*%
D24*
%TO.C,C7*%
X68730900Y-91557500D03*
X67005900Y-91557500D03*
%TD*%
%TO.C,C15*%
X41103400Y-112382500D03*
X39378400Y-112382500D03*
%TD*%
D22*
%TO.C,R9*%
X103900000Y-74220000D03*
X105725000Y-74220000D03*
%TD*%
D26*
%TO.C,R23*%
X96377500Y-87970000D03*
X94552500Y-87970000D03*
%TD*%
%TO.C,R18*%
X116812500Y-79920000D03*
X114987500Y-79920000D03*
%TD*%
D22*
%TO.C,R6*%
X103900000Y-61420000D03*
X105725000Y-61420000D03*
%TD*%
D26*
%TO.C,R14*%
X105725000Y-71020000D03*
X103900000Y-71020000D03*
%TD*%
%TO.C,R24*%
X96377500Y-90870000D03*
X94552500Y-90870000D03*
%TD*%
%TO.C,R25*%
X96377500Y-93770000D03*
X94552500Y-93770000D03*
%TD*%
D22*
%TO.C,R16*%
X103900000Y-80320000D03*
X105725000Y-80320000D03*
%TD*%
D26*
%TO.C,R15*%
X116812500Y-68120000D03*
X114987500Y-68120000D03*
%TD*%
%TO.C,R19*%
X116812500Y-76920000D03*
X114987500Y-76920000D03*
%TD*%
M02*
