M48
; DRILL file {KiCad 7.0.9} date Tue Apr 16 11:52:51 2024
; FORMAT={-:-/ absolute / inch / decimal}
; #@! TF.CreationDate,2024-04-16T11:52:51+09:00
; #@! TF.GenerationSoftware,Kicad,Pcbnew,7.0.9
; #@! TF.FileFunction,Plated,1,2,PTH
FMAT,2
INCH
; #@! TA.AperFunction,Plated,PTH,ViaDrill
T1C0.0157
; #@! TA.AperFunction,Plated,PTH,ComponentDrill
T2C0.0197
; #@! TA.AperFunction,Plated,PTH,ComponentDrill
T3C0.0276
; #@! TA.AperFunction,Plated,PTH,ComponentDrill
T4C0.0394
; #@! TA.AperFunction,Plated,PTH,ComponentDrill
T5C0.0433
; #@! TA.AperFunction,Plated,PTH,ComponentDrill
T6C0.0472
; #@! TA.AperFunction,Plated,PTH,ComponentDrill
T7C0.0591
%
G90
G05
T1
X1.0039Y-4.7008
X1.0079Y-5.1535
X1.0276Y-4.4606
X1.0354Y-4.5906
X1.0354Y-5.3504
X1.0591Y-4.1693
X1.0591Y-4.3583
X1.1024Y-5.2795
X1.1063Y-5.1181
X1.1299Y-4.7559
X1.1417Y-4.0039
X1.1417Y-4.252
X1.1496Y-3.0118
X1.1535Y-3.189
X1.1575Y-2.8425
X1.1614Y-3.7598
X1.1634Y-4.8972
X1.1661Y-4.9411
X1.185Y-4.0
X1.185Y-5.0079
X1.2008Y-5.3228
X1.2047Y-5.2402
X1.2126Y-5.4291
X1.2196Y-4.738
X1.2323Y-2.9488
X1.2362Y-4.1811
X1.2402Y-3.1457
X1.2598Y-2.8504
X1.2598Y-3.5984
X1.2717Y-4.7402
X1.2756Y-5.4291
X1.2795Y-5.0039
X1.2835Y-5.1181
X1.2835Y-5.2441
X1.2835Y-5.3268
X1.3027Y-4.6073
X1.3269Y-4.4138
X1.3529Y-4.495
X1.3583Y-5.1181
X1.3661Y-4.0433
X1.3817Y-4.7725
X1.3858Y-4.4252
X1.4134Y-5.2835
X1.4252Y-3.9803
X1.4264Y-4.5529
X1.434Y-3.8114
X1.4488Y-3.5197
X1.4488Y-4.685
X1.4567Y-5.3307
X1.4606Y-4.1024
X1.4646Y-4.7559
X1.4646Y-5.122
X1.4724Y-3.185
X1.5157Y-3.4016
X1.5294Y-3.8088
X1.5512Y-4.5748
X1.5709Y-3.1496
X1.5748Y-3.9803
X1.5827Y-4.7559
X1.5827Y-5.2402
X1.5866Y-4.5079
X1.5984Y-4.2835
X1.622Y-4.7598
X1.626Y-5.2362
X1.6299Y-3.5236
X1.6339Y-5.5315
X1.6535Y-3.9646
X1.6575Y-4.378
X1.6614Y-5.3661
X1.6654Y-4.437
X1.6654Y-5.5315
X1.6818Y-3.8096
X1.6929Y-4.5551
X1.6969Y-3.5984
X1.6969Y-4.185
X1.7008Y-5.1535
X1.7323Y-4.0236
X1.7402Y-5.3701
X1.7441Y-5.2992
X1.7559Y-4.2717
X1.7565Y-3.5937
X1.7677Y-5.5315
X1.7717Y-3.4921
X1.7825Y-4.7173
X1.7835Y-4.3425
X1.7835Y-4.7717
X1.7865Y-4.1839
X1.8071Y-5.2323
X1.8184Y-3.5195
X1.8193Y-4.6256
X1.8425Y-3.4173
X1.8504Y-4.2717
X1.8622Y-3.9094
X1.8661Y-3.748
X1.8701Y-3.6299
X1.874Y-4.0236
X1.874Y-4.1339
X1.874Y-4.3465
X1.8858Y-4.7244
X1.9016Y-5.5276
X1.9094Y-3.5157
X1.9173Y-3.6378
X1.9215Y-3.6936
X1.937Y-4.9055
X1.937Y-5.315
X1.9449Y-5.5315
X1.9608Y-3.9921
X1.9685Y-3.8465
X1.9685Y-4.6457
X1.9724Y-3.2992
X1.9724Y-5.0984
X1.9764Y-3.9173
X1.9874Y-3.6995
X1.9961Y-4.3622
X1.9961Y-4.815
X2.0197Y-3.3898
X2.0339Y-4.3243
X2.0385Y-4.0504
X2.0551Y-3.5157
X2.0551Y-5.5433
X2.0569Y-4.8629
X2.0669Y-5.4961
X2.0787Y-5.1063
X2.0827Y-3.7323
X2.084Y-4.8931
X2.0866Y-4.7441
X2.0906Y-4.563
X2.0984Y-4.6417
X2.1021Y-4.3236
X2.1044Y-4.4335
X2.1181Y-3.878
X2.1181Y-3.9291
X2.1299Y-3.7008
X2.1344Y-4.3538
X2.1535Y-5.4921
X2.1575Y-3.4213
X2.1811Y-3.7402
X2.1824Y-5.0221
X2.1969Y-3.3819
X2.2008Y-5.5787
X2.2165Y-3.9213
X2.2205Y-3.878
X2.2256Y-4.0516
X2.2536Y-5.3238
X2.2559Y-5.2585
X2.2575Y-3.9692
X2.2601Y-4.3144
X2.264Y-4.2587
X2.2732Y-4.6031
X2.2782Y-4.4242
X2.2795Y-3.2913
X2.2953Y-5.4764
X2.315Y-4.2598
X2.3228Y-3.4173
X2.3228Y-3.7913
X2.3425Y-4.8543
X2.3425Y-4.9882
X2.3543Y-5.4803
X2.3583Y-3.3898
X2.3701Y-4.7402
X2.3721Y-3.7299
X2.3771Y-4.0119
X2.378Y-4.6378
X2.3793Y-4.9237
X2.3819Y-3.9685
X2.3923Y-4.8185
X2.3964Y-4.1468
X2.4027Y-4.2713
X2.4094Y-3.7913
X2.4181Y-4.1848
X2.4331Y-3.3031
X2.4364Y-4.4746
X2.437Y-5.4921
X2.4372Y-4.6558
X2.4394Y-4.7526
X2.4428Y-4.5852
X2.4488Y-5.185
X2.4488Y-5.311
X2.4528Y-3.7913
X2.453Y-4.3527
X2.4642Y-4.1407
X2.4655Y-4.2577
X2.4724Y-3.2598
X2.4764Y-4.9803
X2.4772Y-4.0053
X2.4803Y-4.6457
X2.4843Y-4.8622
X2.4846Y-4.8188
X2.4988Y-4.4091
X2.5039Y-5.5512
X2.5125Y-3.978
X2.5143Y-4.3312
X2.5157Y-4.2441
X2.5157Y-4.2874
X2.524Y-3.937
X2.5254Y-4.194
X2.5394Y-3.1732
X2.5451Y-5.3586
X2.5748Y-4.8543
X2.5787Y-4.3898
X2.5787Y-4.937
X2.5787Y-5.0551
X2.5827Y-3.8031
X2.5827Y-4.7126
X2.5834Y-4.2926
X2.5906Y-3.8701
X2.6024Y-3.6929
X2.6217Y-4.1236
X2.6378Y-4.4881
X2.6417Y-5.6496
X2.6496Y-4.6634
X2.6654Y-4.9724
X2.6656Y-3.8059
X2.6693Y-4.878
X2.6811Y-4.7087
X2.6823Y-3.689
X2.6929Y-4.3064
X2.7127Y-4.4397
X2.7165Y-4.563
X2.7249Y-4.0984
X2.7362Y-4.2598
X2.748Y-4.7756
X2.7534Y-4.186
X2.7559Y-3.5315
X2.7638Y-4.5236
X2.7638Y-4.5748
X2.7677Y-4.9764
X2.7717Y-4.811
X2.7795Y-5.5276
X2.7895Y-4.1185
X2.7913Y-3.811
X2.7953Y-3.7165
X2.8085Y-4.7154
X2.811Y-4.3425
X2.815Y-4.4843
X2.8268Y-2.752
X2.8376Y-3.6915
X2.8425Y-4.5748
X2.8465Y-4.126
X2.8564Y-4.7166
X2.8661Y-4.2835
X2.874Y-3.7402
X2.8819Y-3.815
X2.8904Y-4.2178
X2.8976Y-4.9843
X2.9055Y-5.0591
X2.9134Y-2.8307
X2.9134Y-4.5118
X2.9134Y-4.8189
X2.9166Y-4.0722
X2.937Y-3.7402
X2.937Y-5.5315
X2.9685Y-4.563
X2.9865Y-4.131
X3.0Y-5.6339
X3.0118Y-4.0276
X3.0827Y-3.9291
X3.1077Y-3.6962
X3.1106Y-3.6475
X3.1181Y-4.3189
X3.1732Y-4.374
X3.1732Y-4.7756
X3.1772Y-4.9803
X3.1811Y-5.2717
X3.185Y-4.2402
X3.1929Y-5.0748
X3.2402Y-3.8031
X3.248Y-4.3071
X3.252Y-2.3228
X3.2835Y-3.1654
X3.2953Y-3.2717
X3.2992Y-2.4134
X3.311Y-3.3937
X3.315Y-5.3228
X3.3228Y-3.7008
X3.3242Y-3.2109
X3.3346Y-5.0197
X3.3504Y-4.4134
X3.378Y-3.7047
X3.3819Y-5.1063
X3.4134Y-4.7795
X3.4213Y-4.1299
X3.4291Y-4.0354
X3.4449Y-5.2008
X3.4764Y-4.8701
X3.5118Y-3.9134
X3.5669Y-4.7717
X3.5748Y-3.4567
X3.5818Y-3.2571
X3.6036Y-3.6452
X3.6142Y-4.874
X3.626Y-4.126
X3.6299Y-3.2992
X3.6457Y-3.4567
X3.6513Y-4.03
X3.6535Y-3.9173
X3.6929Y-2.4134
X3.6929Y-3.2205
X3.7008Y-2.315
X3.7034Y-3.9681
X3.7034Y-3.7486
X3.7034Y-3.863
X3.7079Y-3.5173
X3.7205Y-4.7717
X3.7441Y-4.4606
X3.752Y-4.1339
X3.7605Y-3.61
X3.7677Y-4.8819
X3.7874Y-3.2795
X3.7992Y-3.1417
X3.8014Y-3.4105
X3.8268Y-4.126
X3.8378Y-3.6104
X3.8386Y-4.4961
X3.8543Y-4.7717
X3.8718Y-3.6745
X3.874Y-3.2795
X3.874Y-4.0433
X3.878Y-3.0236
X3.8898Y-3.4528
X3.9134Y-2.9843
X3.9252Y-3.2795
X3.9646Y-4.5276
X3.9685Y-4.0394
X3.9724Y-4.1299
X3.9764Y-2.4094
X4.0079Y-3.2126
X4.0118Y-3.2953
X4.0433Y-5.6378
X4.0551Y-4.0433
X4.0591Y-4.1339
X4.0709Y-3.4173
X4.0709Y-3.6693
X4.0748Y-3.2205
X4.0748Y-4.5551
X4.0827Y-3.2835
X4.1535Y-5.6929
X4.1693Y-3.2874
X4.1772Y-3.4528
X4.1811Y-3.2126
X4.2087Y-2.4764
X4.2165Y-2.3307
X4.2165Y-3.4882
X4.2283Y-3.2874
X4.2835Y-3.6535
X4.3071Y-3.2953
X4.311Y-3.5512
X4.3189Y-2.4488
X4.3504Y-3.8543
X4.3533Y-3.9385
X4.4449Y-3.8543
X4.4488Y-4.126
X4.4528Y-4.0354
X4.4646Y-4.7087
X4.4921Y-4.7756
X4.5079Y-4.878
X4.5157Y-3.2992
X4.5394Y-3.9961
X4.5394Y-4.1299
X4.5433Y-5.1614
X4.5472Y-3.7913
X4.5669Y-4.6378
X4.617Y-2.6257
X4.6293Y-2.2836
X4.6496Y-5.2362
X4.6772Y-2.3858
X4.689Y-3.5787
X4.6929Y-3.8228
X4.7047Y-3.2323
X4.7953Y-3.2283
X4.7953Y-3.8701
X4.7992Y-3.5748
X4.8071Y-2.5315
T2
X2.3264Y-3.6509
X2.3264Y-3.7257
X2.5213Y-3.6509
X2.5213Y-3.7257
T3
X3.9626Y-2.5661
X3.9626Y-2.6161
X3.9626Y-2.6661
X3.9626Y-2.7161
X3.9626Y-2.7661
X3.9626Y-2.8161
X3.9626Y-2.8661
X3.9626Y-2.9161
X3.9626Y-2.9661
X3.9626Y-3.0161
X3.9626Y-3.0661
X3.9626Y-3.1161
X3.9626Y-3.1661
X4.7126Y-2.5661
X4.7126Y-2.6161
X4.7126Y-2.6661
X4.7126Y-2.7161
X4.7126Y-2.7661
X4.7126Y-2.8161
X4.7126Y-2.8661
X4.7126Y-2.9161
X4.7126Y-2.9661
X4.7126Y-3.0161
X4.7126Y-3.0661
X4.7126Y-3.1161
X4.7126Y-3.1661
T4
X1.0567Y-3.8497
X1.0567Y-3.9497
X1.0567Y-4.0497
X1.0669Y-2.8961
X1.0669Y-2.9961
X1.0669Y-3.0961
X1.0669Y-3.1961
X1.0669Y-3.2961
X1.0669Y-3.3961
X1.2969Y-5.6575
X1.324Y-5.512
X1.3969Y-5.6575
X1.424Y-5.512
X1.4969Y-5.6575
X1.5969Y-5.6575
X1.6969Y-5.6575
X1.7969Y-5.6575
X1.935Y-5.4055
X2.035Y-5.4055
X2.037Y-5.6575
X2.135Y-5.4055
X2.137Y-5.6575
X2.235Y-5.4055
X2.237Y-5.6575
X2.335Y-5.4055
X2.337Y-5.6575
X2.435Y-5.4055
X2.437Y-5.6575
X2.537Y-5.6575
X2.69Y-5.05
X2.69Y-5.15
X2.69Y-5.25
X2.69Y-5.35
X2.69Y-5.45
X2.69Y-5.55
X3.2557Y-4.5213
X3.2557Y-4.6213
X3.2557Y-4.7213
X3.2557Y-4.8213
X3.2557Y-4.9213
X3.2557Y-5.0213
X3.2557Y-5.1213
X3.2557Y-5.2213
X4.7557Y-4.6213
X4.7557Y-4.7213
X4.7557Y-4.8213
X4.7557Y-4.9213
X4.7557Y-5.0213
X4.7557Y-5.1213
T5
X1.132Y-5.196
X1.132Y-5.3732
X1.2733Y-3.8818
X1.2733Y-3.9718
X1.2733Y-4.0618
X1.2914Y-4.2845
X1.3879Y-5.196
X1.3879Y-5.3732
X1.3914Y-4.2845
X1.4914Y-4.2845
T6
X3.4175Y-2.6431
X3.4175Y-2.7931
X3.4175Y-2.9431
X3.4175Y-3.0931
X3.7175Y-2.6431
X3.7175Y-2.7931
X3.7175Y-2.9431
X3.7175Y-3.0931
T7
X1.5459Y-1.9523
X1.5459Y-3.4878
X2.2681Y-1.9522
X2.2681Y-3.4877
X2.9939Y-1.9523
X2.9939Y-3.4878
T0
M30
