%TF.GenerationSoftware,KiCad,Pcbnew,7.0.6*%
%TF.CreationDate,2024-04-23T23:12:50+09:00*%
%TF.ProjectId,balloon,62616c6c-6f6f-46e2-9e6b-696361645f70,rev?*%
%TF.SameCoordinates,Original*%
%TF.FileFunction,Other,Comment*%
%FSLAX46Y46*%
G04 Gerber Fmt 4.6, Leading zero omitted, Abs format (unit mm)*
G04 Created by KiCad (PCBNEW 7.0.6) date 2024-04-23 23:12:50*
%MOMM*%
%LPD*%
G01*
G04 APERTURE LIST*
%ADD10C,0.090000*%
%ADD11C,0.060000*%
%ADD12C,0.100000*%
%ADD13C,0.150000*%
G04 APERTURE END LIST*
D10*
X114352858Y-99677891D02*
X114352858Y-99077891D01*
X114695715Y-99677891D02*
X114438572Y-99335034D01*
X114695715Y-99077891D02*
X114352858Y-99420748D01*
X114952858Y-99363605D02*
X115152858Y-99363605D01*
X115238572Y-99677891D02*
X114952858Y-99677891D01*
X114952858Y-99677891D02*
X114952858Y-99077891D01*
X114952858Y-99077891D02*
X115238572Y-99077891D01*
X115495715Y-99363605D02*
X115695715Y-99363605D01*
X115781429Y-99677891D02*
X115495715Y-99677891D01*
X115495715Y-99677891D02*
X115495715Y-99077891D01*
X115495715Y-99077891D02*
X115781429Y-99077891D01*
X116038572Y-99677891D02*
X116038572Y-99077891D01*
X116038572Y-99077891D02*
X116267143Y-99077891D01*
X116267143Y-99077891D02*
X116324286Y-99106462D01*
X116324286Y-99106462D02*
X116352857Y-99135034D01*
X116352857Y-99135034D02*
X116381429Y-99192177D01*
X116381429Y-99192177D02*
X116381429Y-99277891D01*
X116381429Y-99277891D02*
X116352857Y-99335034D01*
X116352857Y-99335034D02*
X116324286Y-99363605D01*
X116324286Y-99363605D02*
X116267143Y-99392177D01*
X116267143Y-99392177D02*
X116038572Y-99392177D01*
X116752857Y-99077891D02*
X116867143Y-99077891D01*
X116867143Y-99077891D02*
X116924286Y-99106462D01*
X116924286Y-99106462D02*
X116981429Y-99163605D01*
X116981429Y-99163605D02*
X117010000Y-99277891D01*
X117010000Y-99277891D02*
X117010000Y-99477891D01*
X117010000Y-99477891D02*
X116981429Y-99592177D01*
X116981429Y-99592177D02*
X116924286Y-99649320D01*
X116924286Y-99649320D02*
X116867143Y-99677891D01*
X116867143Y-99677891D02*
X116752857Y-99677891D01*
X116752857Y-99677891D02*
X116695715Y-99649320D01*
X116695715Y-99649320D02*
X116638572Y-99592177D01*
X116638572Y-99592177D02*
X116610000Y-99477891D01*
X116610000Y-99477891D02*
X116610000Y-99277891D01*
X116610000Y-99277891D02*
X116638572Y-99163605D01*
X116638572Y-99163605D02*
X116695715Y-99106462D01*
X116695715Y-99106462D02*
X116752857Y-99077891D01*
X117267143Y-99077891D02*
X117267143Y-99563605D01*
X117267143Y-99563605D02*
X117295714Y-99620748D01*
X117295714Y-99620748D02*
X117324286Y-99649320D01*
X117324286Y-99649320D02*
X117381428Y-99677891D01*
X117381428Y-99677891D02*
X117495714Y-99677891D01*
X117495714Y-99677891D02*
X117552857Y-99649320D01*
X117552857Y-99649320D02*
X117581428Y-99620748D01*
X117581428Y-99620748D02*
X117610000Y-99563605D01*
X117610000Y-99563605D02*
X117610000Y-99077891D01*
X117809999Y-99077891D02*
X118152857Y-99077891D01*
X117981428Y-99677891D02*
X117981428Y-99077891D01*
X108727858Y-100752891D02*
X108727858Y-100152891D01*
X109070715Y-100752891D02*
X108813572Y-100410034D01*
X109070715Y-100152891D02*
X108727858Y-100495748D01*
X109327858Y-100438605D02*
X109527858Y-100438605D01*
X109613572Y-100752891D02*
X109327858Y-100752891D01*
X109327858Y-100752891D02*
X109327858Y-100152891D01*
X109327858Y-100152891D02*
X109613572Y-100152891D01*
X109870715Y-100438605D02*
X110070715Y-100438605D01*
X110156429Y-100752891D02*
X109870715Y-100752891D01*
X109870715Y-100752891D02*
X109870715Y-100152891D01*
X109870715Y-100152891D02*
X110156429Y-100152891D01*
X110413572Y-100752891D02*
X110413572Y-100152891D01*
X110413572Y-100152891D02*
X110642143Y-100152891D01*
X110642143Y-100152891D02*
X110699286Y-100181462D01*
X110699286Y-100181462D02*
X110727857Y-100210034D01*
X110727857Y-100210034D02*
X110756429Y-100267177D01*
X110756429Y-100267177D02*
X110756429Y-100352891D01*
X110756429Y-100352891D02*
X110727857Y-100410034D01*
X110727857Y-100410034D02*
X110699286Y-100438605D01*
X110699286Y-100438605D02*
X110642143Y-100467177D01*
X110642143Y-100467177D02*
X110413572Y-100467177D01*
X111127857Y-100152891D02*
X111242143Y-100152891D01*
X111242143Y-100152891D02*
X111299286Y-100181462D01*
X111299286Y-100181462D02*
X111356429Y-100238605D01*
X111356429Y-100238605D02*
X111385000Y-100352891D01*
X111385000Y-100352891D02*
X111385000Y-100552891D01*
X111385000Y-100552891D02*
X111356429Y-100667177D01*
X111356429Y-100667177D02*
X111299286Y-100724320D01*
X111299286Y-100724320D02*
X111242143Y-100752891D01*
X111242143Y-100752891D02*
X111127857Y-100752891D01*
X111127857Y-100752891D02*
X111070715Y-100724320D01*
X111070715Y-100724320D02*
X111013572Y-100667177D01*
X111013572Y-100667177D02*
X110985000Y-100552891D01*
X110985000Y-100552891D02*
X110985000Y-100352891D01*
X110985000Y-100352891D02*
X111013572Y-100238605D01*
X111013572Y-100238605D02*
X111070715Y-100181462D01*
X111070715Y-100181462D02*
X111127857Y-100152891D01*
X111642143Y-100152891D02*
X111642143Y-100638605D01*
X111642143Y-100638605D02*
X111670714Y-100695748D01*
X111670714Y-100695748D02*
X111699286Y-100724320D01*
X111699286Y-100724320D02*
X111756428Y-100752891D01*
X111756428Y-100752891D02*
X111870714Y-100752891D01*
X111870714Y-100752891D02*
X111927857Y-100724320D01*
X111927857Y-100724320D02*
X111956428Y-100695748D01*
X111956428Y-100695748D02*
X111985000Y-100638605D01*
X111985000Y-100638605D02*
X111985000Y-100152891D01*
X112184999Y-100152891D02*
X112527857Y-100152891D01*
X112356428Y-100752891D02*
X112356428Y-100152891D01*
D11*
X121666927Y-90668095D02*
X121266927Y-90668095D01*
X121666927Y-90439524D02*
X121438356Y-90610953D01*
X121266927Y-90439524D02*
X121495499Y-90668095D01*
X121457403Y-90268095D02*
X121457403Y-90134762D01*
X121666927Y-90077619D02*
X121666927Y-90268095D01*
X121666927Y-90268095D02*
X121266927Y-90268095D01*
X121266927Y-90268095D02*
X121266927Y-90077619D01*
X121457403Y-89906190D02*
X121457403Y-89772857D01*
X121666927Y-89715714D02*
X121666927Y-89906190D01*
X121666927Y-89906190D02*
X121266927Y-89906190D01*
X121266927Y-89906190D02*
X121266927Y-89715714D01*
X121666927Y-89544285D02*
X121266927Y-89544285D01*
X121266927Y-89544285D02*
X121266927Y-89391904D01*
X121266927Y-89391904D02*
X121285975Y-89353809D01*
X121285975Y-89353809D02*
X121305022Y-89334762D01*
X121305022Y-89334762D02*
X121343118Y-89315714D01*
X121343118Y-89315714D02*
X121400260Y-89315714D01*
X121400260Y-89315714D02*
X121438356Y-89334762D01*
X121438356Y-89334762D02*
X121457403Y-89353809D01*
X121457403Y-89353809D02*
X121476451Y-89391904D01*
X121476451Y-89391904D02*
X121476451Y-89544285D01*
X121266927Y-89068095D02*
X121266927Y-88991904D01*
X121266927Y-88991904D02*
X121285975Y-88953809D01*
X121285975Y-88953809D02*
X121324070Y-88915714D01*
X121324070Y-88915714D02*
X121400260Y-88896666D01*
X121400260Y-88896666D02*
X121533594Y-88896666D01*
X121533594Y-88896666D02*
X121609784Y-88915714D01*
X121609784Y-88915714D02*
X121647880Y-88953809D01*
X121647880Y-88953809D02*
X121666927Y-88991904D01*
X121666927Y-88991904D02*
X121666927Y-89068095D01*
X121666927Y-89068095D02*
X121647880Y-89106190D01*
X121647880Y-89106190D02*
X121609784Y-89144285D01*
X121609784Y-89144285D02*
X121533594Y-89163333D01*
X121533594Y-89163333D02*
X121400260Y-89163333D01*
X121400260Y-89163333D02*
X121324070Y-89144285D01*
X121324070Y-89144285D02*
X121285975Y-89106190D01*
X121285975Y-89106190D02*
X121266927Y-89068095D01*
X121266927Y-88725237D02*
X121590737Y-88725237D01*
X121590737Y-88725237D02*
X121628832Y-88706190D01*
X121628832Y-88706190D02*
X121647880Y-88687142D01*
X121647880Y-88687142D02*
X121666927Y-88649047D01*
X121666927Y-88649047D02*
X121666927Y-88572856D01*
X121666927Y-88572856D02*
X121647880Y-88534761D01*
X121647880Y-88534761D02*
X121628832Y-88515714D01*
X121628832Y-88515714D02*
X121590737Y-88496666D01*
X121590737Y-88496666D02*
X121266927Y-88496666D01*
X121266927Y-88363332D02*
X121266927Y-88134761D01*
X121666927Y-88249047D02*
X121266927Y-88249047D01*
D12*
X112367419Y-97800237D02*
X111367419Y-97800237D01*
X112367419Y-97228809D02*
X111795990Y-97657380D01*
X111367419Y-97228809D02*
X111938847Y-97800237D01*
X111843609Y-96800237D02*
X111843609Y-96466904D01*
X112367419Y-96324047D02*
X112367419Y-96800237D01*
X112367419Y-96800237D02*
X111367419Y-96800237D01*
X111367419Y-96800237D02*
X111367419Y-96324047D01*
X111843609Y-95895475D02*
X111843609Y-95562142D01*
X112367419Y-95419285D02*
X112367419Y-95895475D01*
X112367419Y-95895475D02*
X111367419Y-95895475D01*
X111367419Y-95895475D02*
X111367419Y-95419285D01*
X112367419Y-94990713D02*
X111367419Y-94990713D01*
X111367419Y-94990713D02*
X111367419Y-94609761D01*
X111367419Y-94609761D02*
X111415038Y-94514523D01*
X111415038Y-94514523D02*
X111462657Y-94466904D01*
X111462657Y-94466904D02*
X111557895Y-94419285D01*
X111557895Y-94419285D02*
X111700752Y-94419285D01*
X111700752Y-94419285D02*
X111795990Y-94466904D01*
X111795990Y-94466904D02*
X111843609Y-94514523D01*
X111843609Y-94514523D02*
X111891228Y-94609761D01*
X111891228Y-94609761D02*
X111891228Y-94990713D01*
X111367419Y-93800237D02*
X111367419Y-93609761D01*
X111367419Y-93609761D02*
X111415038Y-93514523D01*
X111415038Y-93514523D02*
X111510276Y-93419285D01*
X111510276Y-93419285D02*
X111700752Y-93371666D01*
X111700752Y-93371666D02*
X112034085Y-93371666D01*
X112034085Y-93371666D02*
X112224561Y-93419285D01*
X112224561Y-93419285D02*
X112319800Y-93514523D01*
X112319800Y-93514523D02*
X112367419Y-93609761D01*
X112367419Y-93609761D02*
X112367419Y-93800237D01*
X112367419Y-93800237D02*
X112319800Y-93895475D01*
X112319800Y-93895475D02*
X112224561Y-93990713D01*
X112224561Y-93990713D02*
X112034085Y-94038332D01*
X112034085Y-94038332D02*
X111700752Y-94038332D01*
X111700752Y-94038332D02*
X111510276Y-93990713D01*
X111510276Y-93990713D02*
X111415038Y-93895475D01*
X111415038Y-93895475D02*
X111367419Y-93800237D01*
X111367419Y-92943094D02*
X112176942Y-92943094D01*
X112176942Y-92943094D02*
X112272180Y-92895475D01*
X112272180Y-92895475D02*
X112319800Y-92847856D01*
X112319800Y-92847856D02*
X112367419Y-92752618D01*
X112367419Y-92752618D02*
X112367419Y-92562142D01*
X112367419Y-92562142D02*
X112319800Y-92466904D01*
X112319800Y-92466904D02*
X112272180Y-92419285D01*
X112272180Y-92419285D02*
X112176942Y-92371666D01*
X112176942Y-92371666D02*
X111367419Y-92371666D01*
X111367419Y-92038332D02*
X111367419Y-91466904D01*
X112367419Y-91752618D02*
X111367419Y-91752618D01*
D13*
%TO.C,H4*%
X122450000Y-141500000D02*
G75*
G03*
X122450000Y-141500000I-2850000J0D01*
G01*
%TO.C,H3*%
X122450000Y-50000000D02*
G75*
G03*
X122450000Y-50000000I-2850000J0D01*
G01*
%TO.C,H2*%
X30650000Y-141500000D02*
G75*
G03*
X30650000Y-141500000I-2850000J0D01*
G01*
%TO.C,H1*%
X30650000Y-49900000D02*
G75*
G03*
X30650000Y-49900000I-2850000J0D01*
G01*
%TD*%
M02*
