M48
; DRILL file {KiCad 7.0.6} date Sat Apr 20 19:15:45 2024
; FORMAT={-:-/ absolute / inch / decimal}
; #@! TF.CreationDate,2024-04-20T19:15:45+09:00
; #@! TF.GenerationSoftware,Kicad,Pcbnew,7.0.6
; #@! TF.FileFunction,Plated,1,2,PTH
FMAT,2
INCH
; #@! TA.AperFunction,Plated,PTH,ViaDrill
T1C0.0157
; #@! TA.AperFunction,Plated,PTH,ComponentDrill
T2C0.0197
; #@! TA.AperFunction,Plated,PTH,ComponentDrill
T3C0.0276
; #@! TA.AperFunction,Plated,PTH,ComponentDrill
T4C0.0394
; #@! TA.AperFunction,Plated,PTH,ComponentDrill
T5C0.0433
; #@! TA.AperFunction,Plated,PTH,ComponentDrill
T6C0.0472
; #@! TA.AperFunction,Plated,PTH,ComponentDrill
T7C0.0591
%
G90
G05
T1
X0.9724Y-4.4646
X1.0394Y-5.3189
X1.0433Y-4.4252
X1.0551Y-4.1535
X1.1181Y-4.6063
X1.122Y-4.2638
X1.122Y-4.4291
X1.122Y-5.2913
X1.1457Y-4.1142
X1.1705Y-4.9633
X1.1748Y-4.9175
X1.2047Y-5.1496
X1.2087Y-3.3898
X1.2087Y-5.2323
X1.2126Y-3.2598
X1.2126Y-4.1732
X1.2362Y-4.7402
X1.2756Y-4.9961
X1.311Y-4.811
X1.315Y-5.3346
X1.315Y-5.4173
X1.3165Y-4.5122
X1.3268Y-4.689
X1.3269Y-4.4138
X1.3425Y-2.937
X1.3468Y-4.8636
X1.3504Y-3.6378
X1.3504Y-3.8386
X1.3504Y-3.9291
X1.3819Y-2.8661
X1.4016Y-4.9961
X1.4252Y-4.6654
X1.437Y-5.3189
X1.4437Y-3.7693
X1.4449Y-4.7402
X1.4449Y-5.1496
X1.4724Y-3.626
X1.5051Y-4.6747
X1.5167Y-5.2165
X1.5197Y-5.1535
X1.5276Y-4.0118
X1.5315Y-3.9252
X1.5382Y-3.8125
X1.5433Y-3.3858
X1.5465Y-4.1791
X1.5615Y-4.2613
X1.563Y-5.3898
X1.5669Y-4.7293
X1.5863Y-4.5585
X1.5866Y-4.6181
X1.5984Y-4.8465
X1.5984Y-5.2362
X1.6225Y-4.7689
X1.626Y-3.3504
X1.6299Y-5.4213
X1.6473Y-4.2249
X1.6552Y-3.8554
X1.6654Y-3.2598
X1.6654Y-4.8031
X1.6732Y-4.5827
X1.6969Y-3.3386
X1.6969Y-5.2362
X1.7052Y-4.2672
X1.7165Y-4.4606
X1.7165Y-4.6457
X1.7205Y-4.1535
X1.7244Y-4.3504
X1.7362Y-5.0984
X1.7441Y-4.8031
X1.7441Y-4.8858
X1.752Y-3.2283
X1.752Y-3.6181
X1.7559Y-4.2205
X1.7598Y-5.5709
X1.7814Y-4.4266
X1.7913Y-4.2795
X1.7953Y-5.252
X1.7992Y-4.5591
X1.8189Y-4.9291
X1.8189Y-5.0945
X1.8307Y-4.8071
X1.8346Y-4.3701
X1.8386Y-3.5748
X1.8425Y-4.6378
X1.874Y-5.4606
X1.8858Y-5.5787
X1.8976Y-4.1417
X1.8976Y-4.2835
X1.9291Y-4.5669
X1.9449Y-3.7992
X1.9528Y-5.5039
X1.9567Y-5.1063
X1.9567Y-5.2874
X1.9685Y-4.2165
X2.0039Y-3.7205
X2.0039Y-4.3543
X2.0276Y-4.6339
X2.0276Y-5.1299
X2.0551Y-4.7992
X2.0551Y-4.8937
X2.0591Y-4.5551
X2.0706Y-3.7102
X2.0787Y-3.5354
X2.0932Y-4.5756
X2.0945Y-3.6181
X2.0984Y-3.9409
X2.1142Y-5.0906
X2.1181Y-4.3661
X2.126Y-4.6024
X2.1732Y-4.0118
X2.2134Y-4.287
X2.2402Y-5.3386
X2.252Y-4.3543
X2.2548Y-4.5684
X2.2562Y-4.9352
X2.2598Y-5.0
X2.3258Y-4.8077
X2.3268Y-4.4252
X2.3307Y-5.2913
X2.3433Y-5.0301
X2.3761Y-4.3484
X2.3937Y-4.815
X2.3976Y-4.248
X2.4094Y-4.6024
X2.4094Y-5.0079
X2.4094Y-5.4882
X2.4134Y-5.311
X2.4213Y-3.8504
X2.4476Y-4.5265
X2.4567Y-3.5394
X2.457Y-4.2411
X2.4646Y-4.815
X2.4803Y-5.5236
X2.4882Y-3.7992
X2.4921Y-4.9213
X2.4921Y-5.1102
X2.5094Y-4.731
X2.5197Y-5.3583
X2.5334Y-4.1095
X2.5341Y-4.8077
X2.5591Y-3.8031
X2.563Y-3.9449
X2.563Y-5.5236
X2.5669Y-4.9055
X2.5669Y-5.2756
X2.5709Y-3.4331
X2.5786Y-3.9874
X2.5787Y-5.4134
X2.5984Y-4.7992
X2.6078Y-4.2664
X2.6181Y-3.689
X2.626Y-3.8425
X2.6299Y-4.5276
X2.6299Y-5.5906
X2.6344Y-4.0552
X2.6356Y-4.4093
X2.6457Y-5.0787
X2.6526Y-4.6458
X2.6526Y-4.9157
X2.6535Y-3.9488
X2.6706Y-4.2177
X2.679Y-4.0679
X2.6811Y-4.5236
X2.685Y-4.4764
X2.6877Y-3.8609
X2.689Y-5.1496
X2.6929Y-5.6378
X2.7297Y-4.4584
X2.7353Y-4.304
X2.7445Y-3.9911
X2.7511Y-4.831
X2.752Y-5.1339
X2.7521Y-4.1934
X2.7538Y-4.0504
X2.7559Y-4.9961
X2.7598Y-4.8819
X2.7622Y-4.5231
X2.7638Y-3.8268
X2.7662Y-5.2209
X2.7757Y-4.312
X2.7785Y-4.3804
X2.7965Y-4.2549
X2.8062Y-4.4157
X2.8091Y-3.7186
X2.8124Y-4.7973
X2.8172Y-4.6465
X2.8222Y-4.3402
X2.8346Y-5.0787
X2.8424Y-4.823
X2.8425Y-5.0
X2.8465Y-5.185
X2.8465Y-5.2598
X2.874Y-3.6811
X2.8813Y-4.1987
X2.8819Y-3.6063
X2.8819Y-4.4291
X2.8904Y-4.2565
X2.8925Y-4.6439
X2.8937Y-5.185
X2.8969Y-4.4732
X2.9055Y-3.8583
X2.9173Y-3.0669
X2.9173Y-3.9606
X2.9173Y-5.315
X2.9213Y-3.4409
X2.9291Y-4.0866
X2.937Y-3.5236
X2.937Y-4.7795
X2.9595Y-4.9617
X2.9606Y-5.0906
X2.9724Y-4.0827
X2.9724Y-5.3819
X2.9921Y-3.6181
X3.0197Y-3.2008
X3.0355Y-4.2535
X3.0394Y-2.5906
X3.0443Y-4.3971
X3.0512Y-3.4213
X3.0532Y-4.9426
X3.0551Y-4.9961
X3.0787Y-4.7795
X3.0866Y-4.6732
X3.0906Y-3.878
X3.0913Y-4.6132
X3.0938Y-3.6506
X3.0941Y-4.2541
X3.0984Y-5.0354
X3.1024Y-4.9528
X3.1299Y-2.6457
X3.1339Y-3.4134
X3.1393Y-4.1101
X3.14Y-2.9179
X3.1654Y-4.248
X3.1693Y-3.8189
X3.1725Y-4.6143
X3.1732Y-4.0748
X3.185Y-4.9528
X3.2126Y-3.622
X3.252Y-4.9882
X3.2559Y-4.9488
X3.2598Y-4.7126
X3.2598Y-5.1693
X3.2638Y-4.2402
X3.2638Y-4.622
X3.2677Y-4.0315
X3.2717Y-4.1772
X3.2795Y-5.2559
X3.2975Y-4.2779
X3.311Y-3.9409
X3.315Y-4.0787
X3.3471Y-3.8305
X3.3526Y-4.3804
X3.3603Y-4.5013
X3.3622Y-4.5984
X3.3701Y-4.7913
X3.374Y-4.9528
X3.378Y-5.2677
X3.3976Y-4.1457
X3.4055Y-3.9055
X3.406Y-3.6973
X3.4213Y-2.3898
X3.4213Y-4.0039
X3.4252Y-2.5669
X3.4331Y-3.1614
X3.4528Y-3.626
X3.4646Y-4.4685
X3.4724Y-4.6024
X3.4803Y-2.7047
X3.4843Y-3.5512
X3.5039Y-4.4055
X3.5354Y-3.0709
X3.5394Y-3.4921
X3.5472Y-4.5591
X3.5906Y-3.2402
X3.5962Y-4.6662
X3.5984Y-3.4173
X3.6496Y-2.3898
X3.6693Y-4.1496
X3.6772Y-2.5
X3.6969Y-4.2165
X3.7205Y-4.7874
X3.7205Y-4.9528
X3.748Y-3.9016
X3.748Y-4.5591
X3.8071Y-3.7047
X3.8189Y-3.622
X3.8386Y-3.4094
X3.8386Y-3.4882
X3.8536Y-3.9493
X3.8587Y-3.7414
X3.8661Y-4.3307
X3.8928Y-4.0161
X3.8952Y-3.6628
X3.9016Y-4.5315
X3.9453Y-3.5376
X3.9606Y-4.9528
X3.9646Y-2.1457
X3.9646Y-4.1102
X3.9646Y-4.3346
X3.9646Y-5.3268
X3.9685Y-5.248
X3.9685Y-5.2835
X3.9764Y-5.4882
X3.9764Y-5.5236
X3.9764Y-5.5591
X3.9764Y-5.5945
X3.9803Y-2.0197
X3.9843Y-5.2126
X3.9882Y-2.9016
X3.9921Y-5.3583
X4.0Y-4.9488
X4.0Y-5.4606
X4.0039Y-5.6181
X4.0047Y-4.4156
X4.0118Y-2.811
X4.0197Y-4.8819
X4.0236Y-5.5315
X4.0276Y-5.0315
X4.0276Y-5.0709
X4.0276Y-5.1102
X4.0276Y-5.1457
X4.0276Y-5.1811
X4.0276Y-5.2165
X4.0315Y-4.5197
X4.0315Y-4.9882
X4.0315Y-5.3661
X4.0315Y-5.4016
X4.0315Y-5.437
X4.0315Y-5.4724
X4.0354Y-4.6772
X4.0394Y-5.6378
X4.0433Y-4.1063
X4.0512Y-4.3346
X4.0551Y-2.9764
X4.0551Y-4.8819
X4.0669Y-4.7874
X4.0827Y-5.6378
X4.0906Y-4.8819
X4.0965Y-2.8155
X4.0984Y-4.0354
X4.122Y-5.6378
X4.1299Y-4.5079
X4.1299Y-5.1102
X4.1299Y-5.2126
X4.1299Y-5.252
X4.1299Y-5.2874
X4.1299Y-5.3228
X4.1299Y-5.3622
X4.1299Y-5.3976
X4.1299Y-5.4331
X4.1299Y-5.4685
X4.1339Y-4.9921
X4.1339Y-5.0315
X4.1339Y-5.0709
X4.1378Y-5.5315
X4.1417Y-4.874
X4.1614Y-5.6102
X4.1693Y-4.1181
X4.1693Y-5.0236
X4.1693Y-5.2087
X4.1732Y-5.4646
X4.1811Y-3.2205
X4.189Y-2.6929
X4.189Y-5.5394
X4.189Y-5.5787
X4.1929Y-5.5
X4.1969Y-4.6693
X4.2362Y-4.1181
X4.2401Y-3.724
X4.2559Y-4.0039
X4.2677Y-2.626
X4.2795Y-4.5039
X4.2913Y-3.9252
X4.2953Y-2.7441
X4.3071Y-3.252
X4.3071Y-4.189
X4.3307Y-3.7087
X4.3425Y-4.6772
X4.3701Y-4.2559
X4.3898Y-4.3976
X4.4606Y-2.4291
X4.4724Y-4.4882
X4.4803Y-2.5315
X4.4961Y-3.6024
X4.5039Y-4.4134
X4.5079Y-3.6969
X4.5079Y-4.3031
X4.5118Y-4.1142
X4.5437Y-3.9775
X4.6732Y-3.2205
X4.752Y-3.2244
T2
X2.3264Y-3.6509
X2.3264Y-3.7257
X2.5213Y-3.6509
X2.5213Y-3.7257
T3
X4.0118Y-2.137
X4.0118Y-2.187
X4.0118Y-2.237
X4.0118Y-2.287
X4.0118Y-2.337
X4.0118Y-2.387
X4.0118Y-2.437
X4.0118Y-2.487
X4.0118Y-2.537
X4.0118Y-2.587
X4.0118Y-2.637
X4.0118Y-2.687
X4.0118Y-2.737
X4.7618Y-2.137
X4.7618Y-2.187
X4.7618Y-2.237
X4.7618Y-2.287
X4.7618Y-2.337
X4.7618Y-2.387
X4.7618Y-2.437
X4.7618Y-2.487
X4.7618Y-2.537
X4.7618Y-2.587
X4.7618Y-2.637
X4.7618Y-2.687
X4.7618Y-2.737
T4
X1.0567Y-3.8497
X1.0567Y-3.9497
X1.0567Y-4.0497
X1.0669Y-2.8961
X1.0669Y-2.9961
X1.0669Y-3.0961
X1.0669Y-3.1961
X1.0669Y-3.2961
X1.0669Y-3.3961
X1.2969Y-5.6575
X1.324Y-5.512
X1.3969Y-5.6575
X1.424Y-5.512
X1.4969Y-5.6575
X1.5969Y-5.6575
X1.6969Y-5.6575
X1.7969Y-5.6575
X1.935Y-5.4055
X2.035Y-5.4055
X2.037Y-5.6575
X2.135Y-5.4055
X2.137Y-5.6575
X2.235Y-5.4055
X2.237Y-5.6575
X2.335Y-5.4055
X2.337Y-5.6575
X2.435Y-5.4055
X2.437Y-5.6575
X2.537Y-5.6575
X3.0744Y-5.1083
X3.0744Y-5.2083
X3.0744Y-5.3083
X3.0744Y-5.4083
X3.0744Y-5.5083
X3.0744Y-5.6083
X3.765Y-1.92
X3.765Y-2.02
X4.7677Y-4.3472
X4.7677Y-4.4472
X4.7677Y-4.5472
T5
X1.132Y-5.196
X1.132Y-5.3732
X1.225Y-3.81
X1.225Y-3.9
X1.225Y-3.99
X1.2914Y-4.2845
X1.3879Y-5.196
X1.3879Y-5.3732
X1.3914Y-4.2845
X1.4914Y-4.2845
T6
X3.5669Y-2.2953
X3.5669Y-2.4453
X3.5669Y-2.5953
X3.5669Y-2.7453
X3.8669Y-2.2953
X3.8669Y-2.4453
X3.8669Y-2.5953
X3.8669Y-2.7453
T7
X1.5459Y-1.9523
X1.5459Y-3.4878
X2.3211Y-1.9522
X2.3211Y-3.4877
X3.0889Y-1.9523
X3.0889Y-3.4878
T0
M30
